<?xml version="1.0" encoding="utf-8"?>
<!-- Generator: Adobe Illustrator 24.0.1, SVG Export Plug-In . SVG Version: 6.00 Build 0)  -->
<svg version="1.1" xmlns="http://www.w3.org/2000/svg" xmlns:xlink="http://www.w3.org/1999/xlink" x="0px" y="0px"
	 viewBox="0 0 1138 1059.7" style="enable-background:new 0 0 1138 1059.7;" xml:space="preserve">
<style type="text/css">
	.st0{fill:none;stroke:#5AB8FD;stroke-width:3;stroke-miterlimit:10;}
	.st1{fill:#EBEBFF;}
	.st2{fill:#EB8175;}
	.st3{fill:#231C61;}
	.st4{fill:#5AB8FD;}
	.st5{fill:#14103D;}
	.st6{fill:#0073C3;}
	.st7{fill:#0097FA;}
	.st8{fill:#186E93;}
	.st9{fill:#58B9F4;}
</style>
<g id="background">
</g>
<g id="button">
</g>
<g id="caracter">
	<g>
		<path class="st0" d="M1017.7,84.4c-6.6,3.3-9.3-2-15.9,1.3c-6.6,3.3-3.9,8.7-10.5,12c-6.6,3.4-9.3-2-15.9,1.3
			c-6.6,3.3-3.9,8.7-10.5,12c-6.6,3.4-9.3-2-15.9,1.4c-6.6,3.4-3.9,8.7-10.5,12.1"/>
		<path class="st0" d="M1025,98.8c-6.6,3.3-9.3-2-15.9,1.3c-6.6,3.3-3.9,8.7-10.5,12c-6.6,3.4-9.3-2-15.9,1.3
			c-6.6,3.3-3.9,8.7-10.5,12c-6.6,3.4-9.3-2-15.9,1.4c-6.6,3.4-3.9,8.7-10.5,12.1"/>
		<path class="st0" d="M1033.4,115.3c-6.6,3.3-9.3-2-15.9,1.3c-6.6,3.3-3.9,8.7-10.5,12c-6.6,3.4-9.3-2-15.9,1.3
			c-6.6,3.3-3.9,8.7-10.5,12c-6.6,3.4-9.3-2-15.9,1.4c-6.6,3.4-3.9,8.7-10.5,12.1"/>
		<path class="st0" d="M1041.6,131.4c-6.6,3.3-9.3-2-15.9,1.3c-6.6,3.3-3.9,8.7-10.5,12c-6.6,3.4-9.3-2-15.9,1.3
			c-6.6,3.3-3.9,8.7-10.5,12c-6.6,3.4-9.3-2-15.9,1.4c-6.6,3.4-3.9,8.7-10.5,12.1"/>
		<circle class="st1" cx="498.1" cy="581" r="408.7"/>
		<path class="st2" d="M433.5,399.2c0,0,16.5-60.1-4.9-150.7c-7.3-76.5-17.3-117.5,45.2-132c56.1-3.5,77.2,22,79.9,37.3
			c2.7,15.3,2.7,15.3,2.7,15.3s2.1,74.3,3.1,76.5c1,2.2,5.1,34.8,5.1,34.8s3.8,25.7,0,33.8c-3.8,8.1-9.6,18.7-14.3,21.4
			c-4.7,2.8-10.8,6.9-10.8,6.9s8.3,28.8,10.4,42.7C551.5,397.1,505.5,451.9,433.5,399.2z"/>
		<path class="st3" d="M427.7,250.3c0,0,12.7-0.2,14.1-0.7c1.5-0.5-12.1-24.1-3.4-25.8c8.7-1.7,15.1,0.8,15.5,19.5
			s7.6,62.8,16.1,72.3c8.5,9.5,20.7,39.9,67.5,28.5c11-2.7,12.9-6.7,15.9-10.4c15.5-19.2,23.7-13.2,6.3-80.9
			c-3.4-3.1-29.5-21.6-56.9,21.6c-10.3,11.4-31.1,14.7-33.9-5c-2.8-19.7-8.1-63.7-8.1-63.7s10.7-34.1-1-42.9
			c-11.7-8.8-34.9-10.2-34.9-10.2s-3.1,10.2-1.5,43.4C424.2,209.8,425.3,227.7,427.7,250.3z"/>
		<path class="st4" d="M474.3,643.6c-12.6,8-86,58.5,14.9,114.6c0,0-14.9,24.1-280.9,66.5c-24.1,2.3-94-21.8-78-96.3
			C166,670,275.3,472.3,299.4,464.3c24.1-8,111.9,58.9,102.8,77.3c-9.2,18.3-67.6,111.2-67.6,111.2S403.1,623.8,474.3,643.6z"/>
		<path class="st4" d="M290,932.9c18.1,10.9,40.9,22.6,68.2,32.6c34.4,12.5,65.6,18.5,90.3,21.3c-9.1-184.2-18.2-368.4-27.3-552.6
			l-0.2-4.3c0,0-7.8-13-6.9-25.9c0.9-13-1.7-22.4-1.7-22.4s-113.1,77.7-115.7,82C294,467.7,295.1,922.5,290,932.9z"/>
		<path class="st5" d="M436.4,397c0,0,1,19.9,63.1,56.9c43.9-27.9,51.8-53.7,51.8-53.7l8.5-28.5c0,0-1.2,26.2-0.6,109.7
			c0.6,83.6-2.5,504.1-2.5,504.1c-12.9,1.9-33.1,4.1-59.9,4.2c-17.7,0-22.8-0.1-43.4-2.7c-7.2-196.2-13.6-399.9-20.8-596.2
			L436.4,397z"/>
		<polygon class="st6" points="444.3,436.6 421.2,434.1 448.5,986.7 469.3,988.7 		"/>
		<path class="st2" d="M438.1,402.4c-5-9.3-15.7-26.8-8.8-29.4c4.4-1.6,125.7-2.9,127.7-2.2c1.4,3.5,5.7,7.9-11.8,42.2
			c-8,15.7-45.3,40.8-45.3,40.8S451.3,427.2,438.1,402.4z"/>
		<path class="st7" d="M429.3,372.9l14.9,63.7c0,0-18.7,1.2-23.1-2.6c-6.6-5.6-11.7-36.2-8.8-52.7
			C413.7,373.6,429.3,372.9,429.3,372.9z"/>
		<path class="st4" d="M697.4,937.9c-20.7,11.7-47.8,24.5-80.9,34.5c-29.5,8.9-56.2,13.3-78.1,15.4c9.1-185.3,18.3-370.5,27.4-555.8
			l0.2-4.3c0,0,7.8-13,6.9-25.9c-0.9-13,1.7-22.4,1.7-22.4s113.1,77.7,115.7,82C693.1,465.6,692.3,927.5,697.4,937.9z"/>
		<path class="st6" d="M542.8,434.5l23.1-2.6l-27.4,555.8c-3.9,0.4-8,0.7-12.1,1c-3,0.2-5.9,0.4-8.7,0.5
			C526.1,804.3,534.4,619.4,542.8,434.5z"/>
		<path class="st7" d="M556.9,370.8l-14.1,63.8c0,0,18.7,1.2,23.1-2.6c6.6-5.6,11.7-36.2,8.8-52.7
			C573.4,371.5,556.9,370.8,556.9,370.8z"/>
		<path class="st6" d="M292.5,810.7c0,0,25-34.4,76-40.1c51-5.7,76-5.7,76-5.7l-4.6,25.2L292.5,810.7z"/>
		<polygon class="st8" points="329.5,656.5 431.6,645 430.5,623.3 363.9,626 402.1,545.7 396.7,545 		"/>
		<path class="st4" d="M473.5,651.8c-12.6,8-88.9,41.8,12,98c0,0-12.7,32.5-278.6,74.9c-24.1,2.3-94-21.8-78-96.3
			c35.5-58.5,144.9-256.1,168.9-264.1c24.1-8,111.9,58.9,102.8,77.3c-9.2,18.3-67.6,111.2-67.6,111.2S402.2,631.9,473.5,651.8z"/>
		<path class="st6" d="M396.8,643.1c-2.6,2-6,4.9-9.4,8.9c0,0-5.2,6.8-9.5,15.4c-27.2,54.4,14.4,115.8,17,119.6
			c4.8-1.3,9.7-2.7,14.7-4.1c3.5-1,6.9-2,10.3-3c-0.2-0.3-0.3-0.5-0.5-0.8c-4.1-4.7-31.9-37.8-24.3-83.5
			c1.7-10.6,4.2-24.1,14.9-35.3c8.5-9,18.4-16,18.4-16s-3.2-1-16.9-0.9C405.6,643.2,399.9,643.1,396.8,643.1z"/>
		<ellipse class="st2" cx="507.2" cy="676" rx="45.7" ry="20"/>
		<path class="st3" d="M580.9,104.2c-0.9,2.8-2.9,7.5-7.4,11c-23.7,18.7-73.9-32.1-110.3-17c-10.1,4.2-25.6,13.1-33.8,44.9
			c-4.2,3.2-10.2,12.6-14.3,25c-8.3,24.9,8.5,46.7,10,48.6c4.3-0.9,14.9-3.7,23.8-13.1c13.2-13.9,12.6-31.4,12.4-34.6
			c16.1,6.2,42.3,12.9,71.1,5.4c28.8-7.5,50.6-26.7,50-27.8c-0.2-0.4-3.3,1.2-6.8-0.2c-0.7-0.3-1.7-0.8-3.4-1.6l0,0l0,0
			c2-1.5,9.6-7.7,11.9-19C586.4,114.9,582.1,106.4,580.9,104.2z"/>
		<path class="st2" d="M546.6,690.1c-0.7,18.4,1.9,37.4-25.2,53.4c-16.1,9.5-38.8,6.5-45.6,4.6c-22.9-6.4-42.9-26.3-42.9-45.2
			c0-24.4,19.2-52,49.2-52C512.3,650.9,547.5,665.7,546.6,690.1z"/>
		<path class="st2" d="M751.8,374.6c-14.8,0-30,2.7-43.7-18.6c-8.1-12.7-6.4-31-5.1-36.5c4.4-18.6,19.9-35.2,35-35.8
			c19.6-0.7,42.4,13.8,43.3,38C782.2,345.8,771.4,374.5,751.8,374.6z"/>
		<g>
			<path class="st4" d="M714.1,207.9c50.8-45.1,96.5-86.6,143.6-130.7l67.7,177.2c-64.5,8.3-118.8,15.1-183.3,23.4
				c-36.5,6.2-63.8,3.5-68.1-14C669.5,245.9,685.5,233.1,714.1,207.9z"/>
			
				<ellipse transform="matrix(0.9342 -0.3568 0.3568 0.9342 -0.49 328.9679)" class="st6" cx="891.5" cy="165.8" rx="26.8" ry="94.8"/>
			<path class="st6" d="M722.1,280l25.2-3.1l-28.3-73.4c-4.1,3.6-8.3,7.3-12.4,11c-2.4,2.1-4.8,4.3-7.2,6.4
				C711.5,252.6,710,248.2,722.1,280z"/>
			<path class="st8" d="M747.3,276.8c0,0,11.4,30.1,26,45.5c-15.1,5.2-21.7,7.4-21.7,7.4S728,305.1,722.1,280
				C732.1,278.5,747.3,276.8,747.3,276.8z"/>
		</g>
		<path class="st2" d="M709.4,358.1c-2.6-3.7-10.6-16.4-9-33.7c0.4-4.4,1.8-16.9,11.5-27c13.5-14.1,36.2-16.2,38.1-12.4
			c0.5,1-0.3,2.4-1.3,3.6c-1,1.3-2.7,3.4-5.1,5.7c-6.7,6.5-10.1,6.3-11.9,8.9c-6.1,8.8,41.8,50,37.3,67.3
			c-2.2,8.4-27.9,9.7-37.5,10.3C722.6,381.4,711.3,359.7,709.4,358.1z"/>
		<path class="st9" d="M692.2,667.1c0,0,94.8,77.3,179.7,42.4c155.3-63.8-70.9-350.3-90.9-378.1c-1.5,0.8-64.6,16-73.3,23.5
			c-6.7,5.8,68.4,191.8,55.3,180c-41.5-37.2-73-74.1-73-74.1L692.2,667.1z"/>
	</g>
</g>
<g id="text_2">
</g>
<g id="text_1">
</g>
</svg>
