<svg height="512pt" viewBox="0 0 512 512" width="512pt" xmlns="http://www.w3.org/2000/svg" xmlns:xlink="http://www.w3.org/1999/xlink"><linearGradient id="a" gradientUnits="userSpaceOnUse" x1="0" x2="512" y1="256" y2="256"><stop offset="0" stop-color="#00f1ff"/><stop offset=".231" stop-color="#00d8ff"/><stop offset=".5138" stop-color="#00c0ff"/><stop offset=".7773" stop-color="#00b2ff"/><stop offset="1" stop-color="#00adff"/></linearGradient><path d="m512 256c0 141.386719-114.613281 256-256 256s-256-114.613281-256-256 114.613281-256 256-256 256 114.613281 256 256zm0 0" fill="url(#a)"/><g fill="#fff"><path d="m384.039062 318.890625c8.28125 0 15-6.714844 15-15v-142.074219c0-31.425781-25.566406-56.992187-56.992187-56.992187h-43.089844v-19.992188c0-8.285156-6.71875-15-15-15h-55.988281c-8.285156 0-15 6.714844-15 15v19.992188h-43.015625c-31.425781 0-56.988281 25.566406-56.988281 56.992187v211.359375c0 31.425781 25.5625 56.992188 56.988281 56.992188h172.09375c31.425781 0 56.992187-25.566407 56.992187-56.992188 0-8.28125-6.71875-15-15-15-8.285156 0-15 6.71875-15 15 0 14.886719-12.109374 26.992188-26.992187 26.992188h-172.09375c-14.882813 0-26.988281-12.105469-26.988281-26.992188v-211.359375c0-14.882812 12.105468-26.992187 26.988281-26.992187h43.015625v5.996093c0 23.707032 19.285156 42.996094 42.992188 42.996094 23.707031 0 42.996093-19.289062 42.996093-42.996094v-5.996093h43.089844c14.882813 0 26.992187 12.109375 26.992187 26.992187v142.074219c0 8.285156 6.714844 15 15 15zm-115.082031-178.070313c0 7.164063-5.828125 12.996094-12.996093 12.996094-7.164063 0-12.992188-5.832031-12.992188-12.996094v-40.988281h25.988281zm0 0"/><path d="m310.828125 233.085938-61.894531 89.179687c-1.636719 1.828125-3.648438 2.226563-4.738282 2.300781-1.128906.074219-3.292968-.066406-5.207031-1.839844l-36.867187-36.460937c-5.890625-5.828125-15.390625-5.773437-21.210938.117187-5.824218 5.890626-5.773437 15.386719.117188 21.210938l36.992187 36.589844c.070313.070312.136719.136718.207031.199218 6.882813 6.554688 16.070313 10.199219 25.523438 10.199219.8125 0 1.628906-.027343 2.441406-.082031 10.296875-.6875 19.910156-5.691406 26.375-13.738281.21875-.273438.429688-.554688.628906-.84375l62.277344-89.726563c4.722656-6.804687 3.035156-16.152344-3.773437-20.875-6.804688-4.722656-16.148438-3.035156-20.871094 3.769532zm0 0"/></g></svg>