<?xml version="1.0" encoding="utf-8"?>
<!-- Generator: Adobe Illustrator 24.0.0, SVG Export Plug-In . SVG Version: 6.00 Build 0)  -->
<svg version="1.1" id="Icons" xmlns="http://www.w3.org/2000/svg" xmlns:xlink="http://www.w3.org/1999/xlink" x="0px" y="0px"
	 viewBox="0 0 512 512" style="enable-background:new 0 0 512 512;" xml:space="preserve">
<style type="text/css">
	.st0{fill:#B9BFCC;}
	.st1{fill:#CCD0DA;}
	.st2{fill:#263C49;}
	.st3{fill:#F2F2F2;}
	.st4{fill:#359B8C;}
	.st5{fill:#372D2F;}
	.st6{clip-path:url(#SVGID_2_);fill:#FAA91A;}
	.st7{fill:#EF8622;}
	.st8{fill:#FAA91A;}
	.st9{display:none;}
	.st10{display:inline;fill:#43616D;}
	.st11{fill:#E5483C;}
	.st12{fill:#365972;}
</style>
<g>
	<path class="st0" d="M318.4,450.8c0,0-40.6,0-40.6-56.9v-8.1h-81.3v8.1c0,56.9-40.6,56.9-40.6,56.9v8.1h162.5V450.8z"/>
	<path class="st1" d="M472.8,345.2v24.4c0,13.5-10.9,24.4-24.4,24.4H25.9c-13.5,0-24.4-10.9-24.4-24.4v-24.4l8.1-8.1h455
		L472.8,345.2z"/>
	<path class="st2" d="M472.8,44.6v300.6H1.5V44.6c0-13.5,10.9-24.4,24.4-24.4h422.5C461.9,20.2,472.8,31.1,472.8,44.6z"/>
	<path class="st3" d="M440.3,60.8v243.8c0,4.5-3.6,8.1-8.1,8.1h-390c-4.5,0-8.1-3.6-8.1-8.1V60.8c0-4.5,3.6-8.1,8.1-8.1h390
		C436.7,52.7,440.3,56.3,440.3,60.8z"/>
	<path class="st4" d="M39,50.7h396.3c2.8,0,5,1.9,5,4.3v30.3H34V55C34,52.6,36.3,50.7,39,50.7z"/>
	<path class="st1" d="M147.8,450.8h178.8c13.5,0,24.4,10.9,24.4,24.4v8.1c0,4.5-3.6,8.1-8.1,8.1H131.5c-4.5,0-8.1-3.6-8.1-8.1v-8.1
		C123.4,461.8,134.3,450.8,147.8,450.8z"/>
	<g>
		<path class="st5" d="M147.6,205c0,8.4-2.4,15.4-7.4,20.9c-7,7.8-17.9,11.8-32.2,11.8H60.4V123.3h44.2c21.5,0,32.2,10.1,32.2,29.8
			c0,5.9-1.1,10.9-3.5,15c-1.9,3.5-5,6.3-9.1,8.7c9.1,1.9,15.4,5.7,18.7,10.9C146.1,192.6,147.6,198.2,147.6,205z M109.5,156.7
			c0-5.2-2.4-8.7-7-10.3c-1.7-0.6-4-0.9-6.7-0.9h-5.5V168h5.5c5.2,0,8.7-1.3,11.1-3.7C108.7,162.4,109.5,159.7,109.5,156.7z
			 M118,202.8c0-6.7-3.5-10.7-10.3-11.8c-2.1-0.4-5.9-0.4-11.1-0.4h-6.3v24.2h6.5c7.6,0,12.8-0.9,15.8-2.6
			C116.3,210.2,118,207,118,202.8z"/>
		<path class="st5" d="M182.6,137.4c0,4.4-1.5,8-4.6,11.1c-3,3-6.7,4.6-11.1,4.6c-4.4,0-7.8-1.5-10.9-4.6c-3-3-4.6-6.7-4.6-10.9
			c0-4.4,1.5-7.8,4.6-10.9s6.5-4.6,10.9-4.6s8,1.5,10.9,4.6C181.1,129.6,182.6,133.2,182.6,137.4z M180.9,237.4h-27.6v-77.8h27.6
			V237.4z"/>
		<g>
			<g>
				<g>
					<g>
						<g>
							<defs>
								<path id="SVGID_1_" d="M147.6,205c0,8.4-2.4,15.4-7.4,20.9c-7,7.8-17.9,11.8-32.2,11.8H60.4V123.3h44.2
									c21.5,0,32.2,10.1,32.2,29.8c0,5.9-1.1,10.9-3.5,15c-1.9,3.5-5,6.3-9.1,8.7c9.1,1.9,15.4,5.7,18.7,10.9
									C146.1,192.6,147.6,198.2,147.6,205z M109.5,156.7c0-5.2-2.4-8.7-7-10.3c-1.7-0.6-4-0.9-6.7-0.9h-5.5V168h5.5
									c5.2,0,8.7-1.3,11.1-3.7C108.7,162.4,109.5,159.7,109.5,156.7z M118,202.8c0-6.7-3.5-10.7-10.3-11.8
									c-2.1-0.4-5.9-0.4-11.1-0.4h-6.3v24.2h6.5c7.6,0,12.8-0.9,15.8-2.6C116.3,210.2,118,207,118,202.8z"/>
							</defs>
							<clipPath id="SVGID_2_">
								<use xlink:href="#SVGID_1_"  style="overflow:visible;"/>
							</clipPath>
							<polygon class="st6" points="60.4,237.4 124.1,176.7 60.4,123.1 							"/>
						</g>
					</g>
				</g>
			</g>
		</g>
		<g>
			<path class="st5" d="M254.5,225.4c-1.3,3-3.7,5.7-6.7,8c-2.6,1.7-5.7,3-9.1,4c-3.5,0.9-7.6,1.5-12,1.5l-5.7-0.4
				c-0.6,0-1.5-0.2-2.8-0.4s-2.4-0.4-3.5-0.6c-2.1-0.4-4-1.1-5.7-1.9c-1.5-0.9-2.8-1.9-4.2-3v5H188v-26.3h16.8
				c1.7,4.6,4.2,8,7.6,10.7c0.9,0.4,1.7,0.9,2.4,1.3c0.6,0.4,1.7,0.9,3.2,1.3c1.1,0.2,2.1,0.4,3.2,0.4c1.1,0.2,2.1,0.2,3.7,0.2
				c2.1,0,4,0,5.5-0.2s2.6-0.4,3.5-0.9c3.5-1.1,5-3.2,5-6.5c0-3.7-8.4-7.4-25.7-10.7c-17.2-3.3-25.9-10.9-25.9-23.1
				c0-4,0.6-7.6,2.1-10.7c1.5-3.2,3.5-5.9,6.1-8s5.7-3.7,9.3-5c3.5-1.1,7.4-1.7,11.8-1.7c7,0,13.3,1.9,18.7,6.1v-4.4h15.8v24.8
				h-16.8c-0.4-3.7-2.4-6.7-5.7-9.3c-3-1.9-7-3-11.5-3c-1.9,0-3.5,0.2-5,0.4s-2.8,0.6-4,1.3c-2.4,1.1-3.5,3.2-3.5,6.7
				c0,2.6,8.7,5.7,25.9,9.1c17.2,3.5,25.9,11.5,25.9,24.4C256.7,218.9,256,222.6,254.5,225.4z"/>
		</g>
		<g>
			<polygon class="st5" points="268.7,223.7 310.7,173 266.5,124.1 			"/>
			<polygon class="st7" points="268.7,228.1 297.2,193.7 267.2,160.7 			"/>
			<polygon class="st8" points="268.7,235.4 288,211.9 267.6,189.4 			"/>
		</g>
	</g>
</g>
<g class="st9">
	<path class="st10" d="M76.8,281.6c-4.7,0-8.5-3.8-8.5-8.5c0-2.3,0.9-4.4,2.5-6L267,70.8c3.4-3.3,8.8-3.2,12.1,0.2
		c3.2,3.3,3.2,8.5,0,11.9L82.8,279.1C81.2,280.7,79.1,281.6,76.8,281.6z"/>
	<path class="st10" d="M76.8,196.3c-4.7,0-8.5-3.8-8.5-8.5c0-2.3,0.9-4.4,2.5-6l110.9-111c3.4-3.3,8.8-3.2,12.1,0.2
		c3.2,3.3,3.2,8.5,0,11.9l-111,110.9C81.2,195.4,79.1,196.3,76.8,196.3L76.8,196.3z"/>
	<path class="st10" d="M76.8,110.9c-4.7,0-8.5-3.8-8.5-8.5c0-2.3,0.9-4.4,2.5-6l25.6-25.6c3.4-3.3,8.8-3.2,12.1,0.2
		c3.2,3.3,3.2,8.5,0,11.9l-25.6,25.6C81.2,110,79.1,110.9,76.8,110.9z"/>
</g>
<g>
	<path id="Rectangle" class="st11" d="M330.7,170.2h167.5c7.1,0,12.9,5.8,12.9,12.9v219c0,7.1-5.8,12.9-12.9,12.9H330.7
		c-7.1,0-12.9-5.8-12.9-12.9v-219C317.8,176,323.5,170.2,330.7,170.2z"/>
	<path id="Rectangle_1_" class="st3" d="M350,196h128.8c3.6,0,6.4,2.9,6.4,6.4v25.8c0,3.6-2.9,6.4-6.4,6.4H350
		c-3.6,0-6.4-2.9-6.4-6.4v-25.8C343.5,198.9,346.4,196,350,196z"/>
	<path id="Rectangle_2_" class="st12" d="M356.4,260.4h12.9c3.6,0,6.4,2.9,6.4,6.4v12.9c0,3.6-2.9,6.4-6.4,6.4h-12.9
		c-3.6,0-6.4-2.9-6.4-6.4v-12.9C350,263.3,352.9,260.4,356.4,260.4z"/>
	<path id="Rectangle_3_" class="st12" d="M407.9,260.4h12.9c3.6,0,6.4,2.9,6.4,6.4v12.9c0,3.6-2.9,6.4-6.4,6.4h-12.9
		c-3.6,0-6.4-2.9-6.4-6.4v-12.9C401.5,263.3,404.4,260.4,407.9,260.4z"/>
	<path id="Rectangle_4_" class="st12" d="M459.5,260.4h12.9c3.6,0,6.4,2.9,6.4,6.4v12.9c0,3.6-2.9,6.4-6.4,6.4h-12.9
		c-3.6,0-6.4-2.9-6.4-6.4v-12.9C453,263.3,455.9,260.4,459.5,260.4z"/>
	<path id="Rectangle_5_" class="st12" d="M356.4,311.9h12.9c3.6,0,6.4,2.9,6.4,6.4v12.9c0,3.6-2.9,6.4-6.4,6.4h-12.9
		c-3.6,0-6.4-2.9-6.4-6.4v-12.9C350,314.8,352.9,311.9,356.4,311.9z"/>
	<path id="Rectangle_6_" class="st12" d="M407.9,311.9h12.9c3.6,0,6.4,2.9,6.4,6.4v12.9c0,3.6-2.9,6.4-6.4,6.4h-12.9
		c-3.6,0-6.4-2.9-6.4-6.4v-12.9C401.5,314.8,404.4,311.9,407.9,311.9z"/>
	<path id="Rectangle_7_" class="st12" d="M459.5,311.9h12.9c3.6,0,6.4,2.9,6.4,6.4v12.9c0,3.6-2.9,6.4-6.4,6.4h-12.9
		c-3.6,0-6.4-2.9-6.4-6.4v-12.9C453,314.8,455.9,311.9,459.5,311.9z"/>
	<path id="Rectangle_8_" class="st12" d="M356.4,363.4h12.9c3.6,0,6.4,2.9,6.4,6.4v12.9c0,3.6-2.9,6.4-6.4,6.4h-12.9
		c-3.6,0-6.4-2.9-6.4-6.4v-12.9C350,366.3,352.9,363.4,356.4,363.4z"/>
	<path id="Rectangle_9_" class="st12" d="M407.9,363.4h12.9c3.6,0,6.4,2.9,6.4,6.4v12.9c0,3.6-2.9,6.4-6.4,6.4h-12.9
		c-3.6,0-6.4-2.9-6.4-6.4v-12.9C401.5,366.3,404.4,363.4,407.9,363.4z"/>
	<path id="Rectangle_10_" class="st12" d="M459.5,363.4h12.9c3.6,0,6.4,2.9,6.4,6.4v12.9c0,3.6-2.9,6.4-6.4,6.4h-12.9
		c-3.6,0-6.4-2.9-6.4-6.4v-12.9C453,366.3,455.9,363.4,459.5,363.4z"/>
</g>
</svg>
