<?xml version="1.0" encoding="utf-8"?>
<!-- Generator: Adobe Illustrator 23.0.6, SVG Export Plug-In . SVG Version: 6.00 Build 0)  -->
<svg version="1.1" id="Layer_1" xmlns="http://www.w3.org/2000/svg" xmlns:xlink="http://www.w3.org/1999/xlink" x="0px" y="0px"
	 viewBox="0 0 505 505" style="enable-background:new 0 0 505 505;" xml:space="preserve">
<style type="text/css">
	.st0{fill:#FFD05B;}
	.st1{fill:#324A5E;}
	.st2{fill:#FFFFFF;}
	.st3{fill:#E6E9EE;}
	.st4{fill:#FF7058;}
	.st5{fill:#84DBFF;}
	.st6{fill:url(#Path_1_1_);}
	.st7{fill:#5A5B5E;}
</style>
<circle class="st0" cx="252.5" cy="252.5" r="252.5"/>
<path class="st1" d="M379.9,427H125.1c-2.6,0-4.7-2.1-4.7-4.7v-323c0-2.6,2.1-4.7,4.7-4.7H380c2.6,0,4.7,2.1,4.7,4.7v323
	C384.6,424.9,382.5,427,379.9,427z"/>
<polygon class="st2" points="146.4,113.7 146.4,376.5 321.6,376.5 321.6,339.5 358.6,339.5 358.6,113.7 "/>
<polygon class="st3" points="321.6,376.5 358.6,339.5 321.6,339.5 "/>
<path class="st4" d="M273.3,84v-7.3c0-11.5-9.3-20.8-20.8-20.8c-11.5,0-20.8,9.3-20.8,20.8V84H195v42.6h115.1V84H273.3z"/>
<circle class="st0" cx="252.5" cy="76.8" r="10.4"/>
<rect x="175.7" y="180.4" class="st5" width="23.8" height="11"/>
<rect x="214.3" y="180.4" class="st3" width="115" height="11"/>
<rect x="175.7" y="214.7" class="st5" width="23.8" height="11"/>
<rect x="214.3" y="214.7" class="st3" width="115" height="11"/>
<rect x="175.7" y="249" class="st5" width="23.8" height="11"/>
<rect x="214.3" y="249" class="st3" width="115" height="11"/>
<rect x="175.7" y="283.3" class="st5" width="23.8" height="11"/>
<rect x="214.3" y="283.3" class="st3" width="115" height="11"/>
<g>
	<g id="Group_2">
		<g id="Group_1">
			
				<linearGradient id="Path_1_1_" gradientUnits="userSpaceOnUse" x1="178.7997" y1="327.3059" x2="180.248" y2="327.3059" gradientTransform="matrix(43.355 0 0 -46.989 -7519.4199 15603.7061)">
				<stop  offset="0" style="stop-color:#FFB700"/>
				<stop  offset="1" style="stop-color:#F36B10"/>
			</linearGradient>
			<path id="Path_1" class="st6" d="M274.1,189.9c0,0-7.7,22.1-41.7,24.7l62.8,43.4L274.1,189.9z"/>
		</g>
		<path id="Path_2" class="st7" d="M308.8,258h-13.6l-6.2-12.2l-14.9-29.2l-14.9,29.2L253,258h-13.6l6.2-12.2l28.5-55.9l28.5,55.9
			L308.8,258z"/>
	</g>
	<g id="Group_3">
		<path id="Path_3" class="st7" d="M230.9,281.8v-12.2h2.2v12.2H230.9z"/>
		<path id="Path_4" class="st7" d="M250,281.8h-2.4l-1.1-2.2l-2.7-5.2l-2.7,5.2l-1.1,2.2h-2.4l1.1-2.2l5.1-10l5.1,10L250,281.8z"/>
		<path id="Path_5" class="st7" d="M264.5,270.6c0.6,0.6,1,1.5,1,2.3c0,1.3-0.7,2.4-1.9,3c-0.3,0.1-0.6,0.2-0.9,0.3h-0.1v0h-5.8v5.6
			h-2.2v-12.2h7.7C263.1,269.7,263.9,270,264.5,270.6L264.5,270.6z M262.7,274c0.4-0.2,0.7-0.6,0.7-1c0-0.3-0.1-0.6-0.3-0.8
			c-0.2-0.2-0.5-0.3-0.8-0.3h-5.5v2.2h5.5C262.4,274.1,262.5,274,262.7,274L262.7,274z"/>
		<path id="Path_6" class="st7" d="M280.7,270.6c0.6,0.6,1,1.5,1,2.3c0,1.3-0.7,2.4-1.9,3c-0.3,0.1-0.6,0.2-0.9,0.3h-0.1v0h-5.8v5.6
			h-2.2v-12.2h7.7C279.2,269.7,280.1,270,280.7,270.6L280.7,270.6z M278.8,274c0.4-0.2,0.7-0.6,0.7-1c0-0.3-0.1-0.6-0.3-0.8
			c-0.2-0.2-0.5-0.3-0.8-0.3h-5.5v2.2h5.5C278.5,274.1,278.7,274,278.8,274L278.8,274z"/>
		<path id="Path_7" class="st7" d="M296.9,279.7v2.2h-6.2c-0.6,0-1.2-0.1-1.7-0.4c-0.8-0.4-1.4-1-1.8-1.8c-0.3-0.5-0.4-1.1-0.4-1.7
			v-8.3h2.2v8.5c0.1,0.8,0.7,1.4,1.5,1.5L296.9,279.7z"/>
		<path id="Path_8" class="st7" d="M298.2,281.8L298.2,281.8L298.2,281.8L298.2,281.8z M310.4,269.7l-4.7,6.1l-0.3,0.3v5.7h-2.2
			v-5.7l-0.3-0.4l-4.7-6.1h2.7l3.3,4.3l3.3-4.3H310.4z M310.4,281.8L310.4,281.8L310.4,281.8L310.4,281.8z"/>
	</g>
</g>
</svg>
