<?xml version="1.0" encoding="utf-8"?>
<!-- Generator: Adobe Illustrator 23.0.6, SVG Export Plug-In . SVG Version: 6.00 Build 0)  -->
<svg version="1.1" id="Layer_1" xmlns="http://www.w3.org/2000/svg" xmlns:xlink="http://www.w3.org/1999/xlink" x="0px" y="0px"
	 viewBox="0 0 505 505" style="enable-background:new 0 0 505 505;" xml:space="preserve">
<style type="text/css">
	.st0{fill:#FFD05B;}
	.st1{fill:#324A5E;}
	.st2{fill:#FFFFFF;}
	.st3{fill:#E6E9EE;}
	.st4{fill:#FF7058;}
	.st5{fill:#84DBFF;}
	.st6{display:none;}
	.st7{display:inline;}
	.st8{fill:url(#Path_1_1_);}
	.st9{fill:#5A5B5E;}
	.st10{fill:#372D2F;}
	.st11{clip-path:url(#SVGID_2_);fill:#FAA91A;}
	.st12{fill:#EF8622;}
	.st13{fill:#FAA91A;}
</style>
<circle class="st0" cx="252.5" cy="252.5" r="252.5"/>
<path class="st1" d="M379.9,427H125.1c-2.6,0-4.7-2.1-4.7-4.7v-323c0-2.6,2.1-4.7,4.7-4.7H380c2.6,0,4.7,2.1,4.7,4.7v323
	C384.6,424.9,382.5,427,379.9,427z"/>
<polygon class="st2" points="146.4,113.7 146.4,376.5 321.6,376.5 321.6,339.5 358.6,339.5 358.6,113.7 "/>
<polygon class="st3" points="321.6,376.5 358.6,339.5 321.6,339.5 "/>
<path class="st4" d="M273.3,84v-7.3c0-11.5-9.3-20.8-20.8-20.8c-11.5,0-20.8,9.3-20.8,20.8V84H195v42.6h115.1V84H273.3z"/>
<circle class="st0" cx="252.5" cy="76.8" r="10.4"/>
<rect x="175.7" y="180.4" class="st5" width="23.8" height="11"/>
<rect x="214.3" y="180.4" class="st3" width="115" height="11"/>
<rect x="175.7" y="214.7" class="st5" width="23.8" height="11"/>
<rect x="214.3" y="214.7" class="st3" width="115" height="11"/>
<rect x="175.7" y="249" class="st5" width="23.8" height="11"/>
<rect x="214.3" y="249" class="st3" width="115" height="11"/>
<rect x="175.7" y="283.3" class="st5" width="23.8" height="11"/>
<rect x="214.3" y="283.3" class="st3" width="115" height="11"/>
<g class="st6">
	<g id="Group_2" class="st7">
		<g id="Group_1">
			
				<linearGradient id="Path_1_1_" gradientUnits="userSpaceOnUse" x1="175.868" y1="181.7584" x2="177.3165" y2="181.7584" gradientTransform="matrix(43.355 0 0 46.989 -7392.355 -8316.6943)">
				<stop  offset="0" style="stop-color:#FFB700"/>
				<stop  offset="1" style="stop-color:#F36B10"/>
			</linearGradient>
			<path id="Path_1" class="st8" d="M274.1,189.9c0,0-7.7,22.1-41.7,24.7l62.8,43.4L274.1,189.9z"/>
		</g>
		<path id="Path_2" class="st9" d="M308.8,258h-13.6l-6.2-12.2l-14.9-29.2l-14.9,29.2L253,258h-13.6l6.2-12.2l28.5-55.9l28.5,55.9
			L308.8,258z"/>
	</g>
	<g id="Group_3" class="st7">
		<path id="Path_3" class="st9" d="M230.9,281.8v-12.2h2.2v12.2H230.9z"/>
		<path id="Path_4" class="st9" d="M250,281.8h-2.4l-1.1-2.2l-2.7-5.2l-2.7,5.2l-1.1,2.2h-2.4l1.1-2.2l5.1-10l5.1,10L250,281.8z"/>
		<path id="Path_5" class="st9" d="M264.5,270.6c0.6,0.6,1,1.5,1,2.3c0,1.3-0.7,2.4-1.9,3c-0.3,0.1-0.6,0.2-0.9,0.3h-0.1l0,0h-5.8
			v5.6h-2.2v-12.2h7.7C263.1,269.7,263.9,270,264.5,270.6L264.5,270.6z M262.7,274c0.4-0.2,0.7-0.6,0.7-1c0-0.3-0.1-0.6-0.3-0.8
			c-0.2-0.2-0.5-0.3-0.8-0.3h-5.5v2.2h5.5C262.4,274.1,262.5,274,262.7,274L262.7,274z"/>
		<path id="Path_6" class="st9" d="M280.7,270.6c0.6,0.6,1,1.5,1,2.3c0,1.3-0.7,2.4-1.9,3c-0.3,0.1-0.6,0.2-0.9,0.3h-0.1l0,0H273
			v5.6h-2.2v-12.2h7.7C279.2,269.7,280.1,270,280.7,270.6L280.7,270.6z M278.8,274c0.4-0.2,0.7-0.6,0.7-1c0-0.3-0.1-0.6-0.3-0.8
			c-0.2-0.2-0.5-0.3-0.8-0.3h-5.5v2.2h5.5C278.5,274.1,278.7,274,278.8,274L278.8,274z"/>
		<path id="Path_7" class="st9" d="M296.9,279.7v2.2h-6.2c-0.6,0-1.2-0.1-1.7-0.4c-0.8-0.4-1.4-1-1.8-1.8c-0.3-0.5-0.4-1.1-0.4-1.7
			v-8.3h2.2v8.5c0.1,0.8,0.7,1.4,1.5,1.5L296.9,279.7z"/>
		<path id="Path_8" class="st9" d="M298.2,281.8L298.2,281.8L298.2,281.8L298.2,281.8z M310.4,269.7l-4.7,6.1l-0.3,0.3v5.7h-2.2
			v-5.7l-0.3-0.4l-4.7-6.1h2.7l3.3,4.3l3.3-4.3h2.9V269.7z M310.4,281.8L310.4,281.8L310.4,281.8L310.4,281.8z"/>
	</g>
</g>
<g>
	<path class="st10" d="M254.3,247.9c0,3.9-1.1,7.1-3.4,9.6c-3.2,3.6-8.2,5.4-14.8,5.4h-21.9v-52.6h20.3c9.9,0,14.8,4.6,14.8,13.7
		c0,2.7-0.5,5-1.6,6.9c-0.9,1.6-2.3,2.9-4.2,4c4.2,0.9,7.1,2.6,8.6,5C253.6,242.2,254.3,244.8,254.3,247.9z M236.8,225.7
		c0-2.4-1.1-4-3.2-4.7c-0.8-0.3-1.8-0.4-3.1-0.4H228v10.3h2.5c2.4,0,4-0.6,5.1-1.7C236.4,228.3,236.8,227.1,236.8,225.7z
		 M240.7,246.9c0-3.1-1.6-4.9-4.7-5.4c-1-0.2-2.7-0.2-5.1-0.2H228v11.1h3c3.5,0,5.9-0.4,7.3-1.2
		C239.9,250.3,240.7,248.8,240.7,246.9z"/>
	<path class="st10" d="M270.4,216.8c0,2-0.7,3.7-2.1,5.1c-1.4,1.4-3.1,2.1-5.1,2.1c-2,0-3.6-0.7-5-2.1c-1.4-1.4-2.1-3.1-2.1-5
		c0-2,0.7-3.6,2.1-5c1.4-1.4,3-2.1,5-2.1c2,0,3.7,0.7,5,2.1C269.7,213.2,270.4,214.9,270.4,216.8z M269.6,262.8h-12.7v-35.8h12.7
		V262.8z"/>
	<g>
		<defs>
			<path id="SVGID_1_" d="M254.3,247.9c0,3.9-1.1,7.1-3.4,9.6c-3.2,3.6-8.2,5.4-14.8,5.4h-21.9v-52.6h20.3c9.9,0,14.8,4.6,14.8,13.7
				c0,2.7-0.5,5-1.6,6.9c-0.9,1.6-2.3,2.9-4.2,4c4.2,0.9,7.1,2.6,8.6,5C253.6,242.2,254.3,244.8,254.3,247.9z M236.8,225.7
				c0-2.4-1.1-4-3.2-4.7c-0.8-0.3-1.8-0.4-3.1-0.4H228v10.3h2.5c2.4,0,4-0.6,5.1-1.7C236.4,228.3,236.8,227.1,236.8,225.7z
				 M240.7,246.9c0-3.1-1.6-4.9-4.7-5.4c-1-0.2-2.7-0.2-5.1-0.2H228v11.1h3c3.5,0,5.9-0.4,7.3-1.2
				C239.9,250.3,240.7,248.8,240.7,246.9z"/>
		</defs>
		<clipPath id="SVGID_2_">
			<use xlink:href="#SVGID_1_"  style="overflow:visible;"/>
		</clipPath>
		<polygon class="st11" points="214.2,262.8 243.5,234.9 214.2,210.2 		"/>
	</g>
	<g>
		<path class="st10" d="M303.5,257.3c-0.6,1.4-1.7,2.6-3.1,3.7c-1.2,0.8-2.6,1.4-4.2,1.8c-1.6,0.4-3.5,0.7-5.5,0.7l-2.6-0.2
			c-0.3,0-0.7-0.1-1.3-0.2c-0.6-0.1-1.1-0.2-1.6-0.3c-1-0.2-1.8-0.5-2.6-0.9c-0.7-0.4-1.3-0.9-1.9-1.4v2.3H273v-12.1h7.7
			c0.8,2.1,1.9,3.7,3.5,4.9c0.4,0.2,0.8,0.4,1.1,0.6c0.3,0.2,0.8,0.4,1.5,0.6c0.5,0.1,1,0.2,1.5,0.2c0.5,0.1,1,0.1,1.7,0.1
			c1,0,1.8,0,2.5-0.1c0.7-0.1,1.2-0.2,1.6-0.4c1.6-0.5,2.3-1.5,2.3-3c0-1.7-3.9-3.4-11.8-4.9c-7.9-1.5-11.9-5-11.9-10.6
			c0-1.8,0.3-3.5,1-4.9c0.7-1.5,1.6-2.7,2.8-3.7c1.2-1,2.6-1.7,4.3-2.3c1.6-0.5,3.4-0.8,5.4-0.8c3.2,0,6.1,0.9,8.6,2.8v-2h7.3v11.4
			h-7.7c-0.2-1.7-1.1-3.1-2.6-4.3c-1.4-0.9-3.2-1.4-5.3-1.4c-0.9,0-1.6,0.1-2.3,0.2c-0.7,0.1-1.3,0.3-1.8,0.6
			c-1.1,0.5-1.6,1.5-1.6,3.1c0,1.2,4,2.6,11.9,4.2c7.9,1.6,11.9,5.3,11.9,11.2C304.5,254.3,304.2,256,303.5,257.3z"/>
	</g>
	<g>
		<polygon class="st10" points="310,256.5 329.3,233.2 309,210.7 		"/>
		<polygon class="st12" points="310,258.5 323.1,242.7 309.3,227.5 		"/>
		<polygon class="st13" points="310,261.9 318.9,251.1 309.5,240.7 		"/>
	</g>
</g>
</svg>
