<svg height="512pt" viewBox="0 0 512 512.19778" width="512pt" xmlns="http://www.w3.org/2000/svg"><g fill-rule="evenodd"><path d="m353.203125 52.964844h35.308594c9.738281.03125 17.628906 7.917968 17.65625 17.65625v423.722656c-.027344 9.738281-7.917969 17.628906-17.65625 17.65625h-317.792969c-9.738281-.027344-17.625-7.917969-17.65625-17.65625v-35.308594zm0 0" fill="#a9b0bb"/><path d="m353.203125 17.65625v423.722656c-.03125 9.738282-7.917969 17.625-17.65625 17.65625h-317.792969c-9.738281-.03125-17.625-7.917968-17.6562498-17.65625v-353.101562l88.2773438-88.277344h247.171875c9.738281.0273438 17.625 7.917969 17.65625 17.65625zm0 0" fill="#e4e8eb"/><path d="m88.375 0v70.621094c-.03125 9.738281-7.917969 17.625-17.65625 17.65625h-70.6210938zm0 0" fill="#5e8faa"/><path d="m512.097656 388.414062c.039063 50.042969-30.078125 95.179688-76.304687 114.347657-46.226563 19.167969-99.449219 8.59375-134.835938-26.792969-35.382812-35.386719-45.960937-88.609375-26.792969-134.835938 19.171876-46.222656 64.304688-76.34375 114.347657-76.304687 5.90625.007813 11.804687.417969 17.65625 1.234375 60.796875 8.816406 105.90625 60.921875 105.929687 122.351562zm0 0" fill="#46ceac"/><g fill="#365972"><path d="m300.238281 158.898438h-247.175781c-4.875 0-8.824219-3.953126-8.824219-8.828126s3.949219-8.828124 8.824219-8.828124h247.175781c4.875 0 8.824219 3.953124 8.824219 8.828124s-3.949219 8.828126-8.824219 8.828126zm0 0"/><path d="m229.617188 335.449219h-176.554688c-4.875 0-8.824219-3.953125-8.824219-8.828125s3.949219-8.828125 8.824219-8.828125h176.554688c4.875 0 8.828124 3.953125 8.828124 8.828125s-3.953124 8.828125-8.828124 8.828125zm0 0"/><path d="m300.238281 203.035156h-44.140625c-4.875 0-8.828125-3.953125-8.828125-8.828125s3.953125-8.828125 8.828125-8.828125h44.140625c4.875 0 8.824219 3.953125 8.824219 8.828125s-3.949219 8.828125-8.824219 8.828125zm0 0"/><path d="m211.960938 203.035156h-158.898438c-4.875 0-8.824219-3.953125-8.824219-8.828125s3.949219-8.828125 8.824219-8.828125h158.898438c4.875 0 8.828124 3.953125 8.828124 8.828125s-3.953124 8.828125-8.828124 8.828125zm0 0"/><path d="m158.996094 379.585938h-8.828125c-4.875 0-8.828125-3.953126-8.828125-8.828126s3.953125-8.828124 8.828125-8.828124h8.828125c4.875 0 8.828125 3.953124 8.828125 8.828124s-3.953125 8.828126-8.828125 8.828126zm0 0"/><path d="m106.03125 379.585938h-52.96875c-4.875 0-8.824219-3.953126-8.824219-8.828126s3.949219-8.828124 8.824219-8.828124h52.96875c4.875 0 8.828125 3.953124 8.828125 8.828124s-3.953125 8.828126-8.828125 8.828126zm0 0"/><path d="m97.203125 247.171875h-44.140625c-4.875 0-8.824219-3.953125-8.824219-8.828125s3.949219-8.828125 8.824219-8.828125h44.140625c4.875 0 8.828125 3.953125 8.828125 8.828125s-3.953125 8.828125-8.828125 8.828125zm0 0"/><path d="m300.238281 247.171875h-158.898437c-4.875 0-8.828125-3.953125-8.828125-8.828125s3.953125-8.828125 8.828125-8.828125h158.898437c4.875 0 8.824219 3.953125 8.824219 8.828125s-3.949219 8.828125-8.824219 8.828125zm0 0"/><path d="m79.546875 291.308594h-26.484375c-4.875 0-8.824219-3.949219-8.824219-8.824219 0-4.878906 3.949219-8.828125 8.824219-8.828125h26.484375c4.875 0 8.828125 3.949219 8.828125 8.828125 0 4.875-3.953125 8.824219-8.828125 8.824219zm0 0"/><path d="m264.925781 291.308594h-141.242187c-4.875 0-8.824219-3.949219-8.824219-8.824219 0-4.878906 3.949219-8.828125 8.824219-8.828125h141.242187c4.875 0 8.828125 3.949219 8.828125 8.828125 0 4.875-3.953125 8.824219-8.828125 8.824219zm0 0"/><path d="m300.238281 158.898438h-247.175781c-4.875 0-8.824219-3.953126-8.824219-8.828126s3.949219-8.828124 8.824219-8.828124h247.175781c4.875 0 8.824219 3.953124 8.824219 8.828124s-3.949219 8.828126-8.824219 8.828126zm0 0"/><path d="m229.617188 335.449219h-176.554688c-4.875 0-8.824219-3.953125-8.824219-8.828125s3.949219-8.828125 8.824219-8.828125h176.554688c4.875 0 8.828124 3.953125 8.828124 8.828125s-3.953124 8.828125-8.828124 8.828125zm0 0"/><path d="m300.238281 203.035156h-44.140625c-4.875 0-8.828125-3.953125-8.828125-8.828125s3.953125-8.828125 8.828125-8.828125h44.140625c4.875 0 8.824219 3.953125 8.824219 8.828125s-3.949219 8.828125-8.824219 8.828125zm0 0"/><path d="m211.960938 203.035156h-158.898438c-4.875 0-8.824219-3.953125-8.824219-8.828125s3.949219-8.828125 8.824219-8.828125h158.898438c4.875 0 8.828124 3.953125 8.828124 8.828125s-3.953124 8.828125-8.828124 8.828125zm0 0"/><path d="m158.996094 379.585938h-8.828125c-4.875 0-8.828125-3.953126-8.828125-8.828126s3.953125-8.828124 8.828125-8.828124h8.828125c4.875 0 8.828125 3.953124 8.828125 8.828124s-3.953125 8.828126-8.828125 8.828126zm0 0"/><path d="m106.03125 379.585938h-52.96875c-4.875 0-8.824219-3.953126-8.824219-8.828126s3.949219-8.828124 8.824219-8.828124h52.96875c4.875 0 8.828125 3.953124 8.828125 8.828124s-3.953125 8.828126-8.828125 8.828126zm0 0"/><path d="m97.203125 247.171875h-44.140625c-4.875 0-8.824219-3.953125-8.824219-8.828125s3.949219-8.828125 8.824219-8.828125h44.140625c4.875 0 8.828125 3.953125 8.828125 8.828125s-3.953125 8.828125-8.828125 8.828125zm0 0"/><path d="m300.238281 247.171875h-158.898437c-4.875 0-8.828125-3.953125-8.828125-8.828125s3.953125-8.828125 8.828125-8.828125h158.898437c4.875 0 8.824219 3.953125 8.824219 8.828125s-3.949219 8.828125-8.824219 8.828125zm0 0"/><path d="m79.546875 291.308594h-26.484375c-4.875 0-8.824219-3.949219-8.824219-8.824219 0-4.878906 3.949219-8.828125 8.824219-8.828125h26.484375c4.875 0 8.828125 3.949219 8.828125 8.828125 0 4.875-3.953125 8.824219-8.828125 8.824219zm0 0"/><path d="m264.925781 291.308594h-141.242187c-4.875 0-8.824219-3.949219-8.824219-8.824219 0-4.878906 3.949219-8.828125 8.824219-8.828125h141.242187c4.875 0 8.828125 3.949219 8.828125 8.828125 0 4.875-3.953125 8.824219-8.828125 8.824219zm0 0"/></g><path d="m397.15625 458.089844c-.113281-1.195313-.488281-2.351563-1.105469-3.382813-.113281-.285156-.238281-.5625-.378906-.835937l-14.617187-20.25c-2.90625-3.789063-8.300782-4.578125-12.171876-1.785156-3.871093 2.792968-4.816406 8.160156-2.140624 12.113281l2.183593 3.019531c-20.96875-6.984375-36.597656-24.644531-40.984375-46.304688-4.382812-21.660156 3.152344-44.007812 19.753906-58.59375 3.515626-3.253906 3.796876-8.722656.625-12.316406-3.167968-3.597656-8.625-4.007812-12.296874-.925781-21.691407 19.070313-31.308594 48.421875-25.113282 76.632813 6.195313 28.210937 27.226563 50.828124 54.914063 59.054687l-2.726563 1.976563c-3.785156 2.910156-4.578125 8.300781-1.78125 12.171874 2.792969 3.871094 8.160156 4.816407 12.109375 2.140626l20.25-14.609376c.1875-.144531.285157-.347656.453125-.496093.46875-.40625.890625-.859375 1.261719-1.359375.328125-.414063.625-.851563.882813-1.316406.238281-.5.429687-1.023438.574218-1.5625.175782-.574219.292969-1.164063.34375-1.765626.0625-.214843.109375-.4375.148438-.660156-.042969-.320312-.105469-.632812-.183594-.945312zm0 0" fill="#f4f6f8"/><path d="m411.199219 312.3125 2.726562-1.980469c3.789063-2.90625 4.578125-8.296875 1.785157-12.167969-2.792969-3.871093-8.160157-4.820312-12.113282-2.140624l-20.25 14.609374c-.183594.140626-.28125.34375-.449218.496094-.46875.40625-.894532.859375-1.261719 1.359375-.332031.410157-.628907.851563-.882813 1.316407-.242187.5-.433594 1.023437-.574218 1.5625-.179688.574218-.292969 1.164062-.34375 1.765624-.0625.214844-.113282.4375-.152344.660157.042968.320312.109375.632812.195312.945312.050782.597657.164063 1.191407.34375 1.765625.378906.832032.753906 1.664063 1.128906 2.496094l14.621094 20.25c2.90625 3.789062 8.296875 4.578125 12.167969 1.785156 3.871094-2.792968 4.820313-8.160156 2.140625-12.113281l-2.179688-3.015625c20.945313 6.992188 36.554688 24.640625 40.941407 46.285156 4.382812 21.640625-3.128907 43.976563-19.703125 58.566406-2.453125 2.0625-3.597656 5.289063-2.992188 8.4375.609375 3.144532 2.875 5.714844 5.917969 6.710938 3.046875 1 6.390625.269531 8.746094-1.90625 21.683593-19.074219 31.296875-48.425781 25.101562-76.632812-6.199219-28.210938-27.230469-50.828126-54.914062-59.054688zm0 0" fill="#f4f6f8"/><path d="m79.546875 459.035156v35.308594c.03125 9.738281 7.917969 17.628906 17.65625 17.65625h-26.484375c-9.738281-.027344-17.625-7.917969-17.65625-17.65625v-35.308594zm0 0" fill="#848f9e"/><path d="m88.375 0v26.484375l-61.792969 61.792969h-26.4843748zm0 0" fill="#457393"/><path d="m44.238281 459.035156h-26.484375c-9.738281-.03125-17.625-7.917968-17.6562498-17.65625v-353.101562h26.4843748v353.101562c.027344 9.738282 7.917969 17.625 17.65625 17.65625zm0 0" fill="#cad0d7"/><path d="m114.859375 0-26.484375 26.484375v-26.484375zm0 0" fill="#cad0d7"/><path d="m401.402344 511.382812c-4.238282.351563-8.5625.617188-12.890625.617188-68.253907 0-123.585938-55.332031-123.585938-123.585938 0-68.253906 55.332031-123.585937 123.585938-123.585937 4.160156-.035156 8.320312.203125 12.449219.707031-7.78125.703125-15.46875 2.179688-22.953126 4.414063-56.628906 16.894531-93.375 71.523437-87.671874 130.34375 5.699218 58.824219 52.242187 105.378906 111.066406 111.089843zm0 0" fill="#35ba9b"/></g></svg>