<svg id="Icons" height="512" viewBox="0 0 60 60" width="512" xmlns="http://www.w3.org/2000/svg"><path d="m21 48h18v7h-18z" fill="#b9bfcc"/><path d="m56 41v5a3 3 0 0 1 -3 3h-46a3 3 0 0 1 -3-3v-5l1-1h50z" fill="#d6dbe3"/><path d="m16 54h28a2 2 0 0 1 2 2v2a1 1 0 0 1 -1 1h-30a1 1 0 0 1 -1-1v-2a2 2 0 0 1 2-2z" fill="#d6dbe3"/><path d="m56 8v33h-52v-33a3 3 0 0 1 3-3h46a3 3 0 0 1 3 3z" fill="#2a4451"/><rect fill="#3a5b68" height="28" rx="1" width="44" x="8" y="9"/><path d="m46 7.83v29.17h-32v-35a1 1 0 0 1 1-1h24.17a1.968 1.968 0 0 1 .83.18 2.017 2.017 0 0 1 .59.41l4.82 4.82a2.017 2.017 0 0 1 .41.59 1.968 1.968 0 0 1 .18.83z" fill="#d6dbe3"/><path d="m45.82 7h-4.82a1 1 0 0 1 -1-1v-4.82a2.017 2.017 0 0 1 .59.41l4.82 4.82a2.017 2.017 0 0 1 .41.59z" fill="#b9bfcc"/><circle cx="30" cy="25" fill="#fff" r="7"/><path d="m31 46h-2a1 1 0 0 1 0-2h2a1 1 0 0 1 0 2z" fill="#b9bfcc"/><path d="m33 24h-2v-2a1 1 0 0 0 -2 0v2h-2a1 1 0 0 0 0 2h2v2a1 1 0 0 0 2 0v-2h2a1 1 0 0 0 0-2z" fill="#31b791"/><g fill="#8991a0"><path d="m34 9h-14a1 1 0 0 1 0-2h14a1 1 0 0 1 0 2z"/><path d="m40 14h-2a1 1 0 0 1 0-2h2a1 1 0 0 1 0 2z"/><path d="m34 14h-14a1 1 0 0 1 0-2h14a1 1 0 0 1 0 2z"/></g></svg>