<?xml version="1.0" encoding="utf-8"?>
<!-- Generator: Adobe Illustrator 24.0.0, SVG Export Plug-In . SVG Version: 6.00 Build 0)  -->
<svg version="1.1" id="Outer_Lines" xmlns="http://www.w3.org/2000/svg" xmlns:xlink="http://www.w3.org/1999/xlink" x="0px"
	 y="0px" viewBox="0 0 512 512" style="enable-background:new 0 0 512 512;" xml:space="preserve">
<style type="text/css">
	.st0{fill:#FF9505;}
	.st1{fill:#FFB627;}
	.st2{fill:#067BC2;}
	.st3{fill:#FFFFFF;}
	.st4{fill:#CDD6DF;}
	.st5{fill:#06618E;}
</style>
<path class="st0" d="M51.2,418.1c-23.6,0-42.7-19.1-42.7-42.7V34.1C8.5,20,20,8.5,34.1,8.5h105.3c9.1,0,17.7,3.6,24.1,10l22.7,22.7
	c6.4,6.4,15.1,10,24.1,10h182.1c14.1,0,25.6,11.5,25.6,25.6v34.1L76.8,418.1H51.2z"/>
<path class="st1" d="M503.5,136.5v238.9c0,23.6-19.1,42.7-42.7,42.7H51.2c23.5,0.1,42.6-18.9,42.7-42.4c0-0.1,0-0.2,0-0.3V136.5
	c0-14.1,11.5-25.6,25.6-25.6h358.4C492,110.9,503.5,122.4,503.5,136.5z"/>
<circle class="st2" cx="298.7" cy="332.8" r="170.7"/>
<circle class="st3" cx="298.7" cy="332.8" r="136.5"/>
<circle class="st4" cx="298.7" cy="332.8" r="25.6"/>
<g>
	<path class="st5" d="M298.7,187.7c-80.1,0-145.1,64.9-145.1,145.1s64.9,145.1,145.1,145.1s145.1-64.9,145.1-145.1
		C443.6,252.7,378.7,187.8,298.7,187.7z M202.5,248.7l5.7,5.7c3.4,3.3,8.8,3.2,12.1-0.2c3.2-3.3,3.2-8.5,0-11.9l-5.7-5.7
		c21.1-18.5,47.6-29.5,75.6-31.4v8.1c0,4.7,3.8,8.5,8.5,8.5s8.5-3.8,8.5-8.5v-8.1c28,1.8,54.6,12.9,75.6,31.4l-5.7,5.7
		c-3.3,3.3-3.3,8.7,0,12.1c3.3,3.3,8.7,3.3,12.1,0l5.7-5.7c18.5,21.1,29.5,47.6,31.4,75.6h-8.1c-4.7,0-8.5,3.8-8.5,8.5
		s3.8,8.5,8.5,8.5h8.1c-1.8,28-12.9,54.6-31.4,75.6l-5.7-5.7c-3.4-3.3-8.8-3.2-12.1,0.2c-3.2,3.3-3.2,8.6,0,11.9l5.7,5.7
		c-21.1,18.5-47.6,29.5-75.6,31.4v-8.1c0-4.7-3.8-8.5-8.5-8.5s-8.5,3.8-8.5,8.5v8.1c-28-1.8-54.6-12.9-75.6-31.4l5.7-5.7
		c3.3-3.4,3.2-8.8-0.2-12.1c-3.3-3.2-8.5-3.2-11.9,0l-5.7,5.7c-18.5-21.1-29.5-47.6-31.4-75.6h8.1c4.7,0,8.5-3.8,8.5-8.5
		s-3.8-8.5-8.5-8.5h-8.1C172.9,296.3,184,269.7,202.5,248.7z"/>
	<path class="st5" d="M353.7,314.8L324,329.6c-0.6-5.8-3.3-11.2-7.6-15.3l29.6-14.8c4-2.4,9.3-1.1,11.7,2.9s1.1,9.3-2.9,11.7
		C354.5,314.4,354.1,314.6,353.7,314.8L353.7,314.8z"/>
	<path class="st5" d="M307.2,256v52.7c-5.5-2-11.6-2-17.1,0V256c0-4.7,3.8-8.5,8.5-8.5S307.2,251.3,307.2,256z"/>
</g>
</svg>
