<?xml version="1.0" encoding="iso-8859-1"?>
<!-- Generator: Adobe Illustrator 19.0.0, SVG Export Plug-In . SVG Version: 6.00 Build 0)  -->
<svg version="1.1" id="Capa_1" xmlns="http://www.w3.org/2000/svg" xmlns:xlink="http://www.w3.org/1999/xlink" x="0px" y="0px"
	 viewBox="0 0 490.667 490.667" style="enable-background:new 0 0 490.667 490.667;" xml:space="preserve">
<path style="fill:#F6B445;" d="M405.333,128H224V64h170.667c5.766-0.125,10.542,4.448,10.667,10.214
	c0.003,0.151,0.003,0.302,0,0.453V128z"/>
<path style="fill:#FED049;" d="M224,64v64h224c23.564,0,42.667,19.103,42.667,42.667V448c0,23.564-19.103,42.667-42.667,42.667
	H42.667C19.103,490.667,0,471.564,0,448V42.667C0,42.667,0,0,42.667,0h138.667c0,0,42.667,0,42.667,42.667V64z"/>
<circle style="fill:#F1F2F2;" cx="352" cy="352" r="138.667"/>
<circle style="fill:#49AAEE;" cx="352" cy="352" r="96"/>
<path style="fill:#F1F2F2;" d="M384,394.667c-2.829-0.001-5.541-1.125-7.541-3.125l-32-32c-2.001-2-3.125-4.713-3.125-7.541v-42.667
	c0-5.891,4.776-10.667,10.667-10.667c5.891,0,10.667,4.776,10.667,10.667v38.251l28.875,28.875
	c4.165,4.166,4.164,10.92-0.002,15.085C389.539,393.543,386.828,394.666,384,394.667z"/>
<g>
</g>
<g>
</g>
<g>
</g>
<g>
</g>
<g>
</g>
<g>
</g>
<g>
</g>
<g>
</g>
<g>
</g>
<g>
</g>
<g>
</g>
<g>
</g>
<g>
</g>
<g>
</g>
<g>
</g>
</svg>
