<?xml version="1.0" encoding="utf-8"?>
<!-- Generator: Adobe Illustrator 24.0.0, SVG Export Plug-In . SVG Version: 6.00 Build 0)  -->
<svg version="1.1" id="Layer_1" xmlns="http://www.w3.org/2000/svg" xmlns:xlink="http://www.w3.org/1999/xlink" x="0px" y="0px"
	 viewBox="0 0 512 512" style="enable-background:new 0 0 512 512;" xml:space="preserve">
<style type="text/css">
	.st0{fill-rule:evenodd;clip-rule:evenodd;fill:#E4E8EB;}
	.st1{fill-rule:evenodd;clip-rule:evenodd;fill:#5E8FAA;}
	.st2{fill-rule:evenodd;clip-rule:evenodd;fill:#FFC305;}
	.st3{fill-rule:evenodd;clip-rule:evenodd;fill:#365972;}
	.st4{fill-rule:evenodd;clip-rule:evenodd;fill:#457393;}
	.st5{fill-rule:evenodd;clip-rule:evenodd;fill:#CAD0D7;}
	.st6{fill-rule:evenodd;clip-rule:evenodd;fill:#F5AB01;}
	.st7{fill-rule:evenodd;clip-rule:evenodd;fill:#057BC2;}
	.st8{fill-rule:evenodd;clip-rule:evenodd;fill:#05618D;}
</style>
<g>
	<path class="st0" d="M432.6,17.7v423.7c0,9.7-7.9,17.6-17.7,17.7H97.1c-9.7,0-17.6-7.9-17.7-17.7V88.3L167.7,0h247.2
		C424.6,0,432.5,7.9,432.6,17.7z"/>
	<path class="st1" d="M167.7,0v70.6c0,9.7-7.9,17.6-17.7,17.7H79.4L167.7,0z"/>
	<path class="st2" d="M0.4,268.8L0,268.7v-83.3c0-19.5,15.8-35.3,35.3-35.3h53v88.3L0.4,268.8z"/>
	<path class="st2" d="M512,141.2v335.4c0,19.5-15.8,35.3-35.3,35.3H35.3C15.8,512,0,496.2,0,476.7v-203c0-1.6,0.1-3.2,0.4-4.9
		c2.4-17.5,17.3-30.4,35-30.5h238.3c34.1,0,61.8-27.7,61.8-61.8c0-18.7,7.4-36.7,20.7-50c13.2-13.2,31.2-20.7,50-20.7h70.6
		C496.2,105.9,512,121.7,512,141.2z"/>
	<path class="st3" d="M291.3,158.9H132.4c-4.9,0-8.8-4-8.8-8.8s4-8.8,8.8-8.8h158.9c4.9,0,8.8,4,8.8,8.8S296.2,158.9,291.3,158.9z"
		/>
	<path class="st3" d="M282.5,203H132.4c-4.9,0-8.8-4-8.8-8.8s4-8.8,8.8-8.8h150.1c4.9,0,8.8,4,8.8,8.8S287.4,203,282.5,203z"/>
	<path class="st4" d="M167.7,0v26.5l-61.8,61.8H79.4L167.7,0z"/>
	<path class="st5" d="M79.4,88.3h26.5v150.1H79.4V88.3z"/>
	<path class="st5" d="M194.2,0l-26.5,26.5V0H194.2z"/>
	<path class="st6" d="M61.8,150.1c-19.5,0-35.3,15.8-35.3,35.3v54.1c-13.8,3.6-24.2,15.1-26.1,29.3L0,268.7v-83.3
		c0-19.5,15.8-35.3,35.3-35.3H61.8z"/>
	<g>
		<path class="st6" d="M26.5,273.7v203c0,19.5,15.8,35.3,35.3,35.3H35.3C15.8,512,0,496.2,0,476.7v-203c0-1.6,0.1-3.2,0.4-4.9
			c2.4-17.5,17.3-30.4,35-30.5h26.5c-17.6,0-32.5,13-35,30.5C26.6,270.4,26.5,272,26.5,273.7z"/>
		<path class="st6" d="M432.6,105.9c-18.7,0-36.7,7.4-50,20.7c-13.2,13.2-20.7,31.2-20.7,50c0,34.1-27.7,61.8-61.8,61.8h-26.5
			c34.1,0,61.8-27.7,61.8-61.8c0-18.7,7.4-36.7,20.7-50c13.2-13.2,31.2-20.7,50-20.7C406.1,105.9,432.6,105.9,432.6,105.9z"/>
	</g>
	<g>
		<path class="st7" d="M357,373.9v12.8c0,7.1-5.7,12.8-12.8,12.8h-44.9c-3.5,0-6.4,2.9-6.4,6.4v44.9c0,7.1-5.7,12.8-12.8,12.8h-12.8
			c-7.1,0-12.8-5.7-12.8-12.8V406c0-3.5-2.9-6.4-6.4-6.4h-44.9c-7.1,0-12.8-5.7-12.8-12.8V374c0-7.1,5.7-12.8,12.8-12.8H248
			c3.5,0,6.4-2.9,6.4-6.4v-44.9c0-7.1,5.7-12.8,12.8-12.8H280c7.1,0,12.8,5.7,12.8,12.8v44.9c0,3.5,2.9,6.4,6.4,6.4h44.9
			C351.3,361.1,357,366.8,357,373.9z"/>
		<g>
			<path class="st8" d="M209.5,373.9v12.8c0,7.1,5.8,12.8,12.8,12.8h-19.2c-7.1,0-12.8-5.8-12.8-12.8v-12.8
				c0-7.1,5.8-12.8,12.8-12.8h19.2C215.3,361.1,209.5,366.8,209.5,373.9z"/>
			<path class="st8" d="M283.3,463.3c-1,0.3-2.1,0.5-3.2,0.4h-12.8c-7.1,0-12.8-5.8-12.8-12.8V406c0-3.5-2.9-6.4-6.4-6.4h19.2
				c3.5,0,6.4,2.9,6.4,6.4v44.9C273.7,456.7,277.6,461.8,283.3,463.3z"/>
			<path class="st8" d="M267.2,361.1H248c3.5,0,6.4-2.9,6.4-6.4v-44.9c0-7.1,5.8-12.8,12.8-12.8H280c1.1,0,2.2,0.1,3.2,0.4
				c-5.6,1.5-9.6,6.5-9.6,12.4v44.9C273.7,358.2,270.8,361.1,267.2,361.1z"/>
		</g>
	</g>
</g>
</svg>
