<?xml version="1.0" encoding="utf-8"?>
<!-- Generator: Adobe Illustrator 24.0.0, SVG Export Plug-In . SVG Version: 6.00 Build 0)  -->
<svg version="1.1" id="Outer_Lines" xmlns="http://www.w3.org/2000/svg" xmlns:xlink="http://www.w3.org/1999/xlink" x="0px"
	 y="0px" viewBox="0 0 512 512" style="enable-background:new 0 0 512 512;" xml:space="preserve">
<style type="text/css">
	.st0{fill:#FF9505;}
	.st1{fill:#FFB627;}
	.st2{fill:#CDD6DF;}
	.st3{fill:#F2F2F2;}
	.st4{fill:#8991A0;}
</style>
<path class="st0" d="M51.2,418.1c-23.6,0-42.7-19.1-42.7-42.7V34.1C8.5,20,20,8.5,34.1,8.5h105.3c9.1,0,17.7,3.6,24.1,10l22.7,22.7
	c6.4,6.4,15.1,10,24.1,10h182.1c14.1,0,25.6,11.5,25.6,25.6v34.1L76.8,418.1H51.2z"/>
<path class="st1" d="M503.5,136.5v238.9c0,23.6-19.1,42.7-42.7,42.7H51.2c23.5,0.1,42.6-18.9,42.7-42.4c0-0.1,0-0.2,0-0.3V136.5
	c0-14.1,11.5-25.6,25.6-25.6h358.4C492,110.9,503.5,122.4,503.5,136.5z"/>
<path class="st2" d="M426.7,170.7v324.3c0,4.7-3.8,8.5-8.5,8.5H179.2c-4.7,0-8.5-3.8-8.5-8.5V242.5c0-2.3,0.9-4.4,2.5-6l71.8-71.8
	c1.6-1.6,3.8-2.5,6-2.5h167.1C422.8,162.1,426.7,166,426.7,170.7z"/>
<path class="st3" d="M247.5,163v67.4c0,4.7-3.8,8.5-8.5,8.5h-67.4c0.4-0.9,0.9-1.8,1.6-2.5l71.9-71.9
	C245.7,163.9,246.5,163.3,247.5,163L247.5,163z"/>
<g>
	<path class="st4" d="M341.3,290.1h-128c-4.7,0-8.5-3.8-8.5-8.5s3.8-8.5,8.5-8.5h128c4.7,0,8.5,3.8,8.5,8.5S346,290.1,341.3,290.1z"
		/>
	<path class="st4" d="M290.1,375.5h-76.8c-4.7,0-8.5-3.8-8.5-8.5s3.8-8.5,8.5-8.5h76.8c4.7,0,8.5,3.8,8.5,8.5
		S294.8,375.5,290.1,375.5z"/>
	<path class="st4" d="M384,290.1h-8.5c-4.7,0-8.5-3.8-8.5-8.5s3.8-8.5,8.5-8.5h8.5c4.7,0,8.5,3.8,8.5,8.5S388.7,290.1,384,290.1z"/>
	<path class="st4" d="M384,332.8H256c-4.7,0-8.5-3.8-8.5-8.5s3.8-8.5,8.5-8.5h128c4.7,0,8.5,3.8,8.5,8.5S388.7,332.8,384,332.8z"/>
	<path class="st4" d="M384,418.1H213.3c-4.7,0-8.5-3.8-8.5-8.5c0-4.7,3.8-8.5,8.5-8.5H384c4.7,0,8.5,3.8,8.5,8.5
		C392.5,414.3,388.7,418.1,384,418.1z"/>
	<path class="st4" d="M298.7,460.8h-85.3c-4.7,0-8.5-3.8-8.5-8.5s3.8-8.5,8.5-8.5h85.3c4.7,0,8.5,3.8,8.5,8.5
		S303.4,460.8,298.7,460.8z"/>
	<path class="st4" d="M221.9,332.8h-8.5c-4.7,0-8.5-3.8-8.5-8.5s3.8-8.5,8.5-8.5h8.5c4.7,0,8.5,3.8,8.5,8.5S226.6,332.8,221.9,332.8
		z"/>
	<path class="st4" d="M384,375.5h-59.7c-4.7,0-8.5-3.8-8.5-8.5s3.8-8.5,8.5-8.5H384c4.7,0,8.5,3.8,8.5,8.5S388.7,375.5,384,375.5z"
		/>
</g>
</svg>
