<svg xmlns="http://www.w3.org/2000/svg" width="250.191" height="101.727" viewBox="0 0 250.191 101.727"><g transform="translate(-218.524 -433.299)"><path d="M311.416,451.951q0,5.364-4.313,5.369a3.907,3.907,0,0,1-3.462-1.943,3.964,3.964,0,0,1-3.486,1.943q-4.315,0-4.311-5.44V439.9h3.111v11.9q0,2.527,1.436,2.53,1.685,0,1.682-2.825V439.9h3.11v11.6q0,2.826,1.665,2.825,1.455,0,1.455-2.522V434.416h3.113Z" fill="#fff"/><rect width="11.772" height="2.291" transform="translate(295.844 435.53)" fill="#fff"/><path d="M326.573,456.994h-3.118V448.7q-.864.583-4.472.808-2.8.17-2.8,2.386c0,1.466.833,2.195,2.489,2.195a8.1,8.1,0,0,0,2.354-.395v3.2a21.919,21.919,0,0,1-2.668.19q-5.291,0-5.288-5.153,0-4.861,4.944-5.419c1.142-.084,2.279-.158,3.411-.209q1.906-.338,1.908-1.636a1.649,1.649,0,0,0-.917-1.475,4.452,4.452,0,0,0-2.264-.537,4.379,4.379,0,0,0-2.311.589,2.661,2.661,0,0,0-1.273,1.9H313.39a5.877,5.877,0,0,1,2.457-4.3,8.545,8.545,0,0,1,8.689-.052,4.69,4.69,0,0,1,2.037,4.147Z" fill="#fff"/><path d="M341.7,456.994h-3.113V448.7c-.577.389-2.072.656-4.474.808q-2.8.17-2.792,2.386c0,1.466.828,2.195,2.491,2.195a8.062,8.062,0,0,0,2.348-.395v3.2a21.9,21.9,0,0,1-2.667.19q-5.286,0-5.288-5.153,0-4.861,4.947-5.419c1.139-.084,2.278-.158,3.409-.209q1.906-.338,1.907-1.636a1.648,1.648,0,0,0-.918-1.475,4.432,4.432,0,0,0-2.259-.537,4.386,4.386,0,0,0-2.315.589,2.67,2.67,0,0,0-1.275,1.9h-3.18a5.892,5.892,0,0,1,2.456-4.3,8.556,8.556,0,0,1,8.7-.052,4.694,4.694,0,0,1,2.028,4.147Z" fill="#fff"/><rect width="11.772" height="2.291" transform="translate(329.888 435.53)" fill="#fff"/><path d="M356.89,451.573a5.313,5.313,0,0,1-2,4.406,8.27,8.27,0,0,1-9.072-.028,5.4,5.4,0,0,1-1.958-4.449V439.9h3.111v11.393a2.71,2.71,0,0,0,.975,2.257,3.733,3.733,0,0,0,2.415.776,3.791,3.791,0,0,0,2.426-.773,2.69,2.69,0,0,0,.983-2.248v-16.89h3.116Z" fill="#fff"/><path d="M372.1,451.573a5.313,5.313,0,0,1-2,4.406,8.268,8.268,0,0,1-9.071-.028,5.4,5.4,0,0,1-1.956-4.449V439.9h3.112v11.393a2.709,2.709,0,0,0,.974,2.257,3.73,3.73,0,0,0,2.416.776,3.8,3.8,0,0,0,2.426-.773,2.68,2.68,0,0,0,.977-2.248v-16.89H372.1Z" fill="#fff"/><path d="M386.636,451.486q0,5.837-6.548,5.834-6.386,0-6.476-6.638h3.114q0,3.642,3.34,3.645,3.453,0,3.458-2.774c0-1.356-1.026-2.158-3.077-2.394a14.716,14.716,0,0,1-4.559-.977,3.621,3.621,0,0,1-2-3.583,4.349,4.349,0,0,1,1.774-3.54,6.7,6.7,0,0,1,4.306-1.416,7.318,7.318,0,0,1,4.349,1.213,5.25,5.25,0,0,1,2.142,4.289H383.33a2.351,2.351,0,0,0-1.22-1.944,4.227,4.227,0,0,0-2.21-.545,4.178,4.178,0,0,0-2.034.473,1.428,1.428,0,0,0-.867,1.282c0,.519.412.9,1.236,1.151q.566.126,2.637.4a8.234,8.234,0,0,1,4,1.277,5.029,5.029,0,0,1,1.766,4.25" fill="#fff"/><path d="M393.673,443.626a3.284,3.284,0,0,1-.833,2.258,2.859,2.859,0,0,1-4.24,0,3.31,3.31,0,0,1-.825-2.258,3.345,3.345,0,0,1,.825-2.28,2.863,2.863,0,0,1,4.24,0,3.318,3.318,0,0,1,.833,2.28m0,9.829a3.325,3.325,0,0,1-.833,2.269,2.838,2.838,0,0,1-4.24,0,3.545,3.545,0,0,1,0-4.547,2.852,2.852,0,0,1,4.24,0,3.307,3.307,0,0,1,.833,2.278m-1.838-9.854c0-.792-.366-1.19-1.1-1.19s-1.119.4-1.119,1.19.374,1.193,1.119,1.193,1.1-.4,1.1-1.193m0,9.845q0-1.188-1.1-1.189-1.117,0-1.119,1.189t1.119,1.191q1.1,0,1.1-1.191" fill="#fff"/><path d="M407.97,457.086h-3.108V445.634q0-3-3.356-2.995-2.469,0-3.226,1.547c.728.531,1.1,1.04,1.1,1.53a2.16,2.16,0,0,1-.463,1.119,2.23,2.23,0,0,0-.477,1.248v9h-3.11v-8.993a1.691,1.691,0,0,1,.563-1.119,1.7,1.7,0,0,0,.567-.93q0-.4-1.523-1.342a5.288,5.288,0,0,1,2.244-3.766,7.2,7.2,0,0,1,4.373-1.293,7.081,7.081,0,0,1,4.519,1.38,5.248,5.248,0,0,1,1.9,4.373Z" fill="#fff"/><path d="M412.759,437.822h-11v-4.169h3.128v1.878h7.869Z" fill="#fff"/><path d="M423.189,457.073h-3.116v-2.365a5.777,5.777,0,0,1-4.775,2.553q-5.135,0-5.135-5.531V439.96h3.116v11.812q0,2.613,2.451,2.613a4.191,4.191,0,0,0,3.113-1.465,3.791,3.791,0,0,0,1.23-2.619V439.937h3.116Z" fill="#fff"/><path d="M438.064,450.228a6.749,6.749,0,0,1-2.048,5.308,7.521,7.521,0,0,1-5.1,1.569l-5.545-.02V439.937h3.111v14.2l2.317.083a4.04,4.04,0,0,0,2.844-.943,3.654,3.654,0,0,0,1.311-3.009,3.85,3.85,0,0,0-.891-2.6,2.849,2.849,0,0,0-2.262-1.035h-2.1v-3h2.1q2.939,0,2.635-3.7h3.041a4.457,4.457,0,0,1,.073.817,4.8,4.8,0,0,1-2.48,4.472,4.717,4.717,0,0,1,2.069,1.844,5.7,5.7,0,0,1,.926,3.158" fill="#fff"/><path d="M437.72,437.822H425.948V435.53h8.642V433.3h3.129Z" fill="#fff"/><path d="M452.824,448.513q0,4.645-2.028,6.9a6.283,6.283,0,0,1-4.819,1.9q-5.428,0-6.574-5.815h3.322q.9,2.821,3.252,2.822,3.728,0,3.73-5.858,0-5.832-3.73-5.83-2.348,0-3.252,2.877H439.4q1.144-5.874,6.574-5.873a6.142,6.142,0,0,1,4.819,1.988q2.028,2.257,2.028,6.882" fill="#fff"/><rect width="11.776" height="2.291" transform="translate(440.462 435.53)" fill="#fff"/><path d="M468.551,457.086h-3.119V444.667a1.892,1.892,0,0,0-.448-1.262,1.3,1.3,0,0,0-.995-.534l-2.462,1.8-2.545-1.8a1.274,1.274,0,0,0-.977.534,1.876,1.876,0,0,0-.453,1.262v5.959c0,.654-.064,1.737-.192,3.241h.1q.445-.9,1.486-2.866l1.823-2.9h-1.488v-2.74h4.634v2.34l-5.762,9.388h-3.716V444.914a5.248,5.248,0,0,1,1.3-3.611,5.131,5.131,0,0,1,3.553-1.66l2.208,1.589,2.2-1.589a5.082,5.082,0,0,1,3.54,1.66,5.274,5.274,0,0,1,1.3,3.611Z" fill="#fff"/><path d="M225.159,534.76v-6.834l-6.634-9.4h4.286l4.262,6.424,4.177-6.424h4.213l-6.66,9.425v6.811Z" fill="#fff"/><path d="M234.573,528.714a5.86,5.86,0,0,1,.851-3,5.583,5.583,0,0,1,2.416-2.215,7.844,7.844,0,0,1,3.49-.764,6.971,6.971,0,0,1,4.88,1.733,5.67,5.67,0,0,1,1.9,4.38,5.74,5.74,0,0,1-1.92,4.424,6.9,6.9,0,0,1-4.837,1.756,8.349,8.349,0,0,1-3.441-.731,5.382,5.382,0,0,1-2.49-2.144,6.54,6.54,0,0,1-.851-3.437m3.557.165a3.643,3.643,0,0,0,.927,2.681,3.267,3.267,0,0,0,4.564,0,3.679,3.679,0,0,0,.921-2.7,3.615,3.615,0,0,0-.921-2.658,3.265,3.265,0,0,0-4.564,0,3.642,3.642,0,0,0-.927,2.68" fill="#fff"/><path d="M259.465,534.76V533a4.924,4.924,0,0,1-1.885,1.483,5.767,5.767,0,0,1-2.463.544,5.261,5.261,0,0,1-2.372-.521,3.228,3.228,0,0,1-1.519-1.462,5.891,5.891,0,0,1-.471-2.6V523h3.47v5.4a13.527,13.527,0,0,0,.193,3.04,1.683,1.683,0,0,0,.7.887,2.334,2.334,0,0,0,1.285.326,2.943,2.943,0,0,0,1.593-.438,2.274,2.274,0,0,0,.963-1.084,11.246,11.246,0,0,0,.261-3.174V523h3.471v11.76Z" fill="#fff"/><path d="M269.607,534.76h-3.472V523h3.226v1.671a5.229,5.229,0,0,1,1.489-1.562,2.987,2.987,0,0,1,1.5-.376,4.8,4.8,0,0,1,2.287.587l-1.075,2.713a3.286,3.286,0,0,0-1.631-.509,2.062,2.062,0,0,0-1.234.36,2.408,2.408,0,0,0-.8,1.3,16.567,16.567,0,0,0-.292,3.943Z" fill="#fff"/><path d="M282.2,534.76V518.524h5.87a23.668,23.668,0,0,1,4.347.245,4.793,4.793,0,0,1,2.607,1.589,4.684,4.684,0,0,1,1.049,3.161,4.86,4.86,0,0,1-.6,2.514,4.653,4.653,0,0,1-1.538,1.6,5.625,5.625,0,0,1-1.9.769,23.292,23.292,0,0,1-3.795.233H285.86v6.124Zm3.658-13.489v4.607h2a10.506,10.506,0,0,0,2.893-.255,2.391,2.391,0,0,0,1.142-.8,2.026,2.026,0,0,0,.413-1.263,1.976,1.976,0,0,0-.58-1.463,2.639,2.639,0,0,0-1.471-.719,19.7,19.7,0,0,0-2.631-.111Z" fill="#fff"/><path d="M301.647,526.588l-3.15-.511a4.414,4.414,0,0,1,1.828-2.525,7.315,7.315,0,0,1,3.856-.819,9.176,9.176,0,0,1,3.458.493,3.35,3.35,0,0,1,1.6,1.251,5.813,5.813,0,0,1,.464,2.786l-.038,3.632a11.466,11.466,0,0,0,.167,2.286,6.325,6.325,0,0,0,.625,1.579h-3.434c-.091-.206-.2-.512-.336-.919-.056-.185-.1-.306-.123-.366a6.3,6.3,0,0,1-1.9,1.163,6.012,6.012,0,0,1-2.161.388,4.8,4.8,0,0,1-3.2-.986,3.124,3.124,0,0,1-1.168-2.492,3.079,3.079,0,0,1,.533-1.777,3.381,3.381,0,0,1,1.486-1.2,12.826,12.826,0,0,1,2.763-.725,20.789,20.789,0,0,0,3.373-.763v-.311a1.522,1.522,0,0,0-.495-1.279,3.226,3.226,0,0,0-1.865-.382,2.716,2.716,0,0,0-1.445.326,2.285,2.285,0,0,0-.841,1.148m4.646,2.523q-.668.2-2.112.477a6.872,6.872,0,0,0-1.892.543,1.276,1.276,0,0,0-.679,1.1,1.456,1.456,0,0,0,.544,1.13,2.025,2.025,0,0,0,1.384.475,3.23,3.23,0,0,0,1.791-.553,1.962,1.962,0,0,0,.826-1.03,5.364,5.364,0,0,0,.138-1.517Z" fill="#fff"/><path d="M316.447,534.76h-3.472V523H316.2v1.671a5.266,5.266,0,0,1,1.489-1.562,2.985,2.985,0,0,1,1.5-.376,4.791,4.791,0,0,1,2.284.587l-1.073,2.713a3.3,3.3,0,0,0-1.632-.509,2.067,2.067,0,0,0-1.234.36,2.408,2.408,0,0,0-.8,1.3,16.642,16.642,0,0,0-.291,3.943Z" fill="#fff"/><path d="M329.968,523v2.479h-2.374v4.74a10.354,10.354,0,0,0,.07,1.678.7.7,0,0,0,.307.394,1.077,1.077,0,0,0,.588.155,4.933,4.933,0,0,0,1.4-.3l.3,2.414a7.614,7.614,0,0,1-2.742.465,4.771,4.771,0,0,1-1.693-.283,2.456,2.456,0,0,1-1.1-.731,2.691,2.691,0,0,1-.49-1.213,13.629,13.629,0,0,1-.109-2.192v-5.128h-1.6V523h1.6v-2.338l3.481-1.816V523Z" fill="#fff"/><path d="M344.31,534.76h-3.471v-6a8.347,8.347,0,0,0-.223-2.464,1.76,1.76,0,0,0-.723-.87,2.232,2.232,0,0,0-1.2-.31,3.005,3.005,0,0,0-1.617.443,2.267,2.267,0,0,0-.983,1.174,9.11,9.11,0,0,0-.265,2.7v5.327h-3.473V523h3.226v1.726a5.461,5.461,0,0,1,4.324-1.993,5.743,5.743,0,0,1,2.1.371,3.516,3.516,0,0,1,1.438.947,3.3,3.3,0,0,1,.678,1.307,8.659,8.659,0,0,1,.193,2.093Z" fill="#fff"/><path d="M355.429,531.017l3.458.52a5.157,5.157,0,0,1-2.1,2.6,6.734,6.734,0,0,1-3.6.892,6.164,6.164,0,0,1-5.063-2.005,6.233,6.233,0,0,1-1.3-4.052,6.092,6.092,0,0,1,1.7-4.58,5.937,5.937,0,0,1,4.311-1.656,6.158,6.158,0,0,1,4.62,1.733q1.693,1.732,1.62,5.311h-8.7a2.961,2.961,0,0,0,.84,2.154,2.78,2.78,0,0,0,2,.768,2.287,2.287,0,0,0,1.371-.4,2.424,2.424,0,0,0,.84-1.284m.2-3.146a2.794,2.794,0,0,0-.779-2.053,2.7,2.7,0,0,0-3.68.038,2.684,2.684,0,0,0-.729,2.015Z" fill="#fff"/><path d="M365.226,534.76h-3.471V523h3.224v1.671a5.229,5.229,0,0,1,1.489-1.562,2.983,2.983,0,0,1,1.5-.376,4.8,4.8,0,0,1,2.286.587l-1.076,2.713a3.292,3.292,0,0,0-1.631-.509,2.07,2.07,0,0,0-1.235.36,2.407,2.407,0,0,0-.8,1.3,16.55,16.55,0,0,0-.29,3.943Z" fill="#fff"/><path d="M378.828,534.76V518.524h12.414v2.747h-8.759v3.843h7.562v2.747h-7.562v6.9Z" fill="#fff"/><path d="M393.429,528.714a5.861,5.861,0,0,1,.852-3A5.567,5.567,0,0,1,396.7,523.5a7.832,7.832,0,0,1,3.488-.764,6.972,6.972,0,0,1,4.881,1.733,5.675,5.675,0,0,1,1.9,4.38,5.736,5.736,0,0,1-1.923,4.424,6.89,6.89,0,0,1-4.836,1.756,8.34,8.34,0,0,1-3.439-.731,5.367,5.367,0,0,1-2.49-2.144,6.54,6.54,0,0,1-.852-3.437m3.557.165a3.635,3.635,0,0,0,.928,2.681,3.267,3.267,0,0,0,4.564,0,3.686,3.686,0,0,0,.919-2.7,3.622,3.622,0,0,0-.919-2.658,3.265,3.265,0,0,0-4.564,0,3.634,3.634,0,0,0-.928,2.68" fill="#fff"/><path d="M413.01,534.76h-3.471V523h3.222v1.671a5.279,5.279,0,0,1,1.489-1.562,2.993,2.993,0,0,1,1.5-.376,4.8,4.8,0,0,1,2.286.587l-1.076,2.713a3.289,3.289,0,0,0-1.632-.509,2.069,2.069,0,0,0-1.234.36,2.4,2.4,0,0,0-.8,1.3,16.476,16.476,0,0,0-.291,3.943Z" fill="#fff"/><path d="M426.684,534.76v-16.1h3.659v13.367h9.091v2.736Z" fill="#fff"/><path d="M442.015,518.523h3.474V521.4h-3.474Zm0,4.477h3.474v11.76h-3.474Z" fill="#fff"/><path d="M447.526,523h1.928v-.887a5.33,5.33,0,0,1,.351-2.215,2.657,2.657,0,0,1,1.3-1.191,5.466,5.466,0,0,1,2.39-.459,10.688,10.688,0,0,1,2.9.4l-.47,2.17a7.551,7.551,0,0,0-1.593-.177,1.526,1.526,0,0,0-1.081.316,1.69,1.69,0,0,0-.327,1.212V523h2.6v2.446h-2.6v9.314h-3.471v-9.314h-1.928Z" fill="#fff"/><path d="M465.067,531.017l3.459.52a5.154,5.154,0,0,1-2.106,2.6,6.726,6.726,0,0,1-3.6.892,6.171,6.171,0,0,1-5.066-2.005,6.249,6.249,0,0,1-1.3-4.052,6.088,6.088,0,0,1,1.7-4.58,5.936,5.936,0,0,1,4.31-1.656,6.162,6.162,0,0,1,4.622,1.733q1.692,1.732,1.618,5.311h-8.7a2.961,2.961,0,0,0,.84,2.154,2.775,2.775,0,0,0,2,.768,2.293,2.293,0,0,0,1.373-.4,2.428,2.428,0,0,0,.838-1.284m.2-3.146a2.806,2.806,0,0,0-.778-2.053,2.7,2.7,0,0,0-3.681.038,2.689,2.689,0,0,0-.73,2.015Z" fill="#fff"/><path d="M301.415,490.969H308.8c2.259,0,5.045-1.1,5.045-4.625,0-3.683-2.3-4.625-4.965-4.625h-7.467Zm-5.045-13.246h12.715c8.232,0,9.806,5.173,9.806,8.661,0,3.447-1.574,8.621-9.806,8.581h-7.67V505.7H296.37Z" fill="#fff"/><path d="M322.643,477.723h4.6v10.385h.079a7.361,7.361,0,0,1,6.258-3.214c4.519,0,7.385,2.351,7.385,6.9V505.7h-4.6V492.967c-.08-3.175-1.372-4.547-4.076-4.547a5,5,0,0,0-5.045,5.331V505.7h-4.6Z" fill="#fff"/><path d="M345.93,485.442h4.6V505.7h-4.6Zm0-7.718h4.6v4.232h-4.6Z" fill="#fff"/><rect width="4.602" height="27.98" transform="translate(355.655 477.724)" fill="#fff"/><rect width="4.602" height="27.98" transform="translate(365.381 477.724)" fill="#fff"/><path d="M375.106,485.442h4.6V505.7h-4.6Zm0-7.718h4.6v4.232h-4.6Z" fill="#fff"/><path d="M395.125,488.421c-3.874,0-5.853,2.861-5.853,7.17,0,4.077,2.141,7.133,5.853,7.133,4.2,0,5.772-3.605,5.772-7.133,0-3.682-1.979-7.17-5.772-7.17m-10.293-2.979h4.36v2.743h.08c1.292-2.312,3.793-3.292,6.458-3.292,6.579,0,9.766,4.861,9.766,10.777,0,5.447-2.825,10.581-9,10.581-2.664,0-5.527-.94-6.981-3.174h-.081v10.111h-4.6Z" fill="#fff"/><path d="M408.326,505.605V478.551h5.466v22.456h13.6v4.6Z" fill="#fff"/><path d="M429.986,478.327h5.188v4.839h-5.188Zm0,7.52h5.188v19.758h-5.188Z" fill="#fff"/><path d="M436.958,485.847h2.887v-1.491a9.984,9.984,0,0,1,.524-3.721,4.209,4.209,0,0,1,1.937-2,7.4,7.4,0,0,1,3.575-.77,14.36,14.36,0,0,1,4.344.671l-.7,3.645a10.269,10.269,0,0,0-2.382-.3,2.128,2.128,0,0,0-1.62.53,3.1,3.1,0,0,0-.492,2.035v1.4h3.884v4.107h-3.884v15.651h-5.183V489.954h-2.887Z" fill="#fff"/><path d="M463.188,499.317l5.171.87a8.587,8.587,0,0,1-3.15,4.364,9.212,9.212,0,0,1-5.384,1.5q-5.117,0-7.572-3.371a11.364,11.364,0,0,1-1.941-6.8q0-4.92,2.548-7.691a8.363,8.363,0,0,1,6.45-2.781,8.684,8.684,0,0,1,6.9,2.908q2.532,2.914,2.423,8.921H455.629a5.314,5.314,0,0,0,1.261,3.619,3.93,3.93,0,0,0,2.99,1.291,3.152,3.152,0,0,0,2.048-.67,4.162,4.162,0,0,0,1.26-2.154m.3-5.287a5.1,5.1,0,0,0-1.165-3.452,3.732,3.732,0,0,0-5.5.066,4.813,4.813,0,0,0-1.093,3.386Z" fill="#fff"/><path d="M289.973,436.895h-2.882V434h2.882Zm0,3.408h-2.882v-2.9h2.882Zm0,3.406h-2.882v-2.9h2.882Zm0,3.407h-2.882v-2.9h2.882Zm0,3.408h-2.882v-2.9h2.882Zm0,3.406h-2.882v-2.9h2.882Zm0,3.407h-2.882v-2.9h2.882Zm0,3.407h-2.882v-2.9h2.882Zm0,3.407h-2.882v-2.9h2.882Zm0,3.407h-2.882v-2.9h2.882Zm0,3.408h-2.882v-2.9h2.882Zm0,3.407h-2.882v-2.9h2.882Zm0,3.407h-2.882v-2.9h2.882Zm0,3.407h-2.882v-2.9h2.882Zm0,3.407h-2.882v-2.9h2.882Zm0,3.408h-2.882v-2.9h2.882Zm0,3.406h-2.882v-2.9h2.882Zm0,3.4h-2.882v-2.895h2.882Zm0,3.408h-2.882v-2.9h2.882Zm0,3.407h-2.882v-2.9h2.882Zm-3.394-64.733H283.7V434h2.882Zm0,3.408H283.7v-2.9h2.882Zm0,3.406H283.7v-2.9h2.882Zm0,3.407H283.7v-2.9h2.882Zm0,3.408H283.7v-2.9h2.882Zm0,3.406H283.7v-2.9h2.882Zm0,3.407H283.7v-2.9h2.882Zm0,3.407H283.7v-2.9h2.882Zm0,3.407H283.7v-2.9h2.882Zm0,3.407H283.7v-2.9h2.882Zm0,3.408H283.7v-2.9h2.882Zm0,3.407H283.7v-2.9h2.882Zm0,3.407H283.7v-2.9h2.882Zm0,3.407H283.7v-2.9h2.882Zm0,3.407H283.7v-2.9h2.882Zm0,3.408H283.7v-2.9h2.882Zm0,3.406H283.7v-2.9h2.882Zm0,3.4H283.7v-2.895h2.882Zm0,3.408H283.7v-2.9h2.882Zm0,3.407H283.7v-2.9h2.882Zm0,3.408H283.7v-2.9h2.882Zm3.36,0h-2.882v-2.9h2.882Zm-6.751-68.141H280.3V434h2.884Zm0,3.408H280.3v-2.9h2.884Zm0,3.406H280.3v-2.9h2.884Zm0,3.407H280.3v-2.9h2.884Zm0,3.408H280.3v-2.9h2.884Zm0,3.406H280.3v-2.9h2.884Zm0,3.407H280.3v-2.9h2.884Zm0,3.407H280.3v-2.9h2.884Zm0,3.407H280.3v-2.9h2.884Zm0,3.407H280.3v-2.9h2.884Zm0,3.408H280.3v-2.9h2.884Zm0,3.407H280.3v-2.9h2.884Zm0,3.407H280.3v-2.9h2.884Zm0,3.407H280.3v-2.9h2.884Zm0,3.407H280.3v-2.9h2.884Zm0,3.408H280.3v-2.9h2.884Zm0,3.406H280.3v-2.9h2.884Zm0,3.4H280.3v-2.895h2.884Zm0,3.408H280.3v-2.9h2.884Zm0,3.407H280.3v-2.9h2.884Zm0,3.408H280.3v-2.9h2.884Zm-3.394-68.141h-2.883V434h2.883Zm0,3.408h-2.883v-2.9h2.883Zm0,3.406h-2.883v-2.9h2.883Zm0,3.407h-2.883v-2.9h2.883Zm0,3.408h-1.982q-.414-.756-.9-1.474l0,0v-1.427h2.883Zm0,3.406h-.585c.048.171.106.339.149.511h.436v2.9h-.033c.006.17.029.34.029.51h0v.069a15.307,15.307,0,0,0-1.713-6.882h1.713Zm0,10.221h-.019c0,.171-.019.34-.03.509h.049v2.9h-.482c-.042.171-.094.34-.141.51h.623v2.9h-1.741c-.085.17-.169.342-.259.509h2v2.9h-2.883v-1.425h0a16.545,16.545,0,0,0,2.885-9.157Zm0,13.629h-2.883v-2.9h2.883Zm0,3.407h-2.883v-2.9h2.883Zm0,3.407h-2.883v-2.9h2.883Zm0,3.408h-2.883v-2.9h2.883Zm0,3.406h-2.883v-2.9h2.883Zm0,3.4h-2.883v-2.895h2.883Zm0,3.408h-2.883v-2.9h2.883Zm0,3.407h-2.883v-2.9h2.883Zm0,3.408h-2.883v-2.9h2.883Zm-3.932-30.663c.187-.229.364-.463.54-.7v.7Zm.54,3.407h-2.884v-1l0,0a18.732,18.732,0,0,0,1.923-1.9l0,0h.967Zm0,3.407h-2.884v-2.9H276.4Zm0,3.407h-2.884v-2.9H276.4Zm0,3.408h-2.884v-2.9H276.4Zm0,3.406h-2.884v-2.9H276.4Zm0,3.4h-2.884v-2.895H276.4Zm0,3.408h-2.884v-2.9H276.4Zm0,3.407h-2.884v-2.9H276.4Zm0,3.408h-2.884v-2.9H276.4Zm-4.165-27.256h0c.26-.187.521-.374.771-.575v.575Zm.771,3.407h-2.884V479.1c-.037.021-.078.038-.116.059q.767-.4,1.491-.872l0,0h1.512Zm0,3.407h-2.884v-2.9h2.884Zm0,3.408h-2.884v-2.9h2.884Zm0,3.406h-2.884v-2.9h2.884Zm0,3.4h-2.884v-2.895h2.884Zm0,3.408h-2.884v-2.9h2.884Zm0,3.407h-2.884v-2.9h2.884Zm0,3.408h-2.884v-2.9h2.884Zm-6.275-23.849v-.706a17.7,17.7,0,0,0,2.882-1.131v1.837Zm2.882,3.407h-2.882v-2.9h2.882Zm0,3.408h-2.882v-2.9h2.882Zm0,3.406h-2.882v-2.9h2.882Zm0,3.4h-2.882v-2.895h2.882Zm0,3.408h-2.882v-2.9h2.882Zm0,3.407h-2.882v-2.9h2.882Zm0,3.408h-2.882v-2.9h2.882Zm-6.276-23.849v-.073c-.134.01-.272.015-.408.022a16.841,16.841,0,0,0,3.29-.521v.572Zm2.882,3.407h-2.882v-2.9h2.882Zm0,3.408h-2.882v-2.9h2.882Zm0,3.406h-2.882v-2.9h2.882Zm0,3.4h-2.882v-2.895h2.882Zm0,3.408h-2.882v-2.9h2.882Zm0,3.407h-2.882v-2.9h2.882Zm0,3.408h-2.882v-2.9h2.882Zm-4.26-23.849c.292,0,.578-.031.868-.047v.047Zm.868,3.407h-2.882v-2.9h2.882Zm0,3.408h-2.882v-2.9h2.882Zm0,3.406h-2.882v-2.9h2.882Zm0,3.4h-2.882v-2.895h2.882Zm0,3.408h-2.882v-2.9h2.882Zm0,3.407h-2.882v-2.9h2.882Zm0,3.408h-2.882v-2.9h2.882Zm-3.393-20.442h-2.882v-2.9h2.882Zm0,3.408h-2.882v-2.9h2.882Zm0,3.406h-2.882v-2.9h2.882Zm0,3.4h-2.882v-2.895h2.882Zm0,3.408h-2.882v-2.9h2.882Zm0,3.407h-2.882v-2.9h2.882Zm0,3.408h-2.882v-2.9h2.882Zm-3.393-20.442H253.16v-2.9h2.883Zm0,3.408H253.16v-2.9h2.883Zm0,3.406H253.16v-2.9h2.883Zm0,3.4H253.16v-2.895h2.883Zm0,3.408H253.16v-2.9h2.883Zm0,3.407H253.16v-2.9h2.883Zm0,3.408H253.16v-2.9h2.883Zm-3.393-20.442h-2.882v-2.9h2.882Zm0,3.408h-2.882v-2.9h2.882Zm0,3.406h-2.882v-2.9h2.882Zm0,3.4h-2.882v-2.895h2.882Zm0,3.408h-2.882v-2.9h2.882Zm0,3.407h-2.882v-2.9h2.882Zm0,3.408h-2.882v-2.9h2.882Zm-3.394-3.408h-2.882v-2.9h2.882Zm0,3.408h-2.882v-2.9h2.882Zm-3.392-3.408h-2.882v-2.9h2.882Zm0,3.408h-2.882v-2.9h2.882Zm-3.393-3.408h-2.883v-2.9h2.883Zm0,3.408h-2.883v-2.9h2.883Zm-3.392-3.408H236.2v-2.9h2.882Zm0,3.408H236.2v-2.9h2.882Zm-3.394-3.408H232.8v-2.9h2.884Zm0,3.408H232.8v-2.9h2.884Zm-3.393-68.141h-2.883V434h2.883Zm0,3.408h-2.883v-2.9h2.883Zm0,3.406h-2.883v-2.9h2.883Zm0,3.407h-2.883v-2.9h2.883Zm0,3.408h-2.883v-2.9h2.883Zm0,3.406h-2.883v-2.9h2.883Zm0,3.407h-2.883v-2.9h2.883Zm0,3.407h-2.883v-2.9h2.883Zm0,3.407h-2.883v-2.9h2.883Zm0,3.407h-2.883v-2.9h2.883Zm0,3.408h-2.883v-2.9h2.883Zm0,3.407h-2.883v-2.9h2.883Zm0,3.407h-2.883v-2.9h2.883Zm0,3.407h-2.883v-2.9h2.883Zm0,3.407h-2.883v-2.9h2.883Zm0,3.408h-2.883v-2.9h2.883Zm0,3.406h-2.883v-2.9h2.883Zm0,3.4h-2.883v-2.895h2.883Zm0,3.408h-2.883v-2.9h2.883Zm0,3.407h-2.883v-2.9h2.883Zm0,3.408h-2.883v-2.9h2.883ZM228.9,436.895h-2.883V434H228.9Zm0,3.408h-2.883v-2.9H228.9Zm0,3.406h-2.883v-2.9H228.9Zm0,3.407h-2.883v-2.9H228.9Zm0,3.408h-2.883v-2.9H228.9Zm0,3.406h-2.883v-2.9H228.9Zm0,3.407h-2.883v-2.9H228.9Zm0,3.407h-2.883v-2.9H228.9Zm0,3.407h-2.883v-2.9H228.9Zm0,3.407h-2.883v-2.9H228.9Zm0,3.408h-2.883v-2.9H228.9Zm0,3.407h-2.883v-2.9H228.9Zm0,3.407h-2.883v-2.9H228.9Zm0,3.407h-2.883v-2.9H228.9Zm0,3.407h-2.883v-2.9H228.9Zm0,3.408h-2.883v-2.9H228.9Zm0,3.406h-2.883v-2.9H228.9Zm0,3.4h-2.883v-2.895H228.9Zm0,3.408h-2.883v-2.9H228.9Zm0,3.407h-2.883v-2.9H228.9Zm0,3.408h-2.883v-2.9H228.9Zm-3.393-68.141h-2.882V434h2.882Zm0,3.408h-2.882v-2.9h2.882Zm0,3.406h-2.882v-2.9h2.882Zm0,3.407h-2.882v-2.9h2.882Zm0,3.408h-2.882v-2.9h2.882Zm0,3.406h-2.882v-2.9h2.882Zm0,3.407h-2.882v-2.9h2.882Zm0,3.407h-2.882v-2.9h2.882Zm0,3.407h-2.882v-2.9h2.882Zm0,3.407h-2.882v-2.9h2.882Zm0,3.408h-2.882v-2.9h2.882Zm0,3.407h-2.882v-2.9h2.882Zm0,3.407h-2.882v-2.9h2.882Zm0,3.407h-2.882v-2.9h2.882Zm0,3.407h-2.882v-2.9h2.882Zm0,3.408h-2.882v-2.9h2.882Zm0,3.406h-2.882v-2.9h2.882Zm0,3.4h-2.882v-2.895h2.882Zm0,3.408h-2.882v-2.9h2.882Zm0,3.407h-2.882v-2.9h2.882Zm0,3.408h-2.882v-2.9h2.882Zm-3.394-68.141H219.23V434h2.882Zm0,3.408H219.23v-2.9h2.882Zm0,3.406H219.23v-2.9h2.882Zm0,3.407H219.23v-2.9h2.882Zm0,3.408H219.23v-2.9h2.882Zm0,3.406H219.23v-2.9h2.882Zm0,3.407H219.23v-2.9h2.882Zm0,3.407H219.23v-2.9h2.882Zm0,3.407H219.23v-2.9h2.882Zm0,3.407H219.23v-2.9h2.882Zm0,3.408H219.23v-2.9h2.882Zm0,3.407H219.23v-2.9h2.882Zm0,3.407H219.23v-2.9h2.882Zm0,3.407H219.23v-2.9h2.882Zm0,3.407H219.23v-2.9h2.882Zm0,3.408H219.23v-2.9h2.882Zm0,3.406H219.23v-2.9h2.882Zm0,3.4H219.23v-2.895h2.882Zm0,3.408H219.23v-2.9h2.882Zm0,3.407H219.23v-2.9h2.882Zm0,3.408H219.23v-2.9h2.882ZM232.8,437.4h2.884v2.9H232.8Zm0-3.407h2.884v2.9H232.8Zm3.4,3.407h2.882v2.9H236.2Zm0-3.407h2.882v2.9H236.2Zm3.391,3.407h2.883v2.9h-2.883Zm0-3.407h2.883v2.9h-2.883Zm3.394,3.407h2.882v2.9h-2.882Zm0-3.407h2.882v2.9h-2.882Zm3.392,3.407h2.882v2.9h-2.882Zm0-3.407h2.882v2.9h-2.882Zm3.394,3.407h2.882v2.9h-2.882Zm0-3.407h2.882v2.9h-2.882Zm3.392,3.407h2.883v2.9H253.16Zm0-3.407h2.883v2.9H253.16Zm3.393,3.407h2.882v2.9h-2.882Zm0-3.407h2.882v2.9h-2.882Zm3.394,3.407h2.882v2.9h-2.882Zm0-3.407h2.882v2.9h-2.882Zm1.725,6.814h1.157v.061c.027,0,.055,0,.082.005-.412-.031-.822-.066-1.239-.066m1.157,16.525h-2.882v-2.9h2.882Zm-2.882,7.323h2.882v2.9h-2.882Zm-3.394,0h2.882v2.9h-2.882Zm-3.393,0h2.883v2.9H253.16Zm-3.392,0h2.882v2.9h-2.882Zm2.882-7.323h-2.882v-2.9h2.882Zm-2.882.51h2.882v2.9h-2.882Zm2.882,6.3h-2.882v-2.9h2.882Zm3.393-6.814H253.16v-2.9h2.883Zm-2.883,3.917h2.883v2.9H253.16Zm0-3.407h2.883v2.9H253.16Zm6.276-.51h-2.882v-2.9h2.882Zm-2.883,3.917h2.882v2.9h-2.882Zm0-3.407h2.882v2.9h-2.882Zm6.276,6.3h-2.882v-2.9h2.882Zm-2.882-6.3h2.882v2.9h-2.882Zm6.274-17.035v.629c.171.046.343.083.512.133v-.762h2.882v1.914a18.066,18.066,0,0,0-6.276-1.826v-.088Zm-2.882-3.407h2.882v2.9h-2.882Zm0-3.407h2.882v2.9h-2.882Zm3.394,3.407h2.882v2.9h-2.882Zm0-3.407h2.882v2.9h-2.882Zm3.391,6.814h2.884v2.9h-1.634q-.771-.491-1.591-.9c.116.053.231.1.341.164Zm0-3.407h2.884v2.9h-2.884Zm0-3.407h2.884v2.9h-2.884Zm2.885,10.86c-.283-.224-.583-.431-.88-.639h.879v.639h0m.509-.639H276.4v2.9h-1a19.32,19.32,0,0,0-1.89-1.827l0,.005Zm0-3.407H276.4v2.9h-2.884Zm0-3.407H276.4v2.9h-2.884Zm2.317,10.218,0,0h.565v.708c-.184-.241-.374-.478-.567-.711M273.518,434H276.4v2.9h-2.884Zm-54.8,71.548h71.764V433.488H218.72Z" fill="#fff"/><path d="M279.826,457.9s.51-8.789-9.069-14.585a17.405,17.405,0,0,0-9.053-2.55l-28.889-.046v57.528h16.452V481.206h12.806a18.422,18.422,0,0,0,16.011-10.234C279.061,468.589,280.2,467.247,279.826,457.9Zm-16.49,10.166H249.247V453.922h14.089Z" fill="#00194a"/></g></svg>