<?xml version="1.0" encoding="utf-8"?>
<!-- Generator: Adobe Illustrator 16.0.0, SVG Export Plug-In . SVG Version: 6.00 Build 0)  -->
<!DOCTYPE svg PUBLIC "-//W3C//DTD SVG 1.1//EN" "http://www.w3.org/Graphics/SVG/1.1/DTD/svg11.dtd">
<svg version="1.1" id="Layer_1" xmlns="http://www.w3.org/2000/svg" xmlns:xlink="http://www.w3.org/1999/xlink" x="0px" y="0px"
	 width="902.469px" height="342.183px" viewBox="0 0 902.469 342.183" enable-background="new 0 0 902.469 342.183"
	 xml:space="preserve">
<g id="XMLID_84_">
	<path id="XMLID_128_" fill="#213368" d="M236.068,225.039H15.857V4.987H235.91v220.054h0.158V225.039z M19.175,221.878h213.734
		V8.146H19.175V221.878z"/>
	<rect id="XMLID_127_" x="17.438" y="15.413" fill="#213368" width="216.892" height="3.159"/>
	<rect id="XMLID_126_" x="17.438" y="25.68" fill="#213368" width="216.892" height="3.161"/>
	<rect id="XMLID_125_" x="17.438" y="35.949" fill="#213368" width="216.892" height="3.159"/>
	<rect id="XMLID_124_" x="17.438" y="46.217" fill="#213368" width="216.892" height="3.161"/>
	<rect id="XMLID_123_" x="17.438" y="56.643" fill="#213368" width="216.892" height="3.159"/>
	<rect id="XMLID_122_" x="17.438" y="66.912" fill="#213368" width="216.892" height="3.159"/>
	<rect id="XMLID_121_" x="17.438" y="77.337" fill="#213368" width="216.892" height="3.159"/>
	<rect id="XMLID_120_" x="17.438" y="87.605" fill="#213368" width="216.892" height="3.16"/>
	<rect id="XMLID_119_" x="17.438" y="98.031" fill="#213368" width="216.892" height="3.159"/>
	<rect id="XMLID_118_" x="17.438" y="108.14" fill="#213368" width="216.892" height="3.16"/>
	<rect id="XMLID_117_" x="17.438" y="118.567" fill="#213368" width="216.892" height="3.159"/>
	<rect id="XMLID_116_" x="17.438" y="128.835" fill="#213368" width="216.892" height="3.158"/>
	<rect id="XMLID_115_" x="17.438" y="139.259" fill="#213368" width="216.892" height="3.16"/>
	<rect id="XMLID_114_" x="17.438" y="149.53" fill="#213368" width="216.892" height="3.159"/>
	<rect id="XMLID_113_" x="17.438" y="159.955" fill="#213368" width="216.892" height="3.16"/>
	<rect id="XMLID_112_" x="17.438" y="170.222" fill="#213368" width="216.892" height="3.16"/>
	<rect id="XMLID_111_" x="17.438" y="180.491" fill="#213368" width="216.892" height="3.159"/>
	<rect id="XMLID_110_" x="17.438" y="190.759" fill="#213368" width="216.892" height="3.16"/>
	<rect id="XMLID_109_" x="17.438" y="201.183" fill="#213368" width="216.892" height="3.16"/>
	<rect id="XMLID_108_" x="17.438" y="211.453" fill="#213368" width="216.892" height="3.16"/>
	<rect id="XMLID_107_" x="222.482" y="6.567" fill="#213368" width="3.16" height="216.894"/>
	<rect id="XMLID_106_" x="212.057" y="6.567" fill="#213368" width="3.159" height="216.894"/>
	<rect id="XMLID_105_" x="201.788" y="6.567" fill="#213368" width="3.16" height="216.894"/>
	<rect id="XMLID_104_" x="191.521" y="6.567" fill="#213368" width="3.159" height="216.894"/>
	<rect id="XMLID_103_" x="181.094" y="6.567" fill="#213368" width="3.159" height="216.894"/>
	<rect id="XMLID_102_" x="170.826" y="6.567" fill="#213368" width="3.16" height="216.894"/>
	<rect id="XMLID_101_" x="160.559" y="6.567" fill="#213368" width="3.159" height="216.894"/>
	<rect id="XMLID_100_" x="150.132" y="6.567" fill="#213368" width="3.161" height="216.894"/>
	<rect id="XMLID_99_" x="139.865" y="6.567" fill="#213368" width="3.159" height="216.894"/>
	<rect id="XMLID_98_" x="129.595" y="6.567" fill="#213368" width="3.16" height="216.894"/>
	<rect id="XMLID_97_" x="119.17" y="6.567" fill="#213368" width="3.16" height="216.894"/>
	<rect id="XMLID_96_" x="108.744" y="6.567" fill="#213368" width="3.16" height="216.894"/>
	<rect id="XMLID_95_" x="98.477" y="6.567" fill="#213368" width="3.159" height="216.894"/>
	<rect id="XMLID_94_" x="88.208" y="6.567" fill="#213368" width="3.16" height="216.894"/>
	<rect id="XMLID_93_" x="77.783" y="6.567" fill="#213368" width="3.159" height="216.894"/>
	<rect id="XMLID_92_" x="67.514" y="6.567" fill="#213368" width="3.159" height="216.894"/>
	<rect id="XMLID_91_" x="57.247" y="6.567" fill="#213368" width="3.158" height="216.894"/>
	<rect id="XMLID_90_" x="46.82" y="6.567" fill="#213368" width="3.159" height="216.894"/>
	<rect id="XMLID_89_" x="36.552" y="6.567" fill="#213368" width="3.16" height="216.894"/>
	<rect id="XMLID_88_" x="26.127" y="6.567" fill="#213368" width="3.159" height="216.894"/>
	<path id="XMLID_85_" fill="#213368" d="M187.887,46.06c-10.426-12.639-23.063-19.116-38.07-19.116H58.509V201.5h42.81l0,0h9.163
		v-51.654h45.021c14.375,0,25.908-6.162,34.754-18.641c8.847-12.48,13.269-26.223,13.269-41.23
		C203.526,73.23,198.313,58.697,187.887,46.06z M150.921,108.14h-40.439V68.964h40.439V108.14z"/>
</g>
<g>
	<g>
		<path id="XMLID_83_" fill="#213368" d="M335.431,69.595c0,12.322-5.057,18.482-15.167,18.482c-5.212,0-9.161-2.211-12.162-6.634
			c-3.001,4.423-6.952,6.634-12.164,6.634c-10.111,0-15.006-6.318-15.006-18.799V28.05h10.899v41.072
			c0,5.845,1.738,8.688,5.056,8.688c3.948,0,5.844-3.318,5.844-9.793V28.05h10.899v40.124c0,6.478,1.896,9.795,5.845,9.795
			c3.318,0,5.054-2.842,5.054-8.688V9.093h10.902V69.595L335.431,69.595z"/>
		<rect id="XMLID_82_" x="278.719" y="12.886" fill="#213368" width="41.23" height="7.898"/>
		<path id="XMLID_81_" fill="#213368" d="M388.509,86.972h-10.899V58.38c-2.055,1.422-7.268,2.213-15.64,2.844
			c-6.477,0.315-9.794,3.161-9.794,8.213c0,5.055,2.845,7.582,8.688,7.582c2.529,0,5.215-0.473,8.216-1.42v11.057
			c-3.476,0.475-6.635,0.633-9.321,0.633c-12.322,0-18.482-6.004-18.482-17.852c0-11.216,5.688-17.376,17.22-18.64
			c3.949-0.315,7.898-0.474,12.005-0.79c4.421-0.789,6.634-2.685,6.634-5.687c0-2.212-1.107-3.791-3.16-5.055
			c-2.21-1.264-4.738-1.895-7.897-1.895c-3.161,0-5.846,0.631-8.058,2.053c-2.528,1.579-3.949,3.791-4.423,6.635h-11.059
			c0.79-6.479,3.792-11.532,8.531-14.85c4.107-2.843,9.163-4.266,15.165-4.266c6.162,0,11.216,1.265,15.165,3.951
			c4.739,3.159,7.109,7.897,7.109,14.374V86.972L388.509,86.972z"/>
		<path id="XMLID_80_" fill="#213368" d="M441.429,86.972h-10.9V58.38c-2.055,1.422-7.266,2.213-15.637,2.844
			c-6.478,0.315-9.794,3.161-9.794,8.213c0,5.055,2.843,7.582,8.688,7.582c2.528,0,5.212-0.473,8.213-1.42v11.057
			c-3.476,0.475-6.635,0.633-9.318,0.633c-12.322,0-18.483-6.004-18.483-17.852c0-11.216,5.845-17.376,17.377-18.64
			c3.949-0.315,7.898-0.474,12.006-0.79c4.422-0.789,6.635-2.685,6.635-5.687c0-2.212-1.105-3.791-3.16-5.055
			c-2.212-1.264-4.74-1.895-7.899-1.895c-3.161,0-5.845,0.631-8.057,2.053c-2.528,1.579-3.949,3.791-4.424,6.635h-11.057
			c0.948-6.479,3.791-11.532,8.53-14.85c4.106-2.843,9.162-4.266,15.164-4.266c6.163,0,11.216,1.265,15.167,3.951
			c4.738,3.159,7.107,7.897,7.107,14.374v41.706H441.429L441.429,86.972z"/>
		<rect id="XMLID_79_" x="397.829" y="12.886" fill="#213368" width="41.231" height="7.898"/>
		<path id="XMLID_78_" fill="#213368" d="M494.505,68.332c0,6.477-2.369,11.533-6.947,15.165c-4.107,3.16-9.32,4.582-15.799,4.582
			s-11.848-1.579-15.953-4.739c-4.582-3.633-6.795-8.848-6.795-15.322V28.05h10.9v39.334c0,3.476,1.105,6.002,3.475,7.74
			c2.213,1.738,5.057,2.686,8.373,2.686c3.318,0,6.158-0.947,8.531-2.686c2.209-1.736,3.475-4.423,3.475-7.74V9.092h10.9v59.239
			L494.505,68.332L494.505,68.332z"/>
		<path id="XMLID_77_" fill="#213368" d="M547.744,68.332c0,6.477-2.371,11.533-6.951,15.165c-4.107,3.16-9.322,4.582-15.799,4.582
			c-6.475,0-11.848-1.579-15.953-4.739c-4.584-3.633-6.795-8.848-6.795-15.322V28.05h10.9v39.334c0,3.476,1.105,6.002,3.479,7.74
			c2.207,1.738,5.053,2.686,8.369,2.686c3.318,0,6.162-0.947,8.531-2.686c2.371-1.736,3.475-4.423,3.475-7.74V9.092h10.9v59.239
			L547.744,68.332L547.744,68.332z"/>
		<path id="XMLID_76_" fill="#213368" d="M598.609,68.017c0,13.427-7.582,20.219-22.906,20.219c-14.85,0-22.434-7.582-22.59-22.905
			h10.898c0,8.372,3.949,12.638,11.689,12.638c8.059,0,12.164-3.16,12.164-9.637c0-4.738-3.631-7.424-10.742-8.213
			c-7.895-0.79-13.268-2.053-15.955-3.318c-4.738-2.212-6.949-6.318-6.949-12.322c0-4.898,2.055-9.004,6.162-12.164
			c4.105-3.317,9.158-4.896,15.006-4.896c6.16,0,11.217,1.422,15.164,4.265c4.738,3.317,7.268,8.214,7.428,14.849h-10.902
			c-0.314-3.001-1.738-5.213-4.266-6.635c-2.053-1.264-4.736-1.896-7.736-1.896c-2.689,0-5.059,0.475-7.111,1.579
			c-2.053,1.107-3.002,2.528-3.002,4.425c0,1.737,1.424,3.159,4.268,3.949c1.262,0.314,4.424,0.789,9.162,1.422
			c6.318,0.631,10.898,2.21,14.061,4.422C596.556,56.485,598.609,61.383,598.609,68.017"/>
		<path id="XMLID_71_" fill="#213368" d="M623.251,40.845c0,3.002-0.949,5.688-2.844,7.741c-1.895,2.212-4.424,3.317-7.424,3.317
			c-3.002,0-5.529-1.105-7.424-3.317c-1.896-2.211-2.846-4.739-2.846-7.741c0-3.001,0.947-5.686,2.846-7.897
			c1.895-2.211,4.422-3.316,7.424-3.316c3,0,5.529,1.105,7.424,3.316S623.251,37.844,623.251,40.845 M623.251,74.808
			c0,3.002-0.949,5.688-2.844,7.9c-1.895,2.211-4.424,3.316-7.424,3.316c-3.002,0-5.529-1.105-7.424-3.316
			c-1.896-2.213-2.846-4.74-2.846-7.9c0-3,0.947-5.687,2.846-7.896c1.895-2.211,4.422-3.318,7.424-3.318
			c3,0,5.529,1.106,7.424,3.318C622.302,69.122,623.251,71.65,623.251,74.808 M616.777,40.688c0-2.686-1.266-4.108-3.793-4.108
			c-2.688,0-3.951,1.422-3.951,4.108c0,2.687,1.266,4.108,3.951,4.108C615.511,44.953,616.777,43.532,616.777,40.688
			 M616.777,74.808c0-2.684-1.266-4.106-3.793-4.106c-2.688,0-3.951,1.423-3.951,4.106c0,2.687,1.266,4.109,3.951,4.109
			C615.511,78.917,616.777,77.495,616.777,74.808"/>
		<path id="XMLID_70_" fill="#213368" d="M673.169,87.29h-10.9V47.797c0-6.952-3.947-10.269-11.688-10.269
			c-5.688,0-9.48,1.738-11.217,5.37c2.529,1.897,3.791,3.634,3.791,5.214c0,0.948-0.475,2.37-1.582,3.791
			c-1.102,1.581-1.736,3.001-1.736,4.265V87.29h-10.898V56.327c0-1.264,0.633-2.527,1.896-3.79c1.264-1.423,2.053-2.37,2.053-3.159
			c0-0.949-1.738-2.528-5.369-4.581c0.789-5.53,3.316-9.795,7.896-12.954c4.107-3.001,9.162-4.423,15.322-4.423
			c6.479,0,11.689,1.579,15.797,4.738c4.424,3.476,6.635,8.531,6.635,15.167V87.29L673.169,87.29z"/>
		<polygon id="XMLID_69_" fill="#213368" points="687.705,20.784 649.158,20.784 649.158,6.408 660.218,6.408 660.218,12.886 
			687.705,12.886 		"/>
		<path id="XMLID_68_" fill="#213368" d="M726.406,87.29h-10.898v-8.216c-4.424,5.846-10.111,8.848-16.746,8.848
			c-12.006,0-18.01-6.32-18.01-19.115V28.209h10.9v40.757c0,6.002,2.844,9.002,8.531,9.002c4.105,0,7.738-1.737,10.898-5.055
			c2.844-3.001,4.268-6.002,4.268-9.004V28.051h10.898v59.24L726.406,87.29L726.406,87.29z"/>
		<path id="XMLID_67_" fill="#213368" d="M778.535,63.593c0,8.057-2.369,14.061-7.107,18.324c-4.424,3.633-10.426,5.529-17.85,5.372
			h-19.432V28.051h10.9v48.971l8.059,0.315c3.947,0.157,7.264-0.947,9.951-3.318c3.002-2.527,4.58-5.844,4.58-10.424
			c0-3.633-1.105-6.634-3.16-9.005c-2.053-2.369-4.736-3.633-7.898-3.633h-7.424V40.688h7.424c6.793,0,9.953-4.265,9.164-12.796
			h10.582c0.158,0.949,0.316,1.739,0.316,2.844c0,6.95-2.842,12.162-8.688,15.48c2.84,1.264,5.367,3.317,7.266,6.32
			C777.429,56.011,778.535,59.644,778.535,63.593"/>
		<polygon id="XMLID_66_" fill="#213368" points="775.062,20.784 733.83,20.784 733.83,12.886 764.003,12.886 764.003,5.145 
			775.062,5.145 		"/>
		<path id="XMLID_65_" fill="#213368" d="M830.191,57.749c0,10.742-2.369,18.641-7.107,23.852
			c-4.105,4.425-9.795,6.636-16.902,6.636c-12.639,0-20.379-6.636-23.064-20.063h11.689c2.057,6.478,5.846,9.795,11.375,9.795
			c8.688,0,13.111-6.793,13.111-20.219c0-13.427-4.424-20.063-13.111-20.063c-5.529,0-9.318,3.317-11.375,9.952h-11.689
			c2.686-13.584,10.268-20.219,23.064-20.219c7.107,0,12.639,2.212,16.902,6.793C827.822,39.108,830.191,47.007,830.191,57.749"/>
		<rect id="XMLID_64_" x="784.541" y="12.886" fill="#213368" width="41.229" height="7.898"/>
		<path id="XMLID_63_" fill="#213368" d="M885.166,87.29h-10.9V44.479c0-1.737-0.475-3.159-1.578-4.423
			c-1.105-1.264-2.213-1.895-3.477-1.895l-8.688,6.161l-8.848-6.161c-1.264,0-2.369,0.631-3.475,1.895
			c-1.105,1.264-1.578,2.687-1.578,4.423v20.537c0,2.211-0.16,6.002-0.635,11.216h0.316c1.105-2.054,2.844-5.371,5.215-9.952
			l6.316-9.953h-5.213v-9.478h16.271v8.056l-20.223,32.385H835.72V45.268c0-4.896,1.578-9.003,4.582-12.478
			c3.002-3.317,7.266-5.371,12.479-5.688l7.74,5.53l7.74-5.53c5.213,0.475,9.32,2.371,12.322,5.688
			c3.002,3.475,4.582,7.583,4.582,12.478V87.29L885.166,87.29z"/>
		<path id="XMLID_60_" fill="#213368" d="M281.879,224.722v-96.203h32.226c12.322,0,20.22,0.475,23.853,1.421
			c5.687,1.421,10.426,4.582,14.375,9.478c3.792,4.898,5.845,11.059,5.845,18.799c0,5.846-1.104,10.9-3.317,14.85
			c-2.211,4.105-5.054,7.268-8.53,9.479c-3.476,2.368-6.952,3.791-10.426,4.58c-4.741,0.947-11.848,1.422-20.852,1.422h-13.112
			v36.332h-20.062V224.722L281.879,224.722z M301.941,144.79v27.329H313c7.9,0,13.271-0.475,15.956-1.58
			c2.685-0.947,4.738-2.527,6.319-4.738c1.578-2.213,2.211-4.582,2.211-7.424c0-3.477-1.105-6.318-3.159-8.688
			c-2.053-2.212-4.897-3.634-8.057-4.265c-2.37-0.475-7.267-0.633-14.533-0.633L301.941,144.79L301.941,144.79z"/>
		<path id="XMLID_59_" fill="#213368" d="M386.613,128.519v35.384c6.161-6.95,13.586-10.425,22.115-10.425
			c4.423,0,8.373,0.789,11.848,2.369c3.478,1.58,6.162,3.635,7.898,6.004c1.74,2.527,3.004,5.213,3.635,8.214
			c0.633,3.001,0.947,7.583,0.947,13.899v40.914H413.94v-36.806c0-7.267-0.315-12.006-1.105-13.901
			c-0.79-1.895-2.053-3.474-3.791-4.738c-1.896-1.105-4.107-1.737-6.951-1.737c-3.158,0-6.003,0.789-8.53,2.211
			c-2.528,1.422-4.267,3.792-5.529,6.793c-1.105,3.001-1.737,7.424-1.737,13.269v34.91h-18.799v-96.359H386.613L386.613,128.519z"/>
		<path id="XMLID_56_" fill="#213368" d="M448.064,128.519h19.113v17.06h-19.113V128.519z M448.064,155.058h19.113v69.664h-19.113
			V155.058z"/>
		<rect id="XMLID_55_" x="482.027" y="128.519" fill="#213368" width="19.113" height="96.203"/>
		<rect id="XMLID_54_" x="516.148" y="128.519" fill="#213368" width="19.115" height="96.203"/>
		<path id="XMLID_51_" fill="#213368" d="M550.113,128.519h19.115v17.06h-19.115V128.519z M550.113,155.058h19.115v69.664h-19.115
			V155.058z"/>
		<path id="XMLID_48_" fill="#213368" d="M583.603,155.058h17.85v10.267c2.367-3.476,5.371-6.317,9.318-8.53
			c3.951-2.211,8.373-3.316,13.113-3.316c8.369,0,15.48,3.158,21.326,9.479c5.844,6.318,8.846,15.165,8.846,26.539
			c0,11.688-3.002,20.693-8.846,27.17c-5.846,6.479-13.111,9.637-21.326,9.637c-3.949,0-7.586-0.791-10.9-2.369
			c-3.162-1.58-6.635-4.105-10.27-7.898v35.066h-19.111V155.058L583.603,155.058z M602.558,188.704
			c0,7.899,1.578,13.587,4.896,17.38c3.16,3.789,7.107,5.527,11.848,5.527c4.424,0,8.059-1.738,11.059-5.215
			c3.002-3.475,4.424-9.004,4.424-16.9c0-7.268-1.578-12.796-4.58-16.273c-3.002-3.474-6.795-5.369-11.219-5.369
			c-4.578,0-8.529,1.738-11.688,5.214C604.136,176.7,602.558,181.912,602.558,188.704"/>
		<polygon id="XMLID_47_" fill="#213368" points="665.273,224.722 665.273,129.308 685.333,129.308 685.333,208.609 
			735.412,208.609 735.412,224.722 		"/>
		<path id="XMLID_44_" fill="#213368" d="M745.046,128.519h19.113v17.06h-19.113V128.519z M745.046,155.058h19.113v69.664h-19.113
			V155.058z"/>
		<path id="XMLID_43_" fill="#213368" d="M770.638,155.058h10.584v-5.213c0-5.846,0.631-10.27,1.895-13.113s3.633-5.211,7.109-7.107
			s7.896-2.686,13.109-2.686c5.373,0,10.74,0.789,15.955,2.369l-2.525,12.795c-3.002-0.631-6.006-1.104-8.848-1.104
			c-2.844,0-4.738,0.631-6.002,1.895c-1.266,1.265-1.736,3.635-1.736,7.107v4.898h14.215v14.533h-14.215v55.289h-18.801v-55.289
			h-10.586v-14.375H770.638z"/>
		<path id="XMLID_40_" fill="#213368" d="M867.158,202.607l19.113,3c-2.527,6.795-6.318,11.85-11.531,15.324
			c-5.213,3.477-11.848,5.213-19.746,5.213c-12.48,0-21.801-3.949-27.803-11.848c-4.74-6.318-7.109-14.375-7.109-24.011
			c0-11.534,3.158-20.538,9.32-27.172c6.318-6.478,14.219-9.795,23.695-9.795c10.742,0,19.271,3.476,25.434,10.269
			s9.164,17.379,8.848,31.438h-47.865c0.158,5.526,1.736,9.792,4.58,12.794c3.002,3,6.637,4.582,11.059,4.582
			c3.002,0,5.531-0.789,7.582-2.369C864.63,208.609,866.21,206.083,867.158,202.607 M868.261,183.964
			c-0.156-5.369-1.578-9.318-4.264-12.162c-2.686-2.842-6.004-4.106-9.951-4.106c-4.107,0-7.586,1.422-10.27,4.422
			c-2.686,3.003-4.107,6.952-3.951,12.007h28.436V183.964z"/>
	</g>
	<g id="XMLID_7_">
		<polygon id="XMLID_39_" fill="#213368" points="38.132,336.091 38.132,308.921 15.068,271.798 30.074,271.798 44.766,297.23 
			59.301,271.798 73.99,271.798 50.768,309.078 50.768,336.091 		"/>
		<path id="XMLID_36_" fill="#213368" d="M70.832,312.078c0-4.105,0.948-8.057,3.001-11.846c2.054-3.793,4.739-6.795,8.374-8.85
			c3.632-2.051,7.583-3,12.164-3c6.95,0,12.479,2.211,16.902,6.795c4.423,4.578,6.634,10.424,6.634,17.377
			c0,7.107-2.211,12.951-6.634,17.533c-4.424,4.582-10.111,6.949-16.746,6.949c-4.107,0-8.214-0.945-12.006-2.844
			c-3.791-1.895-6.634-4.736-8.688-8.529C71.78,322.031,70.832,317.451,70.832,312.078 M83.154,312.71
			c0,4.582,1.105,8.213,3.159,10.586c2.211,2.529,4.74,3.633,7.898,3.633c3.16,0,5.845-1.264,7.899-3.633
			c2.053-2.527,3.16-6.004,3.16-10.742c0-4.582-1.107-8.057-3.16-10.584c-2.054-2.529-4.739-3.635-7.899-3.635
			c-3.158,0-5.844,1.266-7.898,3.635C84.259,304.654,83.154,308.13,83.154,312.71"/>
		<path id="XMLID_35_" fill="#213368" d="M157.241,336.091v-6.949c-1.738,2.525-3.792,4.422-6.477,5.844
			c-2.685,1.42-5.528,2.211-8.529,2.211c-3.003,0-5.846-0.631-8.216-2.053c-2.37-1.424-4.265-3.316-5.212-5.844
			c-1.105-2.531-1.581-6.004-1.581-10.271V289.49h12.006v21.324c0,6.637,0.159,10.586,0.633,12.01
			c0.473,1.418,1.264,2.684,2.37,3.473c1.105,0.789,2.684,1.264,4.423,1.264c2.054,0,3.949-0.631,5.528-1.734
			c1.581-1.105,2.687-2.529,3.317-4.27c0.633-1.736,0.949-5.844,0.949-12.635v-19.59h12.004v46.76H157.241L157.241,336.091z"/>
		<path id="XMLID_34_" fill="#213368" d="M192.469,336.091h-12.007V289.49h11.215v6.635c1.897-3.158,3.634-5.213,5.214-6.16
			c1.579-0.949,3.316-1.42,5.213-1.42c2.684,0,5.371,0.787,7.898,2.367l-3.792,10.742c-2.054-1.264-3.95-2.055-5.687-2.055
			c-1.737,0-3.16,0.475-4.266,1.424c-1.106,0.945-2.053,2.684-2.843,5.211c-0.632,2.525-0.947,7.738-0.947,15.641v14.217H192.469z"
			/>
		<path id="XMLID_31_" fill="#213368" d="M239.544,336.091v-64.293h20.378c7.74,0,12.795,0.313,15.006,0.947
			c3.634,0.947,6.635,3,9.005,6.316c2.37,3.158,3.634,7.426,3.634,12.48c0,3.949-0.633,7.268-2.056,9.953
			c-1.42,2.686-3.159,4.736-5.371,6.318c-2.211,1.576-4.422,2.527-6.635,3c-3.001,0.633-7.423,0.949-13.109,0.949h-8.216v24.326
			h-12.636V336.091z M252.18,282.697v18.326h6.952c5.054,0,8.372-0.316,10.109-0.951c1.738-0.633,3.002-1.736,3.948-3.154
			c0.949-1.426,1.422-3.162,1.422-5.059c0-2.369-0.632-4.268-2.053-5.844c-1.423-1.582-3-2.527-5.055-2.846
			c-1.58-0.316-4.581-0.473-9.163-0.473H252.18L252.18,282.697z"/>
		<path id="XMLID_28_" fill="#213368" d="M306.996,303.707l-10.901-2.053c1.264-4.582,3.318-7.898,6.32-9.953
			c3-2.211,7.423-3.316,13.427-3.316c5.371,0,9.32,0.631,12.004,1.895c2.686,1.266,4.425,3,5.53,4.898
			c1.105,2.051,1.58,5.686,1.58,11.057l-0.158,14.373c0,4.111,0.158,7.111,0.633,9.006c0.315,1.896,1.105,4.107,2.211,6.318h-11.848
			c-0.315-0.789-0.632-2.053-1.105-3.633c-0.16-0.789-0.316-1.264-0.473-1.422c-2.055,2.055-4.266,3.633-6.635,4.582
			c-2.37,0.945-4.898,1.578-7.425,1.578c-4.739,0-8.372-1.266-11.058-3.949c-2.686-2.527-4.107-5.846-4.107-9.951
			c0-2.686,0.631-5.055,1.896-7.107c1.263-2.057,3.001-3.635,5.212-4.738c2.211-1.105,5.371-2.055,9.636-2.846
			c5.687-1.105,9.478-2.053,11.69-3.004v-0.943c0-2.371-0.633-4.107-1.74-5.059c-1.104-0.943-3.316-1.576-6.475-1.576
			c-2.213,0-3.791,0.473-5.056,1.264C308.734,300.072,307.786,301.496,306.996,303.707 M323.109,313.662
			c-1.581,0.473-3.95,1.104-7.267,1.893c-3.317,0.791-5.53,1.424-6.635,2.213c-1.58,1.105-2.369,2.527-2.369,4.424
			c0,1.734,0.632,3.158,1.896,4.422c1.263,1.266,2.843,1.896,4.739,1.896c2.211,0,4.266-0.789,6.161-2.213
			c1.423-1.104,2.37-2.527,2.843-4.104c0.317-1.107,0.475-3.002,0.475-6.002v-2.527h0.157V313.662z"/>
		<path id="XMLID_27_" fill="#213368" d="M358.335,336.091h-12.004V289.49h11.216v6.635c1.896-3.158,3.633-5.213,5.214-6.16
			c1.578-0.949,3.317-1.42,5.212-1.42c2.684,0,5.372,0.787,7.898,2.367l-3.791,10.742c-2.054-1.264-3.949-2.055-5.687-2.055
			c-1.738,0-3.159,0.475-4.266,1.424c-1.106,0.945-2.053,2.684-2.843,5.211c-0.633,2.525-0.949,7.738-0.949,15.641V336.091
			L358.335,336.091z"/>
		<path id="XMLID_26_" fill="#213368" d="M401.937,289.49v9.795h-8.214v18.797c0,3.793,0.157,6.002,0.314,6.637
			c0.158,0.631,0.475,1.107,1.106,1.578c0.631,0.473,1.265,0.633,2.053,0.633c1.105,0,2.686-0.475,4.896-1.264l1.105,9.637
			c-2.843,1.264-6.002,1.895-9.477,1.895c-2.213,0-4.107-0.314-5.845-1.104c-1.738-0.791-3.002-1.738-3.792-2.844
			s-1.423-2.846-1.737-4.74c-0.316-1.422-0.316-4.266-0.316-8.689v-20.379h-5.529v-9.789h5.529v-9.32l12.005-7.27v16.43h7.9V289.49z
			"/>
		<path id="XMLID_25_" fill="#213368" d="M451.697,336.091h-12.006v-23.854c0-5.057-0.314-8.217-0.789-9.797
			c-0.475-1.418-1.424-2.686-2.529-3.475c-1.105-0.787-2.527-1.262-4.105-1.262c-2.055,0-3.951,0.631-5.688,1.734
			c-1.738,1.105-2.843,2.686-3.476,4.58c-0.631,1.898-0.948,5.531-0.948,10.746v21.324H410.15v-46.6h11.218v6.793
			c3.947-5.213,9.004-7.898,15.006-7.898c2.686,0,5.055,0.471,7.266,1.422c2.211,0.949,3.791,2.211,5.055,3.793
			c1.105,1.578,1.895,3.318,2.369,5.211c0.475,1.895,0.633,4.74,0.633,8.371V336.091z"/>
		<path id="XMLID_22_" fill="#213368" d="M490.242,321.24l12.004,2.057c-1.578,4.58-3.947,7.895-7.266,10.268
			c-3.316,2.367-7.422,3.475-12.48,3.475c-7.898,0-13.74-2.684-17.531-7.896c-3.004-4.266-4.426-9.637-4.426-16.113
			c0-7.74,1.896-13.742,5.846-18.166c3.947-4.426,9.006-6.635,15.008-6.635c6.791,0,12.164,2.209,15.953,6.791
			c3.949,4.582,5.848,11.531,5.688,21.012h-30.17c0.156,3.635,1.105,6.479,2.844,8.529c1.896,2.055,4.107,3.002,6.947,3.002
			c1.896,0,3.477-0.475,4.74-1.58C488.662,325.349,489.609,323.613,490.242,321.24 M490.875,308.761
			c-0.16-3.631-0.947-6.318-2.688-8.215c-1.736-1.895-3.789-2.842-6.318-2.842c-2.686,0-4.738,0.947-6.475,2.998
			c-1.738,1.898-2.527,4.584-2.527,8.059H490.875z"/>
		<path id="XMLID_21_" fill="#213368" d="M524.205,336.091h-12.006V289.49h11.217v6.635c1.896-3.158,3.633-5.213,5.213-6.16
			c1.58-0.949,3.316-1.42,5.213-1.42c2.686,0,5.373,0.787,7.9,2.367l-3.793,10.742c-2.053-1.264-3.951-2.055-5.688-2.055
			c-1.738,0-3.158,0.475-4.266,1.424c-1.104,0.945-2.053,2.684-2.686,5.211c-0.633,2.525-0.947,7.738-0.947,15.641v14.217H524.205
			L524.205,336.091z"/>
		<polygon id="XMLID_20_" fill="#213368" points="571.439,336.091 571.439,271.798 614.562,271.798 614.562,282.697 
			584.076,282.697 584.076,297.863 610.298,297.863 610.298,308.761 584.076,308.761 584.076,336.091 		"/>
		<path id="XMLID_17_" fill="#213368" d="M622.146,312.078c0-4.105,0.947-8.057,3-11.846c1.896-3.793,4.74-6.795,8.373-8.85
			c3.635-2.051,7.582-3,12.164-3c6.953,0,12.479,2.211,16.904,6.795c4.422,4.578,6.633,10.424,6.633,17.377
			c0,7.107-2.209,12.951-6.633,17.533c-4.428,4.582-10.111,6.949-16.748,6.949c-4.105,0-8.213-0.945-12.004-2.844
			c-3.793-1.895-6.635-4.736-8.689-8.529C623.093,322.031,622.146,317.451,622.146,312.078 M634.466,312.71
			c0,4.582,1.105,8.213,3.16,10.586c2.211,2.529,4.738,3.633,7.898,3.633s5.846-1.264,7.898-3.633
			c2.053-2.527,3.158-6.004,3.158-10.742c0-4.582-1.105-8.057-3.158-10.584c-2.055-2.529-4.738-3.635-7.898-3.635
			s-5.846,1.266-7.898,3.635C635.572,304.654,634.466,308.13,634.466,312.71"/>
		<path id="XMLID_16_" fill="#213368" d="M690.074,336.091h-12.008V289.49h11.217v6.635c1.896-3.158,3.635-5.213,5.213-6.16
			c1.58-0.949,3.318-1.42,5.213-1.42c2.686,0,5.371,0.787,7.898,2.367l-3.791,10.742c-2.055-1.264-3.949-2.055-5.688-2.055
			c-1.736,0-3.158,0.475-4.266,1.424c-1.105,0.945-2.053,2.684-2.684,5.211c-0.635,2.525-0.949,7.738-0.949,15.641v14.217H690.074
			L690.074,336.091z"/>
		<polygon id="XMLID_15_" fill="#213368" points="737.464,336.091 737.464,272.271 750.259,272.271 750.259,325.191 
			781.697,325.191 781.697,336.091 		"/>
		<path id="XMLID_12_" fill="#213368" d="M790.699,271.798h12.008v11.371h-12.008V271.798z M790.699,289.49h12.008v46.602h-12.008
			V289.49z"/>
		<path id="XMLID_11_" fill="#213368" d="M809.814,289.49h6.635v-3.475c0-3.951,0.473-6.793,1.264-8.848
			c0.789-1.896,2.369-3.475,4.426-4.738c2.209-1.264,4.896-1.896,8.371-1.896c3.473,0,6.789,0.473,10.107,1.576l-1.578,8.531
			c-1.896-0.473-3.791-0.629-5.527-0.629c-1.74,0-3.002,0.473-3.793,1.262c-0.789,0.791-1.105,2.371-1.105,4.74v3.316h9.004v9.637
			h-9.004v37.123h-12.008v-36.965h-6.791V289.49L809.814,289.49z"/>
		<path id="XMLID_8_" fill="#213368" d="M870.634,321.24l12.004,2.057c-1.578,4.58-3.949,7.895-7.268,10.268
			c-3.314,2.367-7.422,3.475-12.479,3.475c-7.898,0-13.744-2.684-17.535-7.896c-3-4.266-4.424-9.637-4.424-16.113
			c0-7.74,1.896-13.742,5.846-18.166c3.949-4.426,9.004-6.635,15.008-6.635c6.791,0,12.164,2.209,16.111,6.791
			c3.951,4.582,5.846,11.531,5.688,21.012h-30.174c0.158,3.635,1.107,6.479,2.846,8.529c1.895,2.055,4.105,3.002,6.951,3.002
			c1.895,0,3.475-0.475,4.738-1.58C869.052,325.349,870,323.613,870.634,321.24 M871.423,308.761
			c-0.16-3.631-0.949-6.318-2.686-8.215c-1.738-1.895-3.793-2.842-6.322-2.842c-2.684,0-4.736,0.947-6.475,2.998
			c-1.738,1.898-2.527,4.584-2.527,8.059H871.423z"/>
	</g>
</g>
</svg>
