<svg xmlns="http://www.w3.org/2000/svg" width="250.191" height="101.727" viewBox="0 0 250.191 101.727"><g transform="translate(-219.249 -293.527)"><path d="M312.14,312.179q0,5.364-4.312,5.37a3.911,3.911,0,0,1-3.463-1.944,3.963,3.963,0,0,1-3.485,1.944q-4.316,0-4.312-5.441V300.129h3.112v11.9q0,2.527,1.436,2.53,1.685,0,1.682-2.825v-11.6h3.11v11.6q0,2.826,1.665,2.825,1.455,0,1.455-2.522V294.644h3.112Z" fill="#00194a"/><rect width="11.772" height="2.291" transform="translate(296.568 295.758)" fill="#00194a"/><path d="M327.3,317.222H324.18v-8.294q-.864.583-4.472.808-2.8.17-2.8,2.386c0,1.466.832,2.195,2.488,2.195a8.106,8.106,0,0,0,2.355-.395v3.2a21.946,21.946,0,0,1-2.668.19q-5.291,0-5.289-5.153,0-4.861,4.945-5.419c1.142-.084,2.279-.158,3.411-.209q1.906-.338,1.908-1.636a1.649,1.649,0,0,0-.917-1.475,4.452,4.452,0,0,0-2.264-.537,4.379,4.379,0,0,0-2.311.589,2.661,2.661,0,0,0-1.273,1.9h-3.183a5.877,5.877,0,0,1,2.457-4.295,8.544,8.544,0,0,1,8.689-.052,4.69,4.69,0,0,1,2.037,4.147Z" fill="#00194a"/><path d="M342.429,317.222h-3.114v-8.294c-.576.389-2.072.656-4.473.808q-2.8.17-2.792,2.386c0,1.466.828,2.195,2.49,2.195a8.051,8.051,0,0,0,2.348-.395v3.2a21.875,21.875,0,0,1-2.666.19q-5.286,0-5.288-5.153,0-4.861,4.947-5.419c1.139-.084,2.278-.158,3.409-.209q1.906-.338,1.906-1.636a1.647,1.647,0,0,0-.917-1.475,4.434,4.434,0,0,0-2.26-.537,4.385,4.385,0,0,0-2.314.589,2.674,2.674,0,0,0-1.276,1.9H329.25a5.889,5.889,0,0,1,2.456-4.295,8.555,8.555,0,0,1,8.7-.052,4.694,4.694,0,0,1,2.028,4.147Z" fill="#00194a"/><rect width="11.772" height="2.291" transform="translate(330.612 295.758)" fill="#00194a"/><path d="M357.615,311.8a5.315,5.315,0,0,1-2,4.407,8.266,8.266,0,0,1-9.071-.029,5.4,5.4,0,0,1-1.958-4.449v-11.6H347.7v11.393a2.712,2.712,0,0,0,.974,2.257,3.736,3.736,0,0,0,2.416.776,3.791,3.791,0,0,0,2.426-.773,2.69,2.69,0,0,0,.983-2.248v-16.89h3.116Z" fill="#00194a"/><path d="M372.821,311.8a5.316,5.316,0,0,1-2,4.407,8.266,8.266,0,0,1-9.071-.029,5.4,5.4,0,0,1-1.956-4.449v-11.6h3.112v11.393a2.709,2.709,0,0,0,.974,2.257,3.729,3.729,0,0,0,2.415.776,3.8,3.8,0,0,0,2.427-.773,2.68,2.68,0,0,0,.977-2.248v-16.89h3.121Z" fill="#00194a"/><path d="M387.361,311.714q0,5.837-6.548,5.835-6.385,0-6.476-6.639h3.114q0,3.642,3.34,3.645c2.3,0,3.458-.924,3.458-2.774,0-1.356-1.026-2.158-3.077-2.394a14.716,14.716,0,0,1-4.559-.977,3.619,3.619,0,0,1-2-3.583,4.349,4.349,0,0,1,1.774-3.54,6.7,6.7,0,0,1,4.306-1.416,7.313,7.313,0,0,1,4.348,1.213,5.25,5.25,0,0,1,2.143,4.289h-3.133a2.35,2.35,0,0,0-1.221-1.944,4.224,4.224,0,0,0-2.21-.544,4.174,4.174,0,0,0-2.033.472,1.429,1.429,0,0,0-.868,1.282c0,.519.413.9,1.237,1.151q.566.126,2.637.4a8.238,8.238,0,0,1,4,1.277,5.029,5.029,0,0,1,1.766,4.25" fill="#00194a"/><path d="M394.4,303.854a3.288,3.288,0,0,1-.832,2.258,2.859,2.859,0,0,1-4.24,0,3.306,3.306,0,0,1-.826-2.258,3.341,3.341,0,0,1,.826-2.28,2.863,2.863,0,0,1,4.24,0,3.322,3.322,0,0,1,.832,2.28m0,9.829a3.329,3.329,0,0,1-.832,2.269,2.838,2.838,0,0,1-4.24,0,3.542,3.542,0,0,1,0-4.547,2.852,2.852,0,0,1,4.24,0,3.311,3.311,0,0,1,.832,2.278m-1.837-9.854c0-.792-.366-1.19-1.1-1.19s-1.119.4-1.119,1.19.374,1.193,1.119,1.193,1.1-.4,1.1-1.193m0,9.845q0-1.188-1.1-1.189-1.117,0-1.119,1.189t1.119,1.191q1.1,0,1.1-1.191" fill="#00194a"/><path d="M408.7,317.314h-3.108V305.862q0-3-3.356-2.995-2.469,0-3.226,1.547c.728.531,1.1,1.04,1.1,1.53a2.169,2.169,0,0,1-.463,1.119,2.23,2.23,0,0,0-.477,1.248v9h-3.11v-8.993a1.69,1.69,0,0,1,.562-1.119,1.7,1.7,0,0,0,.568-.93c0-.267-.51-.713-1.523-1.342a5.284,5.284,0,0,1,2.244-3.765,7.191,7.191,0,0,1,4.373-1.294,7.076,7.076,0,0,1,4.518,1.38,5.246,5.246,0,0,1,1.9,4.373Z" fill="#00194a"/><path d="M413.484,298.05h-11v-4.169h3.128v1.878h7.869Z" fill="#00194a"/><path d="M423.914,317.3H420.8v-2.365a5.779,5.779,0,0,1-4.775,2.553q-5.136,0-5.135-5.531v-11.77H414V312q0,2.613,2.451,2.613a4.192,4.192,0,0,0,3.113-1.465,3.791,3.791,0,0,0,1.23-2.619V300.165h3.116Z" fill="#00194a"/><path d="M438.789,310.456a6.749,6.749,0,0,1-2.048,5.308,7.521,7.521,0,0,1-5.1,1.569l-5.546-.02V300.165h3.112v14.2l2.316.083a4.037,4.037,0,0,0,2.844-.943,3.652,3.652,0,0,0,1.312-3.009,3.85,3.85,0,0,0-.891-2.6,2.849,2.849,0,0,0-2.262-1.035h-2.1v-2.995h2.1q2.937,0,2.635-3.7H438.2a4.46,4.46,0,0,1,.072.817,4.8,4.8,0,0,1-2.479,4.472,4.717,4.717,0,0,1,2.069,1.844,5.7,5.7,0,0,1,.926,3.158" fill="#00194a"/><path d="M438.445,298.05H426.673v-2.291h8.642v-2.231h3.129Z" fill="#00194a"/><path d="M453.548,308.741q0,4.646-2.027,6.9a6.286,6.286,0,0,1-4.82,1.9q-5.427,0-6.573-5.816h3.322q.9,2.822,3.251,2.822,3.728,0,3.73-5.857,0-5.834-3.73-5.831-2.346,0-3.251,2.878h-3.322q1.145-5.875,6.573-5.874a6.144,6.144,0,0,1,4.82,1.988q2.028,2.258,2.027,6.882" fill="#00194a"/><rect width="11.776" height="2.291" transform="translate(441.187 295.758)" fill="#00194a"/><path d="M469.275,317.314h-3.118V304.895a1.887,1.887,0,0,0-.449-1.262,1.3,1.3,0,0,0-.994-.534l-2.462,1.8-2.546-1.8a1.273,1.273,0,0,0-.976.534,1.876,1.876,0,0,0-.453,1.262v5.959c0,.654-.064,1.737-.192,3.241h.1q.445-.9,1.487-2.866l1.823-2.9h-1.488v-2.74h4.633v2.34l-5.761,9.388h-3.716V305.142a5.252,5.252,0,0,1,1.3-3.611,5.135,5.135,0,0,1,3.553-1.66l2.209,1.589,2.2-1.589a5.082,5.082,0,0,1,3.54,1.66,5.273,5.273,0,0,1,1.3,3.611Z" fill="#00194a"/><path d="M225.884,394.988v-6.834l-6.634-9.4h4.286l4.262,6.424,4.177-6.424h4.213l-6.66,9.425v6.811Z" fill="#00194a"/><path d="M235.3,388.942a5.862,5.862,0,0,1,.851-3,5.583,5.583,0,0,1,2.416-2.215,7.844,7.844,0,0,1,3.49-.764,6.971,6.971,0,0,1,4.88,1.733,5.67,5.67,0,0,1,1.9,4.38,5.74,5.74,0,0,1-1.92,4.424,6.9,6.9,0,0,1-4.837,1.756,8.349,8.349,0,0,1-3.441-.731,5.382,5.382,0,0,1-2.49-2.144,6.54,6.54,0,0,1-.851-3.437m3.557.165a3.643,3.643,0,0,0,.927,2.681,3.267,3.267,0,0,0,4.564,0,3.682,3.682,0,0,0,.92-2.7,3.618,3.618,0,0,0-.92-2.658,3.265,3.265,0,0,0-4.564,0,3.642,3.642,0,0,0-.927,2.68" fill="#00194a"/><path d="M260.19,394.988v-1.761a4.931,4.931,0,0,1-1.885,1.483,5.767,5.767,0,0,1-2.463.544,5.261,5.261,0,0,1-2.372-.521,3.223,3.223,0,0,1-1.519-1.462,5.889,5.889,0,0,1-.472-2.6v-7.441h3.471v5.4a13.462,13.462,0,0,0,.193,3.04,1.683,1.683,0,0,0,.7.887,2.328,2.328,0,0,0,1.284.326,2.946,2.946,0,0,0,1.594-.438,2.274,2.274,0,0,0,.963-1.084,11.278,11.278,0,0,0,.261-3.173v-4.961h3.47v11.76Z" fill="#00194a"/><path d="M270.332,394.988H266.86v-11.76h3.226V384.9a5.241,5.241,0,0,1,1.488-1.562,2.994,2.994,0,0,1,1.5-.376,4.8,4.8,0,0,1,2.287.587l-1.075,2.713a3.286,3.286,0,0,0-1.631-.509,2.062,2.062,0,0,0-1.234.36,2.414,2.414,0,0,0-.8,1.3,16.586,16.586,0,0,0-.291,3.943Z" fill="#00194a"/><path d="M282.927,394.988V378.752h5.87a23.645,23.645,0,0,1,4.346.245,4.785,4.785,0,0,1,2.607,1.589,4.679,4.679,0,0,1,1.05,3.161,4.859,4.859,0,0,1-.6,2.514,4.656,4.656,0,0,1-1.539,1.6,5.617,5.617,0,0,1-1.9.769,23.265,23.265,0,0,1-3.794.233h-2.383v6.124Zm3.658-13.489v4.608h2a10.5,10.5,0,0,0,2.893-.256,2.391,2.391,0,0,0,1.142-.8,2.024,2.024,0,0,0,.413-1.263,1.973,1.973,0,0,0-.581-1.463,2.632,2.632,0,0,0-1.471-.719,19.681,19.681,0,0,0-2.631-.111Z" fill="#00194a"/><path d="M302.372,386.816l-3.15-.511a4.41,4.41,0,0,1,1.828-2.525,7.315,7.315,0,0,1,3.856-.819,9.176,9.176,0,0,1,3.458.493,3.35,3.35,0,0,1,1.6,1.251,5.813,5.813,0,0,1,.464,2.786l-.038,3.632a11.561,11.561,0,0,0,.166,2.286,6.329,6.329,0,0,0,.626,1.579h-3.434c-.092-.206-.2-.512-.336-.919-.056-.185-.1-.306-.123-.366a6.323,6.323,0,0,1-1.9,1.164,6.035,6.035,0,0,1-2.162.387,4.8,4.8,0,0,1-3.194-.986,3.124,3.124,0,0,1-1.168-2.492A3.079,3.079,0,0,1,299.4,390a3.381,3.381,0,0,1,1.486-1.2,12.826,12.826,0,0,1,2.763-.725,20.746,20.746,0,0,0,3.372-.763V387a1.522,1.522,0,0,0-.494-1.279,3.226,3.226,0,0,0-1.865-.382,2.715,2.715,0,0,0-1.445.326,2.285,2.285,0,0,0-.841,1.148m4.645,2.524q-.666.2-2.111.476a6.873,6.873,0,0,0-1.892.543,1.276,1.276,0,0,0-.679,1.1,1.456,1.456,0,0,0,.544,1.13,2.025,2.025,0,0,0,1.384.475,3.23,3.23,0,0,0,1.791-.553,1.966,1.966,0,0,0,.826-1.03,5.414,5.414,0,0,0,.137-1.517Z" fill="#00194a"/><path d="M317.172,394.988H313.7v-11.76h3.225V384.9a5.255,5.255,0,0,1,1.489-1.562,2.985,2.985,0,0,1,1.5-.376,4.791,4.791,0,0,1,2.284.587l-1.074,2.713a3.3,3.3,0,0,0-1.632-.509,2.071,2.071,0,0,0-1.234.36,2.413,2.413,0,0,0-.8,1.3,16.64,16.64,0,0,0-.291,3.943Z" fill="#00194a"/><path d="M330.693,383.228v2.479h-2.374v4.74a10.376,10.376,0,0,0,.07,1.679.7.7,0,0,0,.307.393,1.077,1.077,0,0,0,.588.155,4.922,4.922,0,0,0,1.395-.3l.3,2.414a7.619,7.619,0,0,1-2.743.465,4.77,4.77,0,0,1-1.692-.283,2.466,2.466,0,0,1-1.106-.731,2.69,2.69,0,0,1-.489-1.213,13.625,13.625,0,0,1-.109-2.192v-5.128h-1.6v-2.479h1.6V380.89l3.481-1.816v4.154Z" fill="#00194a"/><path d="M345.035,394.988h-3.472v-6a8.359,8.359,0,0,0-.222-2.464,1.76,1.76,0,0,0-.723-.87,2.237,2.237,0,0,0-1.2-.31,3,3,0,0,0-1.617.443,2.267,2.267,0,0,0-.983,1.174,9.109,9.109,0,0,0-.265,2.7v5.327h-3.473v-11.76H336.3v1.726a5.463,5.463,0,0,1,4.325-1.993,5.734,5.734,0,0,1,2.1.371,3.514,3.514,0,0,1,1.439.947,3.3,3.3,0,0,1,.678,1.307,8.659,8.659,0,0,1,.193,2.093Z" fill="#00194a"/><path d="M356.154,391.245l3.458.52a5.154,5.154,0,0,1-2.106,2.6,6.731,6.731,0,0,1-3.6.892,6.161,6.161,0,0,1-5.063-2.005,6.233,6.233,0,0,1-1.3-4.052,6.088,6.088,0,0,1,1.7-4.58,5.935,5.935,0,0,1,4.311-1.656,6.161,6.161,0,0,1,4.62,1.733q1.692,1.732,1.62,5.311h-8.7a2.961,2.961,0,0,0,.841,2.154,2.777,2.777,0,0,0,2,.768,2.289,2.289,0,0,0,1.371-.4,2.424,2.424,0,0,0,.84-1.284m.2-3.146a2.8,2.8,0,0,0-.779-2.053,2.7,2.7,0,0,0-3.68.038,2.684,2.684,0,0,0-.729,2.015Z" fill="#00194a"/><path d="M365.95,394.988h-3.47v-11.76H365.7V384.9a5.217,5.217,0,0,1,1.489-1.562,2.98,2.98,0,0,1,1.5-.376,4.8,4.8,0,0,1,2.285.587l-1.075,2.713a3.3,3.3,0,0,0-1.631-.509,2.075,2.075,0,0,0-1.236.36,2.412,2.412,0,0,0-.8,1.3,16.53,16.53,0,0,0-.291,3.943Z" fill="#00194a"/><path d="M379.553,394.988V378.752h12.414V381.5h-8.759v3.843h7.562v2.747h-7.562v6.9Z" fill="#00194a"/><path d="M394.154,388.942a5.872,5.872,0,0,1,.851-3,5.566,5.566,0,0,1,2.416-2.215,7.84,7.84,0,0,1,3.489-.764,6.972,6.972,0,0,1,4.881,1.733,5.674,5.674,0,0,1,1.9,4.38,5.732,5.732,0,0,1-1.923,4.424,6.887,6.887,0,0,1-4.835,1.756,8.345,8.345,0,0,1-3.44-.731,5.367,5.367,0,0,1-2.49-2.144,6.549,6.549,0,0,1-.851-3.437m3.557.165a3.635,3.635,0,0,0,.928,2.681,3.267,3.267,0,0,0,4.564,0,3.686,3.686,0,0,0,.919-2.7,3.622,3.622,0,0,0-.919-2.658,3.265,3.265,0,0,0-4.564,0,3.634,3.634,0,0,0-.928,2.68" fill="#00194a"/><path d="M413.735,394.988h-3.471v-11.76h3.222V384.9a5.291,5.291,0,0,1,1.488-1.562,3,3,0,0,1,1.5-.376,4.8,4.8,0,0,1,2.286.587l-1.076,2.713a3.29,3.29,0,0,0-1.632-.509,2.066,2.066,0,0,0-1.234.36,2.4,2.4,0,0,0-.8,1.3,16.548,16.548,0,0,0-.29,3.943Z" fill="#00194a"/><path d="M427.409,394.988v-16.1h3.659v13.367h9.091v2.736Z" fill="#00194a"/><path d="M442.74,378.751h3.473v2.881H442.74Zm0,4.477h3.473v11.76H442.74Z" fill="#00194a"/><path d="M448.25,383.228h1.929v-.887a5.35,5.35,0,0,1,.35-2.215,2.659,2.659,0,0,1,1.3-1.191,5.463,5.463,0,0,1,2.39-.459,10.694,10.694,0,0,1,2.9.4l-.471,2.17a7.542,7.542,0,0,0-1.592-.177,1.526,1.526,0,0,0-1.081.316,1.69,1.69,0,0,0-.327,1.212v.832h2.594v2.446H453.65v9.314h-3.471v-9.314H448.25Z" fill="#00194a"/><path d="M465.792,391.245l3.459.52a5.159,5.159,0,0,1-2.106,2.6,6.729,6.729,0,0,1-3.6.892,6.171,6.171,0,0,1-5.066-2.005,6.249,6.249,0,0,1-1.3-4.052,6.088,6.088,0,0,1,1.7-4.58,5.934,5.934,0,0,1,4.31-1.656,6.158,6.158,0,0,1,4.621,1.733q1.693,1.732,1.619,5.311h-8.7a2.961,2.961,0,0,0,.84,2.154,2.775,2.775,0,0,0,2,.768,2.293,2.293,0,0,0,1.373-.4,2.428,2.428,0,0,0,.838-1.284m.2-3.146a2.806,2.806,0,0,0-.778-2.053,2.7,2.7,0,0,0-3.681.038,2.685,2.685,0,0,0-.73,2.015Z" fill="#00194a"/><path d="M302.14,351.2h7.387c2.258,0,5.045-1.1,5.045-4.625,0-3.683-2.3-4.625-4.965-4.625H302.14ZM297.1,337.951H309.81c8.232,0,9.806,5.173,9.806,8.661,0,3.447-1.574,8.621-9.806,8.581h-7.67v10.738H297.1Z" fill="#00194a"/><path d="M323.368,337.951h4.6v10.385h.079a7.361,7.361,0,0,1,6.258-3.214c4.519,0,7.385,2.351,7.385,6.9v13.912h-4.6V353.2c-.08-3.175-1.372-4.547-4.076-4.547a5,5,0,0,0-5.045,5.331v11.952h-4.6Z" fill="#00194a"/><path d="M346.654,345.67h4.6v20.26h-4.6Zm0-7.718h4.6v4.232h-4.6Z" fill="#00194a"/><rect width="4.602" height="27.98" transform="translate(356.38 337.952)" fill="#00194a"/><rect width="4.602" height="27.98" transform="translate(366.105 337.952)" fill="#00194a"/><path d="M375.831,345.67h4.6v20.26h-4.6Zm0-7.718h4.6v4.232h-4.6Z" fill="#00194a"/><path d="M395.849,348.649c-3.873,0-5.852,2.861-5.852,7.17,0,4.077,2.141,7.133,5.852,7.133,4.2,0,5.773-3.605,5.773-7.133,0-3.682-1.98-7.17-5.773-7.17m-10.292-2.979h4.36v2.743H390c1.291-2.312,3.793-3.292,6.457-3.292,6.58,0,9.767,4.861,9.767,10.777,0,5.447-2.825,10.581-9,10.581-2.664,0-5.527-.94-6.981-3.174h-.082v10.111h-4.6Z" fill="#00194a"/><path d="M409.051,365.833V338.779h5.466v22.456h13.6v4.6Z" fill="#00194a"/><path d="M430.711,338.555H435.9v4.839h-5.187Zm0,7.52H435.9v19.758h-5.187Z" fill="#00194a"/><path d="M437.682,346.075h2.888v-1.491a9.984,9.984,0,0,1,.524-3.721,4.209,4.209,0,0,1,1.937-2,7.4,7.4,0,0,1,3.575-.77,14.36,14.36,0,0,1,4.344.671l-.7,3.645a10.271,10.271,0,0,0-2.383-.3,2.126,2.126,0,0,0-1.619.53,3.1,3.1,0,0,0-.492,2.035v1.4h3.883v4.107h-3.883v15.651H440.57V350.182h-2.888Z" fill="#00194a"/><path d="M463.913,359.545l5.171.87a8.588,8.588,0,0,1-3.15,4.364,9.212,9.212,0,0,1-5.384,1.5q-5.116,0-7.572-3.371a11.357,11.357,0,0,1-1.941-6.805q0-4.92,2.548-7.691a8.363,8.363,0,0,1,6.45-2.781,8.684,8.684,0,0,1,6.9,2.908q2.532,2.914,2.423,8.921H456.354a5.314,5.314,0,0,0,1.261,3.619,3.93,3.93,0,0,0,2.99,1.291,3.152,3.152,0,0,0,2.048-.67,4.162,4.162,0,0,0,1.26-2.154m.294-5.287a5.1,5.1,0,0,0-1.164-3.452,3.733,3.733,0,0,0-5.5.066,4.817,4.817,0,0,0-1.092,3.386Z" fill="#00194a"/><path d="M290.7,297.123h-2.883v-2.9H290.7Zm0,3.408h-2.883v-2.9H290.7Zm0,3.406h-2.883v-2.9H290.7Zm0,3.407h-2.883v-2.9H290.7Zm0,3.408h-2.883v-2.9H290.7Zm0,3.406h-2.883v-2.9H290.7Zm0,3.407h-2.883v-2.9H290.7Zm0,3.407h-2.883v-2.9H290.7Zm0,3.407h-2.883v-2.9H290.7Zm0,3.407h-2.883v-2.9H290.7Zm0,3.408h-2.883v-2.9H290.7Zm0,3.407h-2.883v-2.9H290.7Zm0,3.407h-2.883v-2.9H290.7Zm0,3.407h-2.883v-2.9H290.7Zm0,3.407h-2.883v-2.9H290.7Zm0,3.408h-2.883v-2.9H290.7Zm0,3.406h-2.883v-2.9H290.7Zm0,3.406h-2.883v-2.9H290.7Zm0,3.407h-2.883v-2.9H290.7Zm0,3.407h-2.883v-2.9H290.7ZM287.3,297.123h-2.882v-2.9H287.3Zm0,3.408h-2.882v-2.9H287.3Zm0,3.406h-2.882v-2.9H287.3Zm0,3.407h-2.882v-2.9H287.3Zm0,3.408h-2.882v-2.9H287.3Zm0,3.406h-2.882v-2.9H287.3Zm0,3.407h-2.882v-2.9H287.3Zm0,3.407h-2.882v-2.9H287.3Zm0,3.407h-2.882v-2.9H287.3Zm0,3.407h-2.882v-2.9H287.3Zm0,3.408h-2.882v-2.9H287.3Zm0,3.407h-2.882v-2.9H287.3Zm0,3.407h-2.882v-2.9H287.3Zm0,3.407h-2.882v-2.9H287.3Zm0,3.407h-2.882v-2.9H287.3Zm0,3.408h-2.882v-2.9H287.3Zm0,3.406h-2.882v-2.9H287.3Zm0,3.406h-2.882v-2.9H287.3Zm0,3.407h-2.882v-2.9H287.3Zm0,3.407h-2.882v-2.9H287.3Zm0,3.408h-2.882v-2.9H287.3Zm3.36,0h-2.883v-2.9h2.883Zm-6.751-68.141h-2.884v-2.9h2.884Zm0,3.408h-2.884v-2.9h2.884Zm0,3.406h-2.884v-2.9h2.884Zm0,3.407h-2.884v-2.9h2.884Zm0,3.408h-2.884v-2.9h2.884Zm0,3.406h-2.884v-2.9h2.884Zm0,3.407h-2.884v-2.9h2.884Zm0,3.407h-2.884v-2.9h2.884Zm0,3.407h-2.884v-2.9h2.884Zm0,3.407h-2.884v-2.9h2.884Zm0,3.408h-2.884v-2.9h2.884Zm0,3.407h-2.884v-2.9h2.884Zm0,3.407h-2.884v-2.9h2.884Zm0,3.407h-2.884v-2.9h2.884Zm0,3.407h-2.884v-2.9h2.884Zm0,3.408h-2.884v-2.9h2.884Zm0,3.406h-2.884v-2.9h2.884Zm0,3.406h-2.884v-2.9h2.884Zm0,3.407h-2.884v-2.9h2.884Zm0,3.407h-2.884v-2.9h2.884Zm0,3.408h-2.884v-2.9h2.884Zm-3.394-68.141h-2.884v-2.9h2.884Zm0,3.408h-2.884v-2.9h2.884Zm0,3.406h-2.884v-2.9h2.884Zm0,3.407h-2.884v-2.9h2.884Zm0,3.408h-1.982q-.414-.756-.9-1.474v-1.424h2.884Zm0,3.406h-.585c.048.171.105.339.149.511h.436v2.9h-.033c.006.17.029.34.029.51h0v.069a15.32,15.32,0,0,0-1.713-6.882h1.713Zm0,10.221H280.5c0,.171-.02.34-.03.509h.049v2.9h-.482c-.043.171-.094.34-.141.51h.623v2.9h-1.741c-.085.17-.17.342-.259.509h2v2.9h-2.884v-1.425h0a16.545,16.545,0,0,0,2.885-9.157Zm0,13.629h-2.884v-2.9h2.884Zm0,3.407h-2.884v-2.9h2.884Zm0,3.407h-2.884v-2.9h2.884Zm0,3.408h-2.884v-2.9h2.884Zm0,3.406h-2.884v-2.9h2.884Zm0,3.406h-2.884v-2.9h2.884Zm0,3.407h-2.884v-2.9h2.884Zm0,3.407h-2.884v-2.9h2.884Zm0,3.408h-2.884v-2.9h2.884ZM276.587,334.6c.187-.229.364-.463.539-.7v.7Zm.539,3.407h-2.883v-1h0a18.732,18.732,0,0,0,1.923-1.9l0,0h.966Zm0,3.407h-2.883v-2.9h2.883Zm0,3.407h-2.883v-2.9h2.883Zm0,3.408h-2.883v-2.9h2.883Zm0,3.406h-2.883v-2.9h2.883Zm0,3.406h-2.883v-2.9h2.883Zm0,3.407h-2.883v-2.9h2.883Zm0,3.407h-2.883v-2.9h2.883Zm0,3.408h-2.883v-2.9h2.883Zm-4.164-27.256h0c.26-.187.521-.374.771-.575v.575Zm.771,3.407h-2.884v-2.086c-.037.021-.078.038-.117.059q.768-.4,1.491-.872l0,0h1.512Zm0,3.407h-2.884v-2.9h2.884Zm0,3.408h-2.884v-2.9h2.884Zm0,3.406h-2.884v-2.9h2.884Zm0,3.406h-2.884v-2.9h2.884Zm0,3.407h-2.884v-2.9h2.884Zm0,3.407h-2.884v-2.9h2.884Zm0,3.408h-2.884v-2.9h2.884Zm-6.275-23.849v-.706a17.7,17.7,0,0,0,2.882-1.131v1.837Zm2.882,3.407h-2.882v-2.9h2.882Zm0,3.408h-2.882v-2.9h2.882Zm0,3.406h-2.882v-2.9h2.882Zm0,3.406h-2.882v-2.9h2.882Zm0,3.407h-2.882v-2.9h2.882Zm0,3.407h-2.882v-2.9h2.882Zm0,3.408h-2.882v-2.9h2.882Zm-6.276-23.849v-.073c-.135.01-.272.015-.408.022a16.856,16.856,0,0,0,3.29-.521v.572Zm2.882,3.407h-2.882v-2.9h2.882Zm0,3.408h-2.882v-2.9h2.882Zm0,3.406h-2.882v-2.9h2.882Zm0,3.406h-2.882v-2.9h2.882Zm0,3.407h-2.882v-2.9h2.882Zm0,3.407h-2.882v-2.9h2.882Zm0,3.408h-2.882v-2.9h2.882Zm-4.26-23.849c.292,0,.578-.031.868-.047v.047Zm.868,3.407h-2.882v-2.9h2.882Zm0,3.408h-2.882v-2.9h2.882Zm0,3.406h-2.882v-2.9h2.882Zm0,3.406h-2.882v-2.9h2.882Zm0,3.407h-2.882v-2.9h2.882Zm0,3.407h-2.882v-2.9h2.882Zm0,3.408h-2.882v-2.9h2.882Zm-3.393-20.442h-2.882v-2.9h2.882Zm0,3.408h-2.882v-2.9h2.882Zm0,3.406h-2.882v-2.9h2.882Zm0,3.406h-2.882v-2.9h2.882Zm0,3.407h-2.882v-2.9h2.882Zm0,3.407h-2.882v-2.9h2.882Zm0,3.408h-2.882v-2.9h2.882Zm-3.394-20.442h-2.882v-2.9h2.882Zm0,3.408h-2.882v-2.9h2.882Zm0,3.406h-2.882v-2.9h2.882Zm0,3.406h-2.882v-2.9h2.882Zm0,3.407h-2.882v-2.9h2.882Zm0,3.407h-2.882v-2.9h2.882Zm0,3.408h-2.882v-2.9h2.882Zm-3.392-20.442h-2.882v-2.9h2.882Zm0,3.408h-2.882v-2.9h2.882Zm0,3.406h-2.882v-2.9h2.882Zm0,3.406h-2.882v-2.9h2.882Zm0,3.407h-2.882v-2.9h2.882Zm0,3.407h-2.882v-2.9h2.882Zm0,3.408h-2.882v-2.9h2.882Zm-3.394-3.408H247.1v-2.9h2.882Zm0,3.408H247.1v-2.9h2.882Zm-3.392-3.408h-2.883v-2.9h2.883Zm0,3.408h-2.883v-2.9h2.883Zm-3.393-3.408h-2.883v-2.9H243.2Zm0,3.408h-2.883v-2.9H243.2Zm-3.392-3.408h-2.883v-2.9H239.8Zm0,3.408h-2.883v-2.9H239.8Zm-3.394-3.408h-2.884v-2.9h2.884Zm0,3.408h-2.884v-2.9h2.884Zm-3.393-68.141h-2.883v-2.9h2.883Zm0,3.408h-2.883v-2.9h2.883Zm0,3.406h-2.883v-2.9h2.883Zm0,3.407h-2.883v-2.9h2.883Zm0,3.408h-2.883v-2.9h2.883Zm0,3.406h-2.883v-2.9h2.883Zm0,3.407h-2.883v-2.9h2.883Zm0,3.407h-2.883v-2.9h2.883Zm0,3.407h-2.883v-2.9h2.883Zm0,3.407h-2.883v-2.9h2.883Zm0,3.408h-2.883v-2.9h2.883Zm0,3.407h-2.883v-2.9h2.883Zm0,3.407h-2.883v-2.9h2.883Zm0,3.407h-2.883v-2.9h2.883Zm0,3.407h-2.883v-2.9h2.883Zm0,3.408h-2.883v-2.9h2.883Zm0,3.406h-2.883v-2.9h2.883Zm0,3.406h-2.883v-2.9h2.883Zm0,3.407h-2.883v-2.9h2.883Zm0,3.407h-2.883v-2.9h2.883Zm0,3.408h-2.883v-2.9h2.883Zm-3.393-68.141h-2.883v-2.9h2.883Zm0,3.408h-2.883v-2.9h2.883Zm0,3.406h-2.883v-2.9h2.883Zm0,3.407h-2.883v-2.9h2.883Zm0,3.408h-2.883v-2.9h2.883Zm0,3.406h-2.883v-2.9h2.883Zm0,3.407h-2.883v-2.9h2.883Zm0,3.407h-2.883v-2.9h2.883Zm0,3.407h-2.883v-2.9h2.883Zm0,3.407h-2.883v-2.9h2.883Zm0,3.408h-2.883v-2.9h2.883Zm0,3.407h-2.883v-2.9h2.883Zm0,3.407h-2.883v-2.9h2.883Zm0,3.407h-2.883v-2.9h2.883Zm0,3.407h-2.883v-2.9h2.883Zm0,3.408h-2.883v-2.9h2.883Zm0,3.406h-2.883v-2.9h2.883Zm0,3.406h-2.883v-2.9h2.883Zm0,3.407h-2.883v-2.9h2.883Zm0,3.407h-2.883v-2.9h2.883Zm0,3.408h-2.883v-2.9h2.883Zm-3.393-68.141h-2.882v-2.9h2.882Zm0,3.408h-2.882v-2.9h2.882Zm0,3.406h-2.882v-2.9h2.882Zm0,3.407h-2.882v-2.9h2.882Zm0,3.408h-2.882v-2.9h2.882Zm0,3.406h-2.882v-2.9h2.882Zm0,3.407h-2.882v-2.9h2.882Zm0,3.407h-2.882v-2.9h2.882Zm0,3.407h-2.882v-2.9h2.882Zm0,3.407h-2.882v-2.9h2.882Zm0,3.408h-2.882v-2.9h2.882Zm0,3.407h-2.882v-2.9h2.882Zm0,3.407h-2.882v-2.9h2.882Zm0,3.407h-2.882v-2.9h2.882Zm0,3.407h-2.882v-2.9h2.882Zm0,3.408h-2.882v-2.9h2.882Zm0,3.406h-2.882v-2.9h2.882Zm0,3.406h-2.882v-2.9h2.882Zm0,3.407h-2.882v-2.9h2.882Zm0,3.407h-2.882v-2.9h2.882Zm0,3.408h-2.882v-2.9h2.882Zm-3.394-68.141h-2.882v-2.9h2.882Zm0,3.408h-2.882v-2.9h2.882Zm0,3.406h-2.882v-2.9h2.882Zm0,3.407h-2.882v-2.9h2.882Zm0,3.408h-2.882v-2.9h2.882Zm0,3.406h-2.882v-2.9h2.882Zm0,3.407h-2.882v-2.9h2.882Zm0,3.407h-2.882v-2.9h2.882Zm0,3.407h-2.882v-2.9h2.882Zm0,3.407h-2.882v-2.9h2.882Zm0,3.408h-2.882v-2.9h2.882Zm0,3.407h-2.882v-2.9h2.882Zm0,3.407h-2.882v-2.9h2.882Zm0,3.407h-2.882v-2.9h2.882Zm0,3.407h-2.882v-2.9h2.882Zm0,3.408h-2.882v-2.9h2.882Zm0,3.406h-2.882v-2.9h2.882Zm0,3.406h-2.882v-2.9h2.882Zm0,3.407h-2.882v-2.9h2.882Zm0,3.407h-2.882v-2.9h2.882Zm0,3.408h-2.882v-2.9h2.882Zm10.689-67.631h2.884v2.9h-2.884Zm0-3.407h2.884v2.9h-2.884Zm3.4,3.407H239.8v2.9h-2.883Zm0-3.407H239.8v2.9h-2.883Zm3.392,3.407H243.2v2.9h-2.883Zm0-3.407H243.2v2.9h-2.883Zm3.393,3.407h2.883v2.9h-2.883Zm0-3.407h2.883v2.9h-2.883Zm3.393,3.407h2.882v2.9H247.1Zm0-3.407h2.882v2.9H247.1Zm3.394,3.407h2.882v2.9h-2.882Zm0-3.407h2.882v2.9h-2.882Zm3.392,3.407h2.882v2.9h-2.882Zm0-3.407h2.882v2.9h-2.882Zm3.393,3.407h2.882v2.9h-2.882Zm0-3.407h2.882v2.9h-2.882Zm3.394,3.407h2.882v2.9h-2.882Zm0-3.407h2.882v2.9h-2.882Zm1.725,6.814h1.157v.061c.027,0,.055,0,.082,0-.412-.031-.822-.066-1.239-.066m1.157,16.525h-2.882v-2.9h2.882Zm-2.882,7.323h2.882v2.9h-2.882Zm-3.394,0h2.882v2.9h-2.882Zm-3.393,0h2.882v2.9h-2.882Zm-3.392,0h2.882v2.9h-2.882Zm2.882-7.323h-2.882v-2.9h2.882Zm-2.882.51h2.882v2.9h-2.882Zm2.882,6.3h-2.882v-2.9h2.882Zm3.392-6.814h-2.882v-2.9h2.882Zm-2.882,3.917h2.882v2.9h-2.882Zm0-3.407h2.882v2.9h-2.882Zm6.276-.51h-2.882v-2.9h2.882Zm-2.883,3.917h2.882v2.9h-2.882Zm0-3.407h2.882v2.9h-2.882Zm6.276,6.3h-2.882v-2.9h2.882Zm-2.882-6.3h2.882v2.9h-2.882Zm6.274-17.035v.629c.171.046.343.083.512.133v-.762h2.882v1.914a18.073,18.073,0,0,0-6.276-1.826v-.088Zm-2.882-3.407h2.882v2.9h-2.882Zm0-3.407h2.882v2.9h-2.882Zm3.394,3.407h2.882v2.9h-2.882Zm0-3.407h2.882v2.9h-2.882Zm3.391,6.814h2.884v2.9H272.1q-.771-.491-1.591-.9c.115.053.231.1.341.164Zm0-3.407h2.884v2.9h-2.884Zm0-3.407h2.884v2.9h-2.884Zm2.885,10.86c-.284-.224-.584-.431-.88-.639h.879v.639h0m.509-.639h2.883v2.9h-1a19.32,19.32,0,0,0-1.89-1.827l0,.005Zm0-3.407h2.883v2.9h-2.883Zm0-3.407h2.883v2.9h-2.883Zm2.317,10.219,0,0h.564v.708c-.183-.241-.373-.478-.566-.71m-2.317-13.626h2.883v2.9h-2.883Zm-54.8,71.548h71.764V293.716H219.445Z" fill="#00194a"/></g></svg>