<svg id="Icons" height="512" viewBox="0 0 60 60" width="512" xmlns="http://www.w3.org/2000/svg"><path d="m28.836 47.676a22.18 22.18 0 0 1 -3.836.324 23.025 23.025 0 0 1 -23-23 1 1 0 0 0 -2 0 25.028 25.028 0 0 0 25 25 24.107 24.107 0 0 0 4.184-.355 1 1 0 0 0 -.348-1.969z" fill="#8991a0"/><path d="m25 0a24.9 24.9 0 0 0 -21.734 12.674l-1.045-2.619a1 1 0 0 0 -1.858.745l1.854 4.64a1 1 0 0 0 1.3.558l4.643-1.854a1 1 0 0 0 -.742-1.858l-2.118.845a23 23 0 0 1 42.7 11.869 22.18 22.18 0 0 1 -.324 3.836 1 1 0 0 0 .81 1.158.957.957 0 0 0 .175.016 1 1 0 0 0 .984-.826 24.107 24.107 0 0 0 .355-4.184 25.028 25.028 0 0 0 -25-25z" fill="#8991a0"/><path d="m36 26.58v-9.75a2.006 2.006 0 0 0 -.59-1.42l-4.82-4.82a2.006 2.006 0 0 0 -1.42-.59h-12.17a1 1 0 0 0 -1 1v27a1 1 0 0 0 1 1h9.04z" fill="#d6dbe3"/><path d="m51.34 48.2 6.36 4.851a3.317 3.317 0 1 1 -4.65 4.649l-4.85-6.359z" fill="#9e785f"/><circle cx="40" cy="40" fill="#25a3da" r="14"/><path d="m35.82 16h-4.82a1 1 0 0 1 -1-1v-4.82a2.017 2.017 0 0 1 .59.41l4.82 4.82a2.017 2.017 0 0 1 .41.59z" fill="#b9bfcc"/><g fill="#2bb6e8"><path d="m31 41a1 1 0 0 1 -.637-1.772l15.237-12.54a1 1 0 1 1 1.271 1.544l-15.23 12.54a.993.993 0 0 1 -.641.228z"/><path d="m29.671 50.45a1 1 0 0 1 -.637-1.771l7.33-6.037a1 1 0 0 1 1.272 1.543l-7.33 6.037a1 1 0 0 1 -.635.228z"/><path d="m40 41.941a1 1 0 0 1 -.637-1.771l6-4.941a1 1 0 1 1 1.272 1.542l-6 4.942a1 1 0 0 1 -.635.228z"/><path d="m41 50a1 1 0 0 1 -.637-1.771l1-.825a1 1 0 0 1 1.272 1.543l-1 .824a.992.992 0 0 1 -.635.229z"/><path d="m45 46.7a1 1 0 0 1 -.637-1.771l8.9-7.334a1 1 0 1 1 1.271 1.543l-8.9 7.334a1 1 0 0 1 -.634.228z"/></g><path d="m32 22h-12a1 1 0 0 1 0-2h12a1 1 0 0 1 0 2z" fill="#585f6b"/><path d="m30 26h-10a1 1 0 0 1 0-2h10a1 1 0 0 1 0 2z" fill="#585f6b"/><path d="m25 30h-5a1 1 0 0 1 0-2h5a1 1 0 0 1 0 2z" fill="#585f6b"/><path d="m23 34h-3a1 1 0 0 1 0-2h3a1 1 0 0 1 0 2z" fill="#585f6b"/><path d="m40 55a15 15 0 1 1 15-15 15.017 15.017 0 0 1 -15 15zm0-28a13 13 0 1 0 13 13 13.015 13.015 0 0 0 -13-13z" fill="#b9bfcc"/></svg>