<?xml version="1.0" encoding="utf-8"?>
<!-- Generator: Adobe Illustrator 24.0.1, SVG Export Plug-In . SVG Version: 6.00 Build 0)  -->
<svg version="1.1" id="OBJECTS" xmlns="http://www.w3.org/2000/svg" xmlns:xlink="http://www.w3.org/1999/xlink" x="0px" y="0px"
	 viewBox="0 0 376.8 242.6" style="enable-background:new 0 0 376.8 242.6;" xml:space="preserve">
<style type="text/css">
	.st0{fill:#EBEBFF;}
	.st1{fill:#D6D7F4;}
	.st2{fill:#3D5AC4;}
	.st3{fill:#5571E9;}
	.st4{fill:#27429C;}
	.st5{fill:#312C76;}
	.st6{fill:#151247;}
	.st7{opacity:0.16;fill:#5571E9;}
	.st8{clip-path:url(#XMLID_5_);fill:#FFFFFF;}
	.st9{fill:#14103D;}
	.st10{fill:#EB8175;}
	.st11{fill:#231C61;}
	.st12{fill:#E1AD9D;}
	.st13{fill:#C8C6F2;}
	.st14{fill:#D8D7FD;}
	.st15{fill:#091218;}
	.st16{fill:#1B2934;}
	.st17{fill:#FFFFFF;}
	.st18{fill:#E16C5F;}
	.st19{clip-path:url(#XMLID_6_);fill:#231C61;}
	.st20{fill:#F5D100;}
	.st21{fill:none;stroke:#F1AB00;stroke-width:0.2802;stroke-miterlimit:10;}
	.st22{fill:none;stroke:#FFFFFF;stroke-width:1.1206;stroke-linecap:round;stroke-linejoin:round;stroke-miterlimit:10;}
	.st23{fill:#334FBE;}
	.st24{fill:#4265D1;}
	.st25{clip-path:url(#XMLID_7_);fill:#231C61;}
	.st26{fill:none;stroke:#F1AB00;stroke-width:0.2834;stroke-miterlimit:10;}
	.st27{fill:none;stroke:#FFFFFF;stroke-width:1.1334;stroke-linecap:round;stroke-linejoin:round;stroke-miterlimit:10;}
	.st28{fill:none;stroke:#3D5AC4;stroke-width:2.6489;stroke-miterlimit:10;}
	.st29{fill:none;stroke:#5571E9;stroke-width:2.6489;stroke-miterlimit:10;}
	.st30{fill:#2F4DAB;}
	.st31{fill:none;stroke:#231C61;stroke-width:2.1624;stroke-miterlimit:10;}
	.st32{fill:none;stroke:#231C61;stroke-width:1.1138;stroke-miterlimit:10;}
	.st33{fill:#373482;}
	.st34{fill:none;stroke:#5571E9;stroke-width:2.6489;stroke-linecap:round;stroke-linejoin:round;stroke-miterlimit:10;}
	.st35{clip-path:url(#XMLID_9_);fill:#FAFAFA;}
	.st36{fill:#E8C400;}
	.st37{clip-path:url(#XMLID_10_);fill:#FAFAFA;}
	.st38{fill:none;stroke:#3D5AC4;stroke-width:1.1366;stroke-linecap:round;stroke-linejoin:round;stroke-miterlimit:10;}
</style>
<g>
	<g>
		<g>
			<g>
				<g>
					<path class="st0" d="M361.8,167.4c3.7-12.1,4.6-24.9,1.9-37.3c-4.2-19.3-17.6-42.7-56.5-52.8c-73.5-19.1-99.1-75-167.9-57.2
						c0,0-36.9,6.7-54.4,67.8C67.5,149-0.9,150.1,22.6,203.2c3.9,8.7,14.2,18.2,29.1,27.1l278.9-0.9
						C350,206.3,356,186.2,361.8,167.4z"/>
				</g>
				<g>
					<path class="st1" d="M296,123.7h-10.5v-11.4c0-5.7-4-10.5-9.4-11.8V86.3h-3.9v13.9c-6.2,0.6-11,5.7-11,12.1v11.8h-10.4v13.1
						h-0.7v24.4l-18.9-0.1v-29.2h-21.7v21.4h-15.2v20.8h-18.4v55H237v0h13.1v0h76.6v-69.3h-30.8L296,123.7z"/>
					<polygon class="st1" points="80,153.9 80,126.6 90.3,126.6 90.3,112 94.1,112 94.1,126.6 103.5,126.6 103.5,153.9 114.1,153.9 
						114.1,170.3 131,170.3 131,114.5 166.2,114.5 166.2,229.4 143.3,229.4 133.4,229.4 108.5,229.4 97,229.4 67,229.4 67,153.9 
											"/>
				</g>
			</g>
			<g>
				<g>
					<g>
						<path class="st2" d="M272.5,229.1l-160.6,0.1c-6.1,0-11-4.9-11-11l0,0l182.6-0.1l0,0C283.5,224.2,278.6,229.1,272.5,229.1z"/>
						<path class="st3" d="M272.5,225.3l-160.6,0.1c-4.7,0-8.8-3-10.3-7.2l-0.7,0c0,6.1,4.9,11,11,11l160.6-0.1c6.1,0,11-4.9,11-11
							l-0.7,0C281.3,222.3,277.2,225.3,272.5,225.3z"/>
						<path class="st4" d="M202.6,221.9l-20.7,0c-2,0-3.7-1.6-3.7-3.7l0,0l28.1,0l0,0C206.3,220.2,204.6,221.9,202.6,221.9z"/>
					</g>
					<g>
						<path class="st3" d="M274.1,218.1l-163.8,0.1l-0.1-98.9c0-5.7,4.6-10.3,10.3-10.3l143.3-0.1c5.7,0,10.3,4.6,10.3,10.3
							L274.1,218.1z"/>
						<rect x="118.8" y="117.6" class="st5" width="146.8" height="92.1"/>
						<rect x="118.8" y="200.8" class="st6" width="146.8" height="8.8"/>
						<rect x="118.7" y="117.6" class="st6" width="146.8" height="4.4"/>
						<g>
							<polygon class="st7" points="167.7,117.6 118.8,166.6 118.8,209.7 118.9,209.7 210.9,117.6 							"/>
							<polygon class="st7" points="137.8,209.7 159.4,209.7 251.4,117.5 229.8,117.6 							"/>
							<polygon class="st7" points="248.3,209.6 265.6,192.3 265.5,159.6 213.8,209.6 							"/>
						</g>
					</g>
				</g>
				<g>
					<defs>
						<rect id="XMLID_8_" x="110.2" y="156.9" width="163.9" height="18.1"/>
					</defs>
					<use xlink:href="#XMLID_8_"  style="overflow:visible;fill:#F5D100;"/>
					<clipPath id="XMLID_5_">
						<use xlink:href="#XMLID_8_"  style="overflow:visible;"/>
					</clipPath>
					<polygon class="st8" points="130.7,181.3 116.6,181.3 128.7,153.6 142.8,153.6 					"/>
					<polygon class="st8" points="160.7,181.3 146.6,181.3 158.8,153.6 172.9,153.6 					"/>
					<polygon class="st8" points="190.8,181.3 176.7,181.3 188.8,153.6 202.9,153.6 					"/>
					<polygon class="st8" points="220.9,181.3 206.8,181.3 218.9,153.6 233,153.6 					"/>
					<polygon class="st8" points="250.9,181.3 236.8,181.3 249,153.6 263.1,153.6 					"/>
				</g>
			</g>
			<g>
				<g>
					<g>
						<g>
							<g>
								<path class="st9" d="M97.1,125.7l-3.2,0.1l-1.9-0.6c-0.9-0.3-1.8,0.1-2.3,0.8l-0.2,0.4l9.4,5.2l1.8-3.9L97.1,125.7z"/>
								<path class="st9" d="M98.8,131.6l-9.4-5.2l0.3-0.6c0.1-0.1,0.2-0.2,0.3-0.1l9.2,5.1L98.8,131.6"/>
							</g>
							<polygon class="st10" points="100.6,127.6 103.1,123.4 100.6,118.9 97.1,125.7 							"/>
						</g>
						<path class="st9" d="M120,103c0,0-13.3-3.8-14.6-0.2c-1.3,3.6-9.1,19.5-9.1,19.5l5.8,3l8.7-15.1l11.7-1L120,103z"/>
					</g>
					<g>
						<g>
							<g>
								<path class="st9" d="M109.1,130.5l-2.6,1.7l-1.9,0.4c-0.9,0.2-1.5,0.9-1.6,1.8l0,0.4l10.7,0l-0.3-4.3L109.1,130.5z"/>
								<path class="st9" d="M113.7,134.9l-10.8,0l0-0.7c0-0.1,0.1-0.2,0.2-0.2l10.5,0L113.7,134.9"/>
							</g>
							<polygon class="st10" points="113.3,130.5 113.7,123.4 109.4,122.9 109.1,130.5 							"/>
						</g>
						<path class="st11" d="M121.8,102.4l-12.6,0.6c0,0-1.8,0.1-1.7,4.3c0.1,4.2,0.1,21.3,0.1,21.3l6,0.2l1.2-17.9l12.6-0.2
							c2.7,0,5.1-1.6,6.2-4c0.4-0.9,0.6-2,0.3-3.1L121.8,102.4z"/>
					</g>
				</g>
				<g>
					<g>
						<g>
							<path class="st12" d="M109.9,99.9c0,1.2-0.8,1.4-2,1.4c-1.2,0-2.3-0.2-2.3-1.4c0-1.2,1-2.2,2.2-2.2
								C108.9,97.7,109.9,98.7,109.9,99.9z"/>
							<path class="st12" d="M111.4,101.1l-2.5,0c-0.7,0-1.2-0.5-1.2-1.2l0,0c0-0.7,0.5-1.2,1.2-1.2l2.5,0c0.7,0,1.2,0.5,1.2,1.2
								l0,0C112.6,100.5,112,101.1,111.4,101.1z"/>
						</g>
						<path class="st13" d="M111.3,101.3l-0.8-4.1l10.3-1.1l2.1-12c0.2-1.1,1.8-2.4,2.9-2.2l-0.3-0.1c1.1,0.2,2.1,1.5,1.9,2.6
							l-2,14.4c-0.1,0.8-0.7,1.4-1.5,1.6L111.3,101.3z"/>
					</g>
					<path class="st14" d="M131.8,82.1c0.2,0,0.4,0.1,0.6,0.1l0.1,0c1.8,0.7,3,2.6,3,4.4l-1.6,17c-10.6-0.1-12.2-1.3-12.2-1.3
						l0.8-17.4c0.1-1.6,0.9-3.2,2.8-3.3l0,0L131.8,82.1z"/>
					<g>
						<g>
							<g>
								<path class="st10" d="M120.1,101.2c0.1,1.2-0.7,1.4-1.9,1.5c-1.2,0.1-2.3,0-2.4-1.2c-0.1-1.2,0.8-2.2,2-2.3
									C119,99.1,120,100,120.1,101.2z"/>
								<path class="st10" d="M121.7,102.3l-2.5,0.2c-0.7,0-1.2-0.5-1.3-1.1l0,0c0-0.7,0.5-1.2,1.1-1.3l2.5-0.2
									c0.7,0,1.2,0.5,1.3,1.1l0,0C122.8,101.7,122.3,102.3,121.7,102.3z"/>
							</g>
							<path class="st14" d="M121.6,102.6l-1.1-4l11.2-1.8l-0.6-10.4c0.1-1.1,1.3-2.3,2.4-2.2l0,0c1.1,0.1,2.2,1.3,2.1,2.4l0.8,12.5
								c-0.1,0.8-0.6,1.4-1.4,1.7L121.6,102.6z"/>
						</g>
					</g>
					<g>
						<path class="st15" d="M102.2,88.7l12.2,1.2c0.4,0,0.7,0.4,0.8,0.8l1.3,11c0.1,0.5-0.4,1-0.9,0.9l-12.4-1.2
							c-0.4,0-0.7-0.4-0.8-0.8l-1.1-11C101.3,89.1,101.7,88.7,102.2,88.7z"/>
						<path class="st16" d="M101.5,88.7l12.2,1.2c0.4,0,0.7,0.4,0.8,0.8l1.3,11c0.1,0.5-0.4,1-0.9,0.9l-12.4-1.2
							c-0.4,0-0.7-0.4-0.8-0.8l-1.1-11C100.5,89.1,101,88.6,101.5,88.7z"/>
						<path class="st15" d="M116.2,101.7l8.3,0.8c0.3,0,0.4,0.2,0.4,0.5l0,0c0,0.3-0.2,0.4-0.5,0.4l-8.8-0.8L116.2,101.7z"/>
						<path class="st17" d="M108.5,95.3c-0.1,0.7-0.7,1.3-1.5,1.2c-0.7-0.1-1.3-0.7-1.2-1.5c0.1-0.7,0.7-1.3,1.5-1.2
							C108.1,94,108.6,94.6,108.5,95.3z"/>
					</g>
					<polygon class="st13" points="130.7,88.7 130.9,96.6 120.5,98.5 129.7,95.7 					"/>
				</g>
				<g>
					<g>
						<path class="st10" d="M125.1,81.1l0.7,1.9c0.3,0.7,0.9,1.1,1.6,1.2l0,0c1.4,0.1,2.3-1.3,1.8-2.5l-1.2-2.9L125.1,81.1z"/>
						<path class="st18" d="M125.7,82.8c0,0,3.4-0.7,2.9-3.7c-0.5-3-3.7-0.7-3.7-0.7l0.3,3L125.7,82.8z"/>
						<g>
							<g>
								<defs>
									<path id="XMLID_1_" d="M120.4,73.8c-1.3,2.7-0.1,5.9,2.6,7.2c2.7,1.3,5.9,0.1,7.2-2.6c1.3-2.7,0.1-5.9-2.6-7.2
										C124.9,69.9,121.7,71.1,120.4,73.8z"/>
								</defs>
								<use xlink:href="#XMLID_1_"  style="overflow:visible;fill:#EB8175;"/>
								<clipPath id="XMLID_6_">
									<use xlink:href="#XMLID_1_"  style="overflow:visible;"/>
								</clipPath>
								<path class="st19" d="M127.3,77.1c0,0-0.8,4.3,2.3,4.4c3.2,0.1,1.4-8.1,1.4-8.1l-5-5.1l-7.7,1.9l0.8,5c0,0,1.2,0.6,7.8-0.4
									L127.3,77.1z"/>
								<polygon class="st19" points="124.2,73.7 126.7,77.4 128.9,75 								"/>
							</g>
							<path class="st10" d="M126.5,76.1c-0.4,0.8,0,1.7,0.7,2c0.8,0.4,1.7,0,2-0.7c0.4-0.8,0-1.7-0.7-2
								C127.7,75,126.8,75.4,126.5,76.1z"/>
						</g>
					</g>
					<g>
						<path class="st20" d="M119.4,75.2c0,0-1.2-4.3,1.6-6.9c2.3-2.2,6-2,8,0.4c0.9,1.1,1.7,2.8,1.8,5.4L119.4,75.2z"/>
						<path class="st21" d="M120,75.1l0-2.7c0-0.7,0.5-1.2,1.2-1.3l0,0c0.7,0,1.2,0.5,1.3,1.1l0.3,2.6"/>
						<line class="st22" x1="130.8" y1="74.1" x2="118.4" y2="75.2"/>
					</g>
				</g>
			</g>
			<g>
				<g>
					<g>
						<polygon class="st10" points="243.5,217.5 246.3,220.2 243.1,221.9 240.4,219.2 						"/>
						<path class="st9" d="M224,197.4l1.9,8.2c0.4,1.6,1.1,3.2,2.1,4.7l12.2,11l4.8-3.9l-10.4-11l-3.8-14.6L224,197.4z"/>
						<g>
							<path class="st9" d="M243,221.8l-1,3.2l-1.1,1.6c-0.5,0.7-0.5,1.7,0,2.4l0.3,0.3l7.8-7.3l-3.1-2.9L243,221.8z"/>
							<polyline class="st9" points="249,222.1 241.2,229.4 240.6,228.8 248.4,221.5 249,222.1 							"/>
						</g>
					</g>
					<g>
						<polygon class="st10" points="216.8,222.5 215.8,226 212.2,225 213.2,221.6 						"/>
						<path class="st11" d="M221.6,188.3l-10,33.8l6.3,1.6l5.6-17l6.9-11.1c0.4-0.5,0.7-1,1-1.6c0.6-1,0.8-2.1,0.8-3.2l0-2.2
							L221.6,188.3z"/>
						<g>
							<path class="st9" d="M212.4,224.7l-3.2,1.2l-2,0.1c-0.9,0-1.7,0.7-1.9,1.5l-0.1,0.4l10.6,1.7l0.4-4.3L212.4,224.7z"/>
							<polyline class="st9" points="215.9,229.7 205.2,227.9 205.3,227 216,228.8 215.9,229.7 							"/>
						</g>
					</g>
				</g>
				<g>
					<g>
						<g>
							<polygon class="st23" points="207.6,153.9 203.6,160.2 205.5,161.6 209.7,154.9 							"/>
							<path class="st24" d="M202.4,143.4c0,0,1.9,7.8,11.3,10.9c0.3,0.1,0.5,0.3,0.5,0.6c0.1,0.9,0.1,2.9-2,3.4
								c-0.2,0.1-0.4,0-0.6-0.1c-1.4-0.9-8.6-5.1-15.5-3.9L202.4,143.4z"/>
							<path class="st23" d="M202.4,143.4c0,0-1.7,7.8-6.2,11C196.2,154.4,196.8,147.6,202.4,143.4z"/>
						</g>
						<g>
							<g>
								<g>
									<path class="st10" d="M202.2,159.8c-0.3,1.4,0.9,3.2,2.3,3.5c1.4,0.3,2.8-0.6,3.1-2.1c0.3-1.4-0.9-3.2-2.3-3.5
										C203.9,157.4,202.5,158.4,202.2,159.8z"/>
								</g>
								<polyline class="st10" points="209.9,164 207,161.1 205.2,163.3 209.9,166.7 								"/>
							</g>
							<path class="st13" d="M209.4,161.3l-3,4.4l8.1,7.4c0.5,0.1,1,0.2,1.5,0.1l10.7-1.4c1.7-0.1,3-1.5,2.9-3.2l0,0
								c-0.1-1.7,0.2-4.1-1.4-4l-12.4,2.6L209.4,161.3z"/>
						</g>
					</g>
					<g>
						<g>
							<path class="st14" d="M233.4,171.4c0.3-2.3-0.8-4.7-2.8-5.9c-0.9-0.6-1.8-1-2.4-0.8c-2.1,0.4-4.3,1.3-5.3,4.2
								c-1.6,4.9-2.1,19.4-2.1,19.4l11.5,0.4L233.4,171.4z"/>
						</g>
						<polygon class="st13" points="229.2,171.8 232.6,184.5 233.3,173.7 						"/>
					</g>
					<g>
						<g>
							<g>
								<path class="st10" d="M243.3,196.8c1.1-1,1.2-3.1,0.2-4.2c-1-1.1-2.7-1.2-3.8-0.2c-1.1,1-1.2,3.1-0.2,4.2
									C240.5,197.7,242.2,197.8,243.3,196.8z"/>
							</g>
							<polyline class="st10" points="238,187.8 240.1,192.9 242.9,192.2 241.2,186.7 							"/>
						</g>
						<path class="st14" d="M238.2,191.8l5.7-1.3l-3.9-13.3c-0.1-0.5-0.4-1-0.7-1.4l-7.2-8.9c-1-1.4-2.6-1.1-4-0.2l0,0
							c-1.4,1-1.7,2.9-0.8,4.3l6.9,8.3L238.2,191.8z"/>
					</g>
				</g>
				<g>
					<g>
						<path class="st10" d="M225.6,162.9l0.2,2c0.1,0.7,0.6,1.3,1.3,1.6l0,0c1.3,0.4,2.6-0.7,2.4-2l-0.5-3.1L225.6,162.9z"/>
						<path class="st18" d="M225.8,164.7c0,0,3.5-0.1,3.8-3.2c0.3-3.1-3.5-1.2-3.5-1.2l-0.4,3L225.8,164.7z"/>
						<g>
							<g>
								<defs>
									<path id="XMLID_11_" d="M222.8,154.5c-1.9,2.3-1.6,5.8,0.8,7.7c2.3,1.9,5.8,1.6,7.7-0.8c1.9-2.3,1.6-5.8-0.8-7.7
										C228.1,151.9,224.7,152.2,222.8,154.5z"/>
								</defs>
								<use xlink:href="#XMLID_11_"  style="overflow:visible;fill:#EB8175;"/>
								<clipPath id="XMLID_7_">
									<use xlink:href="#XMLID_11_"  style="overflow:visible;"/>
								</clipPath>
								<path class="st25" d="M228.7,159.5c0,0-1.9,4,1.2,4.9c3.1,0.9,3.4-7.6,3.4-7.6l-3.7-6.2l-8-0.1l-0.5,5.1c0,0,1,0.9,7.8,1.5
									L228.7,159.5z"/>
								<polygon class="st25" points="226.5,155.4 228,159.7 230.8,157.9 								"/>
							</g>
							<path class="st10" d="M228.1,158.4c-0.5,0.7-0.4,1.6,0.2,2.2c0.7,0.5,1.6,0.4,2.2-0.2c0.5-0.7,0.4-1.6-0.2-2.2
								C229.6,157.6,228.7,157.7,228.1,158.4z"/>
						</g>
					</g>
					<g>
						<path class="st20" d="M221.4,156.1c0,0-0.3-4.5,3-6.5c2.7-1.7,6.4-0.8,7.8,2c0.7,1.3,1.1,3.2,0.6,5.7L221.4,156.1z"/>
						<path class="st26" d="M222,156.2l0.5-2.6c0.1-0.7,0.8-1.1,1.4-1l0,0c0.7,0.1,1.1,0.7,1.1,1.4l-0.3,2.7"/>
						<line class="st27" x1="232.9" y1="157.4" x2="220.4" y2="156"/>
					</g>
				</g>
			</g>
			<g>
				<g>
					<line class="st28" x1="309.2" y1="189.7" x2="296.2" y2="202.5"/>
					<line class="st28" x1="309.2" y1="176.1" x2="296.2" y2="188.9"/>
					<line class="st28" x1="309.2" y1="162.5" x2="296.2" y2="175.2"/>
					<line class="st28" x1="309.2" y1="148.9" x2="296.2" y2="161.6"/>
					<line class="st28" x1="309.2" y1="135.2" x2="296.2" y2="148"/>
					<line class="st28" x1="309.2" y1="121.6" x2="296.2" y2="134.4"/>
					<line class="st28" x1="309.2" y1="108" x2="296.2" y2="120.7"/>
					<line class="st28" x1="309.2" y1="94.4" x2="296.2" y2="107.1"/>
					<line class="st28" x1="309.2" y1="80.7" x2="296.2" y2="93.5"/>
					<line class="st28" x1="309.2" y1="67.1" x2="296.2" y2="79.9"/>
					<line class="st28" x1="309.2" y1="53.5" x2="296.2" y2="66.2"/>
					<line class="st28" x1="296.2" y1="188.9" x2="309.2" y2="188.9"/>
					<line class="st28" x1="296.2" y1="175.2" x2="309.2" y2="175.2"/>
					<line class="st28" x1="296.2" y1="161.6" x2="309.2" y2="161.6"/>
					<line class="st28" x1="296.2" y1="148" x2="309.2" y2="148"/>
					<line class="st28" x1="296.2" y1="134.4" x2="309.2" y2="134.4"/>
					<line class="st28" x1="296.2" y1="120.7" x2="309.2" y2="120.7"/>
					<line class="st28" x1="296.2" y1="107.1" x2="309.2" y2="107.1"/>
					<line class="st28" x1="296.2" y1="93.5" x2="309.2" y2="93.5"/>
					<line class="st28" x1="296.2" y1="79.9" x2="309.2" y2="79.9"/>
					<line class="st28" x1="296.2" y1="66.2" x2="309.2" y2="66.2"/>
					<line class="st29" x1="296.2" y1="206.2" x2="296.2" y2="55.7"/>
					<line class="st29" x1="309.2" y1="206.2" x2="309.2" y2="55.7"/>
					<rect x="289.6" y="202.5" class="st11" width="25.8" height="26.8"/>
				</g>
				<g>
					<g>
						<path class="st2" d="M309.2,55.7h-13.5c-2.4,0-4.3-1.9-4.3-4.3V34.5c0-2.4,1.9-4.3,4.3-4.3h13.5c2.4,0,4.3,1.9,4.3,4.3v16.9
							C313.5,53.7,311.6,55.7,309.2,55.7z"/>
						<path class="st30" d="M302.1,48.2h-8.7V36.3h8.7c1.8,0,3.3,1.5,3.3,3.3V45C305.4,46.8,303.9,48.2,302.1,48.2z"/>
					</g>
					<g>
						<g>
							<line class="st31" x1="210.9" y1="57.1" x2="221.3" y2="87.1"/>
							<line class="st31" x1="203.7" y1="53.5" x2="183.5" y2="80.7"/>
							<g>
								<path class="st20" d="M209.7,66.9l20.8,27.3c2.3,3,1.7,7.3-1.3,9.6L202,124.6c-3,2.3-7.3,1.7-9.6-1.3L171.6,96
									c-2.3-3-1.7-7.3,1.3-9.6l27.3-20.8C203.2,63.3,207.4,63.9,209.7,66.9z"/>
								<path class="st32" d="M208.2,72l17.1,22.3c1.9,2.5,1.4,6-1,7.8l-22.3,17.1c-2.5,1.9-6,1.4-7.8-1L177,95.8
									c-1.9-2.5-1.4-6,1-7.8l22.3-17.1C202.8,69.1,206.3,69.5,208.2,72z"/>
								<g>
									<path class="st11" d="M202.9,105.2c-0.5,4-6.7,3.2-6.1-0.8C197.3,100.3,203.4,101.2,202.9,105.2z M205.5,82.6l-2.4,17
										l-5.2-0.7c0.8-5.7,1.4-11.3,2.2-17L205.5,82.6z"/>
								</g>
							</g>
						</g>
						<g>
							<g>
								<circle class="st11" cx="208" cy="50.9" r="8.6"/>
								<path class="st33" d="M214.1,50.9c0,3.4-2.7,6.1-6.1,6.1c-3.4,0-6.1-2.7-6.1-6.1c0-3.4,2.7-6.1,6.1-6.1
									C211.3,44.8,214.1,47.6,214.1,50.9z"/>
							</g>
							<g>
								<line class="st28" x1="241.9" y1="11.8" x2="241.9" y2="30.2"/>
								<line class="st28" x1="225.4" y1="11.8" x2="225.4" y2="30.2"/>
								<line class="st28" x1="258.3" y1="11.8" x2="258.3" y2="30.2"/>
								<line class="st28" x1="276.5" y1="11.8" x2="276.5" y2="30.2"/>
								<line class="st28" x1="293.5" y1="11.8" x2="293.5" y2="30.2"/>
								<line class="st28" x1="311.1" y1="11.8" x2="311.1" y2="30.2"/>
								<line class="st28" x1="328.4" y1="11.8" x2="328.4" y2="30.2"/>
								<line class="st28" x1="224.6" y1="30.2" x2="241.9" y2="11.8"/>
								<line class="st28" x1="241.9" y1="30.2" x2="259.2" y2="11.8"/>
								<line class="st28" x1="259.2" y1="30.2" x2="276.5" y2="11.8"/>
								<line class="st28" x1="276.5" y1="30.2" x2="293.8" y2="11.8"/>
								<line class="st28" x1="293.8" y1="30.2" x2="311.1" y2="11.8"/>
								<line class="st28" x1="311.1" y1="30.2" x2="328.4" y2="11.8"/>
								<polygon class="st34" points="208,30.2 349,30.2 330,11.8 222.6,11.8 								"/>
								<line class="st34" x1="208" y1="30.2" x2="208" y2="50.9"/>
							</g>
						</g>
					</g>
				</g>
			</g>
			<g>
				<g>
					<g>
						<defs>
							<path id="XMLID_4_" d="M133.4,226.8l9.9-25.5c0.5-1.2,2.2-1.2,2.7,0l9.9,25.5H133.4z"/>
						</defs>
						<use xlink:href="#XMLID_4_"  style="overflow:visible;fill:#F5D100;"/>
						<clipPath id="XMLID_9_">
							<use xlink:href="#XMLID_4_"  style="overflow:visible;"/>
						</clipPath>
						<rect x="135.7" y="206.8" class="st35" width="17.5" height="5.4"/>
						<rect x="134.7" y="217" class="st35" width="19.8" height="5.4"/>
					</g>
					<rect x="131.6" y="226.8" class="st36" width="26.1" height="2.2"/>
				</g>
				<g>
					<g>
						<defs>
							<path id="XMLID_3_" d="M276.8,226.9l9.9-25.5c0.5-1.2,2.2-1.2,2.7,0l9.9,25.5H276.8z"/>
						</defs>
						<use xlink:href="#XMLID_3_"  style="overflow:visible;fill:#F5D100;"/>
						<clipPath id="XMLID_10_">
							<use xlink:href="#XMLID_3_"  style="overflow:visible;"/>
						</clipPath>
						<rect x="279" y="206.8" class="st37" width="17.5" height="5.4"/>
						<rect x="278.1" y="217.1" class="st37" width="19.8" height="5.4"/>
					</g>
					<rect x="274.9" y="226.9" class="st36" width="26.1" height="2.2"/>
				</g>
			</g>
			<g>
				<g>
					
						<ellipse transform="matrix(0.1473 -0.9891 0.9891 0.1473 -114.1004 235.9127)" class="st3" cx="79.8" cy="184.1" rx="20.5" ry="20.5"/>
					<g>
						<line class="st38" x1="79.8" y1="176.8" x2="79.8" y2="228.9"/>
						<line class="st38" x1="71.8" y1="177.9" x2="79.8" y2="186.8"/>
						<path class="st38" d="M86.8,186.3c-0.6,0.6-7.1,7.3-7.1,7.3"/>
					</g>
				</g>
				<line class="st38" x1="18.1" y1="229.4" x2="362" y2="229.4"/>
			</g>
		</g>
	</g>
</g>
</svg>
