<?xml version="1.0" standalone="no"?>
<!DOCTYPE svg PUBLIC "-//W3C//DTD SVG 1.1//EN" "http://www.w3.org/Graphics/SVG/1.1/DTD/svg11.dtd" >
<svg xmlns="http://www.w3.org/2000/svg">
<metadata></metadata>
<defs>
<font id="sukhumvit_tadmailight" horiz-adv-x="0" >
<font-face units-per-em="1000" ascent="750" descent="-250" />
<missing-glyph horiz-adv-x="266" />
<glyph unicode="&#xe2f;&#xe2f;" horiz-adv-x="715" d="M635 0h-66v426q-40 -82 -122 -107v-319h-66v426q-23 -46 -69.5 -75.5t-105.5 -29.5q-86 0 -126 53.5t-40 145.5v40h63v-41q0 -143 110 -143q66 0 119.5 51.5t53.5 110.5v22h61v-187q53 18 90 65.5t37 99.5v22h61v-560z" />
<glyph unicode="&#xe4f;&#x22;" horiz-adv-x="546" d="M273 26q-88 0 -150.5 63t-62.5 151t62 150.5t151 62.5t151 -62.5t62 -150.5t-62.5 -151t-150.5 -63zM273 57q76 0 129.5 53.5t53.5 129.5t-53.5 129.5t-129.5 53.5t-129.5 -53.5t-53.5 -129.5t53.5 -129.5t129.5 -53.5zM273 121q-50 0 -85 35t-35 83q0 51 35 85.5 t84 34.5q50 0 85 -34.5t35 -84.5t-35 -84.5t-84 -34.5zM273 165q31 0 52 21.5t21 53.5q0 30 -21 51.5t-53 21.5q-30 0 -52 -21.5t-22 -52.5q0 -30 21.5 -52t53.5 -22zM226 492h-41l-8 196h57zM361 492h-41l-8 196h57z" />
<glyph unicode="&#xe24;&#xe32;" horiz-adv-x="958" d="M880 -200h-66v553q0 75 -39.5 117.5t-111.5 42.5q-98 0 -160 -69q17 -43 17 -91v-553h-66v553q0 76 -41 118t-118 42q-59 0 -106.5 -30.5t-66.5 -72.5l80 -68v-13q-56 -23 -56 -89v-155q0 -31 29 -31h55v-54h-69q-81 0 -81 80v151q0 76 57 104l-85 68q19 65 87.5 115.5 t155.5 50.5q117 0 180 -76q78 76 189 76q100 0 158 -60.5t58 -155.5v-553z" />
<glyph unicode="&#xe26;&#xe32;" horiz-adv-x="964" d="M886 -200h-66v553q0 75 -39.5 117.5t-111.5 42.5q-99 0 -160 -68q17 -45 17 -92v-553h-66v553q0 76 -40.5 118t-114.5 42q-59 0 -107.5 -30.5t-67.5 -72.5l92 -73v-13q-56 -23 -56 -89v-157q0 -78 -80 -78h-54v54h43q25 0 25 27v145q0 77 55 104l-95 73q19 64 88.5 115 t156.5 51q116 0 176 -76q78 76 189 76q100 0 158 -60.5t58 -155.5v-553z" />
<glyph unicode="fi" horiz-adv-x="517" d="M437 0h-64v433h-212v-433h-64v433h-79v50h79v13q0 85 44.5 136t131.5 51q63 0 113 -27l-15 -49q-41 23 -96 23q-63 0 -89 -35.5t-26 -99.5v-12h277v-483z" />
<glyph unicode="fl" horiz-adv-x="553" d="M473 0h-65v615q-48 15 -102 15q-146 0 -146 -136v-11h144v-50h-143v-433h-64v433h-79v50h79v12q0 82 52.5 134.5t153.5 52.5q86 0 170 -33v-649z" />
<glyph unicode="&#xd;" horiz-adv-x="195" />
<glyph unicode=" "  horiz-adv-x="266" />
<glyph unicode="&#x09;" horiz-adv-x="266" />
<glyph unicode="&#xa0;" horiz-adv-x="266" />
<glyph unicode="!" horiz-adv-x="244" d="M145 188h-46l-11 333v153h68v-153zM173 41q0 -21 -13.5 -35.5t-37.5 -14.5t-37.5 14.5t-13.5 35.5q0 22 13.5 36.5t37.5 14.5t37.5 -14.5t13.5 -36.5z" />
<glyph unicode="&#x22;" horiz-adv-x="316" d="M111 452h-41l-8 236h57zM246 452h-41l-8 236h57z" />
<glyph unicode="#" horiz-adv-x="558" d="M342 0h-58l45 205h-151l-44 -205h-58l45 205h-94v48h104l31 143h-94v48h104l45 206h57l-45 -206h151l45 206h57l-45 -206h94v-48h-104l-31 -143h94v-48h-104zM339 253l32 143h-152l-31 -143h151z" />
<glyph unicode="$" horiz-adv-x="558" d="M301 -100h-45v92q-116 0 -186 37l17 53q74 -35 169 -35v258q-38 12 -65.5 24.5t-57 33.5t-45.5 53.5t-16 74.5q0 68 46.5 114t137.5 52v93h45v-92q85 -4 149 -37l-16 -50q-57 25 -133 30v-248q33 -11 54 -19.5t48 -24.5t43 -33.5t27 -44.5t11 -60q0 -78 -49.5 -123 t-133.5 -54v-94zM301 291v-240q122 19 122 121q0 49 -31.5 74.5t-90.5 44.5zM256 369v230q-62 -5 -93 -33.5t-31 -74.5q0 -48 31 -74.5t93 -47.5z" />
<glyph unicode="%" horiz-adv-x="760" d="M225 0h-55l365 660h55zM184 353q43 0 64 35.5t21 95.5t-21 95.5t-64 35.5t-64 -35.5t-21 -95.5t21 -95.5t64 -35.5zM184 309q-65 0 -101.5 48.5t-36.5 126.5t36.5 126.5t101.5 48.5t101.5 -48.5t36.5 -126.5t-36.5 -126.5t-101.5 -48.5zM576 35q43 0 64 35.5t21 95.5 t-21 95.5t-64 35.5t-64 -35.5t-21 -95.5t21 -95.5t64 -35.5zM576 -9q-65 0 -101.5 48.5t-36.5 126.5t36.5 126.5t101.5 48.5t101.5 -48.5t36.5 -126.5t-36.5 -126.5t-101.5 -48.5z" />
<glyph unicode="&#x26;" horiz-adv-x="626" d="M586 0h-70l-42 50q-79 -59 -190 -59q-108 0 -165 52t-57 129q0 67 37 114.5t102 90.5l-14 18q-25 32 -37 49.5t-22.5 44.5t-10.5 54q0 62 43 101t117 39t114 -40t40 -100q0 -23 -8.5 -44.5t-19 -36.5t-34.5 -34.5t-39 -30t-47 -32.5l191 -231q43 64 43 161v43h64v-43 q0 -122 -67 -207zM434 97l-197 237q-52 -38 -79 -74t-27 -87q0 -56 41.5 -89t114.5 -33q93 0 147 46zM232 424l16 -18q40 25 61.5 41t40.5 42.5t19 54.5q0 39 -24.5 62.5t-68.5 23.5q-42 0 -71 -23t-29 -65q0 -52 56 -118z" />
<glyph unicode="'" horiz-adv-x="181" d="M111 452h-41l-8 236h57z" />
<glyph unicode="(" horiz-adv-x="296" d="M286 -100l-18 -31q-84 56 -139 161.5t-55 252.5t54.5 251t139.5 162l18 -31q-69 -51 -110 -153.5t-41 -228.5q0 -127 41 -229.5t110 -153.5z" />
<glyph unicode=")" horiz-adv-x="296" d="M28 -131l-18 31q69 51 110 153.5t41 229.5q0 126 -41 228.5t-110 153.5l18 31q85 -58 139.5 -162t54.5 -251t-55 -252.5t-139 -161.5z" />
<glyph unicode="*" horiz-adv-x="484" d="M391 341l-133 103l15 -165h-61l14 166l-133 -104l-33 52l153 82l-153 83l33 51l133 -104l-14 169h61l-14 -169l132 104l33 -51l-153 -83l153 -82z" />
<glyph unicode="+" horiz-adv-x="558" d="M308 72h-58v184h-182v54h182v186h58v-186h182v-54h-182v-184z" />
<glyph unicode="," horiz-adv-x="226" d="M101 -127h-39l28 213h78z" />
<glyph unicode="-" horiz-adv-x="308" d="M278 249h-248v52h248v-52z" />
<glyph unicode="." horiz-adv-x="226" d="M164 41q0 -21 -13.5 -35.5t-37.5 -14.5t-37.5 14.5t-13.5 35.5q0 22 13.5 36.5t37.5 14.5t37.5 -14.5t13.5 -36.5z" />
<glyph unicode="/" horiz-adv-x="364" d="M67 -40h-55l285 714h55z" />
<glyph unicode="0" horiz-adv-x="558" d="M279 -9q-109 0 -169 88.5t-60 245.5t60 245.5t169 88.5t169 -88.5t60 -245.5t-60 -245.5t-169 -88.5zM279 45q162 0 162 280t-162 280t-162 -280t162 -280z" />
<glyph unicode="1" horiz-adv-x="558" d="M482 0h-386v59h161v529l-142 -47v53l156 56h52v-591h159v-59z" />
<glyph unicode="2" horiz-adv-x="558" d="M486 0h-430v51l178 179q59 59 87 90.5t51.5 77t23.5 89.5q0 54 -36.5 84t-97.5 30q-83 0 -159 -39l-16 54q80 43 174 43q101 0 152.5 -45t51.5 -128q0 -76 -47.5 -142.5t-147.5 -161.5l-126 -122h342v-60z" />
<glyph unicode="3" horiz-adv-x="558" d="M66 31l17 53q73 -39 167 -39q81 0 122 36.5t41 98.5t-39.5 94.5t-112.5 32.5h-91v54h91q60 0 96.5 34t36.5 92q0 55 -38.5 86.5t-114.5 31.5q-85 0 -155 -39l-16 52q73 41 173 41q105 0 159.5 -47t54.5 -125q0 -60 -30 -98t-79 -53q59 -12 94.5 -52.5t35.5 -103.5 q0 -88 -59 -138.5t-168 -50.5q-110 0 -185 40z" />
<glyph unicode="4" horiz-adv-x="558" d="M371 185v354l-252 -354h252zM434 0h-65v128h-325v49l333 472h57v-464h78v-57h-78v-128z" />
<glyph unicode="5" horiz-adv-x="558" d="M60 36l19 56q80 -41 172 -41q72 0 121.5 41t49.5 108q0 145 -177 145h-155v49l26 256h331v-60h-277l-17 -187h93q117 0 179.5 -54t62.5 -150q0 -95 -65 -151.5t-172 -56.5t-191 45z" />
<glyph unicode="6" horiz-adv-x="558" d="M132 282q0 -104 48 -171t120 -67q71 0 107.5 43.5t36.5 122.5q0 160 -132 160q-54 0 -101 -25t-79 -63zM458 624l-15 -48q-55 30 -123 30q-88 0 -137 -67.5t-53 -196.5q28 34 77.5 58.5t110.5 24.5q89 0 140.5 -57t51.5 -158q0 -93 -55.5 -156t-154.5 -63q-112 0 -173 83 t-61 244q0 163 67 252t185 89q78 0 140 -35z" />
<glyph unicode="7" horiz-adv-x="558" d="M207 0h-70l275 590h-346v60h420v-51z" />
<glyph unicode="8" horiz-adv-x="558" d="M435 172q0 135 -156 135t-156 -135q0 -61 41 -95.5t115 -34.5t115 34.5t41 95.5zM371 334q54 -10 90.5 -55.5t36.5 -108.5q0 -84 -57.5 -131t-161.5 -47t-161.5 47t-57.5 131q0 63 36.5 108.5t90.5 55.5q-45 13 -76 54t-31 103q0 78 53 122.5t146 44.5t146 -44.5 t53 -122.5q0 -62 -31 -103t-76 -54zM415 486q0 60 -35.5 90t-100.5 30t-100.5 -30t-35.5 -90q0 -62 36 -95t100 -33t100 33t36 95z" />
<glyph unicode="9" horiz-adv-x="558" d="M426 368q0 104 -48 171t-120 67q-71 0 -107.5 -43.5t-36.5 -122.5q0 -160 132 -160q54 0 101 25t79 63zM100 26l15 48q55 -30 123 -30q88 0 137 67.5t53 196.5q-28 -34 -77.5 -58.5t-110.5 -24.5q-89 0 -140.5 57t-51.5 158q0 93 55.5 156t154.5 63q112 0 173 -83 t61 -244q0 -163 -67 -252t-185 -89q-78 0 -140 35z" />
<glyph unicode=":" horiz-adv-x="246" d="M174 41q0 -21 -13.5 -35.5t-37.5 -14.5t-37.5 14.5t-13.5 35.5q0 22 13.5 36.5t37.5 14.5t37.5 -14.5t13.5 -36.5zM174 426q0 -21 -13.5 -35.5t-37.5 -14.5t-37.5 14.5t-13.5 35.5q0 22 13.5 36.5t37.5 14.5t37.5 -14.5t13.5 -36.5z" />
<glyph unicode=";" horiz-adv-x="246" d="M174 426q0 -21 -13.5 -35.5t-37.5 -14.5t-37.5 14.5t-13.5 35.5q0 22 13.5 36.5t37.5 14.5t37.5 -14.5t13.5 -36.5zM109 -127h-39l28 213h78z" />
<glyph unicode="&#x3c;" horiz-adv-x="558" d="M476 36l-414 231v43l414 231v-63l-348 -190l348 -190v-62z" />
<glyph unicode="=" horiz-adv-x="558" d="M478 354h-398v54h398v-54zM478 166h-398v54h398v-54z" />
<glyph unicode="&#x3e;" horiz-adv-x="558" d="M496 267l-414 -231v62l348 190l-348 190v63l414 -231v-43z" />
<glyph unicode="?" horiz-adv-x="482" d="M256 160h-58q-12 22 -12 54q0 35 17.5 67.5t43 58.5t50.5 52t42.5 58.5t17.5 67.5q0 48 -32.5 77.5t-98.5 29.5q-88 0 -159 -41l-17 54q80 45 175 45q97 0 147 -43.5t50 -121.5q0 -41 -18 -77.5t-43.5 -63.5t-51 -52.5t-43.5 -54.5t-18 -59q0 -27 8 -51zM278 40 q0 -21 -13.5 -35.5t-37.5 -14.5t-37.5 14.5t-13.5 35.5q0 22 13.5 36.5t37.5 14.5t37.5 -14.5t13.5 -36.5z" />
<glyph unicode="@" horiz-adv-x="812" d="M512 329v140q-41 16 -93 16q-140 0 -140 -155q0 -72 31.5 -110t78.5 -38q55 0 89 42t34 105zM553 65l16 -32q-64 -42 -173 -42q-151 0 -243.5 86t-92.5 250q0 149 96.5 252.5t260.5 103.5q154 0 244.5 -90.5t90.5 -234.5q0 -113 -38 -170t-94 -57q-41 0 -65 30t-24 72 q-17 -42 -55 -71.5t-87 -29.5q-78 0 -121.5 53t-43.5 144t47.5 148.5t148.5 57.5q76 0 148 -35v-243q0 -37 13.5 -61.5t41.5 -24.5q35 0 63.5 45.5t28.5 145.5q0 122 -76 204t-221 82q-148 0 -234.5 -92t-86.5 -229q0 -146 84.5 -223.5t216.5 -77.5q90 0 155 39z" />
<glyph unicode="A" horiz-adv-x="614" d="M592 0h-67l-70 189h-296l-70 -189h-67l252 674h66zM433 246l-80 216q-21 56 -45 134h-2q-24 -78 -45 -134l-80 -216h252z" />
<glyph unicode="B" horiz-adv-x="616" d="M330 0h-246v674h245q99 0 153.5 -46.5t54.5 -127.5q0 -55 -32 -94.5t-75 -52.5q56 -6 96 -49.5t40 -111.5q0 -88 -59.5 -140t-176.5 -52zM149 59h180q171 0 171 133q0 69 -44 98.5t-128 29.5h-179v-261zM149 377h181q63 0 102.5 32.5t39.5 92.5q0 56 -37.5 84.5 t-105.5 28.5h-180v-238z" />
<glyph unicode="C" horiz-adv-x="568" d="M512 85l16 -56q-78 -38 -167 -38q-157 0 -236 92t-79 254q0 161 82.5 253.5t234.5 92.5q83 0 159 -35l-16 -56q-64 31 -142 31q-121 0 -186.5 -74t-65.5 -212q0 -137 65.5 -211.5t183.5 -74.5q81 0 151 34z" />
<glyph unicode="D" horiz-adv-x="644" d="M264 0h-180v674h180q165 0 249.5 -85t84.5 -251t-84.5 -252t-249.5 -86zM150 60h114q132 0 200 67t68 211t-67.5 210t-200.5 66h-114v-554z" />
<glyph unicode="E" horiz-adv-x="539" d="M489 0h-405v674h399v-60h-333v-236h312v-60h-312v-258h339v-60z" />
<glyph unicode="F" horiz-adv-x="520" d="M150 0h-66v674h394v-60h-328v-247h307v-60h-307v-307z" />
<glyph unicode="G" horiz-adv-x="636" d="M566 0h-50l-13 89q-58 -96 -182 -96q-127 0 -201 91.5t-74 244.5q0 165 86.5 259.5t234.5 94.5q99 0 175 -37l-17 -55q-66 32 -154 32q-121 0 -190 -75t-69 -219q0 -124 59 -201t156 -77q75 0 125.5 49t50.5 133v77h-140v57h203v-367z" />
<glyph unicode="H" horiz-adv-x="654" d="M570 0h-66v318h-354v-318h-66v674h66v-296h354v296h66v-674z" />
<glyph unicode="I" horiz-adv-x="238" d="M152 0h-66v674h66v-674z" />
<glyph unicode="J" horiz-adv-x="378" d="M230 190v484h66v-484q0 -199 -165 -199q-68 0 -119 28l18 56q44 -24 100 -24q49 0 74.5 32.5t25.5 106.5z" />
<glyph unicode="K" horiz-adv-x="582" d="M568 0h-80l-280 340v34l270 300h79l-284 -315zM150 0h-66v674h66v-674z" />
<glyph unicode="L" horiz-adv-x="508" d="M476 0h-392v674h66v-614h326v-60z" />
<glyph unicode="M" horiz-adv-x="776" d="M692 0h-66v442q0 47 7 138h-2q-24 -76 -55 -142l-152 -326h-72l-152 326q-31 66 -55 142h-2q7 -91 7 -138v-442h-66v674h74l186 -404q12 -25 20.5 -46t15 -37.5t7.5 -19.5h2q39 94 43 103l186 404h74v-674z" />
<glyph unicode="N" horiz-adv-x="660" d="M576 0h-71l-298 477q-10 15 -61 110h-2q6 -64 6 -138v-449h-66v674h71l299 -477q7 -12 60 -110h2q-6 86 -6 138v449h66v-674z" />
<glyph unicode="O" horiz-adv-x="682" d="M341 -9q-144 0 -219.5 95.5t-75.5 250.5t75.5 250.5t219.5 95.5t219.5 -95.5t75.5 -250.5t-75.5 -250.5t-219.5 -95.5zM341 47q113 0 171 77t58 213t-58 213t-171 77t-171 -77t-58 -213t58 -213t171 -77z" />
<glyph unicode="P" horiz-adv-x="556" d="M150 0h-66v674h213q101 0 160 -57.5t59 -148.5q0 -95 -61.5 -152t-163.5 -57h-141v-259zM150 319h141q75 0 117 38.5t42 110.5q0 70 -39 108t-114 38h-147v-295z" />
<glyph unicode="Q" horiz-adv-x="682" d="M536 -154h-340v55h15q44 0 74 26t39 65q-136 6 -207 100t-71 245q0 155 75.5 250.5t219.5 95.5t219.5 -95.5t75.5 -250.5q0 -141 -63 -234t-183 -108q-16 -62 -66 -93h212v-56zM341 47q113 0 171 77t58 213t-58 213t-171 77t-171 -77t-58 -213t58 -213t171 -77z" />
<glyph unicode="R" horiz-adv-x="590" d="M544 0h-73l-162 275h-159v-275h-66v674h238q101 0 160 -55.5t59 -142.5q0 -75 -43.5 -127t-119.5 -69zM149 334h166q75 0 118 38t43 104q0 64 -40 101.5t-114 37.5h-173v-281z" />
<glyph unicode="S" horiz-adv-x="526" d="M60 33l18 54q70 -36 167 -36q169 0 169 127q0 31 -11.5 54t-37 39.5t-46 25t-59.5 21.5q-8 3 -12 4q-38 11 -67 24.5t-58.5 35t-45.5 55t-16 76.5q0 77 54.5 123.5t160.5 46.5q92 0 165 -39l-18 -53q-66 34 -147 34q-75 0 -113 -29.5t-38 -82.5q0 -54 38 -82t117 -54 q44 -14 74 -28t61 -36.5t47 -56.5t16 -78q0 -91 -62 -139t-165 -48q-116 0 -191 42z" />
<glyph unicode="T" horiz-adv-x="510" d="M288 0h-66v615l-208 -1v60h482v-60l-208 1v-615z" />
<glyph unicode="U" horiz-adv-x="660" d="M512 267v407h66v-406q0 -139 -65.5 -208t-182.5 -69t-182.5 69t-65.5 208v406h66v-407q0 -215 182 -215t182 215z" />
<glyph unicode="V" horiz-adv-x="604" d="M335 0h-66l-247 674h68l160 -444l51 -161h2l51 161l160 444h68z" />
<glyph unicode="W" horiz-adv-x="870" d="M681 0h-71l-145 483q-17 55 -29 120h-2q-12 -65 -29 -120l-145 -483h-71l-159 674h66l106 -446q15 -64 25 -158h2q17 89 36 153l134 451h72l134 -451q19 -64 36 -153h2q10 94 25 158l106 446h66z" />
<glyph unicode="X" horiz-adv-x="604" d="M576 0h-72l-202 308l-202 -308h-72l235 355l-217 319h73l183 -272l183 272h73l-217 -319z" />
<glyph unicode="Y" horiz-adv-x="556" d="M311 0h-66v281l-229 393h70l191 -334h2l191 334h70l-229 -393v-281z" />
<glyph unicode="Z" horiz-adv-x="543" d="M497 0h-453v47l366 567h-340v60h420v-48l-364 -566h371v-60z" />
<glyph unicode="[" horiz-adv-x="272" d="M248 -118h-164v802h164v-50h-106v-702h106v-50z" />
<glyph unicode="\" horiz-adv-x="364" d="M352 -40h-55l-285 714h55z" />
<glyph unicode="]" horiz-adv-x="272" d="M188 -118h-164v50h106v702h-106v50h164v-802z" />
<glyph unicode="^" horiz-adv-x="516" d="M474 276h-65l-151 335l-151 -335h-65l187 398h58z" />
<glyph unicode="_" horiz-adv-x="420" d="M420 -121h-420v51h420v-51z" />
<glyph unicode="`" horiz-adv-x="290" d="M158 546l-158 101l36 49l142 -123z" />
<glyph unicode="a" horiz-adv-x="500" d="M362 197v47h-109q-152 0 -152 -110q0 -43 27.5 -66t70.5 -23q72 0 117.5 46t45.5 106zM424 0h-50l-12 86q-49 -95 -171 -95q-65 0 -108 38t-43 105q0 80 55 121t158 41h109v23q0 64 -29 91.5t-87 27.5q-81 0 -155 -37l-15 48q80 43 170 43q88 0 133 -45.5t45 -127.5v-319 z" />
<glyph unicode="b" horiz-adv-x="554" d="M130 0h-52v674h64v-275q26 38 71 65.5t103 27.5q90 0 140 -68t50 -178q0 -126 -53.5 -190.5t-146.5 -64.5q-56 0 -99 25.5t-65 69.5zM141 334v-111q0 -73 44 -124.5t112 -51.5q63 0 104 48t41 151q0 95 -35.5 142.5t-99.5 47.5q-50 0 -94 -28t-72 -74z" />
<glyph unicode="c" horiz-adv-x="454" d="M403 74l15 -50q-62 -32 -141 -32q-114 0 -172.5 66t-58.5 184q0 113 59 181.5t172 68.5q77 0 135 -30l-15 -50q-58 25 -120 25q-83 0 -125 -52.5t-42 -142.5q0 -92 42 -143.5t129 -51.5q65 0 122 27z" />
<glyph unicode="d" horiz-adv-x="552" d="M474 0h-52l-12 86q-22 -43 -64 -69t-96 -26q-91 0 -146.5 64t-55.5 186q0 112 57.5 181.5t152.5 69.5q52 0 90.5 -26.5t61.5 -61.5v270h64v-674zM411 223v112q-24 43 -63.5 72t-85.5 29q-66 0 -108 -50t-42 -144q0 -99 42 -147t104 -48q67 0 110 51t43 125z" />
<glyph unicode="e" horiz-adv-x="500" d="M411 73l16 -48q-63 -34 -149 -34q-113 0 -171.5 68t-58.5 183q0 113 55.5 181.5t162.5 68.5q90 0 139 -52t49 -145q0 -42 -13 -85h-331q5 -79 49 -122t124 -43q76 0 128 28zM110 260h281q4 9 4 35q0 145 -129 145q-147 0 -156 -180z" />
<glyph unicode="f" horiz-adv-x="331" d="M161 0h-64v433h-79v50h79v39q0 74 37 117.5t114 43.5q49 0 89 -22l-14 -46q-35 15 -73 15q-53 0 -71.5 -27t-18.5 -84v-36h144v-50h-143v-433z" />
<glyph unicode="g" horiz-adv-x="552" d="M412 228v106q-26 46 -65 74t-85 28q-66 0 -108 -50t-42 -142q0 -97 42 -144.5t104 -47.5q70 0 112 51t42 125zM410 27v66q-21 -43 -64 -70t-96 -27q-91 0 -146.5 63.5t-55.5 184.5q0 112 56.5 180t147.5 68q55 0 95.5 -27t64.5 -66l11 84h52v-457q0 -116 -57.5 -171.5 t-159.5 -55.5q-99 0 -170 44l17 52q74 -40 150 -40q75 0 115 38.5t40 133.5z" />
<glyph unicode="h" horiz-adv-x="559" d="M483 0h-63v305q0 131 -106 131q-50 0 -96 -27.5t-76 -68.5v-340h-64v674h64v-273q77 91 181 91q77 0 118.5 -49.5t41.5 -137.5v-305z" />
<glyph unicode="i" horiz-adv-x="224" d="M144 0h-64v483h64v-483zM159 636q0 -20 -12.5 -32.5t-34.5 -12.5t-34.5 12.5t-12.5 32.5q0 21 12 34t35 13t35 -13t12 -34z" />
<glyph unicode="j" horiz-adv-x="224" d="M80 -55v538h64v-541q0 -74 -28.5 -108.5t-95.5 -34.5q-44 0 -72 19l16 49q28 -13 56 -13q34 0 47 22t13 69zM159 636q0 -20 -12.5 -32.5t-34.5 -12.5t-34.5 12.5t-12.5 32.5q0 21 12 34t35 13t35 -13t12 -34z" />
<glyph unicode="k" horiz-adv-x="490" d="M476 0h-74q-57 71 -107 128l-108 128v28l194 199h76l-206 -212zM142 0h-64v674h64v-674z" />
<glyph unicode="l" horiz-adv-x="224" d="M144 0h-64v674h64v-674z" />
<glyph unicode="m" horiz-adv-x="795" d="M719 0h-64v319q0 117 -81 117q-43 0 -80.5 -28.5t-63.5 -74.5v-333h-64v319q0 117 -81 117q-86 0 -144 -98v-338h-64v483h53l11 -82q23 37 64 64t93 27q99 0 123 -102q25 44 70 73t95 29q67 0 100 -46t33 -127v-319z" />
<glyph unicode="n" horiz-adv-x="558" d="M482 0h-63v305q0 131 -106 131q-50 0 -95 -27t-77 -69v-340h-64v483h53l11 -82q77 91 181 91q77 0 118.5 -49.5t41.5 -137.5v-305z" />
<glyph unicode="o" horiz-adv-x="536" d="M268 -9q-109 0 -165.5 69t-56.5 182q0 112 56.5 181t165.5 69t165.5 -69t56.5 -181q0 -113 -56.5 -182t-165.5 -69zM268 43q80 0 119 54t39 145q0 90 -39 144t-119 54t-119 -54t-39 -144q0 -91 39 -145t119 -54z" />
<glyph unicode="p" horiz-adv-x="553" d="M140 334v-111q0 -73 44 -124.5t112 -51.5q63 0 104 48t41 151q0 95 -35.5 142.5t-99.5 47.5q-50 0 -94 -28t-72 -74zM141 -191h-64v674h53l11 -82q27 37 72 64t102 27q90 0 140 -68t50 -178q0 -126 -53.5 -190.5t-146.5 -64.5q-56 0 -99 25.5t-65 69.5v-277z" />
<glyph unicode="q" horiz-adv-x="551" d="M411 223v112q-24 43 -63.5 72t-85.5 29q-66 0 -108 -50t-42 -144q0 -99 42 -147t104 -48q67 0 110 51t43 125zM474 -191h-64v277q-22 -43 -64 -69t-96 -26q-91 0 -146.5 64t-55.5 186q0 112 57.5 181.5t152.5 69.5q53 0 93.5 -28t59.5 -63l11 82h52v-674z" />
<glyph unicode="r" horiz-adv-x="364" d="M141 0h-64v483h52l12 -86q56 95 142 95q35 0 65 -15l-16 -64q-20 17 -59 17q-82 0 -132 -99v-331z" />
<glyph unicode="s" horiz-adv-x="424" d="M48 22l15 50q61 -28 134 -28q116 0 116 80q0 40 -29.5 60.5t-91.5 40.5q-72 23 -108 53.5t-36 89.5t45 91.5t121 32.5q84 0 146 -30l-15 -51q-63 28 -127 28q-107 0 -107 -69q0 -35 25.5 -55.5t76.5 -36.5q82 -25 122.5 -60.5t40.5 -93.5q0 -63 -44.5 -98t-132.5 -35 q-94 0 -151 31z" />
<glyph unicode="t" horiz-adv-x="344" d="M303 68l15 -49q-42 -28 -101 -28q-61 0 -90.5 33t-29.5 105v304h-79v50h79l18 138h45v-138h150v-50h-149v-303q0 -46 13.5 -64.5t50.5 -18.5q43 0 78 21z" />
<glyph unicode="u" horiz-adv-x="549" d="M472 0h-52l-12 86q-21 -37 -67 -66t-107 -29q-74 0 -116 47t-42 140v305h63v-305q0 -63 27 -97t78 -34q52 0 95.5 30.5t68.5 75.5v330h64v-483z" />
<glyph unicode="v" horiz-adv-x="454" d="M259 0h-64l-177 483h66l99 -273q25 -68 43 -144h2q18 76 43 144l99 273h66z" />
<glyph unicode="w" horiz-adv-x="668" d="M523 0h-59l-100 314q-19 60 -29 115h-2q-10 -55 -29 -115l-100 -314h-59l-119 483h62l67 -292q15 -60 20 -131h2q15 77 32 128l93 295h64l93 -295q17 -51 32 -128h2q5 71 20 131l67 292h62z" />
<glyph unicode="x" horiz-adv-x="476" d="M452 0h-68l-146 209l-146 -209h-68l180 253l-164 230h69l129 -188l129 188h69l-164 -230z" />
<glyph unicode="y" horiz-adv-x="549" d="M408 29v63q-21 -37 -65.5 -64.5t-103.5 -27.5q-77 0 -120 46.5t-43 140.5v296h63v-296q0 -63 27 -97t78 -34q52 0 94.5 30t69.5 75v322h64v-455q0 -229 -209 -229q-95 0 -169 43l17 53q64 -41 149 -41q73 0 110.5 40.5t37.5 134.5z" />
<glyph unicode="z" horiz-adv-x="446" d="M402 0h-360v46l275 387h-254v50h331v-48l-273 -384h281v-51z" />
<glyph unicode="{" horiz-adv-x="302" d="M272 -118h-21q-136 0 -136 130q0 25 7.5 82t7.5 83q0 42 -16.5 61.5t-61.5 20.5v48q45 0 61.5 19.5t16.5 61.5q0 27 -7.5 83.5t-7.5 82.5q0 130 136 130h21v-42h-21q-43 0 -61 -24t-18 -72q0 -28 8 -80t8 -78q0 -88 -75 -105q75 -20 75 -106q0 -26 -8 -78t-8 -80 q0 -47 18 -71t61 -24h21v-42z" />
<glyph unicode="|" horiz-adv-x="246" d="M152 -200h-58v974h58v-974z" />
<glyph unicode="}" horiz-adv-x="302" d="M51 -118h-21v42h21q43 0 61 24t18 71q0 28 -8 80t-8 78q0 86 75 106q-75 17 -75 105q0 26 8 78t8 80q0 48 -18 72t-61 24h-21v42h21q136 0 136 -130q0 -26 -7.5 -82.5t-7.5 -83.5q0 -42 16.5 -61.5t61.5 -19.5v-48q-45 -1 -61.5 -20.5t-16.5 -61.5q0 -26 7.5 -83t7.5 -82 q0 -130 -136 -130z" />
<glyph unicode="~" horiz-adv-x="534" d="M460 387l30 -31q-19 -36 -54 -62t-71 -26q-33 0 -61.5 11t-45 23.5t-38.5 23.5t-43 11q-61 0 -102 -64l-31 31q54 89 131 89q48 0 101 -35t87 -35q59 0 97 64z" />
<glyph horiz-adv-x="500" />
<glyph unicode="&#xa0;" />
<glyph unicode="&#xa1;" horiz-adv-x="244" d="M156 -191h-68v153l11 333h46l11 -333v-153zM122 391q-24 0 -37.5 14.5t-13.5 36.5q0 21 13.5 35.5t37.5 14.5t37.5 -14.5t13.5 -35.5q0 -22 -13.5 -36.5t-37.5 -14.5z" />
<glyph unicode="&#xa2;" horiz-adv-x="558" d="M347 -100h-45v93q-101 8 -155.5 76t-54.5 173q0 104 54.5 172.5t155.5 76.5v92h45v-91q68 -3 119 -28l-15 -49q-43 19 -104 24v-395q62 5 109 27l16 -48q-51 -28 -125 -31v-92zM302 46v392q-71 -9 -109 -61.5t-38 -134.5q0 -81 37 -133t110 -63z" />
<glyph unicode="&#xa3;" horiz-adv-x="558" d="M516 0h-442v63h37q51 17 79 60t28 90q0 38 -27 94h-109v47h83q-41 78 -41 131q0 79 59.5 126t150.5 47q79 0 149 -41l-24 -51q-58 34 -123 34q-70 0 -108 -37.5t-38 -82.5q0 -15 2.5 -28.5t8 -27.5t9.5 -22.5t13 -25t12 -22.5h165v-47h-140q20 -43 20 -89 q0 -103 -83 -155h319v-63z" />
<glyph unicode="&#xa4;" horiz-adv-x="570" d="M450 126l-56 58q-51 -36 -108 -36q-59 0 -110 36l-56 -58l-34 36l56 56q-37 52 -37 110q0 54 37 111l-57 56l34 33l57 -57q49 38 109 38t109 -38l57 57l34 -33l-57 -56q37 -57 37 -111q0 -58 -37 -110l56 -56zM285 194q57 0 95.5 38.5t38.5 95.5q0 56 -39 95t-95 39 t-95 -39t-39 -95q0 -57 38.5 -95.5t95.5 -38.5z" />
<glyph unicode="&#xa5;" horiz-adv-x="558" d="M311 0h-65v181h-158v41h158v61l-13 22h-145v42h123l-169 303h70l166 -310l168 310h70l-169 -303h123v-42h-145l-14 -22v-61h159v-41h-159v-181z" />
<glyph unicode="&#xa6;" horiz-adv-x="242" d="M150 323h-58v351h58v-351zM150 -175h-58v351h58v-351z" />
<glyph unicode="&#xa7;" horiz-adv-x="558" d="M268 386q-47 14 -77 32q-8 -5 -22 -19q-22 -26 -22 -56q0 -24 13 -42.5t39 -31.5t40.5 -18t41.5 -13q63 -20 77 -28q16 5 26 15q26 22 26 51q0 71 -142 110zM89 -27l13 50q65 -31 150 -31q61 0 101.5 21.5t40.5 62.5q0 71 -127 107q-35 10 -57.5 19t-56 27.5t-51.5 46 t-18 62.5q0 74 65 102q-44 43 -44 103q0 63 50.5 101.5t137.5 38.5q78 0 140 -30l-16 -51q-53 29 -116 29q-135 0 -135 -88q0 -39 32 -62t92 -43q96 -35 129 -59q55 -39 55 -95q0 -35 -20 -61t-52 -38q53 -38 53 -110q0 -62 -56.5 -99t-142.5 -37q-95 0 -167 34z" />
<glyph unicode="&#xa8;" horiz-adv-x="290" d="M92 617q0 -18 -11.5 -30t-31.5 -12t-31.5 12t-11.5 30t11.5 30t31.5 12t31.5 -12t11.5 -30zM284 617q0 -18 -11.5 -30t-31.5 -12t-31.5 12t-11.5 30t11.5 30t31.5 12t31.5 -12t11.5 -30z" />
<glyph unicode="&#xa9;" horiz-adv-x="686" d="M343 24q-124 0 -213.5 92t-89.5 221t89.5 221t213.5 92t213.5 -92t89.5 -221t-89.5 -221t-213.5 -92zM343 60q111 0 186.5 81t75.5 196q0 114 -75.5 195t-186.5 81t-186.5 -81t-75.5 -195q0 -115 75.5 -196t186.5 -81zM444 218l11 -35q-46 -24 -104 -24q-79 0 -119.5 49 t-40.5 128t42 128t125 49q52 0 95 -23l-12 -35q-41 19 -83 19q-59 0 -88.5 -38t-29.5 -100t29 -100.5t87 -38.5q44 0 88 21z" />
<glyph unicode="&#xaa;" horiz-adv-x="346" d="M250 446v29h-76q-48 0 -73 -20t-25 -56q0 -28 17.5 -44.5t46.5 -16.5q47 0 78.5 33t31.5 75zM302 300h-43l-9 56q-22 -31 -48.5 -47t-70.5 -16q-49 0 -80 28t-31 78q0 59 40 88.5t114 29.5h76v14q0 41 -22.5 61.5t-62.5 20.5q-57 0 -107 -26l-14 42q58 31 125 31 t100 -34.5t33 -95.5v-230z" />
<glyph unicode="&#xab;" horiz-adv-x="440" d="M225 62h-54l-131 180l131 178h54l-129 -178zM394 62h-54l-131 180l131 178h54l-129 -178z" />
<glyph unicode="&#xac;" horiz-adv-x="490" d="M440 128h-59v182h-341v55h400v-237z" />
<glyph unicode="&#xad;" horiz-adv-x="290" d="M280 222h-270v55h270v-55z" />
<glyph unicode="&#xae;" horiz-adv-x="528" d="M488 461q0 -95 -63 -158.5t-161 -63.5t-161 63.5t-63 158.5q0 94 63 158t161 64t161 -64t63 -158zM364 334h-38l-55 97h-49v-97h-35v247h92q86 0 86 -73q0 -56 -59 -74zM222 463h55q53 0 53 45q0 42 -52 42h-56v-87zM264 269q83 0 136 56t53 136t-53 136t-136 56 t-136 -56t-53 -136t53 -136t136 -56z" />
<glyph unicode="&#xaf;" horiz-adv-x="290" d="M278 575h-266v46h266v-46z" />
<glyph unicode="&#xb0;" horiz-adv-x="350" d="M273 554q0 40 -28 68t-70 28q-41 0 -68.5 -28t-27.5 -68t27.5 -68.5t68.5 -28.5t69.5 28.5t28.5 68.5zM308 554q0 -54 -38 -92t-95 -38t-95 38t-38 92t38.5 92t94.5 38t94.5 -38t38.5 -92z" />
<glyph unicode="&#xb1;" horiz-adv-x="558" d="M490 264h-181v-179h-59v179h-182v52h182v180h59v-180h181v-52zM490 0h-422v43h422v-43z" />
<glyph unicode="&#xb2;" horiz-adv-x="303" d="M268 300h-241v36l94 96q43 43 63 71.5t20 60.5q0 50 -59 50q-45 0 -89 -23l-15 39q60 29 110 29q52 0 79.5 -25t27.5 -70q0 -27 -15.5 -55.5t-36.5 -52t-43 -45.5q-6 -5 -8 -7l-57 -57h170v-47z" />
<glyph unicode="&#xb3;" horiz-adv-x="295" d="M27 321l13 40q44 -23 89 -23q37 0 56.5 18.5t19.5 46.5q0 29 -18.5 44.5t-51.5 15.5h-49v43h49q27 0 43.5 15t16.5 45q0 50 -66 50q-45 0 -87 -21l-14 40q50 24 102 24q60 0 89.5 -26t29.5 -67q0 -60 -58 -79q33 -6 50.5 -29.5t17.5 -54.5q0 -50 -33.5 -79t-95.5 -29 q-56 0 -103 26z" />
<glyph unicode="&#xb4;" horiz-adv-x="290" d="M290 647l-159 -101l-19 27l141 123z" />
<glyph unicode="&#xb5;" horiz-adv-x="552" d="M475 0h-52l-12 86q-23 -38 -65.5 -66.5t-97.5 -28.5q-76 0 -107 48v-239h-63v683h63v-310q0 -126 107 -126q51 0 93 29.5t69 73.5v333h65v-483z" />
<glyph unicode="&#xb6;" horiz-adv-x="438" d="M299 -48h-60v383h-33q-67 0 -115.5 45t-48.5 122q0 80 51 126t128 46h183v-45h-34q-40 0 -55.5 -16.5t-15.5 -54.5v-606z" />
<glyph unicode="&#xb7;" horiz-adv-x="230" d="M166 283q0 -21 -13.5 -35.5t-37.5 -14.5t-37.5 14.5t-13.5 35.5t13.5 35.5t37.5 14.5t37.5 -14.5t13.5 -35.5z" />
<glyph unicode="&#xb8;" horiz-adv-x="290" d="M125 -161h-69l78 121h40z" />
<glyph unicode="&#xb9;" horiz-adv-x="280" d="M254 300h-218v46h83v260l-72 -24v43l86 30h40v-309h81v-46z" />
<glyph unicode="&#xba;" horiz-adv-x="390" d="M195 341q55 0 82 37.5t27 98.5q0 62 -27 98t-82 36t-81.5 -36t-26.5 -98q0 -61 27 -98.5t81 -37.5zM195 294q-81 0 -123 51t-42 132t42 131.5t123 50.5t123 -50.5t42 -131.5t-42 -132t-123 -51z" />
<glyph unicode="&#xbb;" horiz-adv-x="440" d="M269 62h-54l129 180l-129 178h54l131 -178zM100 62h-54l129 180l-129 178h54l131 -178z" />
<glyph unicode="&#xbc;" horiz-adv-x="746" d="M217 0h-55l367 660h55zM582 116v157l-115 -157h115zM632 0h-51v69h-170v40l176 246h45v-239h40v-47h-40v-69zM270 300h-218v46h83v260l-72 -24v43l86 30h40v-309h81v-46z" />
<glyph unicode="&#xbd;" horiz-adv-x="746" d="M217 0h-55l367 660h55zM269 300h-217v46h83v260l-72 -24v43l86 30h40v-309h80v-46zM702 0h-241v36l94 96q43 43 63 71.5t20 60.5q0 50 -59 50q-45 0 -89 -23l-15 39q60 29 110 29q52 0 79.5 -25t27.5 -70q0 -27 -15.5 -55.5t-36.5 -52t-43 -45.5q-6 -5 -8 -7l-57 -57h170 v-47z" />
<glyph unicode="&#xbe;" horiz-adv-x="746" d="M217 0h-55l367 660h55zM582 116v157l-115 -157h115zM632 0h-51v69h-170v40l176 246h45v-239h40v-47h-40v-69zM42 321l13 40q44 -23 89 -23q37 0 56.5 18.5t19.5 46.5q0 29 -18.5 44.5t-51.5 15.5h-49v43h49q27 0 43.5 15t16.5 45q0 50 -66 50q-45 0 -87 -21l-14 40 q50 24 102 24q60 0 89.5 -26t29.5 -67q0 -60 -58 -79q33 -6 50.5 -29.5t17.5 -54.5q0 -50 -33.5 -79t-95.5 -29q-56 0 -103 26z" />
<glyph unicode="&#xbf;" horiz-adv-x="482" d="M415 -102l17 -54q-80 -45 -175 -45q-97 0 -147 43.5t-50 121.5q0 41 18 77.5t43.5 63.5t51 52.5t43.5 54.5t18 59q0 27 -8 51h58q12 -22 12 -54q0 -35 -17.5 -67.5t-43 -58.5t-50.5 -52t-42.5 -58.5t-17.5 -67.5q0 -48 32.5 -77.5t98.5 -29.5q88 0 159 41zM306 442 q0 -22 -13.5 -36.5t-37.5 -14.5t-37.5 14.5t-13.5 36.5q0 21 13.5 35.5t37.5 14.5t37.5 -14.5t13.5 -35.5z" />
<glyph unicode="&#xc0;" horiz-adv-x="614" d="M592 0h-67l-70 189h-296l-70 -189h-67l252 674h66zM433 246l-80 216q-21 56 -45 134h-2q-24 -78 -45 -134l-80 -216h252zM376 742l-158 101l36 49l142 -123z" />
<glyph unicode="&#xc1;" horiz-adv-x="614" d="M592 0h-67l-70 189h-296l-70 -189h-67l252 674h66zM433 246l-80 216q-21 56 -45 134h-2q-24 -78 -45 -134l-80 -216h252zM396 843l-159 -101l-19 27l141 123z" />
<glyph unicode="&#xc2;" horiz-adv-x="614" d="M592 0h-67l-70 189h-296l-70 -189h-67l252 674h66zM433 246l-80 216q-21 56 -45 134h-2q-24 -78 -45 -134l-80 -216h252zM445 743h-57l-81 93l-81 -93h-57l116 139h44z" />
<glyph unicode="&#xc3;" horiz-adv-x="614" d="M592 0h-67l-70 189h-296l-70 -189h-67l252 674h66zM433 246l-80 216q-21 56 -45 134h-2q-24 -78 -45 -134l-80 -216h252zM407 848h47q-2 -43 -24.5 -68t-58.5 -25q-33 0 -70.5 24t-54.5 24q-40 0 -42 -46h-44q1 42 23 67.5t60 25.5q30 0 67 -24t57 -24q38 0 40 46z" />
<glyph unicode="&#xc4;" horiz-adv-x="614" d="M592 0h-67l-70 189h-296l-70 -189h-67l252 674h66zM433 246l-80 216q-21 56 -45 134h-2q-24 -78 -45 -134l-80 -216h252zM254 813q0 -18 -11.5 -30t-31.5 -12t-31.5 12t-11.5 30t11.5 30t31.5 12t31.5 -12t11.5 -30zM446 813q0 -18 -11.5 -30t-31.5 -12t-31.5 12 t-11.5 30t11.5 30t31.5 12t31.5 -12t11.5 -30z" />
<glyph unicode="&#xc5;" horiz-adv-x="614" d="M592 0h-67l-70 189h-296l-70 -189h-67l252 674h66zM433 246l-80 216q-21 56 -45 134h-2q-24 -78 -45 -134l-80 -216h252zM307 774q21 0 35.5 14.5t14.5 38.5t-14.5 39t-35.5 15t-35.5 -15t-14.5 -39t14.5 -38.5t35.5 -14.5zM396 827q0 -37 -26 -62.5t-63 -25.5t-63 25.5 t-26 62.5q0 36 26 62t63 26t63 -26t26 -62z" />
<glyph unicode="&#xc6;" horiz-adv-x="812" d="M762 0h-244l-56 189h-297l-82 -189h-67l300 674h440v-61h-358l70 -236h267v-60h-249l77 -258h199v-59zM445 248l-66 215l-37 141h-2l-53 -139l-95 -217h253z" />
<glyph unicode="&#xc7;" horiz-adv-x="568" d="M512 85l16 -56q-78 -38 -167 -38q-157 0 -236 92t-79 254q0 161 82.5 253.5t234.5 92.5q83 0 159 -35l-16 -56q-64 31 -142 31q-121 0 -186.5 -74t-65.5 -212q0 -137 65.5 -211.5t183.5 -74.5q81 0 151 34zM294 -161h-69l78 121h40z" />
<glyph unicode="&#xc8;" horiz-adv-x="539" d="M489 0h-405v674h399v-60h-333v-236h312v-60h-312v-258h339v-60zM358 742l-158 101l36 49l142 -123z" />
<glyph unicode="&#xc9;" horiz-adv-x="539" d="M489 0h-405v674h399v-60h-333v-236h312v-60h-312v-258h339v-60zM388 843l-159 -101l-19 27l141 123z" />
<glyph unicode="&#xca;" horiz-adv-x="539" d="M489 0h-405v674h399v-60h-333v-236h312v-60h-312v-258h339v-60zM427 743h-57l-81 93l-81 -93h-57l116 139h44z" />
<glyph unicode="&#xcb;" horiz-adv-x="539" d="M489 0h-405v674h399v-60h-333v-236h312v-60h-312v-258h339v-60zM236 813q0 -18 -11.5 -30t-31.5 -12t-31.5 12t-11.5 30t11.5 30t31.5 12t31.5 -12t11.5 -30zM428 813q0 -18 -11.5 -30t-31.5 -12t-31.5 12t-11.5 30t11.5 30t31.5 12t31.5 -12t11.5 -30z" />
<glyph unicode="&#xcc;" horiz-adv-x="238" d="M152 0h-66v674h66v-674zM188 742l-158 101l36 49l142 -123z" />
<glyph unicode="&#xcd;" horiz-adv-x="238" d="M152 0h-66v674h66v-674zM209 843l-159 -101l-19 27l141 123z" />
<glyph unicode="&#xce;" horiz-adv-x="238" d="M152 0h-66v674h66v-674zM258 743h-57l-81 93l-81 -93h-57l116 139h44z" />
<glyph unicode="&#xcf;" horiz-adv-x="238" d="M152 0h-66v674h66v-674zM67 813q0 -18 -11.5 -30t-31.5 -12t-31.5 12t-11.5 30t11.5 30t31.5 12t31.5 -12t11.5 -30zM259 813q0 -18 -11.5 -30t-31.5 -12t-31.5 12t-11.5 30t11.5 30t31.5 12t31.5 -12t11.5 -30z" />
<glyph unicode="&#xd0;" horiz-adv-x="644" d="M264 0h-180v301h-69v52h69v321h180q165 0 249.5 -85t84.5 -251t-84.5 -252t-249.5 -86zM150 60h114q132 0 200 67t68 211t-67.5 210t-200.5 66h-114v-261h177v-52h-177v-241z" />
<glyph unicode="&#xd1;" horiz-adv-x="660" d="M576 0h-71l-298 477q-10 15 -61 110h-2q6 -64 6 -138v-449h-66v674h71l299 -477q7 -12 60 -110h2q-6 86 -6 138v449h66v-674zM430 848h47q-2 -43 -24.5 -68t-58.5 -25q-33 0 -70.5 24t-54.5 24q-40 0 -42 -46h-44q1 42 23 67.5t60 25.5q30 0 67 -24t57 -24q38 0 40 46z " />
<glyph unicode="&#xd2;" horiz-adv-x="682" d="M341 -9q-144 0 -219.5 95.5t-75.5 250.5t75.5 250.5t219.5 95.5t219.5 -95.5t75.5 -250.5t-75.5 -250.5t-219.5 -95.5zM341 47q113 0 171 77t58 213t-58 213t-171 77t-171 -77t-58 -213t58 -213t171 -77zM410 742l-158 101l36 49l142 -123z" />
<glyph unicode="&#xd3;" horiz-adv-x="682" d="M341 -9q-144 0 -219.5 95.5t-75.5 250.5t75.5 250.5t219.5 95.5t219.5 -95.5t75.5 -250.5t-75.5 -250.5t-219.5 -95.5zM341 47q113 0 171 77t58 213t-58 213t-171 77t-171 -77t-58 -213t58 -213t171 -77zM430 843l-159 -101l-19 27l141 123z" />
<glyph unicode="&#xd4;" horiz-adv-x="682" d="M341 -9q-144 0 -219.5 95.5t-75.5 250.5t75.5 250.5t219.5 95.5t219.5 -95.5t75.5 -250.5t-75.5 -250.5t-219.5 -95.5zM341 47q113 0 171 77t58 213t-58 213t-171 77t-171 -77t-58 -213t58 -213t171 -77zM479 743h-57l-81 93l-81 -93h-57l116 139h44z" />
<glyph unicode="&#xd5;" horiz-adv-x="682" d="M341 -9q-144 0 -219.5 95.5t-75.5 250.5t75.5 250.5t219.5 95.5t219.5 -95.5t75.5 -250.5t-75.5 -250.5t-219.5 -95.5zM341 47q113 0 171 77t58 213t-58 213t-171 77t-171 -77t-58 -213t58 -213t171 -77zM441 848h47q-2 -43 -24.5 -68t-58.5 -25q-33 0 -70.5 24t-54.5 24 q-40 0 -42 -46h-44q1 42 23 67.5t60 25.5q30 0 67 -24t57 -24q38 0 40 46z" />
<glyph unicode="&#xd6;" horiz-adv-x="682" d="M341 -9q-144 0 -219.5 95.5t-75.5 250.5t75.5 250.5t219.5 95.5t219.5 -95.5t75.5 -250.5t-75.5 -250.5t-219.5 -95.5zM341 47q113 0 171 77t58 213t-58 213t-171 77t-171 -77t-58 -213t58 -213t171 -77zM288 813q0 -18 -11.5 -30t-31.5 -12t-31.5 12t-11.5 30t11.5 30 t31.5 12t31.5 -12t11.5 -30zM480 813q0 -18 -11.5 -30t-31.5 -12t-31.5 12t-11.5 30t11.5 30t31.5 12t31.5 -12t11.5 -30z" />
<glyph unicode="&#xd7;" horiz-adv-x="559" d="M428 91l-152 150l-150 -150q-5 5 -13.5 13t-15 14.5t-12.5 13.5l150 151l-151 151q8 9 23 23t19 18l150 -150l152 150l41 -41l-152 -151l152 -151z" />
<glyph unicode="&#xd8;" horiz-adv-x="682" d="M138 -40h-51l60 99q-101 94 -101 278q0 155 75.5 250.5t219.5 95.5q91 0 159 -43l45 74h51l-61 -100q101 -94 101 -277q0 -155 -75.5 -250.5t-219.5 -95.5q-92 0 -159 42zM179 112l291 478q-52 37 -129 37q-113 0 -171 -77t-58 -213q0 -149 67 -225zM503 560l-290 -477 q51 -36 128 -36q113 0 171 77t58 213q0 147 -67 223z" />
<glyph unicode="&#xd9;" horiz-adv-x="660" d="M512 267v407h66v-406q0 -139 -65.5 -208t-182.5 -69t-182.5 69t-65.5 208v406h66v-407q0 -215 182 -215t182 215zM399 742l-158 101l36 49l142 -123z" />
<glyph unicode="&#xda;" horiz-adv-x="660" d="M512 267v407h66v-406q0 -139 -65.5 -208t-182.5 -69t-182.5 69t-65.5 208v406h66v-407q0 -215 182 -215t182 215zM419 843l-159 -101l-19 27l141 123z" />
<glyph unicode="&#xdb;" horiz-adv-x="660" d="M512 267v407h66v-406q0 -139 -65.5 -208t-182.5 -69t-182.5 69t-65.5 208v406h66v-407q0 -215 182 -215t182 215zM468 743h-57l-81 93l-81 -93h-57l116 139h44z" />
<glyph unicode="&#xdc;" horiz-adv-x="660" d="M512 267v407h66v-406q0 -139 -65.5 -208t-182.5 -69t-182.5 69t-65.5 208v406h66v-407q0 -215 182 -215t182 215zM277 813q0 -18 -11.5 -30t-31.5 -12t-31.5 12t-11.5 30t11.5 30t31.5 12t31.5 -12t11.5 -30zM469 813q0 -18 -11.5 -30t-31.5 -12t-31.5 12t-11.5 30 t11.5 30t31.5 12t31.5 -12t11.5 -30z" />
<glyph unicode="&#xdd;" horiz-adv-x="556" d="M311 0h-66v281l-229 393h70l191 -334h2l191 334h70l-229 -393v-281zM367 843l-159 -101l-19 27l141 123z" />
<glyph unicode="&#xde;" horiz-adv-x="556" d="M150 0h-66v674h66v-127h147q102 0 160.5 -54.5t58.5 -145.5q0 -95 -61 -148.5t-164 -53.5h-141v-145zM150 205h141q76 0 117.5 35.5t41.5 106.5q0 140 -153 140h-147v-282z" />
<glyph unicode="&#xdf;" horiz-adv-x="597" d="M196 20l14 51q52 -28 129 -28q64 0 104 37.5t40 108.5q0 167 -184 167h-35l-4 54h67q56 0 90.5 26.5t34.5 80.5q0 52 -40 81t-96 29q-174 0 -174 -196v-431h-64v431q0 116 59.5 184t177.5 68q90 0 145 -45.5t55 -116.5q0 -55 -32.5 -92.5t-82.5 -47.5q64 -11 105.5 -59 t41.5 -133q0 -98 -57 -148t-147 -50q-92 0 -147 29z" />
<glyph unicode="&#xe0;" horiz-adv-x="500" d="M362 197v47h-109q-152 0 -152 -110q0 -43 27.5 -66t70.5 -23q72 0 117.5 46t45.5 106zM424 0h-50l-12 86q-49 -95 -171 -95q-65 0 -108 38t-43 105q0 80 55 121t158 41h109v23q0 64 -29 91.5t-87 27.5q-81 0 -155 -37l-15 48q80 43 170 43q88 0 133 -45.5t45 -127.5v-319 zM319 546l-158 101l36 49l142 -123z" />
<glyph unicode="&#xe1;" horiz-adv-x="500" d="M362 197v47h-109q-152 0 -152 -110q0 -43 27.5 -66t70.5 -23q72 0 117.5 46t45.5 106zM424 0h-50l-12 86q-49 -95 -171 -95q-65 0 -108 38t-43 105q0 80 55 121t158 41h109v23q0 64 -29 91.5t-87 27.5q-81 0 -155 -37l-15 48q80 43 170 43q88 0 133 -45.5t45 -127.5v-319 zM339 647l-159 -101l-19 27l141 123z" />
<glyph unicode="&#xe2;" horiz-adv-x="500" d="M362 197v47h-109q-152 0 -152 -110q0 -43 27.5 -66t70.5 -23q72 0 117.5 46t45.5 106zM424 0h-50l-12 86q-49 -95 -171 -95q-65 0 -108 38t-43 105q0 80 55 121t158 41h109v23q0 64 -29 91.5t-87 27.5q-81 0 -155 -37l-15 48q80 43 170 43q88 0 133 -45.5t45 -127.5v-319 zM388 547h-57l-81 93l-81 -93h-57l116 139h44z" />
<glyph unicode="&#xe3;" horiz-adv-x="500" d="M362 197v47h-109q-152 0 -152 -110q0 -43 27.5 -66t70.5 -23q72 0 117.5 46t45.5 106zM424 0h-50l-12 86q-49 -95 -171 -95q-65 0 -108 38t-43 105q0 80 55 121t158 41h109v23q0 64 -29 91.5t-87 27.5q-81 0 -155 -37l-15 48q80 43 170 43q88 0 133 -45.5t45 -127.5v-319 zM350 652h47q-2 -43 -24.5 -68t-58.5 -25q-33 0 -70.5 24t-54.5 24q-40 0 -42 -46h-44q1 42 23 67.5t60 25.5q30 0 67 -24t57 -24q38 0 40 46z" />
<glyph unicode="&#xe4;" horiz-adv-x="500" d="M362 197v47h-109q-152 0 -152 -110q0 -43 27.5 -66t70.5 -23q72 0 117.5 46t45.5 106zM424 0h-50l-12 86q-49 -95 -171 -95q-65 0 -108 38t-43 105q0 80 55 121t158 41h109v23q0 64 -29 91.5t-87 27.5q-81 0 -155 -37l-15 48q80 43 170 43q88 0 133 -45.5t45 -127.5v-319 zM197 617q0 -18 -11.5 -30t-31.5 -12t-31.5 12t-11.5 30t11.5 30t31.5 12t31.5 -12t11.5 -30zM389 617q0 -18 -11.5 -30t-31.5 -12t-31.5 12t-11.5 30t11.5 30t31.5 12t31.5 -12t11.5 -30z" />
<glyph unicode="&#xe5;" horiz-adv-x="500" d="M362 197v47h-109q-152 0 -152 -110q0 -43 27.5 -66t70.5 -23q72 0 117.5 46t45.5 106zM424 0h-50l-12 86q-49 -95 -171 -95q-65 0 -108 38t-43 105q0 80 55 121t158 41h109v23q0 64 -29 91.5t-87 27.5q-81 0 -155 -37l-15 48q80 43 170 43q88 0 133 -45.5t45 -127.5v-319 zM250 578q21 0 35.5 14.5t14.5 38.5t-14.5 39t-35.5 15t-35.5 -15t-14.5 -39t14.5 -38.5t35.5 -14.5zM339 631q0 -37 -26 -62.5t-63 -25.5t-63 25.5t-26 62.5q0 36 26 62t63 26t63 -26t26 -62z" />
<glyph unicode="&#xe6;" horiz-adv-x="813" d="M724 73l16 -48q-63 -34 -149 -34q-155 0 -196 122q-60 -122 -204 -122q-65 0 -108 38t-43 105q0 80 55 121t158 41h109v23q0 64 -29 91.5t-87 27.5q-81 0 -155 -37l-15 48q80 43 170 43q118 0 158 -89q59 89 175 89q90 0 139 -52t49 -145q0 -42 -13 -85h-331 q5 -79 49 -122t124 -43q76 0 128 28zM423 260h281q4 9 4 35q0 145 -129 145q-147 0 -156 -180zM362 197v47h-109q-152 0 -152 -110q0 -43 27.5 -66t70.5 -23q72 0 117.5 46t45.5 106z" />
<glyph unicode="&#xe7;" horiz-adv-x="454" d="M403 74l15 -50q-62 -32 -141 -32q-114 0 -172.5 66t-58.5 184q0 113 59 181.5t172 68.5q77 0 135 -30l-15 -50q-58 25 -120 25q-83 0 -125 -52.5t-42 -142.5q0 -92 42 -143.5t129 -51.5q65 0 122 27zM237 -161h-69l78 121h40z" />
<glyph unicode="&#xe8;" horiz-adv-x="500" d="M411 73l16 -48q-63 -34 -149 -34q-113 0 -171.5 68t-58.5 183q0 113 55.5 181.5t162.5 68.5q90 0 139 -52t49 -145q0 -42 -13 -85h-331q5 -79 49 -122t124 -43q76 0 128 28zM110 260h281q4 9 4 35q0 145 -129 145q-147 0 -156 -180zM319 546l-158 101l36 49l142 -123z " />
<glyph unicode="&#xe9;" horiz-adv-x="500" d="M411 73l16 -48q-63 -34 -149 -34q-113 0 -171.5 68t-58.5 183q0 113 55.5 181.5t162.5 68.5q90 0 139 -52t49 -145q0 -42 -13 -85h-331q5 -79 49 -122t124 -43q76 0 128 28zM110 260h281q4 9 4 35q0 145 -129 145q-147 0 -156 -180zM339 647l-159 -101l-19 27l141 123z " />
<glyph unicode="&#xea;" horiz-adv-x="500" d="M411 73l16 -48q-63 -34 -149 -34q-113 0 -171.5 68t-58.5 183q0 113 55.5 181.5t162.5 68.5q90 0 139 -52t49 -145q0 -42 -13 -85h-331q5 -79 49 -122t124 -43q76 0 128 28zM110 260h281q4 9 4 35q0 145 -129 145q-147 0 -156 -180zM388 547h-57l-81 93l-81 -93h-57 l116 139h44z" />
<glyph unicode="&#xeb;" horiz-adv-x="500" d="M411 73l16 -48q-63 -34 -149 -34q-113 0 -171.5 68t-58.5 183q0 113 55.5 181.5t162.5 68.5q90 0 139 -52t49 -145q0 -42 -13 -85h-331q5 -79 49 -122t124 -43q76 0 128 28zM110 260h281q4 9 4 35q0 145 -129 145q-147 0 -156 -180zM197 617q0 -18 -11.5 -30t-31.5 -12 t-31.5 12t-11.5 30t11.5 30t31.5 12t31.5 -12t11.5 -30zM389 617q0 -18 -11.5 -30t-31.5 -12t-31.5 12t-11.5 30t11.5 30t31.5 12t31.5 -12t11.5 -30z" />
<glyph unicode="&#xec;" horiz-adv-x="224" d="M144 0h-64v483h64v-483zM181 546l-158 101l36 49l142 -123z" />
<glyph unicode="&#xed;" horiz-adv-x="224" d="M144 0h-64v483h64v-483zM202 647l-159 -101l-19 27l141 123z" />
<glyph unicode="&#xee;" horiz-adv-x="224" d="M144 0h-64v483h64v-483zM251 547h-57l-81 93l-81 -93h-57l116 139h44z" />
<glyph unicode="&#xef;" horiz-adv-x="224" d="M144 0h-64v483h64v-483zM60 617q0 -18 -11.5 -30t-31.5 -12t-31.5 12t-11.5 30t11.5 30t31.5 12t31.5 -12t11.5 -30zM252 617q0 -18 -11.5 -30t-31.5 -12t-31.5 12t-11.5 30t11.5 30t31.5 12t31.5 -12t11.5 -30z" />
<glyph unicode="&#xf0;" horiz-adv-x="551" d="M416 428h3q-30 89 -112 154l-108 -52l-16 35l89 42q-53 38 -112 60l21 40q77 -26 142 -77l106 51l18 -34l-92 -43q148 -129 148 -352q0 -113 -62 -187t-169 -74q-103 0 -165.5 71t-62.5 174q0 109 60.5 182.5t164.5 73.5q88 0 147 -64zM272 46q78 0 123 60t45 136 q0 87 -41.5 142t-124.5 55q-81 0 -123 -56t-42 -145q0 -84 43.5 -138t119.5 -54z" />
<glyph unicode="&#xf1;" horiz-adv-x="558" d="M482 0h-63v305q0 131 -106 131q-50 0 -95 -27t-77 -69v-340h-64v483h53l11 -82q77 91 181 91q77 0 118.5 -49.5t41.5 -137.5v-305zM379 652h47q-2 -43 -24.5 -68t-58.5 -25q-33 0 -70.5 24t-54.5 24q-40 0 -42 -46h-44q1 42 23 67.5t60 25.5q30 0 67 -24t57 -24 q38 0 40 46z" />
<glyph unicode="&#xf2;" horiz-adv-x="536" d="M268 -9q-109 0 -165.5 69t-56.5 182q0 112 56.5 181t165.5 69t165.5 -69t56.5 -181q0 -113 -56.5 -182t-165.5 -69zM268 43q80 0 119 54t39 145q0 90 -39 144t-119 54t-119 -54t-39 -144q0 -91 39 -145t119 -54zM337 546l-158 101l36 49l142 -123z" />
<glyph unicode="&#xf3;" horiz-adv-x="536" d="M268 -9q-109 0 -165.5 69t-56.5 182q0 112 56.5 181t165.5 69t165.5 -69t56.5 -181q0 -113 -56.5 -182t-165.5 -69zM268 43q80 0 119 54t39 145q0 90 -39 144t-119 54t-119 -54t-39 -144q0 -91 39 -145t119 -54zM357 647l-159 -101l-19 27l141 123z" />
<glyph unicode="&#xf4;" horiz-adv-x="536" d="M268 -9q-109 0 -165.5 69t-56.5 182q0 112 56.5 181t165.5 69t165.5 -69t56.5 -181q0 -113 -56.5 -182t-165.5 -69zM268 43q80 0 119 54t39 145q0 90 -39 144t-119 54t-119 -54t-39 -144q0 -91 39 -145t119 -54zM406 547h-57l-81 93l-81 -93h-57l116 139h44z" />
<glyph unicode="&#xf5;" horiz-adv-x="536" d="M268 -9q-109 0 -165.5 69t-56.5 182q0 112 56.5 181t165.5 69t165.5 -69t56.5 -181q0 -113 -56.5 -182t-165.5 -69zM268 43q80 0 119 54t39 145q0 90 -39 144t-119 54t-119 -54t-39 -144q0 -91 39 -145t119 -54zM368 652h47q-2 -43 -24.5 -68t-58.5 -25q-33 0 -70.5 24 t-54.5 24q-40 0 -42 -46h-44q1 42 23 67.5t60 25.5q30 0 67 -24t57 -24q38 0 40 46z" />
<glyph unicode="&#xf6;" horiz-adv-x="536" d="M268 -9q-109 0 -165.5 69t-56.5 182q0 112 56.5 181t165.5 69t165.5 -69t56.5 -181q0 -113 -56.5 -182t-165.5 -69zM268 43q80 0 119 54t39 145q0 90 -39 144t-119 54t-119 -54t-39 -144q0 -91 39 -145t119 -54zM215 617q0 -18 -11.5 -30t-31.5 -12t-31.5 12t-11.5 30 t11.5 30t31.5 12t31.5 -12t11.5 -30zM407 617q0 -18 -11.5 -30t-31.5 -12t-31.5 12t-11.5 30t11.5 30t31.5 12t31.5 -12t11.5 -30z" />
<glyph unicode="&#xf7;" horiz-adv-x="558" d="M336 131q0 -23 -15 -38.5t-42 -15.5q-25 0 -40 15.5t-15 38.5q0 24 14.5 39.5t40.5 15.5q27 0 42 -15.5t15 -39.5zM336 438q0 -24 -15 -39.5t-42 -15.5q-26 0 -40.5 15.5t-14.5 39.5t14.5 39.5t40.5 15.5q27 0 42 -15.5t15 -39.5zM490 256h-422v54h422v-54z" />
<glyph unicode="&#xf8;" horiz-adv-x="536" d="M130 -40h-47l42 77q-79 67 -79 205q0 112 56.5 181t165.5 69q55 0 97 -19l39 72h47l-51 -92q90 -63 90 -211q0 -113 -56.5 -182t-165.5 -69q-60 0 -108 23zM372 402l-186 -339q35 -20 82 -20q80 0 119 54t39 145q0 107 -54 160zM154 90l184 335q-30 15 -70 15 q-80 0 -119 -54t-39 -144q0 -101 44 -152z" />
<glyph unicode="&#xf9;" horiz-adv-x="549" d="M472 0h-52l-12 86q-21 -37 -67 -66t-107 -29q-74 0 -116 47t-42 140v305h63v-305q0 -63 27 -97t78 -34q52 0 95.5 30.5t68.5 75.5v330h64v-483zM343 546l-158 101l36 49l142 -123z" />
<glyph unicode="&#xfa;" horiz-adv-x="549" d="M472 0h-52l-12 86q-21 -37 -67 -66t-107 -29q-74 0 -116 47t-42 140v305h63v-305q0 -63 27 -97t78 -34q52 0 95.5 30.5t68.5 75.5v330h64v-483zM363 647l-159 -101l-19 27l141 123z" />
<glyph unicode="&#xfb;" horiz-adv-x="549" d="M472 0h-52l-12 86q-21 -37 -67 -66t-107 -29q-74 0 -116 47t-42 140v305h63v-305q0 -63 27 -97t78 -34q52 0 95.5 30.5t68.5 75.5v330h64v-483zM412 547h-57l-81 93l-81 -93h-57l116 139h44z" />
<glyph unicode="&#xfc;" horiz-adv-x="549" d="M472 0h-52l-12 86q-21 -37 -67 -66t-107 -29q-74 0 -116 47t-42 140v305h63v-305q0 -63 27 -97t78 -34q52 0 95.5 30.5t68.5 75.5v330h64v-483zM221 617q0 -18 -11.5 -30t-31.5 -12t-31.5 12t-11.5 30t11.5 30t31.5 12t31.5 -12t11.5 -30zM413 617q0 -18 -11.5 -30 t-31.5 -12t-31.5 12t-11.5 30t11.5 30t31.5 12t31.5 -12t11.5 -30z" />
<glyph unicode="&#xfd;" horiz-adv-x="549" d="M408 29v63q-21 -37 -65.5 -64.5t-103.5 -27.5q-77 0 -120 46.5t-43 140.5v296h63v-296q0 -63 27 -97t78 -34q52 0 94.5 30t69.5 75v322h64v-455q0 -229 -209 -229q-95 0 -169 43l17 53q64 -41 149 -41q73 0 110.5 40.5t37.5 134.5zM363 647l-159 -101l-19 27l141 123z " />
<glyph unicode="&#xfe;" horiz-adv-x="554" d="M141 334v-111q0 -73 44 -124.5t112 -51.5q63 0 104 48t41 151q0 95 -35.5 142.5t-99.5 47.5q-50 0 -94 -28t-72 -74zM142 -191h-64v865h64v-273q27 37 72 64t102 27q90 0 140 -68t50 -178q0 -126 -53.5 -190.5t-146.5 -64.5q-56 0 -99 25.5t-65 69.5v-277z" />
<glyph unicode="&#xff;" horiz-adv-x="549" d="M408 29v63q-21 -37 -65.5 -64.5t-103.5 -27.5q-77 0 -120 46.5t-43 140.5v296h63v-296q0 -63 27 -97t78 -34q52 0 94.5 30t69.5 75v322h64v-455q0 -229 -209 -229q-95 0 -169 43l17 53q64 -41 149 -41q73 0 110.5 40.5t37.5 134.5zM221 617q0 -18 -11.5 -30t-31.5 -12 t-31.5 12t-11.5 30t11.5 30t31.5 12t31.5 -12t11.5 -30zM413 617q0 -18 -11.5 -30t-31.5 -12t-31.5 12t-11.5 30t11.5 30t31.5 12t31.5 -12t11.5 -30z" />
<glyph unicode="&#x131;" horiz-adv-x="224" d="M144 0h-64v483h64v-483z" />
<glyph unicode="&#x141;" horiz-adv-x="508" d="M476 0h-392v294l-61 -26v58l61 26v322h66v-293l152 67v-58l-152 -67v-263h326v-60z" />
<glyph unicode="&#x142;" horiz-adv-x="228" d="M145 0h-64v292l-55 -24v58l55 24v324h64v-295l57 24v-58l-57 -25v-320z" />
<glyph unicode="&#x152;" horiz-adv-x="980" d="M930 0h-405v74q-65 -83 -191 -83q-139 0 -213.5 95.5t-74.5 250.5t74 250.5t213 95.5q123 0 192 -84v75h399v-60h-333v-236h312v-60h-312v-258h339v-60zM525 160v354q-54 113 -190 113q-109 0 -166 -77.5t-57 -212.5q0 -136 57.5 -213t168.5 -77q70 0 112.5 28.5 t74.5 84.5z" />
<glyph unicode="&#x153;" horiz-adv-x="836" d="M747 73l16 -48q-63 -34 -149 -34q-126 0 -185 83q-30 -41 -69 -62t-101 -21q-102 0 -157.5 69.5t-55.5 181.5q0 111 55.5 180.5t161.5 69.5q115 0 165 -82q55 82 174 82q90 0 139 -52t49 -145q0 -42 -13 -85h-331q5 -79 49 -122t124 -43q76 0 128 28zM402 126 q-18 52 -18 116q0 65 16 113q-40 85 -132 85q-80 0 -119 -54t-39 -144t38 -144.5t113 -54.5q56 0 88.5 21t52.5 62zM446 260h281q4 9 4 35q0 145 -129 145q-147 0 -156 -180z" />
<glyph unicode="&#x160;" horiz-adv-x="526" d="M60 33l18 54q70 -36 167 -36q169 0 169 127q0 31 -11.5 54t-37 39.5t-46 25t-59.5 21.5q-8 3 -12 4q-38 11 -67 24.5t-58.5 35t-45.5 55t-16 76.5q0 77 54.5 123.5t160.5 46.5q92 0 165 -39l-18 -53q-66 34 -147 34q-75 0 -113 -29.5t-38 -82.5q0 -54 38 -82t117 -54 q44 -14 74 -28t61 -36.5t47 -56.5t16 -78q0 -91 -62 -139t-165 -48q-116 0 -191 42zM285 741h-44l-116 139h57l81 -93l81 93h57z" />
<glyph unicode="&#x161;" horiz-adv-x="424" d="M48 22l15 50q61 -28 134 -28q116 0 116 80q0 40 -29.5 60.5t-91.5 40.5q-72 23 -108 53.5t-36 89.5t45 91.5t121 32.5q84 0 146 -30l-15 -51q-63 28 -127 28q-107 0 -107 -69q0 -35 25.5 -55.5t76.5 -36.5q82 -25 122.5 -60.5t40.5 -93.5q0 -63 -44.5 -98t-132.5 -35 q-94 0 -151 31zM234 545h-44l-116 139h57l81 -93l81 93h57z" />
<glyph unicode="&#x178;" horiz-adv-x="556" d="M311 0h-66v281l-229 393h70l191 -334h2l191 334h70l-229 -393v-281zM225 813q0 -18 -11.5 -30t-31.5 -12t-31.5 12t-11.5 30t11.5 30t31.5 12t31.5 -12t11.5 -30zM417 813q0 -18 -11.5 -30t-31.5 -12t-31.5 12t-11.5 30t11.5 30t31.5 12t31.5 -12t11.5 -30z" />
<glyph unicode="&#x17d;" horiz-adv-x="543" d="M497 0h-453v47l366 567h-340v60h420v-48l-364 -566h371v-60zM293 741h-44l-116 139h57l81 -93l81 93h57z" />
<glyph unicode="&#x17e;" horiz-adv-x="446" d="M402 0h-360v46l275 387h-254v50h331v-48l-273 -384h281v-51zM245 545h-44l-116 139h57l81 -93l81 93h57z" />
<glyph unicode="&#x192;" horiz-adv-x="558" d="M202 101l34 252h-93v44h99l12 84q13 88 49 132.5t115 44.5q45 0 80 -19q-4 -9 -22 -49q-25 12 -60 12q-47 0 -68 -29.5t-30 -92.5l-13 -83h134v-44h-139l-34 -252q-22 -177 -165 -177q-44 0 -79 19q5 9 22 49q23 -12 59 -12q48 0 69 29t30 92z" />
<glyph unicode="&#x2c6;" horiz-adv-x="290" d="M283 547h-57l-81 93l-81 -93h-57l116 139h44z" />
<glyph unicode="&#x2c7;" horiz-adv-x="290" d="M167 545h-44l-116 139h57l81 -93l81 93h57z" />
<glyph unicode="&#x2d8;" horiz-adv-x="290" d="M239 688h44q-5 -53 -42.5 -87.5t-95.5 -34.5t-95.5 34.5t-42.5 87.5h44q6 -35 31 -56t63 -21t63 21t31 56z" />
<glyph unicode="&#x2d9;" horiz-adv-x="290" d="M193 622q0 -21 -12.5 -34t-35.5 -13t-35.5 13t-12.5 34q0 20 13 33t35 13t35 -13t13 -33z" />
<glyph unicode="&#x2da;" horiz-adv-x="290" d="M145 578q21 0 35.5 14.5t14.5 38.5t-14.5 39t-35.5 15t-35.5 -15t-14.5 -39t14.5 -38.5t35.5 -14.5zM234 631q0 -37 -26 -62.5t-63 -25.5t-63 25.5t-26 62.5q0 36 26 62t63 26t63 -26t26 -62z" />
<glyph unicode="&#x2db;" horiz-adv-x="290" d="M234 -109h-69l-45 111h40z" />
<glyph unicode="&#x2dc;" horiz-adv-x="290" d="M245 652h47q-2 -43 -24.5 -68t-58.5 -25q-33 0 -70.5 24t-54.5 24q-40 0 -42 -46h-44q1 42 23 67.5t60 25.5q30 0 67 -24t57 -24q38 0 40 46z" />
<glyph unicode="&#x2dd;" horiz-adv-x="290" d="M90 553h-44l79 132h67zM240 553h-44l80 132h66z" />
<glyph unicode="&#x3a9;" horiz-adv-x="738" d="M630 0h-206v45q67 53 122.5 138.5t55.5 184.5q0 122 -61.5 188t-170.5 66q-110 0 -172.5 -66t-62.5 -188q0 -53 17.5 -105t46 -93.5t56.5 -72t57 -52.5v-45h-205v57h130q-167 154 -167 327q0 136 81 217.5t218 81.5t218 -81.5t81 -217.5q0 -172 -168 -327h130v-57z" />
<glyph unicode="&#x3c0;" horiz-adv-x="594" d="M540 55l14 -45q-26 -18 -74 -18q-112 0 -112 140v298h-147v-241q0 -48 -9 -103t-22 -86h-63q31 72 31 189v241q-64 -1 -117 -23l-9 53q46 24 126 24h395v-54h-122v-305q0 -81 57 -81q33 0 52 11z" />
<glyph unicode="&#xe00;" horiz-adv-x="195" />
<glyph unicode="&#xe01;" horiz-adv-x="596" d="M518 0h-66v353q0 76 -40.5 118t-117.5 42q-59 0 -106 -30t-66 -73l80 -68v-13q-56 -23 -56 -89v-240h-66v231q0 76 57 104l-85 68q19 65 87 115.5t155 50.5q106 0 165 -60t59 -156v-353z" />
<glyph unicode="&#xe02;" horiz-adv-x="546" d="M402 177v383h66v-382q0 -187 -200 -187t-200 187v75q0 33 24 69.5t48 69.5t24 57v25q0 30 -27 30h-65v56h71q85 0 85 -79v-35q0 -37 -47 -99.5t-47 -93.5v-76q0 -68 32 -99t102 -31t102 31t32 99z" />
<glyph unicode="&#xe03;" horiz-adv-x="550" d="M406 177v383h66v-382q0 -187 -200 -187t-200 187v77q0 26 17.5 55t39 50.5t39 48.5t17.5 50v22q0 30 -25 30q-28 0 -42 -40l-76 37v60l68 -38q21 35 64 35q75 0 75 -83v-23q0 -35 -27.5 -72t-55.5 -71t-28 -61v-78q0 -68 32 -99t102 -31t102 31t32 99z" />
<glyph unicode="&#xe04;" horiz-adv-x="608" d="M530 0h-66v356q0 72 -40.5 114.5t-119.5 42.5t-119.5 -42.5t-40.5 -114.5v-132q15 35 48 57t77 22h67v-58h-67q-45 0 -78 -27.5t-47 -75.5v-142h-66v355q0 94 58.5 154t167.5 60t167.5 -60t58.5 -154v-355z" />
<glyph unicode="&#xe05;" horiz-adv-x="618" d="M540 0h-66v401q-2 88 -69 107l-96 -64l-96 64q-67 -19 -69 -107v-177q15 35 48 57t77 22h67v-58h-67q-45 0 -78 -27.5t-47 -75.5v-142h-66v397q0 144 136 172l95 -69l95 69q136 -28 136 -172v-397z" />
<glyph unicode="&#xe06;" horiz-adv-x="598" d="M454 203v357h66v-358q0 -211 -173 -211q-134 0 -198 103l-6 -94h-61v249q0 33 24.5 71t49.5 74t25 65v22q0 30 -25 30q-28 0 -42 -40l-76 37v60l68 -38q21 35 64 35q75 0 75 -83v-23q0 -35 -24.5 -73.5t-48.5 -74t-24 -62.5v-75q23 -56 72 -91.5t115 -35.5 q62 0 90.5 38.5t28.5 117.5z" />
<glyph unicode="&#xe07;" horiz-adv-x="554" d="M252 0h-62l-176 560h65l157 -504h14q76 0 131 68.5t55 180.5q0 104 -38.5 157t-97.5 53q-38 0 -67 -12l-9 51q32 15 79 15q90 0 144.5 -69t54.5 -194q0 -137 -73 -221.5t-177 -84.5z" />
<glyph unicode="&#xe08;" horiz-adv-x="534" d="M241 0h-57l-57 237q-6 24 -29 24h-38v56h46q36 0 54.5 -15t26.5 -48l47 -198h15q68 0 117.5 65.5t49.5 179.5q0 212 -183 212q-107 0 -194 -67l-21 50q93 73 214 73q120 0 185 -72t65 -197q0 -131 -68 -215.5t-173 -84.5z" />
<glyph unicode="&#xe09;" horiz-adv-x="584" d="M506 0h-61l-6 92q-35 -50 -78 -75.5t-108 -25.5q-157 0 -157 169v77q0 24 -21 24h-31v55h44q74 0 74 -72v-81q0 -62 22.5 -89t76.5 -27q120 0 179 127v163q0 83 -42.5 129.5t-124.5 46.5q-115 0 -210 -66l-23 49q105 73 232 73q114 0 174 -62.5t60 -169.5v-337z" />
<glyph unicode="&#xe0a;" horiz-adv-x="548" d="M404 177v115q0 43 -21 65.5t-55 22.5h-22l-10 27l115 153h73l-115 -145q44 -4 72.5 -38.5t28.5 -83.5v-115q0 -187 -201 -187t-201 187v75q0 33 24 69.5t48 69.5t24 57v25q0 30 -27 30h-65v56h71q85 0 85 -79v-35q0 -37 -47 -99.5t-47 -93.5v-76q0 -68 32.5 -99 t102.5 -31t102.5 31t32.5 99z" />
<glyph unicode="&#xe0b;" horiz-adv-x="552" d="M408 177v115q0 43 -21 65.5t-55 22.5h-22l-10 27l115 153h73l-115 -145q44 -4 72.5 -38.5t28.5 -83.5v-115q0 -187 -201 -187t-201 187v77q0 26 17.5 55t39 50.5t39 48.5t17.5 50v22q0 30 -25 30q-28 0 -42 -40l-76 37v60l68 -38q21 35 64 35q75 0 75 -83v-23 q0 -35 -27.5 -72t-55.5 -71t-28 -61v-78q0 -68 32.5 -99t102.5 -31t102.5 31t32.5 99z" />
<glyph unicode="&#xe0c;" horiz-adv-x="912" d="M768 195v365h66v-366q0 -106 -39.5 -154.5t-124.5 -48.5q-110 0 -173 101l-6 -92h-61v353q0 75 -38 117.5t-104 42.5q-56 0 -101.5 -30.5t-64.5 -72.5l80 -68v-13q-56 -23 -56 -89v-155q0 -31 29 -31h55v-54h-69q-81 0 -81 80v151q0 76 57 104l-85 68q19 65 85.5 115.5 t150.5 50.5q97 0 152.5 -60.5t55.5 -155.5v-179q23 -53 68.5 -90t98.5 -37q56 0 80.5 35t24.5 113z" />
<glyph unicode="&#xe0d;" horiz-adv-x="912" d="M765 53v39q-62 -96 -173 -96q-85 0 -124.5 44.5t-39.5 143.5v169q0 75 -37.5 117.5t-103.5 42.5q-55 0 -100.5 -30.5t-64.5 -72.5l80 -68v-13q-56 -23 -56 -89v-155q0 -31 29 -31h55v-54h-69q-81 0 -81 80v151q0 76 57 104l-85 68q20 65 85 115.5t150 50.5q97 0 152 -60 t55 -156v-168q0 -71 24 -102t81 -31q53 0 97 34.5t70 87.5v386h66v-510q0 -102 -56 -153t-154 -51q-101 0 -177 45l17 51q68 -40 156 -40q73 0 110 34t37 117z" />
<glyph unicode="&#xe0e;" horiz-adv-x="604" d="M526 -200h-80q-67 59 -148 59t-147 -58l-20 52q66 62 162 62q47 0 92.5 -18.5t74.5 -47.5v504q0 76 -40.5 118t-114.5 42q-59 0 -107.5 -30.5t-67.5 -72.5l92 -73v-13q-56 -23 -56 -89v-157q0 -78 -80 -78h-54v54h43q25 0 25 27v145q0 77 55 104l-95 73q19 64 88.5 115 t156.5 51q104 0 162.5 -60t58.5 -156v-553z" />
<glyph unicode="&#xe0f;" horiz-adv-x="604" d="M526 -200h-65l-120 73q-15 -38 -49.5 -59.5t-76.5 -21.5q-70 0 -124 34l18 54q48 -34 100 -34q40 0 68.5 29.5t38.5 75.5l144 -87v489q0 76 -40.5 118t-114.5 42q-59 0 -107.5 -30.5t-67.5 -72.5l92 -73v-13q-56 -23 -56 -89v-157q0 -78 -80 -78h-54v54h43q25 0 25 27 v145q0 77 55 104l-95 73q19 64 88.5 115t156.5 51q104 0 162.5 -60t58.5 -156v-553z" />
<glyph unicode="&#xe10;" horiz-adv-x="536" d="M241 0h-57l-57 237q-6 24 -29 24h-38v56h46q36 0 54.5 -15t26.5 -48l47 -198h15q68 0 117.5 65.5t49.5 179.5q0 212 -183 212q-107 0 -194 -67l-21 50q93 73 214 73q86 0 133 -34l57 64h75l-86 -100q71 -71 71 -199q0 -131 -68 -215.5t-173 -84.5zM450 -200h-110 q-65 0 -101 48q-33 -48 -104 -48h-63v56h70q61 0 97 59q40 -59 97 -59h52v60h62v-116z" />
<glyph unicode="&#xe11;" horiz-adv-x="601" d="M523 0h-66v402q0 63 -18.5 87t-58.5 24q-50 0 -105.5 -46t-92 -114t-36.5 -129v-224h-66v220q0 116 105 236v25q0 30 -25 30q-28 0 -42 -40l-76 37v60l68 -38q21 35 64 35q58 0 66 -64q64 68 149 68q134 0 134 -167v-402z" />
<glyph unicode="&#xe12;" horiz-adv-x="978" d="M834 203v357h66v-358q0 -211 -174 -211q-121 0 -187 101l-6 -92h-61v406q0 85 -56 102l-85 -56l-83 56q-54 -13 -92 -77t-38 -157q0 -110 45 -167t113 -57q39 0 69 14l12 -52q-38 -18 -86 -18q-96 0 -157.5 71t-61.5 208q0 121 55 199t142 97l82 -59l83 59 q124 -25 124 -167v-228q23 -55 70.5 -91t106.5 -36q62 0 90.5 38.5t28.5 117.5z" />
<glyph unicode="&#xe13;" horiz-adv-x="912" d="M832 0h-61l-6 92q-63 -101 -173 -101q-85 0 -124.5 46.5t-39.5 146.5v169q0 75 -37.5 117.5t-103.5 42.5q-55 0 -100.5 -30.5t-64.5 -72.5l80 -68v-13q-56 -23 -56 -89v-155q0 -31 29 -31h55v-54h-69q-81 0 -81 80v151q0 76 57 104l-85 68q20 65 85 115.5t150 50.5 q97 0 152 -60t55 -156v-168q0 -72 24.5 -105t80.5 -33q53 0 98.5 37t68.5 90v386h66v-560z" />
<glyph unicode="&#xe14;" horiz-adv-x="616" d="M538 0h-66v338q0 79 -40 127t-118 48q-96 0 -146 -66t-50 -175q0 -112 47.5 -169.5t113.5 -57.5q35 0 65 14l12 -51q-32 -17 -85 -17q-89 0 -154 73t-65 208q0 129 68 213t192 84q112 0 169 -65.5t57 -166.5v-337z" />
<glyph unicode="&#xe15;" horiz-adv-x="626" d="M548 0h-66v406q0 84 -60 102l-87 -56l-85 56q-55 -13 -93.5 -77t-38.5 -157q0 -110 45 -167t113 -57q39 0 69 14l12 -52q-38 -18 -86 -18q-96 0 -157.5 71t-61.5 208q0 120 56 198.5t143 97.5l84 -59l85 59q128 -26 128 -167v-402z" />
<glyph unicode="&#xe16;" horiz-adv-x="598" d="M520 0h-66v353q0 76 -41 118t-118 42q-59 0 -106.5 -30.5t-66.5 -72.5l80 -68v-13q-56 -23 -56 -89v-155q0 -31 29 -31h55v-54h-69q-81 0 -81 80v151q0 76 57 104l-85 68q19 65 87.5 115.5t155.5 50.5q105 0 165 -60t60 -156v-353z" />
<glyph unicode="&#xe17;" horiz-adv-x="608" d="M529 0h-65v366q0 147 -114 147q-60 0 -116.5 -35.5t-87.5 -87.5v-390h-66v560h61l6 -92q95 101 207 101q86 0 131 -52.5t45 -149.5z" />
<glyph unicode="&#xe18;" horiz-adv-x="538" d="M486 200v-45q0 -86 -50.5 -125t-166.5 -39q-121 0 -169 36.5t-48 131.5v53h64v-53q0 -66 32.5 -89.5t120.5 -23.5q87 0 120 24t33 85v46q0 33 -16.5 49.5t-53.5 21.5l-170 24q-132 19 -132 133q0 65 52.5 102.5t154.5 37.5q116 0 201 -41l-13 -53q-80 39 -186 39 q-145 0 -145 -85q0 -34 18 -51.5t55 -22.5l181 -27q118 -17 118 -128z" />
<glyph unicode="&#xe19;" horiz-adv-x="596" d="M516 0h-61l-6 92q-66 -101 -187 -101q-184 0 -184 201v368h66v-367q0 -146 119 -146q66 0 115 35.5t72 91.5v386h66v-560z" />
<glyph unicode="&#xe1a;" horiz-adv-x="594" d="M450 202v358h66v-358q0 -103 -55.5 -157t-163.5 -54t-163.5 54t-55.5 157v358h66v-358q0 -74 38.5 -114.5t114.5 -40.5t114.5 40.5t38.5 114.5z" />
<glyph unicode="&#xe1b;" horiz-adv-x="594" d="M450 202v548h66v-548q0 -103 -55.5 -157t-163.5 -54t-163.5 54t-55.5 157v358h66v-358q0 -74 38.5 -114.5t114.5 -40.5t114.5 40.5t38.5 114.5z" />
<glyph unicode="&#xe1c;" horiz-adv-x="652" d="M573 0h-73l-139 272q-19 35 -32 78h-2q-13 -43 -32 -78l-143 -272h-73v480q0 37 22.5 59t60.5 21h58v-56h-45q-31 0 -31 -30v-272q0 -75 -6 -129h1q13 43 49 113l113 217h54l113 -217q36 -70 49 -113h1q-10 90 -10 129v358h65v-560z" />
<glyph unicode="&#xe1d;" horiz-adv-x="652" d="M573 0h-73l-139 272q-19 35 -32 78h-2q-13 -43 -32 -78l-143 -272h-73v480q0 37 22.5 59t60.5 21h58v-56h-45q-31 0 -31 -30v-272q0 -75 -6 -129h1q13 43 49 113l113 217h54l113 -217q36 -70 49 -113h1q-10 90 -10 129v548h65v-750z" />
<glyph unicode="&#xe1e;" horiz-adv-x="692" d="M560 0h-73l-110 341q-22 69 -30 125h-2q-8 -56 -30 -125l-110 -341h-73l-92 560h66l54 -345q8 -49 14 -154h2q16 87 37 148l104 323h58l104 -323q21 -61 37 -148h2q6 105 14 154l54 345h66z" />
<glyph unicode="&#xe1f;" horiz-adv-x="692" d="M566 0h-73l-112 341q-22 69 -30 125h-2q-8 -56 -30 -125l-112 -341h-73l-94 560h66l56 -345q8 -49 14 -154h2q16 87 37 148l106 323h58l106 -323q22 -66 37 -148h2q0 83 11 154l62 535h63z" />
<glyph unicode="&#xe20;" horiz-adv-x="604" d="M526 0h-66v353q0 76 -40.5 118t-114.5 42q-59 0 -107.5 -30.5t-67.5 -72.5l92 -73v-13q-56 -23 -56 -89v-157q0 -78 -80 -78h-54v54h43q25 0 25 27v145q0 77 55 104l-95 73q19 64 88.5 115t156.5 51q104 0 162.5 -60t58.5 -156v-353z" />
<glyph unicode="&#xe21;" horiz-adv-x="596" d="M452 203v357h66v-358q0 -211 -179 -211q-126 0 -192 101l-6 -92h-61v560h66v-386q23 -55 71.5 -91t110.5 -36q65 0 94.5 38.5t29.5 117.5z" />
<glyph unicode="&#xe22;" horiz-adv-x="578" d="M432 202v358h66v-358q0 -211 -224 -211q-102 0 -161.5 45.5t-59.5 130.5q0 111 97 143q-98 28 -98 129q0 56 38 93t100 37q50 0 88 -18l-9 -54q-27 16 -69 16q-41 0 -62.5 -22t-21.5 -59q0 -41 30.5 -65.5t74.5 -24.5h77l6 -57h-63q-56 0 -89 -29.5t-33 -85.5 q0 -60 44.5 -91.5t111.5 -31.5q157 0 157 155z" />
<glyph unicode="&#xe23;" horiz-adv-x="490" d="M50 34l17 53q66 -41 163 -41q71 0 108 27.5t37 73.5q0 25 -12.5 44t-38 33t-46.5 22t-55 18q-84 25 -128 59t-44 104q0 66 52 104t144 38q90 0 170 -39l-16 -52q-76 36 -147 36q-68 0 -103 -23.5t-35 -63.5q0 -43 33 -65.5t100 -42.5q44 -13 73 -25t58.5 -31.5t44.5 -49 t15 -67.5q0 -74 -52 -114.5t-155 -40.5q-110 0 -183 43z" />
<glyph unicode="&#xe24;" horiz-adv-x="598" d="M520 -200h-66v553q0 76 -41 118t-118 42q-59 0 -106.5 -30.5t-66.5 -72.5l80 -68v-13q-56 -23 -56 -89v-155q0 -31 29 -31h55v-54h-69q-81 0 -81 80v151q0 76 57 104l-85 68q19 65 87.5 115.5t155.5 50.5q105 0 165 -60t60 -156v-553z" />
<glyph unicode="&#xe25;" horiz-adv-x="570" d="M492 0h-66v282h-139q-89 0 -134 -30t-45 -96q0 -54 34 -82t85 -28q49 0 85 17l12 -53q-40 -19 -105 -19q-77 0 -127 42t-50 124q0 180 246 180h138v24q0 78 -34.5 115t-112.5 37q-103 0 -191 -57l-22 48q38 26 96 45.5t120 19.5q101 0 155.5 -55t54.5 -152v-362z" />
<glyph unicode="&#xe26;" horiz-adv-x="604" d="M526 -200h-66v553q0 76 -40.5 118t-114.5 42q-59 0 -107.5 -30.5t-67.5 -72.5l92 -73v-13q-56 -23 -56 -89v-157q0 -78 -80 -78h-54v54h43q25 0 25 27v145q0 77 55 104l-95 73q19 64 88.5 115t156.5 51q104 0 162.5 -60t58.5 -156v-553z" />
<glyph unicode="&#xe27;" horiz-adv-x="500" d="M34 41l16 53q71 -47 154 -47q178 0 178 232q0 234 -173 234q-84 0 -163 -50l-16 52q80 54 179 54q116 0 177.5 -75t61.5 -211q0 -145 -61.5 -218.5t-180.5 -73.5q-103 0 -172 50z" />
<glyph unicode="&#xe28;" horiz-adv-x="608" d="M530 0h-66v356q0 72 -40.5 114.5t-119.5 42.5t-119.5 -42.5t-40.5 -114.5v-132q15 35 48 57t77 22h67v-58h-67q-45 0 -78 -27.5t-47 -75.5v-142h-66v355q0 94 58.5 154t167.5 60q74 0 127 -34l56 64h75l-87 -100q55 -57 55 -144v-355z" />
<glyph unicode="&#xe29;" horiz-adv-x="610" d="M583 303h-67v-101q0 -103 -55.5 -157t-163.5 -54t-163.5 54t-55.5 157v358h66v-358q0 -74 38.5 -114.5t114.5 -40.5t114.5 40.5t38.5 114.5v101h-135v56h135v201h66v-201h82z" />
<glyph unicode="&#xe2a;" horiz-adv-x="570" d="M492 0h-66v282h-139q-89 0 -134 -30t-45 -96q0 -54 34 -82t85 -28q49 0 85 17l12 -53q-40 -19 -105 -19q-77 0 -127 42t-50 124q0 180 246 180h138v24q0 76 -35.5 114t-111.5 38q-103 0 -191 -57l-22 48q38 26 96 45.5t120 19.5q67 0 114 -29l52 59h75l-82 -95 q51 -54 51 -142v-362z" />
<glyph unicode="&#xe2b;" horiz-adv-x="576" d="M542 0h-68l-73 254q-28 100 -121 104l-134 -111v-247h-66v560h66v-240l288 240h91l-194 -161q99 -12 131 -120z" />
<glyph unicode="&#xe2c;" horiz-adv-x="654" d="M574 0h-73l-143 272q-19 35 -32 78h-2q-13 -43 -32 -78l-139 -272h-73v560h65v-358q0 -39 -10 -129h1q13 43 49 113l113 217h54l113 -217q36 -70 49 -113h1q-6 54 -6 129v236q0 50 -17 72t-53 22h-27l-10 28l130 190h69l-128 -180q101 -7 101 -131v-439z" />
<glyph unicode="&#xe2d;" horiz-adv-x="579" d="M238 261h-83q-38 0 -38 -43v-29q0 -142 159 -142q185 0 185 232q0 116 -48.5 175t-139.5 59q-104 0 -194 -66l-23 49q100 73 219 73q121 0 186.5 -77.5t65.5 -212.5q0 -288 -250 -288q-110 0 -167.5 51.5t-57.5 146.5v32q0 46 24.5 71t72.5 25h89v-56z" />
<glyph unicode="&#xe2e;" horiz-adv-x="579" d="M238 261h-83q-38 0 -38 -43v-29q0 -142 159 -142q185 0 185 232q0 116 -48.5 175t-139.5 59q-104 0 -194 -66l-23 49q100 73 219 73q68 0 123 -30l52 60h75l-80 -94q82 -79 82 -226q0 -288 -250 -288q-110 0 -167.5 51.5t-57.5 146.5v32q0 46 24.5 71t72.5 25h89v-56z " />
<glyph unicode="&#xe2f;" horiz-adv-x="527" d="M447 0h-66v426q-23 -46 -69.5 -75.5t-105.5 -29.5q-86 0 -126 53.5t-40 145.5v40h63v-41q0 -143 110 -143q66 0 119.5 51.5t53.5 110.5v22h61v-560z" />
<glyph unicode="&#xe30;" horiz-adv-x="292" d="M242 378h-111q-85 0 -85 75v39h63v-35q0 -25 26 -25h107v-54zM242 91h-111q-85 0 -85 75v39h63v-35q0 -25 26 -25h107v-54z" />
<glyph unicode="&#xe31;" d="M44 640h-254q-45 0 -69 21t-24 60v36h63v-32q0 -31 31 -31h253v-54z" />
<glyph unicode="&#xe32;" horiz-adv-x="460" d="M382 0h-66v365q0 148 -121 148q-89 0 -168 -56l-17 51q84 61 188 61q184 0 184 -205v-364z" />
<glyph unicode="&#xe33;" horiz-adv-x="460" d="M-116 664q19 0 33 13.5t14 34.5t-14 34.5t-33 13.5t-33 -13.5t-14 -34.5t14 -34.5t33 -13.5zM382 0h-66v365q0 148 -121 148q-89 0 -168 -56l-17 51q84 61 188 61q184 0 184 -205v-364zM-22 712q0 -39 -27.5 -65.5t-66.5 -26.5t-66.5 26.5t-27.5 65.5t27.5 65.5 t66.5 26.5t66.5 -26.5t27.5 -65.5z" />
<glyph unicode="&#xe34;" d="M-78 640h-421v54h421v-54z" />
<glyph unicode="&#xe35;" d="M-78 640h-421v54h358v96h63v-150z" />
<glyph unicode="&#xe36;" d="M-141 640h-358v54h286q-7 10 -7 26q0 34 23 58t56 24q34 0 57.5 -24t23.5 -58q0 -35 -23.5 -57.5t-57.5 -22.5zM-105 720q0 17 -10.5 27t-25.5 10t-25 -10t-10 -27q0 -15 10.5 -25.5t24.5 -10.5q15 0 25.5 10.5t10.5 25.5z" />
<glyph unicode="&#xe37;" d="M-78 640h-421v54h255v96h58v-98h49v98h59v-150z" />
<glyph unicode="&#xe38;" d="M-78 -246h-64v95q0 24 -23 24h-35v54h55q67 0 67 -71v-102z" />
<glyph unicode="&#xe39;" d="M-142 -146v73h64v-86q0 -48 -31 -73.5t-89 -25.5q-120 0 -120 99v32h-49v54h113v-73q0 -36 12.5 -50t43.5 -14t43.5 14t12.5 50z" />
<glyph unicode="&#xe3a;" d="M-56 -121q0 -22 -16.5 -38t-39.5 -16t-39.5 16t-16.5 38q0 23 16.5 39t39.5 16t39.5 -16t16.5 -39z" />
<glyph unicode="&#xe3f;" horiz-adv-x="558" d="M310 -100h-45v100h-185v650h185v100h45v-101q89 -5 136 -48.5t47 -118.5q0 -54 -32.5 -92t-75.5 -49q57 -7 97 -47.5t40 -107.5q0 -83 -53.5 -132t-158.5 -53v-101zM265 57v251h-121v-251h121zM265 365v228h-121v-228h121zM310 307v-249q148 9 148 128q0 116 -148 121z M310 591v-225q54 4 87 34.5t33 83.5q0 50 -31.5 77.5t-88.5 29.5z" />
<glyph unicode="&#xe40;" horiz-adv-x="230" d="M148 0h-66v560h66v-560z" />
<glyph unicode="&#xe41;" horiz-adv-x="426" d="M148 0h-66v560h66v-560zM344 0h-66v560h66v-560z" />
<glyph unicode="&#xe42;" horiz-adv-x="260" d="M174 0h-66v615q0 73 -39 123.5t-84 64.5l-2 18q32 54 94 84t134 30q84 0 161 -36l-19 -52q-61 32 -141 32q-111 0 -158 -57q120 -64 120 -215v-607z" />
<glyph unicode="&#xe43;" horiz-adv-x="260" d="M174 0h-66v543q0 38 19 76t42.5 64t42.5 58t19 58q0 36 -22 57t-65 21q-72 0 -143 -74l-31 45q26 35 74.5 61t102.5 26q69 0 109.5 -39.5t40.5 -96.5q0 -29 -12.5 -56.5t-30.5 -51t-36.5 -47t-31 -53.5t-12.5 -62v-529z" />
<glyph unicode="&#xe44;" horiz-adv-x="260" d="M174 0h-66v679q0 127 83 186h-243v56h327v-49q-101 -52 -101 -174v-698z" />
<glyph unicode="&#xe45;" horiz-adv-x="460" d="M382 -200h-66v565q0 148 -121 148q-89 0 -168 -56l-17 51q84 61 188 61q184 0 184 -205v-564z" />
<glyph unicode="&#xe46;" horiz-adv-x="544" d="M466 -200h-65v618q0 85 -56 93l-87 -61l-88 62q-29 -5 -46.5 -24.5t-17.5 -47.5q0 -35 20.5 -54.5t55.5 -19.5q20 0 38 5l9 -49q-21 -9 -54 -9q-53 0 -91 31.5t-38 95.5q0 52 38.5 86t93.5 43l79 -61l81 61q128 -11 128 -157v-612z" />
<glyph unicode="&#xe47;" d="M-117 640h-67q-23 0 -43 12t-28 34q-20 -50 -83 -50q-44 0 -70 26.5t-26 68.5t28 71.5t82 29.5h207v-49h-204q-26 0 -40.5 -14t-14.5 -39q0 -20 13.5 -33.5t31.5 -13.5q44 0 54 40h41q9 -30 48 -30h71v-53z" />
<glyph unicode="&#xe48;" d="M-78 842h-63v129h63v-129z" />
<glyph unicode="&#xe49;" d="M-1 841h-158q-44 0 -44 45v27q0 18 -17 18h-47v51h74q26 0 36.5 -12t10.5 -39v-24q0 -14 14 -14h131v-52z" />
<glyph unicode="&#xe4a;" d="M-74 842h-31l-5 13q9 9 9 28q0 30 -25 36l-45 -34l-44 34q-9 -2 -15 -13.5t-6 -22.5q0 -22 9 -43h-56q-8 17 -8 49q0 30 20 52.5t56 28.5l45 -38l44 39q32 -2 51.5 -20.5t19.5 -47.5q0 -7 -2 -21q38 13 38 61q0 24 -10 46h57q9 -20 9 -49q0 -39 -30 -68.5t-81 -29.5z" />
<glyph unicode="&#xe4b;" d="M-9 907l-73 2l1 -67h-59l2 67l-73 -2v46l73 -2l-2 66h59l-1 -66l73 2v-46z" />
<glyph unicode="&#xe4c;" d="M-49 815h-86q-37 0 -37 -36v-24h-63v30q0 38 23.5 60t67.5 22h95v-52z" />
<glyph unicode="&#xe4d;" d="M-116 664q19 0 33 13.5t14 34.5t-14 34.5t-33 13.5t-33 -13.5t-14 -34.5t14 -34.5t33 -13.5zM-22 712q0 -39 -27.5 -65.5t-66.5 -26.5t-66.5 26.5t-27.5 65.5t27.5 65.5t66.5 26.5t66.5 -26.5t27.5 -65.5z" />
<glyph unicode="&#xe4e;" d="M-161 689v-38q-23 -12 -53 -12q-38 0 -66 21t-28 60q0 37 26.5 59.5t78.5 16.5q-15 15 -15 37q0 20 17 35t49 15h53l11 -43h-50q-29 0 -29 -25q0 -21 25 -34l-12 -32q-29 8 -53 8q-45 0 -45 -37t48 -37q24 0 43 6z" />
<glyph unicode="&#xe4f;" horiz-adv-x="546" d="M273 26q-88 0 -150.5 63t-62.5 151t62 150.5t151 62.5t151 -62.5t62 -150.5t-62.5 -151t-150.5 -63zM273 57q76 0 129.5 53.5t53.5 129.5t-53.5 129.5t-129.5 53.5t-129.5 -53.5t-53.5 -129.5t53.5 -129.5t129.5 -53.5zM273 121q-50 0 -85 35t-35 83q0 51 35 85.5 t84 34.5q50 0 85 -34.5t35 -84.5t-35 -84.5t-84 -34.5zM273 165q31 0 52 21.5t21 53.5q0 30 -21 51.5t-53 21.5q-30 0 -52 -21.5t-22 -52.5q0 -30 21.5 -52t53.5 -22z" />
<glyph unicode="&#xe50;" horiz-adv-x="632" d="M582 242q0 -112 -76.5 -181.5t-189.5 -69.5t-189.5 69.5t-76.5 181.5t76 181t190 69q113 0 189.5 -69t76.5 -181zM518 242q0 89 -57.5 142t-144.5 53t-144.5 -53t-57.5 -142t58 -142.5t144 -53.5t144 53.5t58 142.5z" />
<glyph unicode="&#xe51;" horiz-adv-x="636" d="M290 -113h-29l6 53h29q90 0 157 66t67 190q0 108 -55 174.5t-155 66.5q-87 0 -143.5 -53.5t-56.5 -136.5q0 -74 40.5 -116t105.5 -42q43 0 81 18l13 -50q-35 -23 -96 -23q-88 0 -147 56.5t-59 157.5q0 106 73.5 175t189.5 69q128 0 200.5 -82.5t72.5 -211.5 q0 -141 -85 -226t-209 -85z" />
<glyph unicode="&#xe52;" horiz-adv-x="726" d="M466 0h-205q-89 0 -137.5 52t-48.5 137v371h64v-371q0 -134 127 -134h195q127 0 127 134v134q0 55 -17.5 80.5t-54.5 29.5l-85 -69l-89 69q-29 -6 -46.5 -31.5t-17.5 -57.5q0 -77 89 -103l-18 -48q-61 11 -96 50t-35 99q0 61 35 100.5t94 49.5l83 -70l78 70 q75 -8 109.5 -50.5t34.5 -121.5v-131q0 -85 -49 -137t-137 -52z" />
<glyph unicode="&#xe53;" horiz-adv-x="652" d="M578 0h-64v332q0 22 -2.5 38t-9 32.5t-21.5 25.5t-37 9q-41 0 -62.5 -27.5t-21.5 -74.5v-149h-60v149q0 102 -71 102q-54 0 -81.5 -55t-27.5 -142q0 -90 29 -142.5t77 -52.5q26 0 50 11l13 -44q-25 -18 -66 -18q-74 0 -120.5 67.5t-46.5 177.5q0 111 44.5 182t121.5 71 q84 0 109 -71q35 71 115 71q66 0 99 -44.5t33 -116.5v-331z" />
<glyph unicode="&#xe54;" horiz-adv-x="595" d="M557 0h-52q-85 0 -128 44q-41 -53 -125 -53q-88 0 -145 66.5t-57 177.5q0 116 74 182t190 66h116q48 0 67 16t19 47v14h63v-14q0 -118 -142 -118h-122q-91 0 -146 -48.5t-55 -141.5q0 -88 43.5 -140t107.5 -52q55 0 86 37q-22 39 -22 82q0 57 34.5 92t88.5 35h61l-11 -53 h-41q-32 0 -50.5 -21.5t-18.5 -57.5q0 -53 32 -80t89 -27h54z" />
<glyph unicode="&#xe55;" horiz-adv-x="599" d="M561 0h-52q-85 0 -128 44q-41 -53 -129 -53t-145 66.5t-57 177.5q0 91 45.5 151t123.5 84q-12 20 -12 45q0 36 26 61t62 25t62 -25t26 -61q0 -17 -6 -32h57q48 0 67 16t19 47v14h63v-14q0 -118 -142 -118h-126q-91 0 -146 -48.5t-55 -141.5q0 -88 43.5 -140t107.5 -52 q59 0 90 37q-22 39 -22 82q0 57 34.5 92t88.5 35h61l-11 -53h-41q-32 0 -50.5 -21.5t-18.5 -57.5q0 -53 32 -80t89 -27h54zM295 472q17 0 29.5 12t12.5 31t-12.5 31t-29.5 12t-29.5 -12t-12.5 -31t12.5 -31t29.5 -12z" />
<glyph unicode="&#xe56;" horiz-adv-x="605" d="M106 270l48 -35q-25 -27 -25 -67q0 -49 45.5 -85.5t124.5 -36.5q97 0 144.5 54.5t47.5 145.5q0 86 -47.5 138.5t-126.5 52.5q-64 0 -103.5 -21.5t-68.5 -62.5h-58l-75 216h63l53 -163q71 86 191 86q101 0 168.5 -70t67.5 -177q0 -111 -63.5 -182.5t-191.5 -71.5 q-106 0 -169 51t-63 129q0 61 38 99z" />
<glyph unicode="&#xe57;" horiz-adv-x="792" d="M555 0h-88v332q0 22 -2 38t-7.5 32.5t-18.5 25.5t-33 9q-32 0 -51 -24.5t-19 -63.5v-49h-56v49q0 88 -58 88q-50 0 -76 -55t-26 -142q0 -89 29.5 -142t76.5 -53q26 0 50 11l13 -44q-26 -18 -66 -18q-74 0 -120.5 67.5t-46.5 177.5q0 111 43.5 182t117.5 71q73 0 93 -65 q29 65 106 65q57 0 85 -44.5t28 -116.5v-281h27q46 0 71.5 28t25.5 83v399h64v-390q0 -80 -41.5 -125t-120.5 -45z" />
<glyph unicode="&#xe58;" horiz-adv-x="631" d="M333 96l-95 -100q-76 3 -121 44t-45 114v130q0 83 60.5 141t157.5 58h132q48 0 67 16t19 47v14h63v-14q0 -118 -142 -118h-133q-77 0 -118.5 -40t-41.5 -110v-122q0 -43 25 -72t62 -30l110 109l119 -107q35 11 55 40.5t20 68.5q0 41 -22 67.5t-59 35.5l22 49 q55 -12 89 -53t34 -102q0 -64 -46.5 -114t-102.5 -52q-12 11 -34 31.5t-40.5 37t-34.5 31.5z" />
<glyph unicode="&#xe59;" horiz-adv-x="607" d="M510 0h-61l-121 347q-15 43 -36 66.5t-57 23.5q-54 0 -85.5 -53.5t-31.5 -139.5q0 -90 32.5 -145.5t79.5 -55.5q35 0 57 15l13 -44q-27 -21 -73 -21q-73 0 -123 68t-50 182q0 110 49.5 179.5t129.5 69.5q83 0 124 -76q0 35 22.5 55.5t56.5 20.5q65 0 90 -55l22 123h55 l-38 -200h-48q-19 80 -69 80q-29 0 -45.5 -23t-16.5 -57z" />
<glyph unicode="&#xe5b;" horiz-adv-x="1128" d="M1088 234l16 -40q-42 -15 -77 -15q-83 0 -133 109l-46 -165h-28l-72 203l-64 -221h-30l-67 202q-29 -109 -106 -181t-178 -72q-108 0 -174.5 66.5t-66.5 167.5q0 97 56.5 157.5t150.5 60.5q77 0 125 -52.5t52 -126.5h-52q-5 56 -39 92.5t-88 36.5q-69 0 -108.5 -47 t-39.5 -121q0 -81 49.5 -131t134.5 -50q59 0 108 32t79 82.5t47.5 106t20.5 109.5h35l77 -235l59 214h35l67 -202l54 180h27q12 -79 42.5 -124.5t79.5 -45.5q28 0 54 10z" />
<glyph unicode="&#x2000;" horiz-adv-x="508" />
<glyph unicode="&#x2001;" horiz-adv-x="1017" />
<glyph unicode="&#x2002;" horiz-adv-x="508" />
<glyph unicode="&#x2003;" horiz-adv-x="1017" />
<glyph unicode="&#x2004;" horiz-adv-x="339" />
<glyph unicode="&#x2005;" horiz-adv-x="254" />
<glyph unicode="&#x2006;" horiz-adv-x="169" />
<glyph unicode="&#x2007;" horiz-adv-x="169" />
<glyph unicode="&#x2008;" horiz-adv-x="127" />
<glyph unicode="&#x2009;" horiz-adv-x="203" />
<glyph unicode="&#x200a;" horiz-adv-x="56" />
<glyph unicode="&#x2010;" horiz-adv-x="308" d="M278 249h-248v52h248v-52z" />
<glyph unicode="&#x2011;" horiz-adv-x="308" d="M278 249h-248v52h248v-52z" />
<glyph unicode="&#x2012;" horiz-adv-x="308" d="M278 249h-248v52h248v-52z" />
<glyph unicode="&#x2013;" horiz-adv-x="510" d="M476 233h-442v48h442v-48z" />
<glyph unicode="&#x2014;" horiz-adv-x="984" d="M910 233h-836v48h836v-48z" />
<glyph unicode="&#x2018;" horiz-adv-x="199" d="M117 681l24 -5q-16 -28 -26.5 -64t-10.5 -59q0 -17 12 -17q35 0 35 -40q0 -42 -45 -42q-46 0 -46 53q0 36 17.5 89t39.5 85z" />
<glyph unicode="&#x2019;" horiz-adv-x="199" d="M82 456l-24 5q37 72 37 123q0 17 -12 17q-35 0 -35 40q0 42 45 42q46 0 46 -53q0 -35 -17.5 -87t-39.5 -87z" />
<glyph unicode="&#x201a;" horiz-adv-x="199" d="M82 -117l-24 5q37 72 37 123q0 17 -12 17q-35 0 -35 40q0 42 45 42q46 0 46 -53q0 -35 -17.5 -87t-39.5 -87z" />
<glyph unicode="&#x201c;" horiz-adv-x="350" d="M117 681l24 -5q-16 -28 -26.5 -64t-10.5 -59q0 -17 12 -17q35 0 35 -40q0 -42 -45 -42q-46 0 -46 53q0 36 17.5 89t39.5 85zM268 681l24 -5q-16 -28 -26.5 -64t-10.5 -59q0 -17 12 -17q35 0 35 -40q0 -42 -45 -42q-46 0 -46 53q0 36 17.5 89t39.5 85z" />
<glyph unicode="&#x201d;" horiz-adv-x="350" d="M233 456l-24 5q37 72 37 123q0 17 -12 17q-35 0 -35 40q0 42 45 42q46 0 46 -53q0 -35 -17.5 -87t-39.5 -87zM82 456l-24 5q37 72 37 123q0 17 -12 17q-35 0 -35 40q0 42 45 42q46 0 46 -53q0 -35 -17.5 -87t-39.5 -87z" />
<glyph unicode="&#x201e;" horiz-adv-x="350" d="M233 -117l-24 5q37 72 37 123q0 17 -12 17q-35 0 -35 40q0 42 45 42q46 0 46 -53q0 -35 -17.5 -87t-39.5 -87zM82 -117l-24 5q37 72 37 123q0 17 -12 17q-35 0 -35 40q0 42 45 42q46 0 46 -53q0 -35 -17.5 -87t-39.5 -87z" />
<glyph unicode="&#x2020;" horiz-adv-x="534" d="M298 0h-62v429h-172v47h172v198h62v-198h172v-47h-172v-429z" />
<glyph unicode="&#x2021;" horiz-adv-x="534" d="M298 -50h-62v197h-172v48h172v234h-172v47h172v198h62v-198h172v-47h-172v-234h172v-48h-172v-197z" />
<glyph unicode="&#x2022;" horiz-adv-x="302" d="M152 442h-2q47 0 72.5 -27t25.5 -69q0 -41 -25.5 -68t-71.5 -27t-71.5 27t-25.5 68q0 42 25.5 69t72.5 27z" />
<glyph unicode="&#x2026;" horiz-adv-x="678" d="M164 41q0 -21 -13.5 -35.5t-37.5 -14.5t-37.5 14.5t-13.5 35.5q0 22 13.5 36.5t37.5 14.5t37.5 -14.5t13.5 -36.5zM390 41q0 -21 -13.5 -35.5t-37.5 -14.5t-37.5 14.5t-13.5 35.5q0 22 13.5 36.5t37.5 14.5t37.5 -14.5t13.5 -36.5zM616 41q0 -21 -13.5 -35.5t-37.5 -14.5 t-37.5 14.5t-13.5 35.5q0 22 13.5 36.5t37.5 14.5t37.5 -14.5t13.5 -36.5z" />
<glyph unicode="&#x202f;" horiz-adv-x="203" />
<glyph unicode="&#x2030;" horiz-adv-x="1106" d="M225 0h-55l365 660h55zM184 353q43 0 64 35.5t21 95.5t-21 95.5t-64 35.5t-64 -35.5t-21 -95.5t21 -95.5t64 -35.5zM184 309q-65 0 -101.5 48.5t-36.5 126.5t36.5 126.5t101.5 48.5t101.5 -48.5t36.5 -126.5t-36.5 -126.5t-101.5 -48.5zM576 35q43 0 64 35.5t21 95.5 t-21 95.5t-64 35.5t-64 -35.5t-21 -95.5t21 -95.5t64 -35.5zM576 -9q-65 0 -101.5 48.5t-36.5 126.5t36.5 126.5t101.5 48.5t101.5 -48.5t36.5 -126.5t-36.5 -126.5t-101.5 -48.5zM922 35q43 0 64 35.5t21 95.5t-21 95.5t-64 35.5t-64 -35.5t-21 -95.5t21 -95.5t64 -35.5z M922 -9q-65 0 -101.5 48.5t-36.5 126.5t36.5 126.5t101.5 48.5t101.5 -48.5t36.5 -126.5t-36.5 -126.5t-101.5 -48.5z" />
<glyph unicode="&#x2039;" horiz-adv-x="271" d="M225 62h-54l-131 180l131 178h54l-129 -178z" />
<glyph unicode="&#x203a;" horiz-adv-x="271" d="M100 62h-54l129 180l-129 178h54l131 -178z" />
<glyph unicode="&#x2044;" horiz-adv-x="422" d="M55 0h-55l367 660h55z" />
<glyph unicode="&#x205f;" horiz-adv-x="254" />
<glyph unicode="&#x20ac;" horiz-adv-x="558" d="M506 95l17 -53q-54 -51 -137 -51q-100 0 -169 70.5t-87 183.5h-87l13 41h68q-2 11 -2 51q0 12 2 42h-81l13 41h73q15 116 81.5 189t169.5 73q76 0 135 -52l-17 -52q-46 44 -113 44q-78 0 -127 -55.5t-64 -146.5h230l-13 -41h-222q-2 -30 -2 -42q0 -25 3 -51h234l-13 -41 h-215q18 -89 69.5 -142t125.5 -53q67 0 115 45z" />
<glyph unicode="&#x2113;" horiz-adv-x="390" d="M182 479v-182q61 50 87.5 110.5t26.5 140.5q0 94 -53 94q-33 0 -47 -35.5t-14 -127.5zM298 55l16 -48q-28 -16 -71 -16q-66 0 -95.5 37t-29.5 120v50q-10 -7 -83 -53q-4 6 -10.5 21t-10.5 21q63 36 104 70v222q0 105 31.5 160t92.5 55q53 0 83.5 -37t30.5 -108 q0 -188 -174 -314v-88q0 -55 13.5 -78.5t50.5 -23.5q32 0 52 10z" />
<glyph unicode="&#x2122;" horiz-adv-x="770" d="M183 295h-49v337l-114 -1v43h278v-43l-115 1v-337zM720 295h-48v231q0 65 2 80h-3q-10 -36 -26 -73l-76 -173h-54l-76 173q-16 37 -26 73h-3q2 -15 2 -80v-231h-48v379h60l92 -210q20 -49 25 -65h2q5 16 25 65l92 210h60v-379z" />
<glyph unicode="&#x2126;" horiz-adv-x="738" d="M630 0h-206v45q67 53 122.5 138.5t55.5 184.5q0 122 -61.5 188t-170.5 66q-110 0 -172.5 -66t-62.5 -188q0 -53 17.5 -105t46 -93.5t56.5 -72t57 -52.5v-45h-205v57h130q-167 154 -167 327q0 136 81 217.5t218 81.5t218 -81.5t81 -217.5q0 -172 -168 -327h130v-57z" />
<glyph unicode="&#x212e;" horiz-adv-x="818" d="M646 126h72q-56 -68 -137.5 -103.5t-171.5 -35.5q-156 0 -264.5 95t-108.5 241q0 145 108.5 240.5t264.5 95.5q155 0 264 -94t109 -234v-22h-610v-183q28 -33 96 -72.5t140 -39.5q77 0 143.5 37t94.5 75zM646 337v182q-28 39 -94.5 75.5t-143.5 36.5q-72 0 -140 -39.5 t-96 -72.5v-182h474z" />
<glyph unicode="&#x2202;" horiz-adv-x="589" d="M444 280q-55 91 -144 91q-88 0 -140 -66t-52 -152q0 -52 28.5 -79.5t81.5 -27.5q72 0 136 65t90 169zM216 575l-8 49q63 35 142 35q93 0 142 -53t49 -152q0 -69 -21.5 -147.5t-60.5 -150t-103.5 -118.5t-141.5 -47q-85 0 -128.5 44.5t-43.5 118.5q0 105 74 189t186 84 q105 0 159 -94q15 72 15 121q0 150 -135 150q-70 0 -125 -29z" />
<glyph unicode="&#x2206;" horiz-adv-x="620" d="M585 0h-550l261 674h26zM502 53l-193 514l-192 -514h385z" />
<glyph unicode="&#x220f;" horiz-adv-x="600" d="M510 -48h-66v662h-288v-662h-66v722h420v-722z" />
<glyph unicode="&#x2211;" horiz-adv-x="538" d="M494 -50h-454v34l264 332l-245 320v38h415v-51h-336l232 -306l-248 -315h372v-52z" />
<glyph unicode="&#x2212;" horiz-adv-x="558" d="M486 256h-414v54h414v-54z" />
<glyph unicode="&#x221a;" horiz-adv-x="518" d="M285 -12h-71l-112 372h-82v51h123l105 -358l175 621h60z" />
<glyph unicode="&#x221e;" horiz-adv-x="756" d="M354 310q-28 46 -67 72t-80 26q-46 0 -72.5 -28t-26.5 -70q0 -46 28 -74t73 -28q78 0 145 102zM400 309q63 -101 148 -101q48 0 73.5 29.5t25.5 72.5q0 42 -25.5 70t-74.5 28q-43 0 -77 -24.5t-70 -74.5zM379 272q-82 -106 -176 -106q-65 0 -106 39.5t-41 103.5 q0 63 41.5 102.5t106.5 39.5q99 0 173 -104q23 28 42.5 47.5t56 38t75.5 18.5q64 0 106.5 -39.5t42.5 -100.5q0 -63 -40.5 -104t-106.5 -41q-103 0 -174 106z" />
<glyph unicode="&#x222b;" horiz-adv-x="416" d="M176 107v401q0 91 28 132.5t97 41.5q39 0 71 -16l-15 -50q-25 11 -53 11q-37 0 -50.5 -24.5t-13.5 -80.5v-404q0 -89 -27.5 -129.5t-96.5 -40.5q-38 0 -72 16q3 8 8 24t9 24q20 -10 52 -10q37 0 50 24t13 81z" />
<glyph unicode="&#x2248;" horiz-adv-x="558" d="M471 438l30 -31q-19 -36 -55 -62.5t-75 -26.5q-40 0 -71.5 18t-58 35.5t-52.5 17.5q-57 0 -102 -65l-30 32q19 35 53.5 62t76.5 27q31 0 57.5 -11t43 -24.5t38 -24.5t43.5 -11q57 0 102 64zM471 253l30 -31q-21 -37 -55.5 -62.5t-74.5 -25.5t-71.5 17.5t-58 35 t-52.5 17.5q-59 0 -102 -65l-30 32q19 35 53.5 62t76.5 27q39 0 70.5 -18t58 -35.5t53.5 -17.5q57 0 102 64z" />
<glyph unicode="&#x2260;" horiz-adv-x="558" d="M478 166h-218l-66 -166h-49l67 166h-132v54h153l53 134h-206v54h227l68 170h49l-68 -170h122v-54h-143l-54 -134h197v-54z" />
<glyph unicode="&#x2264;" horiz-adv-x="558" d="M476 0h-414v43h414v-43zM476 66l-414 231v43l414 231v-63l-348 -190l348 -190v-62z" />
<glyph unicode="&#x2265;" horiz-adv-x="558" d="M496 297l-414 -231v62l348 190l-348 190v63l414 -231v-43zM496 0h-414v43h414v-43z" />
<glyph unicode="&#x25ca;" horiz-adv-x="576" d="M288 63l186 279l-186 278l-186 -278zM307 0h-38l-229 341l229 343h38l229 -343z" />
<glyph unicode="&#x25fc;" horiz-adv-x="485" d="M0 485h485v-485h-485v485z" />
<glyph unicode="&#xf700;" horiz-adv-x="536" d="M241 0h-57l-57 237q-6 24 -29 24h-38v56h46q36 0 54.5 -15t26.5 -48l47 -198h15q68 0 117.5 65.5t49.5 179.5q0 212 -183 212q-107 0 -194 -67l-21 50q93 73 214 73q86 0 133 -34l57 64h75l-86 -100q71 -71 71 -199q0 -131 -68 -215.5t-173 -84.5z" />
<glyph unicode="&#xf701;" d="M-201 640h-371v54h371v-54z" />
<glyph unicode="&#xf702;" d="M-201 640h-371v54h308v96h63v-150z" />
<glyph unicode="&#xf703;" d="M-265 640h-307v54h235q-8 14 -8 26q0 34 23.5 58t56.5 24q34 0 57 -24t23 -58t-23 -57t-57 -23zM-229 720q0 17 -10.5 27t-25.5 10t-25 -10t-10 -27q0 -15 10.5 -25.5t24.5 -10.5q15 0 25.5 10.5t10.5 25.5z" />
<glyph unicode="&#xf704;" d="M-201 640h-371v54h206v96h57v-98h51v98h57v-150z" />
<glyph unicode="&#xf705;" d="M-244 640h-66v160h66v-160z" />
<glyph unicode="&#xf706;" d="M-175 640h-170q-49 0 -49 52v26q0 12 -4 16.5t-16 4.5h-48v53h75q29 0 42.5 -13.5t13.5 -43.5v-25q0 -16 16 -16h140v-54z" />
<glyph unicode="&#xf707;" d="M-282 640h-40l-5 14q13 18 13 33q0 37 -28 41q-6 -5 -27.5 -20.5t-22.5 -15.5l-46 36q-12 -3 -19.5 -15t-7.5 -26q0 -27 8 -49h-59q-9 19 -9 55q0 34 22 58.5t62 31.5l50 -43l51 44q34 -3 54.5 -24t20.5 -52q0 -19 -4 -28q41 19 41 74q0 32 -11 51h65q9 -25 9 -50 q0 -46 -31.5 -80.5t-85.5 -34.5z" />
<glyph unicode="&#xf708;" d="M-199 717l-84 2l3 -79h-62l3 79l-84 -2v50l84 -2l-3 79h62l-3 -79l84 2v-50z" />
<glyph unicode="&#xf709;" d="M-203 706h-92q-41 0 -41 -39v-28h-67v35q0 41 25 64.5t73 23.5h102v-56z" />
<glyph unicode="&#xf70a;" d="M-80 640h-66v160h66v-160z" />
<glyph unicode="&#xf70b;" d="M-13 640h-174q-48 0 -48 52v26q0 12 -4 16.5t-16 4.5h-48v53h75q56 0 56 -51v-31q0 -16 17 -16h142v-54z" />
<glyph unicode="&#xf70c;" d="M-172 640h-36l-6 14q10 14 10 33q0 35 -28 39l-52 -36l-49 36q-27 -7 -27 -39q0 -25 9 -49h-60q-9 19 -9 55q0 33 22.5 58t61.5 32l53 -43l53 44q36 -3 57 -24.5t21 -56.5q0 -14 -4 -23q48 23 48 74q0 25 -11 51h61q10 -22 10 -50q0 -43 -35.5 -79t-88.5 -36z" />
<glyph unicode="&#xf70d;" d="M-74 717l-84 2l3 -79h-62l3 79l-84 -2v50l84 -2l-3 79h62l-3 -79l84 2v-50z" />
<glyph unicode="&#xf70e;" d="M-37 706h-95q-40 0 -40 -37v-30h-68v35q0 41 25 64.5t73 23.5h105v-56z" />
<glyph unicode="&#xf70f;" horiz-adv-x="910" d="M766 192v368h66v-368q0 -201 -202 -201t-202 201v161q0 75 -37.5 117.5t-103.5 42.5q-55 0 -100.5 -30.5t-64.5 -72.5l80 -68v-13q-56 -23 -56 -89v-155q0 -31 29 -31h55v-54h-69q-81 0 -81 80v151q0 76 57 104l-85 68q20 65 85 115.5t150 50.5q97 0 152 -60t55 -156 v-161q0 -74 32.5 -109.5t103.5 -35.5t103.5 35.5t32.5 109.5z" />
<glyph unicode="&#xf710;" d="M-114 640h-226q-45 0 -69 21t-24 60v36h63v-32q0 -31 31 -31h225v-54z" />
<glyph unicode="&#xf711;" d="M-290 664q19 0 33 13.5t14 34.5t-14 34.5t-33 13.5t-33 -13.5t-14 -34.5t14 -34.5t33 -13.5zM-196 712q0 -39 -27.5 -65.5t-66.5 -26.5t-66.5 26.5t-27.5 65.5t27.5 65.5t66.5 26.5t66.5 -26.5t27.5 -65.5z" />
<glyph unicode="&#xf712;" d="M-201 640h-67q-23 0 -43 12t-28 34q-20 -50 -83 -50q-44 0 -70 26.5t-26 68.5t28 71.5t82 29.5h207v-49h-204q-26 0 -40.5 -14t-14.5 -39q0 -20 13.5 -33.5t31.5 -13.5q44 0 54 40h41q9 -30 48 -30h71v-53z" />
<glyph unicode="&#xf713;" d="M-201 842h-63v129h63v-129z" />
<glyph unicode="&#xf714;" d="M-124 841h-158q-44 0 -44 45v27q0 18 -17 18h-47v51h74q26 0 36.5 -12t10.5 -39v-24q0 -14 14 -14h131v-52z" />
<glyph unicode="&#xf715;" d="M-197 842h-31l-5 13q9 9 9 28q0 30 -25 36l-45 -34l-44 34q-9 -2 -15 -13.5t-6 -22.5q0 -22 9 -43h-56q-8 17 -8 49q0 30 20 52.5t56 28.5l45 -38l44 39q32 -2 51.5 -20.5t19.5 -47.5q0 -7 -2 -21q38 13 38 61q0 24 -10 46h57q9 -20 9 -49q0 -39 -30 -68.5t-81 -29.5z " />
<glyph unicode="&#xf716;" d="M-132 907l-73 2l1 -67h-59l2 67l-73 -2v46l73 -2l-2 66h59l-1 -66l73 2v-46z" />
<glyph unicode="&#xf717;" d="M-172 815h-86q-37 0 -37 -36v-24h-63v30q0 38 23.5 60t67.5 22h95v-52z" />
<glyph unicode="&#xf718;" d="M-78 -397h-64v85q0 24 -23 24h-35v54h55q67 0 67 -71v-92z" />
<glyph unicode="&#xf719;" d="M-142 -303v69h64v-78q0 -97 -120 -97t-120 97v24h-49v54h113v-69q0 -33 12.5 -45.5t43.5 -12.5t43.5 12.5t12.5 45.5z" />
<glyph unicode="&#xf71a;" d="M-56 -280q0 -22 -16.5 -38t-39.5 -16t-39.5 16t-16.5 38q0 23 16.5 39t39.5 16t39.5 -16t16.5 -39z" />
<glyph unicode="&#xf71b;" horiz-adv-x="604" d="M526 -180h-80q-67 59 -148 59t-147 -58l-20 52q66 62 162 62q47 0 92.5 -18.5t74.5 -47.5v484q0 76 -40.5 118t-114.5 42q-59 0 -107.5 -30.5t-67.5 -72.5l92 -73v-13q-56 -23 -56 -89v-157q0 -78 -80 -78h-54v54h43q25 0 25 27v145q0 77 55 104l-95 73q19 64 88.5 115 t156.5 51q104 0 162.5 -60t58.5 -156v-533z" />
<glyph unicode="&#xf71c;" horiz-adv-x="604" d="M526 -180h-65l-120 73q-15 -38 -49.5 -59.5t-76.5 -21.5q-70 0 -124 34l18 54q48 -34 100 -34q40 0 68.5 29.5t38.5 75.5l144 -87v469q0 76 -40.5 118t-114.5 42q-59 0 -107.5 -30.5t-67.5 -72.5l92 -73v-13q-56 -23 -56 -89v-157q0 -78 -80 -78h-54v54h43q25 0 25 27 v145q0 77 55 104l-95 73q19 64 88.5 115t156.5 51q104 0 162.5 -60t58.5 -156v-533z" />
<glyph unicode="&#xf71d;" horiz-adv-x="654" d="M574 0h-73l-143 272q-19 35 -32 78h-2q-13 -43 -32 -78l-139 -272h-73v560h65v-358q0 -39 -10 -129h1q13 43 49 113l113 217h54l113 -217q36 -70 49 -113h1q-6 54 -6 129v130q0 96 -70 96h-27l-10 28l112 143h69l-110 -133q101 -7 101 -133v-333z" />
<glyph horiz-adv-x="460" d="M-290 664q19 0 33 13.5t14 34.5t-14 34.5t-33 13.5t-33 -13.5t-14 -34.5t14 -34.5t33 -13.5zM382 0h-66v365q0 148 -121 148q-89 0 -168 -56l-17 51q84 61 188 61q184 0 184 -205v-364zM-196 712q0 -39 -27.5 -65.5t-66.5 -26.5t-66.5 26.5t-27.5 65.5t27.5 65.5 t66.5 26.5t66.5 -26.5t27.5 -65.5z" />
<glyph d="M-261 689v-38q-23 -12 -52 -12q-39 0 -67 21t-28 60q0 37 26.5 59.5t79.5 16.5q-15 14 -15 37q0 21 17 35.5t50 14.5h52l10 -43h-50q-28 0 -28 -25q0 -22 24 -34l-12 -32q-27 8 -53 8q-21 0 -33 -10.5t-12 -26.5q0 -37 49 -37q23 0 42 6z" />
<glyph horiz-adv-x="594" d="M514 0h-66v238q0 137 -143 148l-159 -126v-260h-66v560h66v-229l287 229h91l-166 -131q74 -10 115 -59t41 -127v-243z" />
</font>
</defs>
</svg>
