<?xml version="1.0" standalone="no"?>
<!DOCTYPE svg PUBLIC "-//W3C//DTD SVG 1.1//EN" "http://www.w3.org/Graphics/SVG/1.1/DTD/svg11.dtd" >
<svg xmlns="http://www.w3.org/2000/svg">
<metadata></metadata>
<defs>
<font id="sukhumvit_tadmaibold" horiz-adv-x="0" >
<font-face units-per-em="1000" ascent="750" descent="-250" />
<missing-glyph horiz-adv-x="230" />
<glyph unicode="&#xe2f;&#xe2f;" horiz-adv-x="811" d="M746 0h-130v383q-18 -34 -51.5 -60t-73.5 -32v-291h-130v383q-21 -37 -61.5 -60.5t-89.5 -23.5q-84 0 -132 55.5t-48 144.5v61h128v-61q0 -98 72 -98q54 0 93.5 34.5t39.5 91.5v33h128v-169q51 2 89 41t38 95v33h128v-560z" />
<glyph unicode="&#xe4f;&#x22;" horiz-adv-x="546" d="M273 26q-88 0 -150.5 63t-62.5 151t62 150.5t151 62.5t151 -62.5t62 -150.5t-62.5 -151t-150.5 -63zM273 71q71 0 120 49.5t49 119.5q0 69 -49.5 119t-119.5 50q-69 0 -119 -50t-50 -119q0 -70 50 -119.5t119 -49.5zM273 117q-52 0 -88 35.5t-36 86.5q0 52 36 88t87 36 q52 0 88 -36t36 -87t-36 -87t-87 -36zM273 190q20 0 34 14.5t14 35.5q0 20 -14.5 34t-34.5 14t-34.5 -14.5t-14.5 -34.5t14.5 -34.5t35.5 -14.5zM228 496h-62l-15 192h92zM380 496h-62l-15 192h92z" />
<glyph unicode="&#xe24;&#xe32;" horiz-adv-x="974" d="M909 -200h-130v548q0 58 -31 89t-81 31q-71 0 -122 -42q13 -33 13 -78v-548h-130v548q0 59 -32.5 89.5t-89.5 30.5q-41 0 -79 -20.5t-52 -47.5l70 -57v-23q-49 -22 -49 -85v-117q0 -16 15 -16h58v-102h-88q-57 0 -86 29t-29 81v124q0 64 53 96l-81 66q22 70 97 123 t174 53q114 0 182 -62q76 62 182 62q109 0 172.5 -61.5t63.5 -162.5v-548z" />
<glyph unicode="&#xe26;&#xe32;" horiz-adv-x="984" d="M919 -200h-130v548q0 58 -31 89t-81 31q-75 0 -124 -44q12 -36 12 -76v-548h-130v548q0 59 -32 89.5t-90 30.5q-42 0 -79 -20t-53 -48l78 -60v-22q-43 -23 -43 -83v-125q0 -52 -29 -81t-86 -29h-76v102h46q15 0 15 16v116q0 62 49 92l-91 70q21 71 96.5 123.5t175.5 52.5 q114 0 183 -63q75 63 184 63t172.5 -61.5t63.5 -162.5v-548z" />
<glyph unicode="fi" horiz-adv-x="588" d="M520 0h-128v393h-185v-393h-125v393h-74v90h74q0 97 59 150t152 53q85 0 137 -31l-26 -77q-36 16 -88 16q-56 0 -82.5 -25t-26.5 -86h313v-483z" />
<glyph unicode="fl" horiz-adv-x="618" d="M550 0h-128v581q-47 13 -106 13q-56 0 -82.5 -25t-26.5 -86h133v-90h-133v-393h-125v393h-74v90h74q0 98 63 150.5t172 52.5q129 0 233 -49v-637z" />
<glyph unicode="&#xd;" horiz-adv-x="195" />
<glyph unicode=" "  horiz-adv-x="230" />
<glyph unicode="&#x09;" horiz-adv-x="230" />
<glyph unicode="&#xa0;" horiz-adv-x="230" />
<glyph unicode="!" horiz-adv-x="272" d="M180 194h-88l-22 315v165h132v-165zM217 65q0 -32 -22 -55t-59 -23t-59 23t-22 55t22 55t59 23t59 -23t22 -55z" />
<glyph unicode="&#x22;" horiz-adv-x="380" d="M145 452h-81l-19 236h119zM316 452h-81l-19 236h119z" />
<glyph unicode="#" horiz-adv-x="590" d="M385 0h-107l40 189h-105l-40 -189h-108l41 189h-83v94h103l19 85h-83v95h102l41 187h107l-40 -187h105l41 187h107l-41 -187h83v-95h-103l-19 -85h84v-94h-103zM339 282l19 87h-107l-20 -87h108z" />
<glyph unicode="$" horiz-adv-x="590" d="M330 -100h-64v88q-125 3 -202 49l32 103q82 -47 170 -47v188q-32 11 -52 19t-51 25.5t-49 37t-32 51t-14 69.5q0 72 50 120.5t148 56.5v90h64v-89q87 -4 164 -42l-32 -96q-63 28 -132 33v-175q41 -15 68.5 -28.5t59.5 -36.5t48.5 -57.5t16.5 -78.5q0 -81 -53 -129.5 t-140 -58.5v-92zM266 403v150q-75 -13 -75 -68q0 -30 19.5 -49t55.5 -33zM330 259v-158q71 21 71 81q0 47 -71 77z" />
<glyph unicode="%" horiz-adv-x="792" d="M272 0h-119l367 660h119zM180 386q23 0 35.5 28t12.5 71t-12.5 71t-35.5 28t-35.5 -28t-12.5 -71t12.5 -71t35.5 -28zM180 308q-67 0 -108.5 51.5t-41.5 125.5t41.5 125.5t108.5 51.5t108.5 -51.5t41.5 -125.5t-41.5 -125.5t-108.5 -51.5zM612 66q23 0 35.5 28t12.5 71 t-12.5 71t-35.5 28t-35.5 -28t-12.5 -71t12.5 -71t35.5 -28zM612 -12q-67 0 -108.5 51.5t-41.5 125.5t41.5 125.5t108.5 51.5t108.5 -51.5t41.5 -125.5t-41.5 -125.5t-108.5 -51.5z" />
<glyph unicode="&#x26;" horiz-adv-x="651" d="M641 0h-152l-36 41q-68 -53 -163 -53q-123 0 -185.5 57.5t-62.5 147.5q0 59 31.5 102.5t87.5 82.5l-7 8q-63 77 -63 134q0 76 48.5 121t134.5 45q97 0 142 -43t45 -109q0 -58 -34 -99.5t-94 -78.5l131 -151q20 35 20 94v51h128v-51q0 -106 -65 -189zM380 124l-144 167 q-54 -46 -54 -96q0 -43 29 -68.5t81 -25.5q47 0 88 23zM253 448l11 -13q68 37 68 92q0 24 -14.5 40.5t-39.5 16.5q-58 0 -58 -59q0 -30 33 -77z" />
<glyph unicode="'" horiz-adv-x="209" d="M145 452h-81l-19 236h119z" />
<glyph unicode="(" horiz-adv-x="314" d="M304 -68l-34 -61q-103 61 -161.5 159t-58.5 256t58.5 256t161.5 159l34 -61q-66 -45 -100 -140.5t-34 -213.5t34 -213.5t100 -140.5z" />
<glyph unicode=")" horiz-adv-x="314" d="M44 -129l-34 61q66 46 100 141t34 213t-34 213t-100 141l34 61q103 -61 161.5 -159t58.5 -256t-58.5 -256t-161.5 -159z" />
<glyph unicode="*" horiz-adv-x="473" d="M366 303l-93 104l23 -146h-118l25 148l-96 -106q-23 23 -77 73l150 90q-22 12 -71.5 43t-75.5 45l75 73l93 -99l-23 146h118l-23 -145l92 98l75 -73l-147 -88q27 -17 80.5 -48.5t69.5 -41.5q-11 -10 -36.5 -34t-40.5 -39z" />
<glyph unicode="+" horiz-adv-x="590" d="M356 72h-122v161h-159v102h159v161h122v-161h159v-102h-159v-161z" />
<glyph unicode="," horiz-adv-x="262" d="M128 -125h-85l26 257h146z" />
<glyph unicode="-" horiz-adv-x="330" d="M310 207h-290v102h290v-102z" />
<glyph unicode="." horiz-adv-x="262" d="M212 65q0 -32 -22 -55t-59 -23t-59 23t-22 55t22 55t59 23t59 -23t22 -55z" />
<glyph unicode="/" horiz-adv-x="397" d="M114 -40h-114l283 714h114z" />
<glyph unicode="0" horiz-adv-x="590" d="M295 -12q-118 0 -187.5 90t-69.5 247t69.5 247t187.5 90t187.5 -90t69.5 -247t-69.5 -247t-187.5 -90zM295 94q59 0 93 58.5t34 172.5t-34 172.5t-93 58.5t-93 -58.5t-34 -172.5t34 -172.5t93 -58.5z" />
<glyph unicode="1" horiz-adv-x="590" d="M512 0h-424v110l150 -2v420l-130 -32v96l163 58h97v-542l144 2v-110z" />
<glyph unicode="2" horiz-adv-x="590" d="M516 0h-460v85l159 163q98 101 123 137q32 47 32 91q0 80 -97 80q-91 0 -166 -39l-29 96q35 20 90 34.5t106 14.5q113 0 168.5 -49.5t55.5 -136.5q0 -71 -49 -140t-141 -161l-63 -63h271v-112z" />
<glyph unicode="3" horiz-adv-x="590" d="M56 37l29 96q75 -39 179 -39q60 0 98 28.5t38 72.5q0 41 -34.5 64.5t-85.5 23.5h-112v102h112q41 0 71.5 24t30.5 62q0 39 -31 62t-89 23q-97 0 -172 -39l-29 96q92 49 211 49q112 0 175 -52t63 -130q0 -97 -100 -139q50 -13 85 -54.5t35 -96.5q0 -92 -71.5 -147 t-181.5 -55q-67 0 -127 14t-94 35z" />
<glyph unicode="4" horiz-adv-x="590" d="M348 221v239l-173 -239h173zM474 0h-128v117h-309v83l328 450h109v-429h72v-104h-72v-117z" />
<glyph unicode="5" horiz-adv-x="590" d="M50 37l33 101q79 -44 177 -44q62 0 96 32.5t34 81.5q0 106 -126 106h-180v77l26 259h372v-112h-264l-9 -112h56q124 0 189.5 -56.5t65.5 -160.5q0 -101 -70 -161t-189 -60q-135 0 -211 49z" />
<glyph unicode="6" horiz-adv-x="590" d="M180 278q2 -86 39.5 -136t90.5 -50q47 0 78 35t31 95q0 50 -27 79.5t-78 29.5q-76 0 -134 -53zM491 616l-32 -97q-57 39 -121 39q-71 0 -110 -48t-45 -131q62 52 158 52q87 0 145 -53t58 -153q0 -101 -64.5 -169t-167.5 -68q-123 0 -191.5 85t-68.5 246q0 162 76 252.5 t200 90.5q83 0 163 -46z" />
<glyph unicode="7" horiz-adv-x="590" d="M274 0h-133l244 540h-313v110h458v-80z" />
<glyph unicode="8" horiz-adv-x="590" d="M412 187q0 45 -30 69.5t-87 24.5t-87 -24.5t-30 -69.5t32 -71t85 -26t85 26t32 71zM428 341q45 -17 77.5 -59t32.5 -97q0 -93 -65 -145t-178 -52t-178 52t-65 145q0 55 32.5 97t77.5 59q-92 48 -92 144q0 84 59 130.5t166 46.5t166 -46.5t59 -130.5q0 -96 -92 -144z M396 474q0 41 -28 64.5t-73 23.5t-73 -23.5t-28 -64.5q0 -44 27.5 -68.5t73.5 -24.5t73.5 24.5t27.5 68.5z" />
<glyph unicode="9" horiz-adv-x="590" d="M410 372q-2 86 -39.5 136t-90.5 50q-47 0 -78 -35t-31 -95q0 -50 27 -79.5t78 -29.5q76 0 134 53zM89 25l32 97q54 -30 131 -30q73 0 112.5 47.5t42.5 131.5q-62 -52 -158 -52q-87 0 -145 53t-58 153q0 101 64.5 169t167.5 68q123 0 191.5 -85t68.5 -246 q0 -164 -76 -253.5t-200 -89.5q-107 0 -173 37z" />
<glyph unicode=":" horiz-adv-x="282" d="M222 65q0 -32 -22 -55t-59 -23t-59 23t-22 55t22 55t59 23t59 -23t22 -55zM222 405q0 -32 -22 -55t-59 -23t-59 23t-22 55t22 55t59 23t59 -23t22 -55z" />
<glyph unicode=";" horiz-adv-x="282" d="M222 405q0 -32 -22 -55t-59 -23t-59 23t-22 55t22 55t59 23t59 -23t22 -55zM129 -125h-85l26 257h146z" />
<glyph unicode="&#x3c;" horiz-adv-x="590" d="M512 26l-452 245v72l452 246v-123l-313 -159l313 -159v-122z" />
<glyph unicode="=" horiz-adv-x="590" d="M510 323h-430v92h430v-92zM510 139h-430v92h430v-92z" />
<glyph unicode="&#x3e;" horiz-adv-x="590" d="M530 271l-452 -245v122l313 159l-313 159v123l452 -246v-72z" />
<glyph unicode="?" horiz-adv-x="501" d="M290 176h-110q-15 24 -15 49q0 34 16 65t39 54.5t46 46t39 51t16 59.5q0 33 -23.5 56t-70.5 23q-82 0 -161 -46l-31 100q91 52 196 52q108 0 164 -48t56 -130q0 -39 -17 -73t-41.5 -58t-49 -47t-41.5 -51.5t-17 -61.5q0 -22 5 -41zM317 65q0 -32 -22 -55t-59 -23t-59 23 t-22 55t22 55t59 23t59 -23t22 -55z" />
<glyph unicode="@" horiz-adv-x="838" d="M498 340v102q-27 10 -63 10q-57 0 -82.5 -29.5t-25.5 -90.5q0 -60 22 -89t57 -29q41 0 66.5 34t25.5 92zM567 107l34 -65q-86 -54 -195 -54q-148 0 -247 89t-99 243q0 155 101.5 260.5t269.5 105.5q158 0 252.5 -93.5t94.5 -246.5q0 -106 -41.5 -162.5t-102.5 -56.5 q-41 0 -69 24.5t-35 54.5q-54 -77 -134 -77q-76 0 -122 53.5t-46 147.5q0 58 17.5 102.5t65.5 75t124 30.5q89 0 166 -41v-236q0 -59 37 -59q24 0 41 40t17 105q0 124 -68.5 196t-196.5 72q-137 0 -214.5 -82t-77.5 -208q0 -125 78.5 -195.5t186.5 -70.5q98 0 163 48z" />
<glyph unicode="A" horiz-adv-x="630" d="M624 0h-136l-51 151h-244l-51 -151h-136l243 674h132zM399 259l-33 101l-50 172h-2l-50 -172l-33 -101h168z" />
<glyph unicode="B" horiz-adv-x="628" d="M340 0h-270v674h274q110 0 165.5 -48t55.5 -133q0 -48 -26.5 -83t-63.5 -53q52 -15 84.5 -56t32.5 -104q0 -89 -63 -143t-189 -54zM196 107h142q60 0 94 26t34 71t-34 68t-97 23h-139v-188zM196 400h149q44 0 70 21.5t26 64.5q0 38 -26 59.5t-71 21.5h-148v-167z" />
<glyph unicode="C" horiz-adv-x="583" d="M523 136l30 -100q-82 -48 -194 -48q-152 0 -237.5 97.5t-85.5 251.5t85.5 251.5t237.5 97.5q107 0 190 -45l-32 -99q-71 38 -148 38q-100 0 -151.5 -63.5t-51.5 -179.5t52 -179.5t151 -63.5q74 0 154 42z" />
<glyph unicode="D" horiz-adv-x="663" d="M280 0h-210v674h210q168 0 256.5 -85.5t88.5 -248.5q0 -167 -88 -253.5t-257 -86.5zM200 112h80q215 0 215 228q0 222 -215 222h-80v-450z" />
<glyph unicode="E" horiz-adv-x="554" d="M514 0h-444v674h438v-110h-312v-165h293v-110h-293v-179h318v-110z" />
<glyph unicode="F" horiz-adv-x="530" d="M481 280h-285v-280h-126v674h430v-110h-304v-172h285v-112z" />
<glyph unicode="G" horiz-adv-x="657" d="M597 0h-112l-14 79q-50 -88 -156 -88q-125 0 -202 93.5t-77 245.5q0 166 91.5 261t248.5 95q108 0 194 -45l-32 -99q-71 38 -152 38q-105 0 -162.5 -63.5t-57.5 -186.5q0 -104 49 -168.5t124 -64.5q57 0 94.5 36.5t37.5 103.5v40h-130v108h256v-385z" />
<glyph unicode="H" horiz-adv-x="674" d="M604 0h-130v288h-274v-288h-130v674h130v-274h274v274h130v-674z" />
<glyph unicode="I" horiz-adv-x="270" d="M200 0h-130v674h130v-674z" />
<glyph unicode="J" horiz-adv-x="403" d="M206 199v475h130v-475q0 -107 -48 -159t-136 -52q-87 0 -146 38l31 105q47 -31 105 -31q33 0 48.5 23t15.5 76z" />
<glyph unicode="K" horiz-adv-x="620" d="M630 0h-150l-249 315v82l246 277h146l-279 -316zM200 0h-130v674h130v-674z" />
<glyph unicode="L" horiz-adv-x="520" d="M498 0h-428v674l130 1v-563h298v-112z" />
<glyph unicode="M" horiz-adv-x="810" d="M740 0h-126v330q0 89 19 194h-3q-26 -99 -58 -174l-106 -247h-122l-106 247q-32 75 -58 174h-3q19 -105 19 -194v-330h-126v674h146l136 -310q41 -91 52 -168h2q11 77 52 168l136 310h146v-674z" />
<glyph unicode="N" horiz-adv-x="682" d="M612 0h-130l-230 382q-45 75 -66 140h-3q17 -87 17 -153v-369h-130v674h140l220 -382q45 -75 66 -140h3q-17 87 -17 153v369h130v-674z" />
<glyph unicode="O" horiz-adv-x="702" d="M351 94q90 0 137.5 63.5t47.5 179.5t-47.5 179.5t-137.5 63.5t-137.5 -63.5t-47.5 -179.5t47.5 -179.5t137.5 -63.5zM351 -12q-151 0 -233 97t-82 252t82 252t233 97t233 -97t82 -252t-82 -252t-233 -97z" />
<glyph unicode="P" horiz-adv-x="582" d="M200 0h-130v674h243q108 0 171.5 -61.5t63.5 -155.5q0 -96 -66 -159t-175 -63h-107v-235zM200 347h107q52 0 81.5 29.5t29.5 80.5q0 49 -27.5 77t-77.5 28h-113v-215z" />
<glyph unicode="Q" horiz-adv-x="702" d="M570 -158h-367v96h21q73 0 89 52q-134 12 -205.5 107t-71.5 240q0 155 82 252t233 97t233 -97t82 -252q0 -129 -58 -219.5t-168 -118.5q-8 -18 -25 -35t-34 -26h189v-96zM351 94q90 0 137.5 63.5t47.5 179.5t-47.5 179.5t-137.5 63.5t-137.5 -63.5t-47.5 -179.5 t47.5 -179.5t137.5 -63.5z" />
<glyph unicode="R" horiz-adv-x="601" d="M583 0h-139l-145 252h-99v-252h-130v674h253q113 0 177.5 -59.5t64.5 -149.5q0 -68 -38.5 -118t-102.5 -72zM200 364h124q52 0 81.5 27t29.5 74q0 45 -28 71t-83 26h-124v-198z" />
<glyph unicode="S" horiz-adv-x="539" d="M34 39l33 106q85 -48 172 -48q60 0 97.5 23.5t37.5 68.5q0 17 -8 31t-15.5 22.5t-30 19t-31.5 14t-38 13.5q-9 3 -14 5q-40 13 -67.5 25.5t-61.5 36t-52 60.5t-18 85q0 82 59 133.5t179 51.5q109 0 195 -44l-33 -100q-78 35 -155 35q-58 0 -88 -20t-30 -54 q0 -41 33 -63.5t95 -42.5q29 -10 49.5 -18t47 -21t44 -28.5t34 -36t25 -47.5t8.5 -59q0 -97 -69.5 -148t-182.5 -51q-126 0 -215 51z" />
<glyph unicode="T" horiz-adv-x="520" d="M325 0h-130v564l-193 -2v112h516v-112l-193 2v-564z" />
<glyph unicode="U" horiz-adv-x="676" d="M479 273v401h130v-400q0 -143 -70.5 -214.5t-200.5 -71.5t-200.5 71.5t-70.5 214.5v400h130v-401q0 -88 37 -133.5t104 -45.5t104 45.5t37 133.5z" />
<glyph unicode="V" horiz-adv-x="624" d="M380 0h-136l-236 674h138l115 -360l50 -182h2l50 182l115 360h138z" />
<glyph unicode="W" horiz-adv-x="901" d="M729 0h-130l-107 353q-8 26 -40 208h-3q-32 -182 -40 -208l-107 -353h-130l-154 674h132l59 -274q28 -147 35 -292h3q23 187 52 275l90 291h123l90 -291q29 -88 52 -275h3q8 176 35 292l59 274h132z" />
<glyph unicode="X" horiz-adv-x="627" d="M623 0h-143l-166 258h-2l-165 -258h-143l237 349l-221 325h145l147 -233h2l148 233h145l-222 -325z" />
<glyph unicode="Y" horiz-adv-x="596" d="M363 0h-130v287l-225 387h141l150 -276l148 276h141l-225 -387v-287z" />
<glyph unicode="Z" horiz-adv-x="557" d="M517 0h-485v80l320 486l-294 -2v110h455v-80l-319 -484l323 2v-112z" />
<glyph unicode="[" horiz-adv-x="296" d="M286 -118h-216v802h216v-86h-96v-630h96v-86z" />
<glyph unicode="\" horiz-adv-x="397" d="M397 -40h-114l-283 714h114z" />
<glyph unicode="]" horiz-adv-x="296" d="M226 -118h-216v86h96v630h-96v86h216v-802z" />
<glyph unicode="^" horiz-adv-x="568" d="M538 276h-136l-118 265l-118 -265h-136l202 398h104z" />
<glyph unicode="_" horiz-adv-x="449" d="M449 -157h-449v102h449v-102z" />
<glyph unicode="`" horiz-adv-x="330" d="M166 536l-205 105l67 96l173 -147z" />
<glyph unicode="a" horiz-adv-x="509" d="M321 196v24h-69q-48 0 -74 -21t-26 -59q0 -27 16 -43.5t40 -16.5q50 0 81.5 34.5t31.5 81.5zM445 0h-110l-14 63q-49 -75 -139 -75q-64 0 -107 40.5t-43 107.5q0 168 221 168h68v16q0 77 -88 77q-73 0 -142 -40l-28 88q73 50 185 50q197 0 197 -182v-313z" />
<glyph unicode="b" horiz-adv-x="571" d="M194 329v-102q0 -62 29 -99.5t75 -37.5q49 0 79 38t30 121q0 67 -27.5 105.5t-73.5 38.5q-61 0 -112 -64zM180 0h-114v674h128v-254q22 29 63.5 52t88.5 23q91 0 140 -71.5t49 -174.5q0 -121 -57.5 -191t-141.5 -70q-88 0 -142 75z" />
<glyph unicode="c" horiz-adv-x="462" d="M414 118l28 -91q-65 -39 -160 -39q-118 0 -182.5 72t-64.5 182q0 111 63.5 182t184.5 71q86 0 151 -39l-27 -89q-52 30 -115 30q-129 0 -129 -155q0 -74 31 -115t92 -41q69 0 128 32z" />
<glyph unicode="d" horiz-adv-x="571" d="M377 227v102q-43 64 -104 64q-47 0 -78 -40t-31 -110q0 -79 30 -116t79 -37q46 0 75 37.5t29 99.5zM505 0h-114l-14 63q-54 -75 -135 -75q-89 0 -147.5 68.5t-58.5 186.5q0 106 53.5 179t147.5 73q85 0 140 -75v254h128v-674z" />
<glyph unicode="e" horiz-adv-x="509" d="M417 116l28 -89q-67 -39 -164 -39q-121 0 -183.5 68t-62.5 187q0 111 59.5 181.5t174.5 70.5q96 0 150.5 -57.5t54.5 -148.5q0 -49 -14 -91h-299q11 -57 47 -84.5t87 -27.5q65 0 122 30zM354 273v13q0 116 -84 116q-48 0 -77.5 -34.5t-34.5 -94.5h196z" />
<glyph unicode="f" horiz-adv-x="354" d="M207 0h-125v393h-74v90h74v31q0 172 169 172q66 0 117 -28l-26 -77q-22 13 -59 13q-41 0 -58.5 -20t-17.5 -61v-30h133v-90h-133v-393z" />
<glyph unicode="g" horiz-adv-x="571" d="M377 233v96q-43 64 -104 64q-47 0 -78 -38.5t-31 -105.5q0 -76 30 -111.5t79 -35.5q47 0 75.5 34.5t28.5 96.5zM379 33v42q-54 -75 -137 -75q-89 0 -147.5 67.5t-58.5 181.5q0 104 53.5 175t147.5 71q85 0 140 -75l14 63h114v-444q0 -123 -67.5 -182.5t-176.5 -59.5 q-115 0 -191 50l32 99q65 -42 148 -42q129 0 129 129z" />
<glyph unicode="h" horiz-adv-x="576" d="M512 0h-128v300q0 93 -72 93q-64 0 -118 -64v-329h-128v674h128v-254q68 75 165 75q68 0 110.5 -51t42.5 -140v-304z" />
<glyph unicode="i" horiz-adv-x="264" d="M196 0h-128v483h128v-483zM209 614q0 -30 -20.5 -51t-56.5 -21t-56.5 21t-20.5 51t20.5 51t56.5 21t56.5 -21t20.5 -51z" />
<glyph unicode="j" horiz-adv-x="264" d="M-64 -173l27 90q28 -16 63 -16q22 0 32 13t10 47v522h128v-513q0 -174 -142 -174q-69 0 -118 31zM209 614q0 -30 -20.5 -51t-56.5 -21t-56.5 21t-20.5 51t20.5 51t56.5 21t56.5 -21t20.5 -51z" />
<glyph unicode="k" horiz-adv-x="522" d="M532 0h-138l-70 93q-75 98 -102 138v72l162 180h143l-196 -216zM194 0h-128v674h128v-674z" />
<glyph unicode="l" horiz-adv-x="264" d="M196 0h-128v674h128v-674z" />
<glyph unicode="m" horiz-adv-x="817" d="M753 0h-125v310q0 42 -10.5 62.5t-40.5 20.5q-62 0 -105 -64v-8v-321h-125v310q0 42 -10.5 62.5t-40.5 20.5q-62 0 -105 -64v-329h-125v483h111l14 -63q68 75 147 75q96 0 121 -88q78 88 160 88q66 0 100 -45t34 -129v-321z" />
<glyph unicode="n" horiz-adv-x="574" d="M510 0h-128v300q0 47 -16.5 70t-53.5 23q-64 0 -118 -64v-329h-128v483h114l14 -63q68 75 160 75q72 0 114 -50.5t42 -140.5v-304z" />
<glyph unicode="o" horiz-adv-x="554" d="M277 86q57 0 85.5 41t28.5 115t-28.5 114.5t-85.5 40.5t-85.5 -40.5t-28.5 -114.5t28.5 -115t85.5 -41zM277 -12q-117 0 -179.5 71.5t-62.5 182.5t62.5 182t179.5 71t179.5 -71t62.5 -182t-62.5 -182.5t-179.5 -71.5z" />
<glyph unicode="p" horiz-adv-x="571" d="M194 329v-102q0 -62 29 -99.5t75 -37.5q49 0 79 38t30 121q0 67 -27.5 105.5t-73.5 38.5q-61 0 -112 -64zM194 -191h-128v674h114l14 -63q22 29 63.5 52t88.5 23q91 0 140 -71.5t49 -174.5q0 -121 -57.5 -191t-141.5 -70q-88 0 -142 75v-254z" />
<glyph unicode="q" horiz-adv-x="571" d="M377 227v102q-43 64 -104 64q-47 0 -78 -40t-31 -110q0 -79 30 -116t79 -37q46 0 75 37.5t29 99.5zM505 -191h-128v254q-54 -75 -135 -75q-89 0 -147.5 68.5t-58.5 186.5q0 106 53.5 179t147.5 73q85 0 140 -75l14 63h114v-674z" />
<glyph unicode="r" horiz-adv-x="386" d="M194 0h-128v483h112l16 -71q41 83 116 83q42 0 70 -26l-27 -116q-26 21 -67 21q-65 0 -92 -52v-322z" />
<glyph unicode="s" horiz-adv-x="446" d="M36 25l29 96q66 -34 141 -34q79 0 79 47q0 27 -23.5 42t-72.5 30q-72 21 -110 53.5t-38 95.5q0 65 51 102.5t139 37.5q100 0 166 -35l-29 -94q-58 30 -130 30t-72 -41q0 -20 17 -32t54 -25q91 -30 132 -66t41 -102q0 -63 -52.5 -102.5t-146.5 -39.5q-103 0 -175 37z" />
<glyph unicode="t" horiz-adv-x="370" d="M322 113l26 -93q-50 -32 -114 -32q-80 0 -116 38.5t-36 121.5v245h-74v90h76l30 138h93v-138h137v-90h-137v-246q0 -57 49 -57q32 0 66 23z" />
<glyph unicode="u" horiz-adv-x="565" d="M499 0h-114l-14 63q-19 -30 -57.5 -52.5t-81.5 -22.5q-81 0 -124.5 46.5t-43.5 136.5v312h128v-308q0 -45 18 -65t57 -20q55 0 104 64v329h128v-483z" />
<glyph unicode="v" horiz-adv-x="492" d="M312 0h-132l-172 483h130l70 -207l37 -162h2l36 162l71 207h130z" />
<glyph unicode="w" horiz-adv-x="710" d="M582 0h-129l-71 225q-21 66 -26 152h-2q-5 -86 -26 -152l-71 -225h-129l-114 483h128l39 -196q12 -53 17 -174h4q13 108 31 168l61 202h122l61 -202q18 -60 31 -168h4q5 121 17 174l39 196h128z" />
<glyph unicode="x" horiz-adv-x="512" d="M500 0h-136l-109 172h-2l-105 -172h-136l174 250l-165 233h135l96 -155h2l94 155h135l-162 -233z" />
<glyph unicode="y" horiz-adv-x="565" d="M373 33v42q-19 -30 -57.5 -52.5t-83.5 -22.5q-81 0 -124.5 46.5t-43.5 136.5v300h128v-296q0 -45 18 -65t57 -20q55 0 104 64v317h128v-444q0 -123 -65.5 -182.5t-174.5 -59.5q-115 0 -188 48l32 99q62 -40 140 -40q65 0 97.5 30t32.5 99z" />
<glyph unicode="z" horiz-adv-x="458" d="M420 0h-386v66l222 327h-204v90h360v-66l-222 -327h230v-90z" />
<glyph unicode="{" horiz-adv-x="328" d="M308 -118h-33q-174 0 -174 138q0 30 14 81.5t14 73.5q0 34 -21 48t-68 14v92q47 0 68 14t21 48q0 22 -14 73.5t-14 81.5q0 138 174 138h33v-86h-30q-58 0 -58 -70q0 -25 8.5 -72t8.5 -69q0 -83 -78 -103v-2q78 -20 78 -103q0 -22 -8.5 -69t-8.5 -72q0 -70 58 -70h30v-86z " />
<glyph unicode="|" horiz-adv-x="280" d="M200 -200h-120v974h120v-974z" />
<glyph unicode="}" horiz-adv-x="328" d="M53 -118h-33v86h30q58 0 58 70q0 25 -8.5 72t-8.5 69q0 83 78 103v2q-78 20 -78 103q0 22 8.5 69t8.5 72q0 70 -58 70h-30v86h33q174 0 174 -138q0 -30 -14 -81.5t-14 -73.5q0 -34 21 -48t68 -14v-92q-47 0 -68 -14t-21 -48q0 -22 14 -73.5t14 -81.5q0 -138 -174 -138z " />
<glyph unicode="~" horiz-adv-x="563" d="M467 416l60 -61q-53 -118 -158 -118q-39 0 -96.5 35.5t-86.5 35.5q-45 0 -90 -71l-60 61q53 118 158 118q40 0 96 -35.5t87 -35.5q45 0 90 71z" />
<glyph horiz-adv-x="500" />
<glyph unicode="&#xa0;" />
<glyph unicode="&#xa1;" horiz-adv-x="272" d="M217 494q0 -32 -22 -55t-59 -23t-59 23t-22 55t22 55t59 23t59 -23t22 -55zM202 -115h-132v165l22 315h88l22 -315v-165z" />
<glyph unicode="&#xa2;" horiz-adv-x="590" d="M371 -100h-64v90q-105 8 -164.5 79t-59.5 173t58.5 172t165.5 79v90h64v-90q67 -7 123 -39l-27 -89q-43 24 -96 30v-308q54 6 103 33l28 -91q-53 -31 -131 -39v-90zM307 89v303q-96 -22 -96 -150q0 -130 96 -153z" />
<glyph unicode="&#xa3;" horiz-adv-x="590" d="M548 0h-496v112h51q33 16 57.5 48t24.5 60q0 36 -18 75h-95v64h61q-36 68 -36 114q0 83 67 135.5t163 52.5q58 0 93.5 -9t82.5 -33l-32 -103q-52 33 -125 33q-51 0 -79 -24t-28 -62q0 -42 30 -104h157v-64h-129q13 -33 13 -66q0 -55 -66 -117h304v-112z" />
<glyph unicode="&#xa4;" horiz-adv-x="582" d="M291 210q47 0 80 33.5t33 84.5t-33 84.5t-80 33.5t-80 -33.5t-33 -84.5t33 -84.5t80 -33.5zM450 114l-57 58q-47 -34 -102 -34t-102 34l-57 -58l-52 52l55 59q-32 50 -32 103t32 103l-55 59l52 52l57 -58q47 34 102 34t102 -34l57 58l52 -52l-55 -59q32 -50 32 -103 t-32 -103l55 -59z" />
<glyph unicode="&#xa5;" horiz-adv-x="590" d="M361 0h-130v161h-150v64h150v60h-150v64h115l-171 301h141l131 -272l127 272h141l-169 -301h115v-64h-150v-60h150v-64h-150v-161z" />
<glyph unicode="&#xa6;" horiz-adv-x="280" d="M200 323h-120v351h120v-351zM200 -175h-120v351h120v-351z" />
<glyph unicode="&#xa7;" horiz-adv-x="590" d="M220 373q-13 -10 -13 -27q0 -21 22.5 -38t46.5 -24.5t61 -17t46 -12.5q12 12 12 26q0 19 -22.5 36t-48 25.5t-60.5 18.5t-44 13zM79 -19l29 90q67 -33 148 -33q49 0 84 18t35 42q0 18 -14 32t-26 19t-43 15q-7 3 -11 4q-200 52 -200 168q0 67 49 97q-32 39 -32 93 q0 73 58.5 116.5t158.5 43.5q82 0 174 -44l-29 -90q-62 34 -138 34q-46 0 -69 -17t-23 -43q0 -24 24.5 -39t69.5 -29q5 -2 28 -10t31 -11t28.5 -11.5t29.5 -14.5t25 -16t23.5 -20.5t16.5 -23.5t12.5 -28.5t3.5 -33.5q0 -65 -50 -95q34 -40 34 -96q0 -71 -67 -116t-176 -45 q-99 0 -184 44z" />
<glyph unicode="&#xa8;" horiz-adv-x="330" d="M125 614q0 -26 -18 -44.5t-49 -18.5t-49 18.5t-18 44.5t18 44.5t49 18.5t49 -18.5t18 -44.5zM339 614q0 -26 -18 -44.5t-49 -18.5t-49 18.5t-18 44.5t18 44.5t49 18.5t49 -18.5t18 -44.5z" />
<glyph unicode="&#xa9;" horiz-adv-x="708" d="M354 80q105 0 176.5 74.5t71.5 182.5t-71.5 182.5t-176.5 74.5t-176.5 -74.5t-71.5 -182.5t71.5 -182.5t176.5 -74.5zM463 242l16 -55q-47 -30 -113 -30q-83 0 -129.5 50.5t-46.5 128.5q0 79 47.5 129t133.5 50q61 0 105 -28l-18 -53q-41 22 -87 22q-50 0 -75.5 -32 t-25.5 -88q0 -120 102 -120q51 0 91 26zM354 23q-134 0 -224 91.5t-90 222.5t90 222.5t224 91.5q133 0 223.5 -91.5t90.5 -222.5t-90.5 -222.5t-223.5 -91.5z" />
<glyph unicode="&#xaa;" horiz-adv-x="365" d="M238 445v15h-54q-74 0 -74 -54q0 -43 46 -43q35 0 58.5 24t23.5 58zM325 300h-71l-10 51q-37 -58 -104 -58q-53 0 -86.5 27.5t-33.5 81.5q0 123 164 123h54q0 32 -17 48t-45 16q-53 0 -115 -30l-22 64q70 37 140 37q73 0 109.5 -35.5t36.5 -100.5v-224z" />
<glyph unicode="&#xab;" horiz-adv-x="511" d="M271 62h-123l-128 180l128 180h123l-127 -180zM481 62h-123l-128 180l128 180h123l-127 -180z" />
<glyph unicode="&#xac;" horiz-adv-x="517" d="M467 113h-120v165h-317v96h437v-261z" />
<glyph unicode="&#xad;" horiz-adv-x="324" d="M314 201h-304v98h304v-98z" />
<glyph unicode="&#xae;" horiz-adv-x="538" d="M380 330h-59l-53 94h-32v-94h-54v252h99q94 0 94 -78q0 -25 -16.5 -46t-39.5 -26zM236 468h43q43 0 43 36q0 18 -9.5 25.5t-32.5 7.5h-44v-69zM498 459q0 -95 -64.5 -160t-164.5 -65t-164.5 65t-64.5 160t64.5 160t164.5 65t164.5 -65t64.5 -160zM269 279q79 0 127 51 t48 129t-48 129t-127 51t-127 -51t-48 -129t48 -129t127 -51z" />
<glyph unicode="&#xaf;" horiz-adv-x="330" d="M322 569h-314v85h314v-85z" />
<glyph unicode="&#xb0;" horiz-adv-x="358" d="M179 489q24 0 40 18t16 44t-16 44t-40 18t-40 -18t-16 -44t16 -44t40 -18zM322 551q0 -57 -40 -96t-103 -39t-103 39t-40 96t40 96t103 39t103 -39t40 -96z" />
<glyph unicode="&#xb1;" horiz-adv-x="590" d="M515 263h-159v-151h-122v151h-159v102h159v151h122v-151h159v-102zM515 0h-440v72h440v-72z" />
<glyph unicode="&#xb2;" horiz-adv-x="315" d="M293 300h-273v64l87 86q69 69 69 102q0 27 -42 27q-45 0 -84 -19l-24 72q66 30 126 30q62 0 94.5 -27t32.5 -71q0 -12 -3 -24t-5.5 -20.5t-10.5 -21t-12 -18.5t-16 -19t-15 -16.5t-17 -17t-16 -15.5l-32 -27h141v-85z" />
<glyph unicode="&#xb3;" horiz-adv-x="313" d="M146 447h-64v74h59q38 0 38 29q0 30 -48 30q-37 0 -88 -26l-29 74q63 34 125 34q69 0 104.5 -28t35.5 -72q0 -26 -15.5 -46t-37.5 -27q28 -8 45.5 -32t17.5 -52q0 -50 -37 -80.5t-97 -30.5q-81 0 -145 33l29 78q47 -29 100 -29q49 0 49 36q0 35 -42 35z" />
<glyph unicode="&#xb4;" horiz-adv-x="330" d="M369 641l-205 -105l-35 54l173 147z" />
<glyph unicode="&#xb5;" horiz-adv-x="567" d="M501 0h-114l-14 63q-16 -33 -42.5 -54t-57.5 -21q-50 0 -79 24v-212h-128v683h128v-292q0 -47 22.5 -76t63.5 -29t93 68v329h128v-483z" />
<glyph unicode="&#xb6;" horiz-adv-x="457" d="M323 -48h-106v354q-76 0 -131.5 48.5t-55.5 133.5t56 135.5t136 50.5h209v-78h-70q-22 0 -30 -11.5t-8 -34.5v-598z" />
<glyph unicode="&#xb7;" horiz-adv-x="262" d="M212 259q0 -32 -22 -55t-59 -23t-59 23t-22 55t22 55t59 23t59 -23t22 -55z" />
<glyph unicode="&#xb8;" horiz-adv-x="330" d="M166 -182h-133l104 140h79z" />
<glyph unicode="&#xb9;" horiz-adv-x="305" d="M285 300h-253v83h78v180l-64 -20v78l97 34h73v-272h69v-83z" />
<glyph unicode="&#xba;" horiz-adv-x="402" d="M201 364q86 0 86 114q0 51 -21.5 81.5t-64.5 30.5t-64 -30.5t-21 -81.5q0 -114 85 -114zM201 293q-86 0 -130.5 51t-44.5 134q0 82 44.5 132.5t130.5 50.5t130.5 -50.5t44.5 -132.5q0 -83 -44.5 -134t-130.5 -51z" />
<glyph unicode="&#xbb;" horiz-adv-x="511" d="M363 62h-123l127 180l-127 180h123l128 -180zM153 62h-123l127 180l-127 180h123l128 -180z" />
<glyph unicode="&#xbc;" horiz-adv-x="776" d="M277 0h-119l367 660h119zM621 138v102l-73 -102h73zM720 0h-100v61h-154v67l165 227h89v-217h46v-77h-46v-61zM290 300h-253v83h78v180l-64 -20v78l97 34h73v-272h69v-83z" />
<glyph unicode="&#xbd;" horiz-adv-x="776" d="M277 0h-119l367 660h119zM290 300h-253v83h78v180l-64 -20v78l97 34h73v-272h69v-83zM743 0h-273v64l87 86q69 69 69 102q0 27 -42 27q-28 0 -78 -22l-24 72q3 2 12.5 6t13.5 6t12.5 5.5t14 5t14.5 4t16.5 3.5t17 2t19.5 1q62 0 94.5 -27t32.5 -71q0 -12 -3 -24 t-5.5 -20.5t-10.5 -21t-12 -18.5t-16 -19t-15 -16.5t-17 -17t-16 -15.5l-32 -27h141v-85z" />
<glyph unicode="&#xbe;" horiz-adv-x="776" d="M277 0h-119l367 660h119zM621 138v102l-73 -102h73zM720 0h-100v61h-154v67l165 227h89v-217h46v-77h-46v-61zM156 447h-64v74h59q38 0 38 29q0 30 -48 30q-37 0 -88 -26l-29 74q63 34 125 34q69 0 104.5 -28t35.5 -72q0 -26 -15.5 -46t-37.5 -27q28 -8 45.5 -32 t17.5 -52q0 -50 -37 -80.5t-97 -30.5q-81 0 -145 33l29 78q47 -29 100 -29q49 0 49 36q0 35 -42 35z" />
<glyph unicode="&#xbf;" horiz-adv-x="501" d="M435 -52l31 -100q-91 -52 -196 -52q-108 0 -164 48t-56 130q0 39 17 73t41.5 58t49 47t41.5 51.5t17 61.5q0 22 -5 41h110q15 -24 15 -49q0 -34 -16 -65t-39 -54.5t-46 -46t-39 -51t-16 -59.5q0 -33 23.5 -56t70.5 -23q82 0 161 46zM346 417q0 -32 -22 -55t-59 -23 t-59 23t-22 55t22 55t59 23t59 -23t22 -55z" />
<glyph unicode="&#xc0;" horiz-adv-x="630" d="M624 0h-136l-51 151h-244l-51 -151h-136l243 674h132zM399 259l-33 101l-50 172h-2l-50 -172l-33 -101h168zM400 732l-205 105l67 96l173 -147z" />
<glyph unicode="&#xc1;" horiz-adv-x="630" d="M624 0h-136l-51 151h-244l-51 -151h-136l243 674h132zM399 259l-33 101l-50 172h-2l-50 -172l-33 -101h168zM435 837l-205 -105l-35 54l173 147z" />
<glyph unicode="&#xc2;" horiz-adv-x="630" d="M624 0h-136l-51 151h-244l-51 -151h-136l243 674h132zM399 259l-33 101l-50 172h-2l-50 -172l-33 -101h168zM486 735h-126l-45 77l-45 -77h-126l134 147h74z" />
<glyph unicode="&#xc3;" horiz-adv-x="630" d="M624 0h-136l-51 151h-244l-51 -151h-136l243 674h132zM399 259l-33 101l-50 172h-2l-50 -172l-33 -101h168zM405 868h75q0 -54 -24 -87t-66 -33q-39 0 -79 25t-54 25q-33 0 -33 -45h-74q0 53 24 86.5t68 33.5q37 0 78 -25t53 -25q19 0 25.5 11t6.5 34z" />
<glyph unicode="&#xc4;" horiz-adv-x="630" d="M624 0h-136l-51 151h-244l-51 -151h-136l243 674h132zM399 259l-33 101l-50 172h-2l-50 -172l-33 -101h168zM275 810q0 -26 -18 -44.5t-49 -18.5t-49 18.5t-18 44.5t18 44.5t49 18.5t49 -18.5t18 -44.5zM489 810q0 -26 -18 -44.5t-49 -18.5t-49 18.5t-18 44.5t18 44.5 t49 18.5t49 -18.5t18 -44.5z" />
<glyph unicode="&#xc5;" horiz-adv-x="630" d="M624 0h-136l-51 151h-244l-51 -151h-136l243 674h132zM399 259l-33 101l-50 172h-2l-50 -172l-33 -101h168zM418 829q0 -41 -30 -69.5t-73 -28.5t-73 28.5t-30 69.5t30 69.5t73 28.5t73 -28.5t30 -69.5zM315 794q29 0 29 35t-29 35t-29 -35t29 -35z" />
<glyph unicode="&#xc6;" horiz-adv-x="849" d="M809 0h-321l-38 151h-244l-64 -151h-136l300 674h497v-110h-335l46 -165h270v-110h-240l49 -179h216v-110zM421 259l-25 101l-35 172h-2l-65 -172l-41 -101h168z" />
<glyph unicode="&#xc7;" horiz-adv-x="583" d="M523 136l30 -100q-82 -48 -194 -48q-152 0 -237.5 97.5t-85.5 251.5t85.5 251.5t237.5 97.5q107 0 190 -45l-32 -99q-71 38 -148 38q-100 0 -151.5 -63.5t-51.5 -179.5t52 -179.5t151 -63.5q74 0 154 42zM333 -182h-133l104 140h79z" />
<glyph unicode="&#xc8;" horiz-adv-x="554" d="M514 0h-444v674h438v-110h-312v-165h293v-110h-293v-179h318v-110zM372 732l-205 105l67 96l173 -147z" />
<glyph unicode="&#xc9;" horiz-adv-x="554" d="M514 0h-444v674h438v-110h-312v-165h293v-110h-293v-179h318v-110zM407 837l-205 -105l-35 54l173 147z" />
<glyph unicode="&#xca;" horiz-adv-x="554" d="M514 0h-444v674h438v-110h-312v-165h293v-110h-293v-179h318v-110zM458 735h-126l-45 77l-45 -77h-126l134 147h74z" />
<glyph unicode="&#xcb;" horiz-adv-x="554" d="M514 0h-444v674h438v-110h-312v-165h293v-110h-293v-179h318v-110zM247 810q0 -26 -18 -44.5t-49 -18.5t-49 18.5t-18 44.5t18 44.5t49 18.5t49 -18.5t18 -44.5zM461 810q0 -26 -18 -44.5t-49 -18.5t-49 18.5t-18 44.5t18 44.5t49 18.5t49 -18.5t18 -44.5z" />
<glyph unicode="&#xcc;" horiz-adv-x="270" d="M200 0h-130v674h130v-674zM220 732l-205 105l67 96l173 -147z" />
<glyph unicode="&#xcd;" horiz-adv-x="270" d="M200 0h-130v674h130v-674zM256 837l-205 -105l-35 54l173 147z" />
<glyph unicode="&#xce;" horiz-adv-x="270" d="M200 0h-130v674h130v-674zM307 735h-126l-45 77l-45 -77h-126l134 147h74z" />
<glyph unicode="&#xcf;" horiz-adv-x="270" d="M200 0h-130v674h130v-674zM96 810q0 -26 -18 -44.5t-49 -18.5t-49 18.5t-18 44.5t18 44.5t49 18.5t49 -18.5t18 -44.5zM310 810q0 -26 -18 -44.5t-49 -18.5t-49 18.5t-18 44.5t18 44.5t49 18.5t49 -18.5t18 -44.5z" />
<glyph unicode="&#xd0;" horiz-adv-x="663" d="M280 0h-210v281h-64v92h64v301h210q168 0 256.5 -85.5t88.5 -248.5q0 -167 -88 -253.5t-257 -86.5zM200 112h80q215 0 215 228q0 222 -215 222h-80v-189h136v-92h-136v-169z" />
<glyph unicode="&#xd1;" horiz-adv-x="682" d="M612 0h-130l-230 382q-45 75 -66 140h-3q17 -87 17 -153v-369h-130v674h140l220 -382q45 -75 66 -140h3q-17 87 -17 153v369h130v-674zM431 868h75q0 -54 -24 -87t-66 -33q-39 0 -79 25t-54 25q-33 0 -33 -45h-74q0 53 24 86.5t68 33.5q37 0 78 -25t53 -25q19 0 25.5 11 t6.5 34z" />
<glyph unicode="&#xd2;" horiz-adv-x="702" d="M351 94q90 0 137.5 63.5t47.5 179.5t-47.5 179.5t-137.5 63.5t-137.5 -63.5t-47.5 -179.5t47.5 -179.5t137.5 -63.5zM351 -12q-151 0 -233 97t-82 252t82 252t233 97t233 -97t82 -252t-82 -252t-233 -97zM436 732l-205 105l67 96l173 -147z" />
<glyph unicode="&#xd3;" horiz-adv-x="702" d="M351 94q90 0 137.5 63.5t47.5 179.5t-47.5 179.5t-137.5 63.5t-137.5 -63.5t-47.5 -179.5t47.5 -179.5t137.5 -63.5zM351 -12q-151 0 -233 97t-82 252t82 252t233 97t233 -97t82 -252t-82 -252t-233 -97zM471 837l-205 -105l-35 54l173 147z" />
<glyph unicode="&#xd4;" horiz-adv-x="702" d="M351 94q90 0 137.5 63.5t47.5 179.5t-47.5 179.5t-137.5 63.5t-137.5 -63.5t-47.5 -179.5t47.5 -179.5t137.5 -63.5zM351 -12q-151 0 -233 97t-82 252t82 252t233 97t233 -97t82 -252t-82 -252t-233 -97zM522 735h-126l-45 77l-45 -77h-126l134 147h74z" />
<glyph unicode="&#xd5;" horiz-adv-x="702" d="M351 94q90 0 137.5 63.5t47.5 179.5t-47.5 179.5t-137.5 63.5t-137.5 -63.5t-47.5 -179.5t47.5 -179.5t137.5 -63.5zM351 -12q-151 0 -233 97t-82 252t82 252t233 97t233 -97t82 -252t-82 -252t-233 -97zM441 868h75q0 -54 -24 -87t-66 -33q-39 0 -79 25t-54 25 q-33 0 -33 -45h-74q0 53 24 86.5t68 33.5q37 0 78 -25t53 -25q19 0 25.5 11t6.5 34z" />
<glyph unicode="&#xd6;" horiz-adv-x="702" d="M351 94q90 0 137.5 63.5t47.5 179.5t-47.5 179.5t-137.5 63.5t-137.5 -63.5t-47.5 -179.5t47.5 -179.5t137.5 -63.5zM351 -12q-151 0 -233 97t-82 252t82 252t233 97t233 -97t82 -252t-82 -252t-233 -97zM311 810q0 -26 -18 -44.5t-49 -18.5t-49 18.5t-18 44.5t18 44.5 t49 18.5t49 -18.5t18 -44.5zM525 810q0 -26 -18 -44.5t-49 -18.5t-49 18.5t-18 44.5t18 44.5t49 18.5t49 -18.5t18 -44.5z" />
<glyph unicode="&#xd7;" horiz-adv-x="590" d="M422 58l-127 127l-127 -127l-82 82l127 127l-127 127l82 82l127 -127l127 127l82 -82l-127 -127l127 -127z" />
<glyph unicode="&#xd8;" horiz-adv-x="702" d="M162 -40h-81l61 100q-106 94 -106 277q0 155 82 252t233 97q87 0 151 -34l38 62h81l-61 -101q106 -96 106 -276q0 -155 -82 -252t-233 -97q-84 0 -152 33zM207 167l237 389q-39 24 -93 24q-90 0 -137.5 -63.5t-47.5 -179.5q0 -108 41 -170zM495 507l-237 -390 q41 -23 93 -23q90 0 137.5 63.5t47.5 179.5q0 108 -41 170z" />
<glyph unicode="&#xd9;" horiz-adv-x="676" d="M479 273v401h130v-400q0 -143 -70.5 -214.5t-200.5 -71.5t-200.5 71.5t-70.5 214.5v400h130v-401q0 -88 37 -133.5t104 -45.5t104 45.5t37 133.5zM423 732l-205 105l67 96l173 -147z" />
<glyph unicode="&#xda;" horiz-adv-x="676" d="M479 273v401h130v-400q0 -143 -70.5 -214.5t-200.5 -71.5t-200.5 71.5t-70.5 214.5v400h130v-401q0 -88 37 -133.5t104 -45.5t104 45.5t37 133.5zM458 837l-205 -105l-35 54l173 147z" />
<glyph unicode="&#xdb;" horiz-adv-x="676" d="M479 273v401h130v-400q0 -143 -70.5 -214.5t-200.5 -71.5t-200.5 71.5t-70.5 214.5v400h130v-401q0 -88 37 -133.5t104 -45.5t104 45.5t37 133.5zM509 735h-126l-45 77l-45 -77h-126l134 147h74z" />
<glyph unicode="&#xdc;" horiz-adv-x="676" d="M479 273v401h130v-400q0 -143 -70.5 -214.5t-200.5 -71.5t-200.5 71.5t-70.5 214.5v400h130v-401q0 -88 37 -133.5t104 -45.5t104 45.5t37 133.5zM298 810q0 -26 -18 -44.5t-49 -18.5t-49 18.5t-18 44.5t18 44.5t49 18.5t49 -18.5t18 -44.5zM512 810q0 -26 -18 -44.5 t-49 -18.5t-49 18.5t-18 44.5t18 44.5t49 18.5t49 -18.5t18 -44.5z" />
<glyph unicode="&#xdd;" horiz-adv-x="596" d="M363 0h-130v287l-225 387h141l150 -276l148 276h141l-225 -387v-287zM418 837l-205 -105l-35 54l173 147z" />
<glyph unicode="&#xde;" horiz-adv-x="582" d="M200 0h-130v674h130v-127h113q108 0 171.5 -59.5t63.5 -149.5q0 -92 -66 -153t-175 -61h-107v-124zM200 236h107q52 0 81.5 27t29.5 75q0 46 -27.5 71.5t-77.5 25.5h-113v-199z" />
<glyph unicode="&#xdf;" horiz-adv-x="620" d="M224 25l19 86q54 -28 115 -28q49 0 75 30.5t26 87.5q0 62 -38 95.5t-110 33.5h-43v90h66q50 0 74.5 20.5t24.5 67.5q0 33 -25 59.5t-79 26.5q-139 0 -139 -181v-413h-125v413q0 117 69 195t195 78q97 0 161 -52t64 -124q0 -58 -30.5 -93.5t-73.5 -44.5q59 -19 96.5 -66 t37.5 -119q0 -96 -57.5 -146t-150.5 -50q-88 0 -152 34z" />
<glyph unicode="&#xe0;" horiz-adv-x="509" d="M321 196v24h-69q-48 0 -74 -21t-26 -59q0 -27 16 -43.5t40 -16.5q50 0 81.5 34.5t31.5 81.5zM445 0h-110l-14 63q-49 -75 -139 -75q-64 0 -107 40.5t-43 107.5q0 168 221 168h68v16q0 77 -88 77q-73 0 -142 -40l-28 88q73 50 185 50q197 0 197 -182v-313zM339 536 l-205 105l67 96l173 -147z" />
<glyph unicode="&#xe1;" horiz-adv-x="509" d="M321 196v24h-69q-48 0 -74 -21t-26 -59q0 -27 16 -43.5t40 -16.5q50 0 81.5 34.5t31.5 81.5zM445 0h-110l-14 63q-49 -75 -139 -75q-64 0 -107 40.5t-43 107.5q0 168 221 168h68v16q0 77 -88 77q-73 0 -142 -40l-28 88q73 50 185 50q197 0 197 -182v-313zM374 641 l-205 -105l-35 54l173 147z" />
<glyph unicode="&#xe2;" horiz-adv-x="509" d="M321 196v24h-69q-48 0 -74 -21t-26 -59q0 -27 16 -43.5t40 -16.5q50 0 81.5 34.5t31.5 81.5zM445 0h-110l-14 63q-49 -75 -139 -75q-64 0 -107 40.5t-43 107.5q0 168 221 168h68v16q0 77 -88 77q-73 0 -142 -40l-28 88q73 50 185 50q197 0 197 -182v-313zM425 539h-126 l-45 77l-45 -77h-126l134 147h74z" />
<glyph unicode="&#xe3;" horiz-adv-x="509" d="M321 196v24h-69q-48 0 -74 -21t-26 -59q0 -27 16 -43.5t40 -16.5q50 0 81.5 34.5t31.5 81.5zM445 0h-110l-14 63q-49 -75 -139 -75q-64 0 -107 40.5t-43 107.5q0 168 221 168h68v16q0 77 -88 77q-73 0 -142 -40l-28 88q73 50 185 50q197 0 197 -182v-313zM344 672h75 q0 -54 -24 -87t-66 -33q-39 0 -79 25t-54 25q-33 0 -33 -45h-74q0 53 24 86.5t68 33.5q37 0 78 -25t53 -25q19 0 25.5 11t6.5 34z" />
<glyph unicode="&#xe4;" horiz-adv-x="509" d="M321 196v24h-69q-48 0 -74 -21t-26 -59q0 -27 16 -43.5t40 -16.5q50 0 81.5 34.5t31.5 81.5zM445 0h-110l-14 63q-49 -75 -139 -75q-64 0 -107 40.5t-43 107.5q0 168 221 168h68v16q0 77 -88 77q-73 0 -142 -40l-28 88q73 50 185 50q197 0 197 -182v-313zM214 614 q0 -26 -18 -44.5t-49 -18.5t-49 18.5t-18 44.5t18 44.5t49 18.5t49 -18.5t18 -44.5zM428 614q0 -26 -18 -44.5t-49 -18.5t-49 18.5t-18 44.5t18 44.5t49 18.5t49 -18.5t18 -44.5z" />
<glyph unicode="&#xe5;" horiz-adv-x="509" d="M321 196v24h-69q-48 0 -74 -21t-26 -59q0 -27 16 -43.5t40 -16.5q50 0 81.5 34.5t31.5 81.5zM445 0h-110l-14 63q-49 -75 -139 -75q-64 0 -107 40.5t-43 107.5q0 168 221 168h68v16q0 77 -88 77q-73 0 -142 -40l-28 88q73 50 185 50q197 0 197 -182v-313zM357 633 q0 -41 -30 -69.5t-73 -28.5t-73 28.5t-30 69.5t30 69.5t73 28.5t73 -28.5t30 -69.5zM254 598q29 0 29 35t-29 35t-29 -35t29 -35z" />
<glyph unicode="&#xe6;" horiz-adv-x="788" d="M696 116l28 -89q-67 -39 -159 -39q-129 0 -181 105q-25 -48 -74 -76.5t-109 -28.5q-75 0 -122 40t-47 108q0 168 224 168h71v16q0 77 -91 77q-76 0 -145 -40l-28 88q73 50 188 50q109 0 151 -73q53 73 151 73q95 0 147.5 -57t52.5 -149q0 -49 -14 -91h-288 q21 -112 128 -112q59 0 117 30zM327 196v24h-72q-48 0 -75.5 -21t-27.5 -59q0 -26 17 -43t42 -17q50 0 83 34.5t33 81.5zM633 273v13q0 116 -79 116q-92 0 -103 -129h182z" />
<glyph unicode="&#xe7;" horiz-adv-x="462" d="M414 118l28 -91q-65 -39 -160 -39q-118 0 -182.5 72t-64.5 182q0 111 63.5 182t184.5 71q86 0 151 -39l-27 -89q-52 30 -115 30q-129 0 -129 -155q0 -74 31 -115t92 -41q69 0 128 32zM272 -182h-133l104 140h79z" />
<glyph unicode="&#xe8;" horiz-adv-x="509" d="M417 116l28 -89q-67 -39 -164 -39q-121 0 -183.5 68t-62.5 187q0 111 59.5 181.5t174.5 70.5q96 0 150.5 -57.5t54.5 -148.5q0 -49 -14 -91h-299q11 -57 47 -84.5t87 -27.5q65 0 122 30zM354 273v13q0 116 -84 116q-48 0 -77.5 -34.5t-34.5 -94.5h196zM339 536l-205 105 l67 96l173 -147z" />
<glyph unicode="&#xe9;" horiz-adv-x="509" d="M417 116l28 -89q-67 -39 -164 -39q-121 0 -183.5 68t-62.5 187q0 111 59.5 181.5t174.5 70.5q96 0 150.5 -57.5t54.5 -148.5q0 -49 -14 -91h-299q11 -57 47 -84.5t87 -27.5q65 0 122 30zM354 273v13q0 116 -84 116q-48 0 -77.5 -34.5t-34.5 -94.5h196zM374 641l-205 -105 l-35 54l173 147z" />
<glyph unicode="&#xea;" horiz-adv-x="509" d="M417 116l28 -89q-67 -39 -164 -39q-121 0 -183.5 68t-62.5 187q0 111 59.5 181.5t174.5 70.5q96 0 150.5 -57.5t54.5 -148.5q0 -49 -14 -91h-299q11 -57 47 -84.5t87 -27.5q65 0 122 30zM354 273v13q0 116 -84 116q-48 0 -77.5 -34.5t-34.5 -94.5h196zM425 539h-126 l-45 77l-45 -77h-126l134 147h74z" />
<glyph unicode="&#xeb;" horiz-adv-x="509" d="M417 116l28 -89q-67 -39 -164 -39q-121 0 -183.5 68t-62.5 187q0 111 59.5 181.5t174.5 70.5q96 0 150.5 -57.5t54.5 -148.5q0 -49 -14 -91h-299q11 -57 47 -84.5t87 -27.5q65 0 122 30zM354 273v13q0 116 -84 116q-48 0 -77.5 -34.5t-34.5 -94.5h196zM214 614 q0 -26 -18 -44.5t-49 -18.5t-49 18.5t-18 44.5t18 44.5t49 18.5t49 -18.5t18 -44.5zM428 614q0 -26 -18 -44.5t-49 -18.5t-49 18.5t-18 44.5t18 44.5t49 18.5t49 -18.5t18 -44.5z" />
<glyph unicode="&#xec;" horiz-adv-x="264" d="M196 0h-128v483h128v-483zM217 536l-205 105l67 96l173 -147z" />
<glyph unicode="&#xed;" horiz-adv-x="264" d="M196 0h-128v483h128v-483zM253 641l-205 -105l-35 54l173 147z" />
<glyph unicode="&#xee;" horiz-adv-x="264" d="M196 0h-128v483h128v-483zM304 539h-126l-45 77l-45 -77h-126l134 147h74z" />
<glyph unicode="&#xef;" horiz-adv-x="264" d="M196 0h-128v483h128v-483zM93 614q0 -26 -18 -44.5t-49 -18.5t-49 18.5t-18 44.5t18 44.5t49 18.5t49 -18.5t18 -44.5zM307 614q0 -26 -18 -44.5t-49 -18.5t-49 18.5t-18 44.5t18 44.5t49 18.5t49 -18.5t18 -44.5z" />
<glyph unicode="&#xf0;" horiz-adv-x="561" d="M395 417h2q-24 62 -103 129l-101 -47l-25 55l69 33q-44 28 -97 46l43 75q75 -26 145 -78l119 56l28 -55l-96 -45q146 -134 146 -343q0 -115 -66.5 -185t-178.5 -70q-109 0 -177 67.5t-68 172.5q0 101 67 174t158 73q81 0 135 -58zM280 86q53 0 89 46.5t36 101.5 q0 62 -32.5 102.5t-90.5 40.5q-56 0 -89.5 -41.5t-33.5 -105.5q0 -62 32.5 -103t88.5 -41z" />
<glyph unicode="&#xf1;" horiz-adv-x="574" d="M510 0h-128v300q0 47 -16.5 70t-53.5 23q-64 0 -118 -64v-329h-128v483h114l14 -63q68 75 160 75q72 0 114 -50.5t42 -140.5v-304zM377 672h75q0 -54 -24 -87t-66 -33q-39 0 -79 25t-54 25q-33 0 -33 -45h-74q0 53 24 86.5t68 33.5q37 0 78 -25t53 -25q19 0 25.5 11 t6.5 34z" />
<glyph unicode="&#xf2;" horiz-adv-x="554" d="M277 86q57 0 85.5 41t28.5 115t-28.5 114.5t-85.5 40.5t-85.5 -40.5t-28.5 -114.5t28.5 -115t85.5 -41zM277 -12q-117 0 -179.5 71.5t-62.5 182.5t62.5 182t179.5 71t179.5 -71t62.5 -182t-62.5 -182.5t-179.5 -71.5zM362 536l-205 105l67 96l173 -147z" />
<glyph unicode="&#xf3;" horiz-adv-x="554" d="M277 86q57 0 85.5 41t28.5 115t-28.5 114.5t-85.5 40.5t-85.5 -40.5t-28.5 -114.5t28.5 -115t85.5 -41zM277 -12q-117 0 -179.5 71.5t-62.5 182.5t62.5 182t179.5 71t179.5 -71t62.5 -182t-62.5 -182.5t-179.5 -71.5zM397 641l-205 -105l-35 54l173 147z" />
<glyph unicode="&#xf4;" horiz-adv-x="554" d="M277 86q57 0 85.5 41t28.5 115t-28.5 114.5t-85.5 40.5t-85.5 -40.5t-28.5 -114.5t28.5 -115t85.5 -41zM277 -12q-117 0 -179.5 71.5t-62.5 182.5t62.5 182t179.5 71t179.5 -71t62.5 -182t-62.5 -182.5t-179.5 -71.5zM448 539h-126l-45 77l-45 -77h-126l134 147h74z" />
<glyph unicode="&#xf5;" horiz-adv-x="554" d="M277 86q57 0 85.5 41t28.5 115t-28.5 114.5t-85.5 40.5t-85.5 -40.5t-28.5 -114.5t28.5 -115t85.5 -41zM277 -12q-117 0 -179.5 71.5t-62.5 182.5t62.5 182t179.5 71t179.5 -71t62.5 -182t-62.5 -182.5t-179.5 -71.5zM367 672h75q0 -54 -24 -87t-66 -33q-39 0 -79 25 t-54 25q-33 0 -33 -45h-74q0 53 24 86.5t68 33.5q37 0 78 -25t53 -25q19 0 25.5 11t6.5 34z" />
<glyph unicode="&#xf6;" horiz-adv-x="554" d="M277 86q57 0 85.5 41t28.5 115t-28.5 114.5t-85.5 40.5t-85.5 -40.5t-28.5 -114.5t28.5 -115t85.5 -41zM277 -12q-117 0 -179.5 71.5t-62.5 182.5t62.5 182t179.5 71t179.5 -71t62.5 -182t-62.5 -182.5t-179.5 -71.5zM237 614q0 -26 -18 -44.5t-49 -18.5t-49 18.5 t-18 44.5t18 44.5t49 18.5t49 -18.5t18 -44.5zM451 614q0 -26 -18 -44.5t-49 -18.5t-49 18.5t-18 44.5t18 44.5t49 18.5t49 -18.5t18 -44.5z" />
<glyph unicode="&#xf7;" horiz-adv-x="590" d="M510 233h-430v102h430v-102zM376 107q0 -32 -22 -55t-59 -23t-59 23t-22 55t22 55t59 23t59 -23t22 -55zM376 463q0 -32 -22 -55t-59 -23t-59 23t-22 55t22 55t59 23t59 -23t22 -55z" />
<glyph unicode="&#xf8;" horiz-adv-x="554" d="M136 -40h-81l55 86q-75 69 -75 196q0 111 62.5 182t179.5 71q64 0 109 -22l32 50h81l-56 -87q76 -70 76 -194q0 -111 -62.5 -182.5t-179.5 -71.5q-59 0 -109 21zM178 151l151 234q-21 12 -52 12q-57 0 -85.5 -40.5t-28.5 -114.5q0 -54 15 -91zM376 332l-151 -234 q21 -12 52 -12q57 0 85.5 41t28.5 115q0 54 -15 90z" />
<glyph unicode="&#xf9;" horiz-adv-x="565" d="M499 0h-114l-14 63q-19 -30 -57.5 -52.5t-81.5 -22.5q-81 0 -124.5 46.5t-43.5 136.5v312h128v-308q0 -45 18 -65t57 -20q55 0 104 64v329h128v-483zM367 536l-205 105l67 96l173 -147z" />
<glyph unicode="&#xfa;" horiz-adv-x="565" d="M499 0h-114l-14 63q-19 -30 -57.5 -52.5t-81.5 -22.5q-81 0 -124.5 46.5t-43.5 136.5v312h128v-308q0 -45 18 -65t57 -20q55 0 104 64v329h128v-483zM402 641l-205 -105l-35 54l173 147z" />
<glyph unicode="&#xfb;" horiz-adv-x="565" d="M499 0h-114l-14 63q-19 -30 -57.5 -52.5t-81.5 -22.5q-81 0 -124.5 46.5t-43.5 136.5v312h128v-308q0 -45 18 -65t57 -20q55 0 104 64v329h128v-483zM453 539h-126l-45 77l-45 -77h-126l134 147h74z" />
<glyph unicode="&#xfc;" horiz-adv-x="565" d="M499 0h-114l-14 63q-19 -30 -57.5 -52.5t-81.5 -22.5q-81 0 -124.5 46.5t-43.5 136.5v312h128v-308q0 -45 18 -65t57 -20q55 0 104 64v329h128v-483zM242 614q0 -26 -18 -44.5t-49 -18.5t-49 18.5t-18 44.5t18 44.5t49 18.5t49 -18.5t18 -44.5zM456 614q0 -26 -18 -44.5 t-49 -18.5t-49 18.5t-18 44.5t18 44.5t49 18.5t49 -18.5t18 -44.5z" />
<glyph unicode="&#xfd;" horiz-adv-x="565" d="M373 33v42q-19 -30 -57.5 -52.5t-83.5 -22.5q-81 0 -124.5 46.5t-43.5 136.5v300h128v-296q0 -45 18 -65t57 -20q55 0 104 64v317h128v-444q0 -123 -65.5 -182.5t-174.5 -59.5q-115 0 -188 48l32 99q62 -40 140 -40q65 0 97.5 30t32.5 99zM402 641l-205 -105l-35 54 l173 147z" />
<glyph unicode="&#xfe;" horiz-adv-x="571" d="M194 329v-102q0 -62 29 -99.5t75 -37.5q49 0 79 38t30 121q0 67 -27.5 105.5t-73.5 38.5q-61 0 -112 -64zM194 -191h-128v865h128v-254q22 29 63.5 52t88.5 23q91 0 140 -71.5t49 -174.5q0 -121 -57.5 -191t-141.5 -70q-88 0 -142 75v-254z" />
<glyph unicode="&#xff;" horiz-adv-x="565" d="M373 33v42q-19 -30 -57.5 -52.5t-83.5 -22.5q-81 0 -124.5 46.5t-43.5 136.5v300h128v-296q0 -45 18 -65t57 -20q55 0 104 64v317h128v-444q0 -123 -65.5 -182.5t-174.5 -59.5q-115 0 -188 48l32 99q62 -40 140 -40q65 0 97.5 30t32.5 99zM242 614q0 -26 -18 -44.5 t-49 -18.5t-49 18.5t-18 44.5t18 44.5t49 18.5t49 -18.5t18 -44.5zM456 614q0 -26 -18 -44.5t-49 -18.5t-49 18.5t-18 44.5t18 44.5t49 18.5t49 -18.5t18 -44.5z" />
<glyph unicode="&#x131;" horiz-adv-x="264" d="M196 0h-128v483h128v-483z" />
<glyph unicode="&#x141;" horiz-adv-x="520" d="M498 0h-428v268l-62 -27v94l62 27v312l130 1v-257l144 62v-94l-144 -62v-212h298v-112z" />
<glyph unicode="&#x142;" horiz-adv-x="264" d="M200 0h-130v268l-63 -27v94l63 27v312h130v-256l57 25v-94l-57 -25v-324z" />
<glyph unicode="&#x152;" horiz-adv-x="1020" d="M980 0h-442v74q-73 -86 -197 -86q-145 0 -225 97.5t-80 251.5q0 155 80.5 252t228.5 97q132 0 193 -86v74h436v-110h-312v-165h293v-110h-293v-179h318v-110zM351 94q90 0 137.5 63.5t47.5 179.5t-47.5 179.5t-137.5 63.5t-137.5 -63.5t-47.5 -179.5t47.5 -179.5 t137.5 -63.5z" />
<glyph unicode="&#x153;" horiz-adv-x="841" d="M749 116l28 -89q-67 -39 -164 -39q-121 0 -180 70q-46 -70 -156 -70q-117 0 -179.5 71.5t-62.5 182.5t62.5 182t179.5 71q108 0 157 -68q61 68 167 68q96 0 150.5 -57.5t54.5 -148.5q0 -49 -14 -91h-299q11 -57 47 -84.5t87 -27.5q65 0 122 30zM380 143q-13 42 -13 100 q0 54 13 96q-30 58 -98 58q-57 0 -88 -41t-31 -114t31 -114.5t88 -41.5q68 0 98 57zM686 273v13q0 116 -84 116q-48 0 -77.5 -34.5t-34.5 -94.5h196z" />
<glyph unicode="&#x160;" horiz-adv-x="539" d="M34 39l33 106q85 -48 172 -48q60 0 97.5 23.5t37.5 68.5q0 17 -8 31t-15.5 22.5t-30 19t-31.5 14t-38 13.5q-9 3 -14 5q-40 13 -67.5 25.5t-61.5 36t-52 60.5t-18 85q0 82 59 133.5t179 51.5q109 0 195 -44l-33 -100q-78 35 -155 35q-58 0 -88 -20t-30 -54 q0 -41 33 -63.5t95 -42.5q29 -10 49.5 -18t47 -21t44 -28.5t34 -36t25 -47.5t8.5 -59q0 -97 -69.5 -148t-182.5 -51q-126 0 -215 51zM306 735h-74l-134 147h126l45 -77l45 77h126z" />
<glyph unicode="&#x161;" horiz-adv-x="446" d="M36 25l29 96q66 -34 141 -34q79 0 79 47q0 27 -23.5 42t-72.5 30q-72 21 -110 53.5t-38 95.5q0 65 51 102.5t139 37.5q100 0 166 -35l-29 -94q-58 30 -130 30t-72 -41q0 -20 17 -32t54 -25q91 -30 132 -66t41 -102q0 -63 -52.5 -102.5t-146.5 -39.5q-103 0 -175 37z M260 539h-74l-134 147h126l45 -77l45 77h126z" />
<glyph unicode="&#x178;" horiz-adv-x="596" d="M363 0h-130v287l-225 387h141l150 -276l148 276h141l-225 -387v-287zM258 810q0 -26 -18 -44.5t-49 -18.5t-49 18.5t-18 44.5t18 44.5t49 18.5t49 -18.5t18 -44.5zM472 810q0 -26 -18 -44.5t-49 -18.5t-49 18.5t-18 44.5t18 44.5t49 18.5t49 -18.5t18 -44.5z" />
<glyph unicode="&#x17d;" horiz-adv-x="557" d="M517 0h-485v80l320 486l-294 -2v110h455v-80l-319 -484l323 2v-112zM315 735h-74l-134 147h126l45 -77l45 77h126z" />
<glyph unicode="&#x17e;" horiz-adv-x="458" d="M420 0h-386v66l222 327h-204v90h360v-66l-222 -327h230v-90zM266 539h-74l-134 147h126l45 -77l45 77h126z" />
<glyph unicode="&#x192;" horiz-adv-x="590" d="M467 307h-133l-28 -213q-24 -172 -193 -172q-67 0 -113 28l37 77q19 -13 57 -13q76 0 87 81l28 212h-74v90h87l17 117q24 172 193 172q67 0 113 -28l-37 -77q-19 13 -57 13q-76 0 -87 -81l-17 -116h120v-90z" />
<glyph unicode="&#x2c6;" horiz-adv-x="330" d="M336 539h-126l-45 77l-45 -77h-126l134 147h74z" />
<glyph unicode="&#x2c7;" horiz-adv-x="330" d="M202 539h-74l-134 147h126l45 -77l45 77h126z" />
<glyph unicode="&#x2d8;" horiz-adv-x="330" d="M232 702h98q-14 -144 -165 -144t-165 144h98q11 -48 67 -48t67 48z" />
<glyph unicode="&#x2d9;" horiz-adv-x="330" d="M236 614q0 -28 -18.5 -47.5t-52.5 -19.5t-52.5 19.5t-18.5 47.5t18.5 47.5t52.5 19.5t52.5 -19.5t18.5 -47.5z" />
<glyph unicode="&#x2da;" horiz-adv-x="330" d="M268 633q0 -41 -30 -69.5t-73 -28.5t-73 28.5t-30 69.5t30 69.5t73 28.5t73 -28.5t30 -69.5zM165 598q29 0 29 35t-29 35t-29 -35t29 -35z" />
<glyph unicode="&#x2db;" horiz-adv-x="330" d="M299 -148h-133l-52 150h79z" />
<glyph unicode="&#x2dc;" horiz-adv-x="330" d="M255 672h75q0 -54 -24 -87t-66 -33q-39 0 -79 25t-54 25q-33 0 -33 -45h-74q0 53 24 86.5t68 33.5q37 0 78 -25t53 -25q19 0 25.5 11t6.5 34z" />
<glyph unicode="&#x2dd;" horiz-adv-x="330" d="M110 548h-73l76 143h117zM286 548h-73l76 143h117z" />
<glyph unicode="&#x3a9;" horiz-adv-x="758" d="M663 0h-246v68q67 44 120 123.5t53 173.5q0 95 -61 153.5t-149 58.5q-89 0 -150.5 -58.5t-61.5 -153.5t53 -175t120 -122v-68h-246v92h117q-56 45 -104 124.5t-48 163.5q0 136 91 220t228 84t228 -84t91 -220q0 -84 -48 -163.5t-104 -124.5h117v-92z" />
<glyph unicode="&#x3c0;" horiz-adv-x="642" d="M576 97l26 -84q-40 -25 -98 -25q-135 0 -135 147v250h-101v-181q0 -56 -9.5 -116.5t-27.5 -87.5h-129q22 37 34.5 99.5t12.5 104.5v179q-59 -10 -95 -27l-19 91q22 15 63.5 26t75.5 11h423v-99h-109v-256q0 -47 40 -47q19 0 48 15z" />
<glyph unicode="&#xe00;" horiz-adv-x="195" />
<glyph unicode="&#xe01;" horiz-adv-x="622" d="M557 0h-130v348q0 59 -32 89.5t-89 30.5q-41 0 -79 -20.5t-52 -47.5l70 -57v-23q-49 -22 -49 -85v-235h-130v234q0 64 53 96l-81 66q22 70 97 123t174 53q117 0 182.5 -61.5t65.5 -162.5v-348z" />
<glyph unicode="&#xe02;" horiz-adv-x="567" d="M372 194v366h130v-365q0 -207 -226 -207t-226 199v52q0 36 22.5 69.5t45 61.5t22.5 51v14q0 23 -23 23h-61v102h77q74 0 102.5 -27.5t28.5 -86.5v-25q0 -39 -42 -93.5t-42 -88.5v-53q0 -96 96 -96t96 104z" />
<glyph unicode="&#xe03;" horiz-adv-x="576" d="M381 194v366h130v-365q0 -207 -226 -207t-226 199v66q0 35 25 71t50 66t25 52v14q0 16 -15 16q-19 0 -33 -41l-87 44v98l85 -43q30 38 85 38q44 0 67.5 -26.5t23.5 -74.5v-19q0 -33 -24 -66t-48 -65.5t-24 -63.5v-67q0 -96 96 -96t96 104z" />
<glyph unicode="&#xe04;" horiz-adv-x="638" d="M573 0h-130v347q0 53 -33 87t-91 34t-91 -34t-33 -87v-99q28 55 106 55h56v-108h-59q-84 0 -103 -68v-127h-130v348q0 97 69 160.5t185 63.5t185 -63.5t69 -160.5v-348z" />
<glyph unicode="&#xe05;" horiz-adv-x="648" d="M583 0h-130v389q0 60 -45 69l-84 -52l-84 52q-45 -9 -45 -69v-141q28 55 108 55h58v-108h-61q-86 0 -105 -68v-127h-130v388q0 148 153 184l106 -65l106 65q153 -36 153 -184v-388z" />
<glyph unicode="&#xe06;" horiz-adv-x="615" d="M420 207v353h130v-359q0 -105 -49 -159t-140 -54q-52 0 -95 24t-69 57l-14 -69h-116v253q0 35 23 71t46 66t23 52v14q0 16 -15 16q-19 0 -33 -41l-87 44v98l85 -43q30 38 85 38q44 0 67.5 -26.5t23.5 -74.5v-13q0 -36 -22 -70.5t-44 -67t-22 -63.5v-70q19 -40 54.5 -65.5 t77.5 -25.5q91 0 91 115z" />
<glyph unicode="&#xe07;" horiz-adv-x="567" d="M272 0h-103l-169 560h128l137 -456h11q50 0 86.5 55t36.5 141q0 168 -105 168q-32 0 -67 -13l-19 95q40 22 108 22q93 0 153 -73t60 -199q0 -138 -71.5 -219t-185.5 -81z" />
<glyph unicode="&#xe08;" horiz-adv-x="547" d="M265 0h-106l-50 198q-5 23 -29 23h-37v104h73q42 0 66 -15.5t35 -57.5l37 -148h11q47 6 80.5 58t33.5 135q0 171 -143 171q-108 0 -192 -73l-40 93q92 84 239 84q128 0 197 -72.5t69 -203.5q0 -122 -72 -209t-172 -87z" />
<glyph unicode="&#xe09;" horiz-adv-x="598" d="M533 0h-116l-14 69q-59 -81 -164 -81q-157 0 -157 175v36q0 22 -19 22h-29v104h79q99 0 99 -96v-60q0 -44 18 -60.5t51 -16.5q89 0 122 91v152q0 133 -126 133q-106 0 -202 -74l-47 96q120 82 254 82q124 0 187.5 -61.5t63.5 -175.5v-335z" />
<glyph unicode="&#xe0a;" horiz-adv-x="567" d="M504 295v-100q0 -207 -227 -207t-227 199v52q0 36 22.5 69.5t45 61.5t22.5 51v14q0 23 -23 23h-61v102h77q74 0 102.5 -27.5t28.5 -86.5v-25q0 -39 -42 -93.5t-42 -88.5v-53q0 -96 97 -96t97 104v104q0 32 -10.5 46t-33.5 14h-15l-20 48l106 154h136l-113 -145 q39 -12 59.5 -44.5t20.5 -75.5z" />
<glyph unicode="&#xe0b;" horiz-adv-x="574" d="M511 295v-100q0 -207 -226 -207t-226 199v66q0 35 25 71t50 66t25 52v14q0 16 -15 16q-19 0 -33 -41l-87 44v98l85 -43q30 38 85 38q44 0 67.5 -26.5t23.5 -74.5v-19q0 -33 -24 -66t-48 -65.5t-24 -63.5v-67q0 -96 96 -96t96 104v104q0 32 -10.5 46t-33.5 14h-15l-20 48 l106 154h136l-113 -145q39 -12 59.5 -44.5t20.5 -75.5z" />
<glyph unicode="&#xe0c;" horiz-adv-x="936" d="M741 207v353h130v-359q0 -103 -47 -158t-126 -55q-52 0 -95 24t-69 57l-14 -69h-116v348q0 59 -29.5 89.5t-80.5 30.5q-38 0 -71 -20t-48 -48l70 -57v-23q-49 -22 -49 -85v-117q0 -16 15 -16h58v-102h-88q-57 0 -86 29t-29 81v124q0 64 53 96l-81 66q22 71 93 123.5 t166 52.5q112 0 174.5 -61.5t62.5 -162.5v-165q19 -39 53 -65t71 -26q83 0 83 115z" />
<glyph unicode="&#xe0d;" horiz-adv-x="934" d="M741 33v48q-25 -32 -68 -56.5t-89 -24.5q-86 0 -133 48t-47 147v153q0 59 -29.5 89.5t-80.5 30.5q-38 0 -71 -20t-48 -48l70 -57v-23q-49 -22 -49 -85v-117q0 -16 15 -16h58v-102h-88q-57 0 -86 29t-29 81v124q0 64 53 96l-81 66q22 71 93 123.5t166 52.5 q112 0 174.5 -61.5t62.5 -162.5v-147q0 -52 18.5 -74.5t55.5 -22.5q43 0 77.5 25.5t53.5 65.5v365h130v-521q0 -104 -68 -158t-176 -54q-110 0 -201 47l32 89q76 -39 158 -39q61 0 94 24.5t33 84.5z" />
<glyph unicode="&#xe0e;" horiz-adv-x="630" d="M565 -200h-136q-22 22 -56.5 37t-65.5 15q-85 0 -155 -58l-35 102q66 63 170 63q43 0 84.5 -16.5t63.5 -41.5v447q0 59 -32 89.5t-90 30.5q-42 0 -79 -20t-53 -48l78 -60v-22q-43 -23 -43 -83v-125q0 -52 -29 -81t-86 -29h-76v102h46q15 0 15 16v116q0 62 49 92l-91 70 q21 71 96.5 123.5t175.5 52.5q119 0 184 -61t65 -163v-548z" />
<glyph unicode="&#xe0f;" horiz-adv-x="630" d="M565 -200h-134l-97 61q-47 -69 -126 -69q-69 0 -119 29l33 102q46 -29 89 -29q85 0 105 80l119 -78v452q0 59 -32 89.5t-90 30.5q-42 0 -79 -20t-53 -48l78 -60v-22q-43 -23 -43 -83v-125q0 -52 -29 -81t-86 -29h-76v102h46q15 0 15 16v116q0 62 49 92l-91 70 q21 71 96.5 123.5t175.5 52.5q119 0 184 -61t65 -163v-548z" />
<glyph unicode="&#xe10;" horiz-adv-x="547" d="M265 0h-106l-50 198q-5 23 -29 23h-37v104h73q42 0 66 -15.5t35 -57.5l37 -148h11q47 6 80.5 58t33.5 135t-38 127t-105 44q-108 0 -192 -73l-40 93q92 84 239 84q58 0 106 -22l42 49h143l-93 -111q68 -77 68 -192q0 -122 -72 -209t-172 -87zM468 -200h-138 q-72 0 -102 52q-12 -24 -40 -38t-59 -14h-78v100h77q68 0 100 50q39 -50 92 -50h32v57h116v-157z" />
<glyph unicode="&#xe11;" horiz-adv-x="632" d="M566 0h-130v381q0 48 -14 67.5t-47 19.5q-69 0 -123.5 -74t-54.5 -155v-239h-130v234q0 53 28.5 108.5t63.5 86.5v27q0 16 -15 16q-19 0 -33 -41l-87 44v98l85 -43q30 38 85 38q65 0 76 -62q57 66 141 66q67 0 111 -46t44 -139v-387z" />
<glyph unicode="&#xe12;" horiz-adv-x="995" d="M800 207v353h130v-359q0 -105 -47 -159t-137 -54q-52 0 -94.5 24t-68.5 57l-14 -69h-116v389q0 60 -45 69l-80 -48l-76 46q-82 -42 -82 -183q0 -91 35 -134t81 -43q41 0 75 15l23 -94q-41 -25 -110 -25q-101 0 -167.5 71.5t-66.5 210.5q0 108 53.5 191t143.5 107l91 -63 l102 63q153 -36 153 -184v-205q19 -40 54.5 -65.5t76.5 -25.5q46 0 66 28t20 87z" />
<glyph unicode="&#xe13;" horiz-adv-x="936" d="M869 0h-116l-14 69q-23 -34 -63.5 -57.5t-92.5 -23.5q-85 0 -132 48.5t-47 146.5v165q0 59 -29.5 89.5t-80.5 30.5q-38 0 -71 -20t-48 -48l70 -57v-23q-49 -22 -49 -85v-117q0 -16 15 -16h58v-102h-88q-57 0 -86 29t-29 81v124q0 64 53 96l-81 66q22 71 93 123.5 t166 52.5q112 0 174.5 -61.5t62.5 -162.5v-159q0 -52 18.5 -74.5t55.5 -22.5q43 0 77.5 25.5t53.5 65.5v377h130v-560z" />
<glyph unicode="&#xe14;" horiz-adv-x="646" d="M581 0h-130v339q0 59 -34.5 94t-94.5 35q-72 0 -112 -52t-40 -143t35 -134t81 -43q41 0 75 15l23 -94q-41 -25 -110 -25q-98 0 -166 71.5t-68 209.5q0 131 74 215t205 84q124 0 193 -65.5t69 -168.5v-338z" />
<glyph unicode="&#xe15;" horiz-adv-x="656" d="M591 0h-130v389q0 60 -45 69l-84 -48l-80 46q-82 -42 -82 -183q0 -91 35 -134t81 -43q41 0 75 15l23 -94q-41 -25 -110 -25q-101 0 -167.5 71.5t-66.5 210.5q0 108 53.5 191t143.5 107l95 -63l106 63q153 -36 153 -184v-388z" />
<glyph unicode="&#xe16;" horiz-adv-x="623" d="M558 0h-130v348q0 59 -32.5 89.5t-89.5 30.5q-41 0 -79 -20.5t-52 -47.5l70 -57v-23q-49 -22 -49 -85v-117q0 -16 15 -16h58v-102h-88q-57 0 -86 29t-29 81v124q0 64 53 96l-81 66q22 70 97 123t174 53q118 0 183.5 -61.5t65.5 -162.5v-348z" />
<glyph unicode="&#xe17;" horiz-adv-x="631" d="M566 0h-130v361q0 55 -17.5 81t-58.5 26q-91 0 -163 -84v-384h-130v560h116l14 -69q95 81 192 81q80 0 128.5 -54t48.5 -151v-367z" />
<glyph unicode="&#xe18;" horiz-adv-x="567" d="M521 206v-32q0 -93 -58.5 -138t-181.5 -45q-128 0 -184 43t-56 141v53h124v-53q0 -47 27 -67t89 -20t89 20.5t27 65.5v35q0 37 -40 43l-170 24q-149 21 -149 141q0 72 63 113.5t177 41.5q129 0 220 -47l-23 -96q-84 46 -195 46q-56 0 -87 -15.5t-31 -39.5q0 -37 50 -45 l167 -24q71 -10 106.5 -44t35.5 -101z" />
<glyph unicode="&#xe19;" horiz-adv-x="621" d="M554 0h-116l-14 69q-63 -81 -165 -81q-89 0 -141.5 51t-52.5 152v369h130v-363q0 -105 93 -105q42 0 79.5 25.5t56.5 65.5v377h130v-560z" />
<glyph unicode="&#xe1a;" horiz-adv-x="624" d="M429 213v347h130v-347q0 -112 -64 -168.5t-183 -56.5t-183 56.5t-64 168.5v347h130v-347q0 -57 31 -89t86 -32t86 32t31 89z" />
<glyph unicode="&#xe1b;" horiz-adv-x="624" d="M429 213v537h130v-537q0 -112 -64 -168.5t-183 -56.5t-183 56.5t-64 168.5v347h130v-347q0 -57 31 -89t86 -32t86 32t31 89z" />
<glyph unicode="&#xe1c;" horiz-adv-x="686" d="M619 0h-142l-89 192q-27 57 -42 120h-2q-15 -63 -42 -120l-93 -192h-142v450q0 52 29 81t86 29h82v-102h-58q-15 0 -15 -16v-131q0 -95 -16 -195h3q21 87 54 150l73 137h80l69 -137q33 -63 54 -150h3q-16 100 -16 195v249h124v-560z" />
<glyph unicode="&#xe1d;" horiz-adv-x="686" d="M619 0h-142l-89 192q-27 57 -42 120h-2q-15 -63 -42 -120l-93 -192h-142v450q0 52 29 81t86 29h82v-102h-58q-15 0 -15 -16v-131q0 -95 -16 -195h3q21 87 54 150l73 137h80l69 -137q33 -63 54 -150h3q-16 100 -16 195v439h124v-750z" />
<glyph unicode="&#xe1e;" horiz-adv-x="745" d="M625 0h-143l-74 256q-22 78 -34 178h-3q-12 -100 -34 -178l-74 -256h-143l-95 560h127l44 -275q14 -77 15 -185h3q11 119 29 185l69 247h121l69 -247q20 -89 29 -185h3q1 108 15 185l44 275h127z" />
<glyph unicode="&#xe1f;" horiz-adv-x="745" d="M634 0h-139l-79 256q-31 108 -39 178h-3q-13 -112 -32 -178l-79 -256h-143l-95 560h127l44 -275q14 -77 15 -185h3q8 92 34 185l67 247h121l74 -247q17 -52 34 -185h3q0 113 9 185l47 465h121z" />
<glyph unicode="&#xe20;" horiz-adv-x="630" d="M565 0h-130v348q0 59 -32 89.5t-90 30.5q-42 0 -79 -20t-53 -48l78 -60v-22q-43 -23 -43 -83v-125q0 -52 -29 -81t-86 -29h-76v102h46q15 0 15 16v116q0 62 49 92l-91 70q21 71 96.5 123.5t175.5 52.5q119 0 184 -61t65 -163v-348z" />
<glyph unicode="&#xe21;" horiz-adv-x="621" d="M426 207v353h130v-359q0 -104 -50.5 -158.5t-141.5 -54.5q-52 0 -96.5 24t-70.5 57l-14 -69h-116v560h130v-377q19 -39 56 -65t79 -26q94 0 94 115z" />
<glyph unicode="&#xe22;" horiz-adv-x="603" d="M408 217v343h130v-344q0 -107 -65 -167.5t-203 -60.5q-105 0 -167.5 48t-62.5 140q0 48 28 82.5t73 42.5q-39 9 -70 47.5t-31 85.5q0 58 41.5 96t111.5 38q71 0 116 -21l-13 -97q-33 13 -63 13q-68 0 -68 -50q0 -28 21 -44t49 -16h76l11 -100h-68q-41 0 -63.5 -20 t-22.5 -55q0 -40 29.5 -63t75.5 -23q66 0 100.5 33.5t34.5 91.5z" />
<glyph unicode="&#xe23;" horiz-adv-x="508" d="M40 36l31 99q78 -43 162 -43q109 0 109 61q0 21 -18 37.5t-38.5 25t-53.5 19.5q-7 2 -10 3q-89 29 -136.5 68t-47.5 112q0 66 59 110t151 44q106 0 203 -50l-34 -92q-71 38 -163 38q-90 0 -90 -49q0 -27 27.5 -42.5t91.5 -37.5q94 -31 139.5 -72t45.5 -116 q0 -74 -57.5 -118.5t-167.5 -44.5q-121 0 -203 48z" />
<glyph unicode="&#xe24;" horiz-adv-x="623" d="M558 -200h-130v548q0 59 -32.5 89.5t-89.5 30.5q-41 0 -79 -20.5t-52 -47.5l70 -57v-23q-49 -22 -49 -85v-117q0 -16 15 -16h58v-102h-88q-57 0 -86 29t-29 81v124q0 64 53 96l-81 66q22 70 97 123t174 53q118 0 183.5 -61.5t65.5 -162.5v-548z" />
<glyph unicode="&#xe25;" horiz-adv-x="596" d="M531 0h-127v245h-122q-60 0 -91.5 -17.5t-31.5 -59.5q0 -35 22.5 -56t57.5 -21q42 0 77 17l21 -95q-48 -22 -112 -22q-85 0 -139 45.5t-54 130.5q0 92 64 135t196 43h112v19q0 50 -28.5 79t-85.5 29q-107 0 -195 -65l-41 90q100 75 242 75q108 0 171.5 -57t63.5 -151 v-364z" />
<glyph unicode="&#xe26;" horiz-adv-x="630" d="M565 -200h-130v548q0 59 -32 89.5t-90 30.5q-42 0 -79 -20t-53 -48l78 -60v-22q-43 -23 -43 -83v-125q0 -52 -29 -81t-86 -29h-76v102h46q15 0 15 16v116q0 62 49 92l-91 70q21 71 96.5 123.5t175.5 52.5q119 0 184 -61t65 -163v-548z" />
<glyph unicode="&#xe27;" horiz-adv-x="529" d="M25 39l30 101q80 -48 157 -48q147 0 147 188q0 95 -38.5 141.5t-109.5 46.5q-80 0 -156 -54l-30 98q92 60 199 60q126 0 195.5 -74t69.5 -211q0 -148 -69.5 -223.5t-196.5 -75.5q-125 0 -198 51z" />
<glyph unicode="&#xe28;" horiz-adv-x="638" d="M573 0h-130v342q0 54 -33.5 90t-90.5 36q-58 0 -91 -34t-33 -87v-99q28 55 106 55h56v-108h-59q-84 0 -103 -68v-127h-130v348q0 97 69 160.5t185 63.5q51 0 98 -20l40 47h143l-89 -107q62 -58 62 -149v-343z" />
<glyph unicode="&#xe29;" horiz-adv-x="636" d="M625 274h-66v-61q0 -112 -64 -168.5t-183 -56.5t-183 56.5t-64 168.5v347h130v-347q0 -57 31 -89t86 -32t86 32t31 89v61h-119v101h119v185h130v-185h89z" />
<glyph unicode="&#xe2a;" horiz-adv-x="596" d="M531 0h-127v245h-122q-60 0 -91.5 -17.5t-31.5 -59.5q0 -35 22.5 -56t57.5 -21q42 0 77 17l21 -95q-48 -22 -112 -22q-85 0 -139 45.5t-54 130.5q0 92 64 135t196 43h112v19q0 45 -29.5 76.5t-84.5 31.5q-107 0 -195 -65l-41 90q100 75 242 75q52 0 84 -17l35 44h143 l-82 -98q55 -55 55 -137v-364z" />
<glyph unicode="&#xe2b;" horiz-adv-x="608" d="M594 0h-133l-79 239q-26 74 -87 79l-98 -84v-234h-130v560h130v-190l227 190h164l-204 -168q48 -14 75.5 -43.5t44.5 -77.5z" />
<glyph unicode="&#xe2c;" horiz-adv-x="686" d="M619 0h-142l-93 192q-27 57 -42 120h-2q-15 -63 -42 -120l-89 -192h-142v560h124v-249q0 -95 -16 -195h3q21 87 54 150l69 137h80l73 -137q33 -63 54 -150h3q-16 100 -16 195v130q0 70 -56 70h-13l-20 48l140 191h130l-149 -182q44 -9 68 -45t24 -92v-431z" />
<glyph unicode="&#xe2d;" horiz-adv-x="606" d="M268 221h-86q-18 0 -18 -19v-3q0 -107 119 -107q73 0 113 48.5t40 145.5q0 86 -44 134t-117 48q-103 0 -197 -72l-42 97q111 79 248 79q127 0 204.5 -76.5t77.5 -213.5q0 -145 -72 -219.5t-201 -74.5q-125 0 -190 57t-65 154v17q0 56 24.5 82.5t77.5 26.5h128v-104z" />
<glyph unicode="&#xe2e;" horiz-adv-x="606" d="M268 221h-86q-18 0 -18 -19v-3q0 -107 119 -107q73 0 113 48.5t40 145.5q0 83 -44 132.5t-117 49.5q-103 0 -197 -72l-42 97q111 79 248 79q54 0 99 -18l39 45h143l-85 -101q86 -83 86 -216q0 -145 -72 -219.5t-201 -74.5q-125 0 -190 57t-65 154v17q0 56 24.5 82.5 t77.5 26.5h128v-104z" />
<glyph unicode="&#xe2f;" horiz-adv-x="556" d="M491 0h-130v383q-21 -37 -61.5 -60.5t-89.5 -23.5q-84 0 -132 55.5t-48 144.5v61h128v-61q0 -98 72 -98q54 0 93.5 34.5t39.5 91.5v33h128v-560z" />
<glyph unicode="&#xe30;" horiz-adv-x="325" d="M283 334h-132q-51 0 -82 27.5t-31 86.5v46h120v-39q0 -23 23 -23h102v-98zM283 64h-132q-51 0 -82 27.5t-31 86.5v46h120v-39q0 -23 23 -23h102v-98z" />
<glyph unicode="&#xe31;" d="M54 630h-290q-51 0 -82 27.5t-31 86.5v50h120v-43q0 -23 23 -23h260v-98z" />
<glyph unicode="&#xe32;" horiz-adv-x="488" d="M423 0h-130v360q0 108 -90 108q-82 0 -166 -54l-33 93q99 65 210 65q101 0 155 -57.5t54 -158.5v-356z" />
<glyph unicode="&#xe33;" horiz-adv-x="488" d="M423 0h-130v360q0 108 -90 108q-82 0 -166 -54l-33 93q99 65 210 65q101 0 155 -57.5t54 -158.5v-356zM-19 726q0 -47 -33 -79t-80 -32q-46 0 -79 32t-33 79t33 79t79 32q47 0 80 -32t33 -79zM-132 687q17 0 28 11.5t11 28.5t-11 28t-28 11q-15 0 -26.5 -11t-11.5 -28 t11.5 -28.5t26.5 -11.5z" />
<glyph unicode="&#xe34;" d="M-65 630h-455v98h455v-98z" />
<glyph unicode="&#xe35;" d="M-65 630h-455v98h339v95h116v-193z" />
<glyph unicode="&#xe36;" d="M-142 630h-378v98h275q0 45 30 75t73 30t73 -29t30 -73q0 -43 -30 -72t-73 -29zM-142 696q15 0 25 10.5t10 25.5q0 16 -10 26t-25 10q-14 0 -24.5 -10t-10.5 -26q0 -15 10.5 -25.5t24.5 -10.5z" />
<glyph unicode="&#xe37;" d="M-65 630h-455v98h231v95h90v-100h44v100h90v-193z" />
<glyph unicode="&#xe38;" d="M-65 -281h-118v96q0 24 -24 24h-38v96h84q49 0 72.5 -21.5t23.5 -69.5v-125z" />
<glyph unicode="&#xe39;" d="M-65 -65v-112q0 -51 -39.5 -82t-110.5 -31t-109.5 31t-38.5 82v21h-58v91h170v-112q0 -32 36 -32t36 32v112h114z" />
<glyph unicode="&#xe3a;" d="M-47 -137q0 -32 -23.5 -55t-57.5 -23q-32 0 -56 23.5t-24 54.5q0 32 24 55.5t56 23.5q34 0 57.5 -23.5t23.5 -55.5z" />
<glyph unicode="&#xe3f;" horiz-adv-x="590" d="M322 -100h-64v100h-188v652h188v98h64v-99q98 -4 147.5 -50.5t49.5 -123.5q0 -86 -87 -132q113 -34 113 -154q0 -81 -57 -134.5t-166 -55.5v-101zM258 104v181h-64v-181h64zM322 282v-176q47 2 73 27.5t26 63.5q0 37 -25.5 60t-73.5 25zM258 387v161h-64v-161h64z M322 545v-156q33 2 54 24t21 57q0 31 -20.5 52.5t-54.5 22.5z" />
<glyph unicode="&#xe40;" horiz-adv-x="266" d="M198 0h-130v560h130v-560z" />
<glyph unicode="&#xe41;" horiz-adv-x="494" d="M198 0h-130v560h130v-560zM426 0h-130v560h130v-560z" />
<glyph unicode="&#xe42;" horiz-adv-x="302" d="M234 0h-131v600q0 72 -34 116.5t-84 62.5l-2 34q33 53 105 89t156 36q109 0 187 -46l-24 -100q-65 43 -157 43q-93 0 -138 -43q56 -27 89 -79t33 -121v-592z" />
<glyph unicode="&#xe43;" horiz-adv-x="302" d="M234 0h-131v515q0 38 18.5 77t41.5 65.5t41.5 57.5t18.5 55q0 28 -17 46.5t-51 18.5q-39 0 -68 -18t-61 -55l-48 79q76 97 204 97q77 0 123.5 -46t46.5 -112q0 -41 -18.5 -79.5t-40.5 -63.5t-40.5 -60t-18.5 -69v-508z" />
<glyph unicode="&#xe44;" horiz-adv-x="302" d="M234 0h-131v639q0 133 90 179h-193v103h329v-94q-95 -41 -95 -179v-648z" />
<glyph unicode="&#xe45;" horiz-adv-x="488" d="M423 -200h-130v560q0 108 -90 108q-82 0 -166 -54l-33 93q99 65 210 65q101 0 155 -57.5t54 -158.5v-556z" />
<glyph unicode="&#xe46;" horiz-adv-x="580" d="M515 -200h-130v622q0 52 -32 58l-81 -58l-90 59q-29 -10 -29 -57q0 -25 14 -40t31 -15q24 0 46 9l17 -88q-34 -19 -81 -19q-59 0 -101.5 39.5t-42.5 114.5q0 66 43.5 105t104.5 43l88 -62l87 61q75 -5 115.5 -49t40.5 -117v-606z" />
<glyph unicode="&#xe47;" d="M-99 630h-77q-53 0 -79 51q-26 -56 -92 -56q-60 0 -96 32t-36 90q0 52 39.5 89.5t108.5 37.5h231v-89h-228q-52 0 -52 -39q0 -18 12 -29.5t29 -11.5q20 0 33.5 12t17.5 31l63 1q8 -30 45 -30h81v-89z" />
<glyph unicode="&#xe48;" d="M-65 877h-116v164h116v-164z" />
<glyph unicode="&#xe49;" d="M26 877h-197q-23 0 -37 13t-14 35v25q0 15 -14 15h-58v93h101q64 0 64 -55v-19q0 -15 14 -15h141v-92z" />
<glyph unicode="&#xe4a;" d="M-59 877h-59l-6 15q8 11 8 33q0 29 -26 34l-47 -31l-48 28q-15 -5 -15 -31q0 -24 12 -50h-88q-20 32 -20 71q0 33 26 62.5t71 31.5l60 -45l56 46q40 -2 64 -29t24 -64q0 -19 -2 -24q25 26 25 89q0 24 -16 55h99q12 -26 12 -58q0 -53 -37.5 -93t-92.5 -40z" />
<glyph unicode="&#xe4b;" d="M16 947l-89 3l3 -73h-106l3 73l-89 -3v86l89 -3l-3 73h106l-3 -73l89 3v-86z" />
<glyph unicode="&#xe4c;" d="M-13 842h-86q-26 0 -26 -27v-35h-119v53q0 50 31 78t90 28h110v-97z" />
<glyph unicode="&#xe4d;" d="M-19 726q0 -47 -33 -79t-80 -32q-46 0 -79 32t-33 79t33 79t79 32q47 0 80 -32t33 -79zM-132 687q17 0 28 11.5t11 28.5t-11 28t-28 11q-15 0 -26.5 -11t-11.5 -28t11.5 -28.5t26.5 -11.5z" />
<glyph unicode="&#xe4e;" d="M-140 710v-66q-35 -20 -76 -20q-126 0 -126 99q0 46 34.5 73.5t99.5 18.5q-21 17 -21 42q0 21 18 36t56 15h82l18 -71h-82q-12 0 -12 -15q0 -13 36 -30l-21 -47q-36 12 -69 12q-19 0 -32.5 -7.5t-13.5 -20.5q0 -14 12 -23t32 -9q32 0 65 13z" />
<glyph unicode="&#xe4f;" horiz-adv-x="546" d="M273 26q-88 0 -150.5 63t-62.5 151t62 150.5t151 62.5t151 -62.5t62 -150.5t-62.5 -151t-150.5 -63zM273 71q71 0 120 49.5t49 119.5q0 69 -49.5 119t-119.5 50q-69 0 -119 -50t-50 -119q0 -70 50 -119.5t119 -49.5zM273 117q-52 0 -88 35.5t-36 86.5q0 52 36 88t87 36 q52 0 88 -36t36 -87t-36 -87t-87 -36zM273 190q20 0 34 14.5t14 35.5q0 20 -14.5 34t-34.5 14t-34.5 -14.5t-14.5 -34.5t14.5 -34.5t35.5 -14.5z" />
<glyph unicode="&#xe50;" horiz-adv-x="650" d="M482 242q0 70 -44.5 112.5t-113.5 42.5q-67 0 -111.5 -42.5t-44.5 -112.5t44.5 -113t111.5 -43q69 0 113.5 43t44.5 113zM610 242q0 -117 -81.5 -185.5t-203.5 -68.5t-203.5 68.5t-81.5 185.5t81.5 185t203.5 68t203.5 -68t81.5 -185z" />
<glyph unicode="&#xe51;" horiz-adv-x="663" d="M270 -113h-30l12 98h27q90 0 153 55t63 164q0 93 -48 143t-126 50q-70 0 -112.5 -36.5t-42.5 -98.5q0 -56 26 -87.5t69 -31.5q60 0 99 19l10 -87q-47 -28 -109 -28q-96 0 -159.5 55t-63.5 159q0 108 78 171t202 63q138 0 221.5 -78t83.5 -211q0 -152 -99.5 -235.5 t-253.5 -83.5z" />
<glyph unicode="&#xe52;" horiz-adv-x="751" d="M484 0h-217q-97 0 -151 55.5t-54 146.5v358h128v-358q0 -48 22.5 -76t59.5 -28h208q37 0 60 28t23 76v113q0 65 -40 78l-68 -46l-69 46q-13 -6 -22.5 -21.5t-9.5 -36.5q0 -26 16 -49t44 -32l-26 -73q-72 10 -113.5 52t-41.5 114q0 53 33 95t96 53l93 -68l85 68 q78 -11 114.5 -54.5t36.5 -127.5v-111q0 -91 -54.5 -146.5t-152.5 -55.5z" />
<glyph unicode="&#xe53;" horiz-adv-x="681" d="M621 0h-128v332q0 66 -43 66q-52 0 -52 -72v-146h-112v146q0 36 -9 54t-34 18q-36 0 -54.5 -41.5t-18.5 -109.5q0 -73 21.5 -116t60.5 -43q24 0 51 13l23 -79q-36 -30 -82 -30q-94 0 -148 67t-54 187q0 113 53 181t137 68q79 0 111 -72q40 72 127 72q67 0 109 -44.5 t42 -119.5v-331z" />
<glyph unicode="&#xe54;" horiz-adv-x="625" d="M581 0h-78q-80 0 -119 36q-42 -48 -126 -48q-96 0 -157 67t-61 181q0 120 74 183.5t196 63.5h109q34 0 46 10.5t12 30.5v36h126v-36q0 -139 -172 -139h-120q-143 0 -143 -148q0 -68 31 -109.5t77 -41.5q40 0 66 19q-23 32 -23 77q0 63 39.5 92t101.5 29h88l-21 -96h-41 q-19 0 -33 -13t-14 -35q0 -29 21.5 -46t64.5 -17h77z" />
<glyph unicode="&#xe55;" horiz-adv-x="625" d="M581 0h-78q-80 0 -119 36q-42 -48 -126 -48q-96 0 -157 67t-61 181q0 169 141 225q-5 18 -5 34q0 45 31 76t76 31q46 0 77.5 -30.5t31.5 -76.5q0 -2 -0.5 -6t-0.5 -6h28q34 0 46 10.5t12 30.5v36h126v-36q0 -139 -172 -139h-120q-143 0 -143 -148q0 -68 31 -109.5 t77 -41.5q40 0 66 19q-23 32 -23 77q0 63 39.5 92t101.5 29h88l-21 -96h-41q-19 0 -33 -13t-14 -35q0 -29 21.5 -46t64.5 -17h77zM283 461q15 0 25 10.5t10 24.5q0 15 -10 25t-25 10q-13 0 -23 -10t-10 -25q0 -14 10 -24.5t23 -10.5z" />
<glyph unicode="&#xe56;" horiz-adv-x="623" d="M176 340h-98l-78 230h129l36 -145q63 70 171 70q101 0 174 -68.5t73 -178.5q0 -109 -72 -184.5t-210 -75.5q-114 0 -177.5 49t-63.5 129q0 73 59 122l89 -64q-24 -30 -24 -59q0 -34 30.5 -56.5t87.5 -22.5q71 0 112 48t41 117q0 67 -39 106.5t-108 39.5q-86 0 -132 -57z " />
<glyph unicode="&#xe57;" horiz-adv-x="819" d="M568 0h-140v338q0 60 -36 60q-39 0 -39 -64v-34h-84v34q0 34 -8.5 49t-31.5 15q-59 0 -59 -151q0 -73 21.5 -116t60.5 -43q24 0 51 13l23 -79q-36 -30 -82 -30q-94 0 -148 67t-54 187q0 114 47.5 181.5t127.5 67.5q73 0 95 -64q30 64 112 64q59 0 91.5 -43.5t32.5 -120.5 v-245h17q68 0 68 81v393h124v-387q0 -81 -47.5 -127t-141.5 -46z" />
<glyph unicode="&#xe58;" horiz-adv-x="667" d="M467 -7l-118 84l-106 -83q-90 2 -137.5 47t-47.5 126v116q0 88 64 144t169 56h138q34 0 46 10.5t12 30.5v36h126v-36q0 -139 -172 -139h-144q-54 0 -82.5 -29t-28.5 -78v-98q0 -71 51 -76l111 79l119 -78q42 19 42 64q0 28 -18.5 45.5t-47.5 21.5l38 95q72 -11 111 -53.5 t39 -111.5q0 -66 -50.5 -118.5t-113.5 -54.5z" />
<glyph unicode="&#xe59;" horiz-adv-x="644" d="M541 0h-120l-119 338q-12 32 -24 45.5t-35 13.5q-35 0 -55 -40t-20 -107q0 -77 22 -119.5t55 -42.5q34 0 70 20l26 -86q-43 -32 -103 -32q-85 0 -141.5 70t-56.5 189q0 112 56.5 179t142.5 67q92 0 128 -68q1 30 21 49t52 19q53 0 74 -52l19 117h111l-42 -210h-96 q-14 52 -53 52q-17 0 -27.5 -12t-10.5 -30z" />
<glyph unicode="&#xe5b;" horiz-adv-x="1154" d="M1118 252l26 -68q-58 -18 -99 -18q-81 0 -126 73l-38 -123h-52l-58 156l-54 -174h-53l-55 154q-33 -93 -111.5 -151.5t-183.5 -58.5q-116 0 -186 70t-70 178q0 100 65 165.5t166 65.5q88 0 139.5 -60.5t53.5 -144.5h-90q-4 55 -31.5 88t-72.5 33q-60 0 -95 -43.5 t-35 -103.5q0 -73 46.5 -116t118.5 -43q56 0 102 29.5t74 77.5t44.5 101t19.5 107h61l65 -186l48 165h59l55 -156l42 133h54q2 -79 31.5 -121t75.5 -42q29 0 64 13z" />
<glyph unicode="&#x2000;" horiz-adv-x="551" />
<glyph unicode="&#x2001;" horiz-adv-x="1103" />
<glyph unicode="&#x2002;" horiz-adv-x="551" />
<glyph unicode="&#x2003;" horiz-adv-x="1103" />
<glyph unicode="&#x2004;" horiz-adv-x="367" />
<glyph unicode="&#x2005;" horiz-adv-x="275" />
<glyph unicode="&#x2006;" horiz-adv-x="183" />
<glyph unicode="&#x2007;" horiz-adv-x="183" />
<glyph unicode="&#x2008;" horiz-adv-x="137" />
<glyph unicode="&#x2009;" horiz-adv-x="220" />
<glyph unicode="&#x200a;" horiz-adv-x="61" />
<glyph unicode="&#x2010;" horiz-adv-x="330" d="M310 207h-290v102h290v-102z" />
<glyph unicode="&#x2011;" horiz-adv-x="330" d="M310 207h-290v102h290v-102z" />
<glyph unicode="&#x2012;" horiz-adv-x="330" d="M310 207h-290v102h290v-102z" />
<glyph unicode="&#x2013;" horiz-adv-x="536" d="M516 202h-496v93h496v-93z" />
<glyph unicode="&#x2014;" horiz-adv-x="976" d="M926 202h-876v93h876v-93z" />
<glyph unicode="&#x2018;" horiz-adv-x="228" d="M124 687l47 -18q-15 -20 -25.5 -47.5t-10.5 -42.5q0 -14 12 -14q21 0 32 -17t11 -42q0 -28 -17 -44.5t-47 -16.5q-74 0 -74 71q0 37 22 85.5t50 85.5z" />
<glyph unicode="&#x2019;" horiz-adv-x="228" d="M104 445l-47 18q15 20 25.5 47.5t10.5 42.5q0 14 -12 14q-21 0 -32 17t-11 42q0 28 17 44.5t47 16.5q74 0 74 -71q0 -37 -22 -85.5t-50 -85.5z" />
<glyph unicode="&#x201a;" horiz-adv-x="228" d="M104 -105l-47 18q15 20 25.5 47.5t10.5 42.5q0 14 -12 14q-21 0 -32 17t-11 42q0 28 17 44.5t47 16.5q74 0 74 -71q0 -37 -22 -85.5t-50 -85.5z" />
<glyph unicode="&#x201c;" horiz-adv-x="404" d="M124 687l47 -18q-15 -20 -25.5 -47.5t-10.5 -42.5q0 -14 12 -14q21 0 32 -17t11 -42q0 -28 -17 -44.5t-47 -16.5q-74 0 -74 71q0 37 22 85.5t50 85.5zM300 687l47 -18q-15 -20 -25.5 -47.5t-10.5 -42.5q0 -14 12 -14q21 0 32 -17t11 -42q0 -28 -17 -44.5t-47 -16.5 q-74 0 -74 71q0 37 22 85.5t50 85.5z" />
<glyph unicode="&#x201d;" horiz-adv-x="404" d="M280 445l-47 18q15 20 25.5 47.5t10.5 42.5q0 14 -12 14q-21 0 -32 17t-11 42q0 28 17 44.5t47 16.5q74 0 74 -71q0 -37 -22 -85.5t-50 -85.5zM104 445l-47 18q15 20 25.5 47.5t10.5 42.5q0 14 -12 14q-21 0 -32 17t-11 42q0 28 17 44.5t47 16.5q74 0 74 -71 q0 -37 -22 -85.5t-50 -85.5z" />
<glyph unicode="&#x201e;" horiz-adv-x="404" d="M280 -105l-47 18q15 20 25.5 47.5t10.5 42.5q0 14 -12 14q-21 0 -32 17t-11 42q0 28 17 44.5t47 16.5q74 0 74 -71q0 -37 -22 -85.5t-50 -85.5zM104 -105l-47 18q15 20 25.5 47.5t10.5 42.5q0 14 -12 14q-21 0 -32 17t-11 42q0 28 17 44.5t47 16.5q74 0 74 -71 q0 -37 -22 -85.5t-50 -85.5z" />
<glyph unicode="&#x2020;" horiz-adv-x="547" d="M337 0h-127v393h-166v90h166v191h127v-191h166v-90h-166v-393z" />
<glyph unicode="&#x2021;" horiz-adv-x="547" d="M337 -50h-127v191h-166v90h166v162h-166v90h166v191h127v-191h166v-90h-166v-162h166v-90h-166v-191z" />
<glyph unicode="&#x2022;" horiz-adv-x="324" d="M284 331q0 -50 -32 -83t-90 -33q-59 0 -90.5 33t-31.5 83q0 51 31.5 84t90.5 33t90.5 -33t31.5 -84z" />
<glyph unicode="&#x2026;" horiz-adv-x="786" d="M212 65q0 -32 -22 -55t-59 -23t-59 23t-22 55t22 55t59 23t59 -23t22 -55zM474 65q0 -32 -22 -55t-59 -23t-59 23t-22 55t22 55t59 23t59 -23t22 -55zM736 65q0 -32 -22 -55t-59 -23t-59 23t-22 55t22 55t59 23t59 -23t22 -55z" />
<glyph unicode="&#x202f;" horiz-adv-x="220" />
<glyph unicode="&#x2030;" horiz-adv-x="1142" d="M272 0h-119l367 660h119zM180 386q23 0 35.5 28t12.5 71t-12.5 71t-35.5 28t-35.5 -28t-12.5 -71t12.5 -71t35.5 -28zM180 308q-67 0 -108.5 51.5t-41.5 125.5t41.5 125.5t108.5 51.5t108.5 -51.5t41.5 -125.5t-41.5 -125.5t-108.5 -51.5zM612 66q23 0 35.5 28t12.5 71 t-12.5 71t-35.5 28t-35.5 -28t-12.5 -71t12.5 -71t35.5 -28zM612 -12q-67 0 -108.5 51.5t-41.5 125.5t41.5 125.5t108.5 51.5t108.5 -51.5t41.5 -125.5t-41.5 -125.5t-108.5 -51.5zM962 66q23 0 35.5 28t12.5 71t-12.5 71t-35.5 28t-35.5 -28t-12.5 -71t12.5 -71t35.5 -28z M962 -12q-67 0 -108.5 51.5t-41.5 125.5t41.5 125.5t108.5 51.5t108.5 -51.5t41.5 -125.5t-41.5 -125.5t-108.5 -51.5z" />
<glyph unicode="&#x2039;" horiz-adv-x="301" d="M271 62h-123l-128 180l128 180h123l-127 -180z" />
<glyph unicode="&#x203a;" horiz-adv-x="301" d="M153 62h-123l127 180l-127 180h123l128 -180z" />
<glyph unicode="&#x2044;" horiz-adv-x="486" d="M119 0h-119l367 660h119z" />
<glyph unicode="&#x205f;" horiz-adv-x="275" />
<glyph unicode="&#x20ac;" horiz-adv-x="590" d="M507 146l34 -102q-56 -56 -157 -56q-113 0 -179.5 71t-86.5 180h-76l20 64h48q-1 11 -1 34q0 24 1 36h-68l20 64h56q22 110 87.5 179.5t178.5 69.5q101 0 157 -56l-34 -102q-46 56 -114 56q-48 0 -89.5 -35.5t-58.5 -111.5h205l-20 -64h-194q-1 -12 -1 -36q0 -23 1 -34 h214l-20 -64h-185q17 -78 58.5 -113.5t89.5 -35.5q68 0 114 56z" />
<glyph unicode="&#x2113;" horiz-adv-x="415" d="M224 490v-154q20 35 28 51t19.5 58t11.5 89q0 37 -8 59.5t-20 22.5q-31 0 -31 -126zM333 109l27 -90q-49 -31 -118 -31q-140 0 -140 161l-52 -34l-50 71q63 37 102 71v233q0 97 42 152.5t117 55.5q55 0 94.5 -42.5t39.5 -121.5q0 -85 -45 -166.5t-122 -143.5v-71 q0 -34 10 -47t32 -13q35 0 63 16z" />
<glyph unicode="&#x2122;" horiz-adv-x="812" d="M205 294h-73v319l-112 -1v62h300v-62l-115 1v-319zM762 295h-73v189q0 31 6 73h-3q-13 -42 -25 -67l-61 -134h-75l-59 134q-18 38 -25 67h-3q0 -6 2.5 -31t2.5 -42v-189h-72v379h85l75 -170q18 -40 31 -83h1q11 35 32 83l76 170h85v-379z" />
<glyph unicode="&#x2126;" horiz-adv-x="758" d="M663 0h-246v68q67 44 120 123.5t53 173.5q0 95 -61 153.5t-149 58.5q-89 0 -150.5 -58.5t-61.5 -153.5t53 -175t120 -122v-68h-246v92h117q-56 45 -104 124.5t-48 163.5q0 136 91 220t228 84t228 -84t91 -220q0 -84 -48 -163.5t-104 -124.5h117v-92z" />
<glyph unicode="&#x212e;" horiz-adv-x="818" d="M646 126h72q-56 -68 -137.5 -103.5t-171.5 -35.5q-156 0 -264.5 95t-108.5 241q0 145 108.5 240.5t264.5 95.5q155 0 264 -94t109 -234v-22h-610v-183q28 -33 96 -72.5t140 -39.5q77 0 143.5 37t94.5 75zM646 337v182q-28 39 -94.5 75.5t-143.5 36.5q-72 0 -140 -39.5 t-96 -72.5v-182h474z" />
<glyph unicode="&#x2202;" horiz-adv-x="606" d="M412 289q-42 49 -107 49q-63 0 -101.5 -48.5t-38.5 -110.5q0 -83 70 -83q55 0 104 52.5t73 140.5zM206 519l-19 96q75 46 177 46q99 0 152.5 -59t53.5 -165q0 -53 -13 -112t-41 -119t-67.5 -107.5t-98 -77.5t-126.5 -30q-89 0 -139.5 48.5t-50.5 130.5q0 108 78.5 191.5 t192.5 83.5q32 0 59.5 -9.5t39.5 -18t35 -27.5q9 23 9 55q0 53 -28.5 81.5t-80.5 28.5q-75 0 -133 -36z" />
<glyph unicode="&#x2206;" horiz-adv-x="640" d="M452 101l-133 375l-136 -375h269zM620 0h-600l266 674h66z" />
<glyph unicode="&#x220f;" horiz-adv-x="619" d="M539 -47h-122v619h-215v-619h-122v721h459v-721z" />
<glyph unicode="&#x2211;" horiz-adv-x="555" d="M525 -48h-489v59l234 306l-216 295v62h453v-86h-299l200 -270l-213 -280h330v-86z" />
<glyph unicode="&#x2212;" horiz-adv-x="590" d="M510 233h-430v102h430v-102z" />
<glyph unicode="&#x221a;" horiz-adv-x="532" d="M304 -11h-104l-104 309h-84v91h162l77 -251l153 536h108z" />
<glyph unicode="&#x221e;" horiz-adv-x="780" d="M352 310q-52 73 -133 73q-40 0 -61.5 -19t-21.5 -53q0 -39 23.5 -64t61.5 -25q35 0 70.5 25t60.5 63zM428 310q51 -77 132 -77q41 0 62 21.5t21 56.5q0 36 -21 60t-63 24q-66 0 -131 -85zM389 246q-32 -39 -78.5 -65t-96.5 -26q-72 0 -118 42.5t-46 112.5q0 68 46 110.5 t119 42.5q99 0 176 -91q67 91 173 91q72 0 119 -42t47 -110q0 -67 -45 -111.5t-119 -44.5q-106 0 -177 91z" />
<glyph unicode="&#x222b;" horiz-adv-x="444" d="M26 -25l27 90q28 -16 63 -16q22 0 32 13t10 47v403q0 174 142 174q69 0 118 -31l-27 -90q-28 16 -63 16q-22 0 -32 -13t-10 -47v-403q0 -174 -142 -174q-69 0 -118 31z" />
<glyph unicode="&#x2248;" horiz-adv-x="590" d="M467 466l60 -61q-53 -118 -158 -118q-39 0 -96.5 35.5t-86.5 35.5q-45 0 -90 -71l-60 61q53 118 158 118q40 0 96 -35.5t87 -35.5q45 0 90 71zM467 276l60 -61q-53 -118 -158 -118q-39 0 -96.5 35.5t-86.5 35.5q-45 0 -90 -71l-60 61q53 118 158 118q40 0 96 -35.5 t87 -35.5q45 0 90 71z" />
<glyph unicode="&#x2260;" horiz-adv-x="590" d="M510 139h-231l-55 -139h-77l55 139h-122v92h159l36 92h-195v92h232l65 163h77l-65 -163h121v-92h-158l-36 -92h194v-92z" />
<glyph unicode="&#x2264;" horiz-adv-x="590" d="M512 86l-452 235v72l452 236v-123l-313 -149l313 -149v-122zM512 0h-452v72h452v-72z" />
<glyph unicode="&#x2265;" horiz-adv-x="590" d="M530 0h-452v72h452v-72zM530 321l-452 -235v122l313 149l-313 149v123l452 -236v-72z" />
<glyph unicode="&#x25ca;" horiz-adv-x="598" d="M299 123l134 219l-134 219l-136 -219q25 -36 67 -107.5t69 -111.5zM338 0h-78l-228 341l228 343h78l228 -342z" />
<glyph unicode="&#x25fc;" horiz-adv-x="485" d="M0 485h485v-485h-485v485z" />
<glyph unicode="&#xf700;" horiz-adv-x="547" d="M265 0h-106l-50 198q-5 23 -29 23h-37v104h73q42 0 66 -15.5t35 -57.5l37 -148h11q47 6 80.5 58t33.5 135t-38 127t-105 44q-108 0 -192 -73l-40 93q92 84 239 84q58 0 106 -22l42 49h143l-93 -111q68 -77 68 -192q0 -122 -72 -209t-172 -87z" />
<glyph unicode="&#xf701;" d="M-250 630h-379v98h379v-98z" />
<glyph unicode="&#xf702;" d="M-250 630h-379v98h263v95h116v-193z" />
<glyph unicode="&#xf703;" d="M-327 630h-302v98h199q0 45 30 75t73 30t73 -29t30 -73q0 -43 -30 -72t-73 -29zM-327 696q15 0 25 10.5t10 25.5q0 16 -10 26t-25 10t-25 -10t-10 -26q0 -15 10.5 -25.5t24.5 -10.5z" />
<glyph unicode="&#xf704;" d="M-250 630h-379v98h155v95h90v-100h44v100h90v-193z" />
<glyph unicode="&#xf705;" d="M-270 630h-120v194h120v-194z" />
<glyph unicode="&#xf706;" d="M-229 630h-193q-24 0 -38 13t-14 36v25q0 15 -14 15h-59v103h107q65 0 65 -56v-21q0 -15 14 -15h132v-100z" />
<glyph unicode="&#xf707;" d="M-293 630h-65l-7 17q9 11 9 39q0 32 -28 37l-42 -27l-50 24q-17 -7 -17 -34q0 -30 14 -58h-90q-23 35 -23 78q0 37 29.5 69t77.5 34l57 -42l51 44q44 -2 71 -32t27 -71q0 -17 -3 -26q27 31 27 98q0 25 -17 61h101q13 -29 13 -65q0 -59 -37.5 -102.5t-97.5 -43.5z" />
<glyph unicode="&#xf708;" d="M-234 715l-98 3l3 -88h-110l3 88l-98 -3v89l98 -3l-3 87h110l-3 -87l98 3v-89z" />
<glyph unicode="&#xf709;" d="M-244 702h-90q-29 0 -29 -30v-42h-126v59q0 55 34 85.5t99 30.5h112v-103z" />
<glyph unicode="&#xf70a;" d="M-70 630h-120v194h120v-194z" />
<glyph unicode="&#xf70b;" d="M-8 630h-220q-24 0 -38 13t-14 36v25q0 15 -14 15h-59v103h107q65 0 65 -56v-21q0 -15 14 -15h159v-100z" />
<glyph unicode="&#xf70c;" d="M-180 630h-65l-7 17q9 11 9 35q0 32 -28 37l-47 -27l-54 24q-21 -8 -21 -34t14 -54h-90q-23 35 -23 78q0 36 31 68.5t80 34.5l61 -42l56 44q44 -2 71 -32t27 -71q0 -17 -3 -26q27 31 27 98q0 25 -17 61h101q13 -29 13 -65q0 -59 -37.5 -102.5t-97.5 -43.5z" />
<glyph unicode="&#xf70d;" d="M-38 715l-98 3l3 -88h-110l3 88l-98 -3v89l98 -3l-3 87h110l-3 -87l98 3v-89z" />
<glyph unicode="&#xf70e;" d="M-20 702h-106q-29 0 -29 -30v-42h-126v59q0 55 34 85.5t99 30.5h128v-103z" />
<glyph unicode="&#xf70f;" horiz-adv-x="936" d="M741 207v353h130v-359q0 -213 -234 -213q-233 0 -233 213v147q0 59 -29.5 89.5t-80.5 30.5q-38 0 -71 -20t-48 -48l70 -57v-23q-49 -22 -49 -85v-117q0 -16 15 -16h58v-102h-88q-57 0 -86 29t-29 81v124q0 64 53 96l-81 66q22 71 93 123.5t166 52.5q112 0 174.5 -61.5 t62.5 -162.5v-141q0 -59 23.5 -87t79.5 -28t80 28t24 87z" />
<glyph unicode="&#xf710;" d="M-139 630h-236q-51 0 -82 27.5t-31 86.5v50h120v-43q0 -23 23 -23h206v-98z" />
<glyph unicode="&#xf711;" d="M-251 726q0 -47 -33 -79t-80 -32q-46 0 -79 32t-33 79t33 79t79 32q47 0 80 -32t33 -79zM-364 687q17 0 28 11.5t11 28.5t-11 28t-28 11q-15 0 -26.5 -11t-11.5 -28t11.5 -28.5t26.5 -11.5z" />
<glyph unicode="&#xf712;" d="M-251 630h-67q-53 0 -79 51q-26 -56 -92 -56q-60 0 -96 32t-36 90q0 52 39.5 89.5t108.5 37.5h221v-89h-218q-52 0 -52 -39q0 -18 12 -29.5t29 -11.5q20 0 33.5 12.5t17.5 31.5h63q8 -30 45 -30h71v-89z" />
<glyph unicode="&#xf713;" d="M-250 877h-116v164h116v-164z" />
<glyph unicode="&#xf714;" d="M-141 877h-197q-23 0 -37 13t-14 35v25q0 15 -14 15h-58v93h101q64 0 64 -55v-19q0 -15 14 -15h141v-92z" />
<glyph unicode="&#xf715;" d="M-213 877h-59l-6 15q8 11 8 33q0 29 -26 34l-47 -31l-48 28q-15 -5 -15 -31q0 -24 12 -50h-88q-20 32 -20 71q0 33 26 62.5t71 31.5l60 -45l56 46q40 -2 64 -29t24 -64q0 -19 -2 -24q25 26 25 89q0 24 -16 55h99q12 -26 12 -58q0 -53 -37.5 -93t-92.5 -40z" />
<glyph unicode="&#xf716;" d="M-169 947l-89 3l3 -73h-106l3 73l-89 -3v86l89 -3l-3 73h106l-3 -73l89 3v-86z" />
<glyph unicode="&#xf717;" d="M-198 842h-86q-26 0 -26 -27v-35h-119v53q0 50 31 78t90 28h110v-97z" />
<glyph unicode="&#xf718;" d="M-65 -465h-118v96q0 24 -24 24h-38v96h84q49 0 72.5 -21.5t23.5 -69.5v-125z" />
<glyph unicode="&#xf719;" d="M-65 -249v-112q0 -51 -39.5 -82t-110.5 -31t-109.5 31t-38.5 82v21h-58v91h170v-112q0 -32 36 -32t36 32v112h114z" />
<glyph unicode="&#xf71a;" d="M-47 -320q0 -32 -23.5 -55t-57.5 -23q-32 0 -56 23.5t-24 54.5q0 32 24 55.5t56 23.5q34 0 57.5 -23.5t23.5 -55.5z" />
<glyph unicode="&#xf71b;" horiz-adv-x="630" d="M565 -180h-136q-22 22 -56.5 37t-65.5 15q-85 0 -155 -58l-35 102q66 63 170 63q43 0 84.5 -16.5t63.5 -41.5v427q0 59 -32 89.5t-90 30.5q-42 0 -79 -20t-53 -48l78 -60v-22q-43 -23 -43 -83v-125q0 -52 -29 -81t-86 -29h-76v102h46q15 0 15 16v116q0 62 49 92l-91 70 q21 71 96.5 123.5t175.5 52.5q119 0 184 -61t65 -163v-528z" />
<glyph unicode="&#xf71c;" horiz-adv-x="630" d="M565 -180h-134l-97 61q-47 -69 -126 -69q-69 0 -119 29l33 102q46 -29 89 -29q85 0 105 80l119 -78v432q0 59 -32 89.5t-90 30.5q-42 0 -79 -20t-53 -48l78 -60v-22q-43 -23 -43 -83v-125q0 -52 -29 -81t-86 -29h-76v102h46q15 0 15 16v116q0 62 49 92l-91 70 q21 71 96.5 123.5t175.5 52.5q119 0 184 -61t65 -163v-528z" />
<glyph unicode="&#xf71d;" horiz-adv-x="686" d="M619 0h-142l-93 192q-27 57 -42 120h-2q-15 -63 -42 -120l-89 -192h-142v560h124v-249q0 -95 -16 -195h3q21 87 54 150l69 137h80l73 -137q33 -63 54 -150h3q-16 100 -16 195v26q0 32 -10.5 46t-33.5 14h-15l-20 48l106 154h130l-113 -145q39 -12 59.5 -44.5t20.5 -75.5 v-334z" />
<glyph horiz-adv-x="488" d="M423 0h-130v360q0 108 -90 108q-82 0 -166 -54l-33 93q99 65 210 65q101 0 155 -57.5t54 -158.5v-356zM-251 726q0 -47 -33 -79t-80 -32q-46 0 -79 32t-33 79t33 79t79 32q47 0 80 -32t33 -79zM-364 687q17 0 28 11.5t11 28.5t-11 28t-28 11q-15 0 -26.5 -11t-11.5 -28 t11.5 -28.5t26.5 -11.5z" />
<glyph d="M-270 710v-66q-35 -20 -76 -20q-126 0 -126 99q0 46 34.5 73.5t99.5 18.5q-21 17 -21 42q0 21 18 36t56 15h82l18 -71h-82q-12 0 -12 -15q0 -13 36 -30l-21 -47q-36 12 -69 12q-19 0 -32.5 -7.5t-13.5 -20.5q0 -14 12 -23t32 -9q32 0 65 13z" />
</font>
</defs>
</svg>
